<?xml version="1.0" encoding="iso-8859-1"?>
<!-- Generator: Adobe Illustrator 18.0.0, SVG Export Plug-In . SVG Version: 6.00 Build 0)  -->
<!DOCTYPE svg PUBLIC "-//W3C//DTD SVG 1.1//EN" "http://www.w3.org/Graphics/SVG/1.1/DTD/svg11.dtd">
<svg version="1.1" xmlns="http://www.w3.org/2000/svg" xmlns:xlink="http://www.w3.org/1999/xlink" x="0px" y="0px" width="64px"
	 height="64px" viewBox="0 0 64 64" style="enable-background:new 0 0 64 64;" xml:space="preserve">
<g id="align-center">
	<g>
		<path style="fill:#0D060E;" d="M11.5,8h41c2.209,0,4-1.791,4-4s-1.791-4-4-4h-41c-2.209,0-4,1.791-4,4S9.291,8,11.5,8z"/>
		<path style="fill:#0D060E;" d="M4,26.667h56c2.209,0,4-1.791,4-4s-1.791-4-4-4H4c-2.209,0-4,1.791-4,4S1.791,26.667,4,26.667z"/>
		<path style="fill:#0D060E;" d="M11.5,37.333c-2.209,0-4,1.791-4,4s1.791,4,4,4h41c2.209,0,4-1.791,4-4s-1.791-4-4-4H11.5z"/>
		<path style="fill:#0D060E;" d="M60,56H4c-2.209,0-4,1.791-4,4s1.791,4,4,4h56c2.209,0,4-1.791,4-4S62.209,56,60,56z"/>
	</g>
</g>
<g id="Layer_1">
</g>
</svg>
