<?xml version="1.0" encoding="iso-8859-1"?>
<!-- Generator: Adobe Illustrator 18.0.0, SVG Export Plug-In . SVG Version: 6.00 Build 0)  -->
<!DOCTYPE svg PUBLIC "-//W3C//DTD SVG 1.1//EN" "http://www.w3.org/Graphics/SVG/1.1/DTD/svg11.dtd">
<svg version="1.1" xmlns="http://www.w3.org/2000/svg" xmlns:xlink="http://www.w3.org/1999/xlink" x="0px" y="0px" width="64px"
	 height="64px" viewBox="0 0 64 64" style="enable-background:new 0 0 64 64;" xml:space="preserve">
<g id="align-right">
	<g>
		<path style="fill:#0D060E;" d="M60,56H20c-2.209,0-4,1.791-4,4c0,2.209,1.791,4,4,4h40c2.209,0,4-1.791,4-4
			C64,57.791,62.209,56,60,56z"/>
		<path style="fill:#0D060E;" d="M60,37.333H4c-2.209,0-4,1.791-4,4c0,2.209,1.791,4,4,4h56c2.209,0,4-1.791,4-4
			C64,39.124,62.209,37.333,60,37.333z"/>
		<path style="fill:#0D060E;" d="M60,18.667H20c-2.209,0-4,1.791-4,4c0,2.209,1.791,4,4,4h40c2.209,0,4-1.791,4-4
			C64,20.458,62.209,18.667,60,18.667z"/>
		<path style="fill:#0D060E;" d="M4,8h56c2.209,0,4-1.791,4-4c0-2.209-1.791-4-4-4L4,0C1.791,0,0,1.791,0,4C0,6.209,1.791,8,4,8z"/>
	</g>
</g>
<g id="Layer_1">
</g>
</svg>
