<?xml version="1.0" encoding="iso-8859-1"?>
<!-- Generator: Adobe Illustrator 18.0.0, SVG Export Plug-In . SVG Version: 6.00 Build 0)  -->
<!DOCTYPE svg PUBLIC "-//W3C//DTD SVG 1.1//EN" "http://www.w3.org/Graphics/SVG/1.1/DTD/svg11.dtd">
<svg version="1.1" xmlns="http://www.w3.org/2000/svg" xmlns:xlink="http://www.w3.org/1999/xlink" x="0px" y="0px" width="64px"
	 height="64px" viewBox="0 0 64 64" style="enable-background:new 0 0 64 64;" xml:space="preserve">
<g id="bold">
	<g>
		<g>
			<path style="fill:#0D060E;" d="M32.776,0c3.163,0,5.963,0.437,8.397,1.309c2.433,0.873,4.487,2.076,6.161,3.611
				c1.673,1.535,2.951,3.356,3.834,5.461c0.882,2.107,1.324,4.394,1.324,6.86c0,3.31-0.883,6.199-2.647,8.665
				c-1.765,2.468-4.016,4.152-6.755,5.055c1.582,0.361,3.058,0.993,4.427,1.896c1.369,0.903,2.57,2.002,3.606,3.295
				c1.034,1.295,1.855,2.784,2.464,4.468c0.607,1.685,0.913,3.52,0.913,5.506c0,2.588-0.472,4.98-1.415,7.176
				c-0.944,2.198-2.282,4.077-4.016,5.642c-1.735,1.566-3.834,2.798-6.299,3.701C40.306,63.549,37.552,64,34.51,64H9.5V0H32.776z
				 M30.859,26.448c2.921,0,5.187-0.722,6.8-2.166c1.612-1.444,2.419-3.399,2.419-5.867c0-2.467-0.776-4.408-2.328-5.822
				c-1.551-1.413-3.879-2.121-6.983-2.121h-8.854v15.977H30.859z M32.137,53.619c3.103,0,5.507-0.736,7.211-2.212
				c1.703-1.474,2.556-3.505,2.556-6.093c0-2.527-0.807-4.588-2.419-6.183c-1.613-1.594-4.002-2.392-7.165-2.392H21.914v16.88
				H32.137z"/>
		</g>
	</g>
</g>
<g id="Layer_1">
</g>
</svg>
