<?xml version="1.0" encoding="iso-8859-1"?>
<!-- Generator: Adobe Illustrator 18.0.0, SVG Export Plug-In . SVG Version: 6.00 Build 0)  -->
<!DOCTYPE svg PUBLIC "-//W3C//DTD SVG 1.1//EN" "http://www.w3.org/Graphics/SVG/1.1/DTD/svg11.dtd">
<svg version="1.1" xmlns="http://www.w3.org/2000/svg" xmlns:xlink="http://www.w3.org/1999/xlink" x="0px" y="0px" width="64px"
	 height="64px" viewBox="0 0 64 64" style="enable-background:new 0 0 64 64;" xml:space="preserve">
<g id="bulleted-list">
	<g>
		<circle style="fill:#0D060E;" cx="4.217" cy="3.969" r="3.969"/>
		<circle style="fill:#0D060E;" cx="4.217" cy="31.752" r="3.969"/>
		<circle style="fill:#0D060E;" cx="4.217" cy="60.031" r="3.969"/>
		<path style="fill:#0D060E;" d="M20.093,7.938h39.69c2.192,0,3.969-1.777,3.969-3.969C63.752,1.777,61.975,0,59.783,0h-39.69
			c-2.192,0-3.969,1.777-3.969,3.969C16.124,6.161,17.901,7.938,20.093,7.938z"/>
		<path style="fill:#0D060E;" d="M59.783,27.783h-39.69c-2.192,0-3.969,1.777-3.969,3.969c0,2.192,1.777,3.969,3.969,3.969h39.69
			c2.192,0,3.969-1.777,3.969-3.969C63.752,29.56,61.975,27.783,59.783,27.783z"/>
		<path style="fill:#0D060E;" d="M59.783,55.566h-39.69c-2.192,0-3.969,1.777-3.969,3.969c0,2.192,1.777,3.969,3.969,3.969h39.69
			c2.192,0,3.969-1.777,3.969-3.969C63.752,57.343,61.975,55.566,59.783,55.566z"/>
	</g>
</g>
<g id="Layer_1">
</g>
</svg>
