<?xml version="1.0" encoding="iso-8859-1"?>
<!-- Generator: Adobe Illustrator 18.0.0, SVG Export Plug-In . SVG Version: 6.00 Build 0)  -->
<!DOCTYPE svg PUBLIC "-//W3C//DTD SVG 1.1//EN" "http://www.w3.org/Graphics/SVG/1.1/DTD/svg11.dtd">
<svg version="1.1" xmlns="http://www.w3.org/2000/svg" xmlns:xlink="http://www.w3.org/1999/xlink" x="0px" y="0px" width="64px"
	 height="64px" viewBox="0 0 64 64" style="enable-background:new 0 0 64 64;" xml:space="preserve">
<g id="close">
	<path style="fill:#0D060E;" d="M37.028,32L62.958,6.069c1.389-1.388,1.389-3.64,0-5.028c-1.389-1.389-3.639-1.389-5.028,0
		L32,26.972L6.069,1.042c-1.387-1.389-3.641-1.389-5.028,0c-1.389,1.388-1.389,3.64,0,5.028L26.972,32L1.042,57.931
		c-1.389,1.389-1.389,3.639,0,5.028C1.735,63.653,2.646,64,3.556,64s1.82-0.347,2.514-1.042L32,37.028l25.931,25.931
		C58.625,63.653,59.535,64,60.444,64c0.91,0,1.819-0.347,2.514-1.042c1.389-1.389,1.389-3.639,0-5.028L37.028,32z"/>
</g>
<g id="Layer_1">
</g>
</svg>
