<?xml version="1.0" encoding="iso-8859-1"?>
<!-- Generator: Adobe Illustrator 19.2.1, SVG Export Plug-In . SVG Version: 6.00 Build 0)  -->
<svg version="1.1" id="Layer_1" xmlns="http://www.w3.org/2000/svg" xmlns:xlink="http://www.w3.org/1999/xlink" x="0px" y="0px"
	 viewBox="0 0 512 512" style="enable-background:new 0 0 512 512;" xml:space="preserve">
<g>
	<path style="fill:#010101;" d="M147.071,103.304c-14.191-10.533-34.234-7.566-44.767,6.625l-95,128
		c-8.406,11.325-8.406,26.817,0,38.143l95,128c6.279,8.46,15.937,12.931,25.721,12.931c6.628,0,13.314-2.052,19.046-6.306
		c14.191-10.533,17.158-30.576,6.625-44.768L72.851,257l80.845-108.929C164.229,133.88,161.263,113.837,147.071,103.304z"/>
	<path style="fill:#010101;" d="M504.696,239.929l-95-128c-10.533-14.19-30.575-17.158-44.768-6.625
		c-14.191,10.533-17.157,30.576-6.625,44.767L439.149,259l-80.846,108.929c-10.532,14.191-7.566,34.234,6.625,44.768
		c5.732,4.254,12.417,6.307,19.046,6.306c9.783-0.001,19.443-4.472,25.722-12.931l95-128
		C513.102,266.746,513.102,251.254,504.696,239.929z"/>
	<path style="fill:#010101;" d="M295.761,97.956c-17.145-4.284-34.519,6.139-38.805,23.283l-64,256
		c-4.287,17.146,6.138,34.519,23.283,38.806c2.606,0.651,5.216,0.963,7.786,0.963c14.337,0,27.385-9.707,31.02-24.247l64-256
		C323.331,119.616,312.906,102.242,295.761,97.956z"/>
</g>
</svg>
