<?xml version="1.0" encoding="iso-8859-1"?>
<!-- Generator: Adobe Illustrator 18.0.0, SVG Export Plug-In . SVG Version: 6.00 Build 0)  -->
<!DOCTYPE svg PUBLIC "-//W3C//DTD SVG 1.1//EN" "http://www.w3.org/Graphics/SVG/1.1/DTD/svg11.dtd">
<svg version="1.1" xmlns="http://www.w3.org/2000/svg" xmlns:xlink="http://www.w3.org/1999/xlink" x="0px" y="0px" width="64px"
	 height="64px" viewBox="0 0 64 64" style="enable-background:new 0 0 64 64;" xml:space="preserve">
<g id="h1">
	<g>
		<g>
			<g>
				<path style="fill:#0D060E;" d="M12.391,54.756H4.083V9.244h8.308v17.16c0.996-1.215,2.266-2.085,3.806-2.609
					c1.54-0.522,3.039-0.785,4.497-0.785c1.956,0,3.654,0.325,5.092,0.975c1.433,0.65,2.622,1.519,3.557,2.609
					c0.935,1.09,1.631,2.389,2.094,3.898c0.457,1.507,0.686,3.1,0.686,4.775v19.488h-8.308v-18.04c0-1.76-0.447-3.228-1.341-4.402
					c-0.894-1.171-2.343-1.76-4.34-1.76c-1.748,0-3.12,0.578-4.121,1.729c-0.996,1.154-1.54,2.589-1.621,4.307V54.756z"/>
			</g>
		</g>
		<path style="fill:#0D060E;" d="M49.444,54.659V26.137H37.515v-7.309c3.615-0.051,6.615-0.994,8.986-2.826
			c2.371-1.835,3.808-4.086,4.319-6.759h9.098v45.417H49.444z"/>
	</g>
</g>
<g id="Layer_1">
</g>
</svg>
