<?xml version="1.0" encoding="iso-8859-1"?>
<!-- Generator: Adobe Illustrator 18.0.0, SVG Export Plug-In . SVG Version: 6.00 Build 0)  -->
<!DOCTYPE svg PUBLIC "-//W3C//DTD SVG 1.1//EN" "http://www.w3.org/Graphics/SVG/1.1/DTD/svg11.dtd">
<svg version="1.1" xmlns="http://www.w3.org/2000/svg" xmlns:xlink="http://www.w3.org/1999/xlink" x="0px" y="0px" width="64px"
	 height="64px" viewBox="0 0 64 64" style="enable-background:new 0 0 64 64;" xml:space="preserve">
<g id="quote">
	<g>
		<g>
			<path style="fill:#0D060E;" d="M29.171,43.854c0,3.398-1.268,6.383-3.801,8.957c-2.536,2.576-5.864,3.864-9.989,3.864
				c-4.715,0-8.459-1.639-11.227-4.917C1.384,48.481,0,44.499,0,39.815c0-5.853,0.911-10.801,2.74-14.84
				c1.826-4.039,4.094-7.316,6.806-9.835c2.71-2.516,5.657-4.391,8.84-5.62s6.188-1.959,9.016-2.195v10.712
				c-3.419,0.588-6.63,2.138-9.635,4.654c-3.005,2.519-4.627,5.825-4.862,9.922c0.942-0.584,2.18-0.878,3.713-0.878
				c4.006,0,7.1,1.084,9.282,3.249C28.08,37.153,29.171,40.108,29.171,43.854z M64,43.854c0,3.398-1.268,6.383-3.801,8.957
				c-2.536,2.576-5.864,3.864-9.989,3.864c-4.715,0-8.459-1.639-11.227-4.917c-2.77-3.277-4.154-7.258-4.154-11.942
				c0-5.853,0.911-10.801,2.74-14.84c1.826-4.039,4.094-7.316,6.806-9.835c2.71-2.516,5.657-4.391,8.84-5.62
				c3.183-1.229,6.188-1.959,9.017-2.195v10.712c-3.42,0.588-6.63,2.138-9.636,4.654c-3.005,2.519-4.627,5.825-4.862,9.922
				c0.942-0.584,2.18-0.878,3.713-0.878c4.006,0,7.1,1.084,9.282,3.249C62.908,37.153,64,40.108,64,43.854z"/>
		</g>
	</g>
</g>
<g id="Layer_1">
</g>
</svg>
