<?xml version="1.0" encoding="iso-8859-1"?>
<!-- Generator: Adobe Illustrator 18.0.0, SVG Export Plug-In . SVG Version: 6.00 Build 0)  -->
<!DOCTYPE svg PUBLIC "-//W3C//DTD SVG 1.1//EN" "http://www.w3.org/Graphics/SVG/1.1/DTD/svg11.dtd">
<svg version="1.1" xmlns="http://www.w3.org/2000/svg" xmlns:xlink="http://www.w3.org/1999/xlink" x="0px" y="0px" width="64px"
	 height="64px" viewBox="0 0 64 64" style="enable-background:new 0 0 64 64;" xml:space="preserve">
<g id="remove">
	<g>
		<path style="fill:#0D060E;" d="M32,0C14.355,0,0,14.355,0,32s14.355,32,32,32s32-14.355,32-32S49.645,0,32,0z M32,58.182
			C17.563,58.182,5.818,46.437,5.818,32C5.818,17.563,17.563,5.818,32,5.818c14.436,0,26.182,11.745,26.182,26.182
			C58.182,46.437,46.436,58.182,32,58.182z"/>
		<path style="fill:#0D060E;" d="M35.894,31.713l9.005-9.005c1.136-1.136,1.136-2.978,0-4.114c-1.136-1.136-2.977-1.136-4.114,0
			l-9.005,9.005l-9.292-9.292c-1.135-1.136-2.979-1.136-4.114,0c-1.136,1.136-1.136,2.978,0,4.114l9.292,9.292L17.8,41.58
			c-1.136,1.136-1.136,2.978,0,4.114c0.568,0.568,1.312,0.852,2.057,0.852c0.744,0,1.489-0.284,2.057-0.852l9.867-9.867l9.579,9.579
			c0.568,0.568,1.312,0.852,2.057,0.852c0.744,0,1.489-0.284,2.057-0.852c1.136-1.136,1.136-2.978,0-4.114L35.894,31.713z"/>
	</g>
</g>
<g id="Layer_1">
</g>
</svg>
