<?xml version="1.0" encoding="iso-8859-1"?>
<!-- Generator: Adobe Illustrator 18.0.0, SVG Export Plug-In . SVG Version: 6.00 Build 0)  -->
<!DOCTYPE svg PUBLIC "-//W3C//DTD SVG 1.1//EN" "http://www.w3.org/Graphics/SVG/1.1/DTD/svg11.dtd">
<svg version="1.1" xmlns="http://www.w3.org/2000/svg" xmlns:xlink="http://www.w3.org/1999/xlink" x="0px" y="0px" width="64px"
	 height="64px" viewBox="0 0 64 64" style="enable-background:new 0 0 64 64;" xml:space="preserve">
<g id="strike">
	<path style="fill:#0D060E;" d="M64,28H42.149c-1.256-0.436-2.588-0.795-4.012-1.064l-8.56-1.642
		c-2.244-0.465-3.918-1.318-5.015-2.558c-1.09-1.241-1.639-2.699-1.639-4.37c0-1.043,0.232-2.023,0.689-2.946
		c0.464-0.923,1.111-1.748,1.948-2.467c0.83-0.726,1.843-1.304,3.025-1.734c1.182-0.437,2.49-0.648,3.932-0.648
		c1.955,0,3.615,0.289,4.966,0.867c1.358,0.571,2.469,1.297,3.327,2.164c0.865,0.867,1.519,1.804,1.948,2.812
		s0.732,1.952,0.907,2.812l10.719-3.291c-0.345-1.727-0.999-3.531-1.948-5.413c-0.949-1.875-2.286-3.587-4.016-5.152
		c-1.73-1.557-3.904-2.84-6.527-3.848C39.269,0.507,36.118,0,32.432,0c-2.884,0-5.62,0.493-8.215,1.473
		c-2.588,0.987-4.867,2.34-6.83,4.073c-1.956,1.734-3.496,3.764-4.621,6.104c-1.125,2.34-1.688,4.863-1.688,7.576
		c0,3.354,0.78,6.267,2.276,8.774H0v8h24.113c0.974,0.312,1.975,0.596,3.044,0.81l8.553,1.734c2.427,0.458,4.269,1.339,5.535,2.636
		c1.266,1.304,1.899,2.847,1.899,4.638c0,2.192-0.851,3.996-2.546,5.413c-1.702,1.417-4.164,2.121-7.393,2.121
		c-2.188,0-4.093-0.317-5.704-0.951c-1.611-0.634-2.968-1.487-4.059-2.558c-1.097-1.064-1.948-2.291-2.553-3.679
		c-0.605-1.388-0.964-2.826-1.076-4.327L8.75,44.774c0.225,2.199,0.865,4.433,1.899,6.717c1.034,2.277,2.546,4.342,4.537,6.188
		c1.991,1.854,4.452,3.369,7.393,4.546C25.518,63.408,29.028,64,33.122,64c3.573,0,6.724-0.55,9.46-1.642
		c2.736-1.099,5.043-2.523,6.914-4.285c1.878-1.762,3.299-3.785,4.283-6.068c0.978-2.277,1.47-4.602,1.47-6.97
		c0-2.135-0.38-4.186-1.125-6.146c-0.389-1.015-0.875-1.975-1.446-2.889H64V28z"/>
</g>
<g id="Layer_1">
</g>
</svg>
