<?xml version="1.0" encoding="utf-8"?>
<!-- Generated by IcoMoon.io -->
<!DOCTYPE svg PUBLIC "-//W3C//DTD SVG 1.1//EN" "http://www.w3.org/Graphics/SVG/1.1/DTD/svg11.dtd">
<svg version="1.1" xmlns="http://www.w3.org/2000/svg" xmlns:xlink="http://www.w3.org/1999/xlink" width="512" height="512" viewBox="0 0 512 512">
<path class="lexicon-icon-outline" d="M512.015 97.213c-18.842 8.368-39.089 14.015-60.332 16.531 21.68-12.991 38.358-33.589 46.2-58.108-20.306 12.026-42.776 20.774-66.71 25.485-19.164-20.423-46.462-33.179-76.688-33.179-58.020 0-105.039 47.048-105.039 105.039 0 8.222 0.936 16.238 2.721 23.934-87.308-4.389-164.698-46.2-216.516-109.749-9.041 15.508-14.22 33.559-14.22 52.812 0 36.457 18.55 68.612 46.727 87.425-17.234-0.556-33.414-5.267-47.575-13.137 0 0.439 0 0.877 0 1.317 0 50.91 36.222 93.336 84.266 102.99-8.807 2.399-18.082 3.687-27.679 3.687-6.759 0-13.343-0.673-19.779-1.901 13.371 41.723 52.169 72.123 98.135 72.942-35.959 28.176-81.252 44.971-130.465 44.971-8.486 0-16.853-0.498-25.046-1.464 46.493 29.815 101.704 47.195 161.041 47.195 193.226 0 298.879-160.075 298.879-298.879 0-4.565-0.117-9.070-0.293-13.576 20.481-14.776 38.3-33.267 52.374-54.334v0z"></path>
</svg>