<?xml version="1.0" encoding="iso-8859-1"?>
<!-- Generator: Adobe Illustrator 18.0.0, SVG Export Plug-In . SVG Version: 6.00 Build 0)  -->
<!DOCTYPE svg PUBLIC "-//W3C//DTD SVG 1.1//EN" "http://www.w3.org/Graphics/SVG/1.1/DTD/svg11.dtd">
<svg version="1.1" xmlns="http://www.w3.org/2000/svg" xmlns:xlink="http://www.w3.org/1999/xlink" x="0px" y="0px" width="64px"
	 height="64px" viewBox="0 0 64 64" style="enable-background:new 0 0 64 64;" xml:space="preserve">
<g id="underline">
	<g>
		<g>
			<rect x="12.088" y="56" style="fill:#0D060E;" width="39.912" height="8"/>
			<path style="fill:#0D060E;" d="M31.923,51c-2.783,0-5.388-0.398-7.801-1.196c-2.42-0.796-4.517-1.992-6.299-3.587
				c-1.782-1.594-3.194-3.564-4.243-5.908C12.524,37.964,12,35.268,12,32.217V0h10.108v31.515c0,3.283,0.882,5.768,2.634,7.457
				c1.758,1.689,4.154,2.53,7.181,2.53c3.075,0,5.489-0.842,7.247-2.53c1.758-1.689,2.64-4.173,2.64-7.457V0h10.102v32.217
				c0,3.051-0.524,5.748-1.573,8.092s-2.467,4.314-4.249,5.908c-1.782,1.594-3.892,2.791-6.335,3.587
				C37.317,50.602,34.707,51,31.923,51z"/>
		</g>
	</g>
</g>
<g id="Layer_1">
</g>
</svg>
