<?xml version="1.0" standalone="no"?> 
<!DOCTYPE svg PUBLIC "-//W3C//DTD SVG 1.1//EN" "http://www.w3.org/Graphics/SVG/1.1/DTD/svg11.dtd" >
<svg xmlns="http://www.w3.org/2000/svg">
<defs>
  <font id="alloyeditor-atlas" horiz-adv-x="512">
    <font-face font-family="alloyeditor-atlas"
      units-per-em="513" ascent="513"
      descent="0" />
    <missing-glyph horiz-adv-x="0" />
    <glyph glyph-name="add"
      unicode="&#xEA01;"
      horiz-adv-x="513" d=" M489.682546875 282.735140625H288.5625V489.682546875C288.5625 502.555640625 278.118140625 513 265.245046875 513C252.3639375 513 241.9275937500001 502.555640625 241.9275937500001 489.682546875V282.735140625H23.317453125C10.444359375 282.735140625 0 272.29078125 0 259.4176875C0 246.536578125 10.444359375 236.100234375 23.317453125 236.100234375H241.92759375V23.32546875C241.92759375 10.444359375 252.371953125 0.008015625 265.245046875 0.008015625C278.118140625 0 288.5625 10.444359375 288.5625 23.317453125V236.100234375H489.682546875C502.56365625 236.100234375 513 246.54459375 513 259.4176875C513 272.29078125 502.555640625 282.735140625 489.682546875 282.735140625z" />
    <glyph glyph-name="align-center"
      unicode="&#xEA02;"
      horiz-adv-x="513" d=" M92.1796875 448.875H420.8203125C438.526828125 448.875 452.8828125 463.230984375 452.8828125 480.9375S438.526828125 513 420.8203125 513H92.1796875C74.473171875 513 60.1171875 498.644015625 60.1171875 480.9375S74.473171875 448.875 92.1796875 448.875z M32.0625 299.247328125H480.9375C498.644015625 299.247328125 513 313.6033125 513 331.309828125S498.644015625 363.372328125 480.9375 363.372328125H32.0625C14.355984375 363.372328125 0 349.01634375 0 331.309828125S14.355984375 299.247328125 32.0625 299.247328125z M92.1796875 213.752671875C74.473171875 213.752671875 60.1171875 199.3966875000001 60.1171875 181.690171875S74.473171875 149.627671875 92.1796875 149.627671875H420.8203125C438.526828125 149.627671875 452.8828125 163.98365625 452.8828125 181.690171875S438.526828125 213.752671875 420.8203125 213.752671875H92.1796875z M480.9375 64.125H32.0625C14.355984375 64.125 0 49.769015625 0 32.0625S14.355984375 0 32.0625 0H480.9375C498.644015625 0 513 14.355984375 513 32.0625S498.644015625 64.125 480.9375 64.125z" />
    <glyph glyph-name="align-justified"
      unicode="&#xEA03;"
      horiz-adv-x="513" d=" M32.0625 448.875H480.9375C498.644015625 448.875 513 463.230984375 513 480.9375C513 498.644015625 498.644015625 513 480.9375 513H32.0625C14.355984375 513 0 498.644015625 0 480.9375C0 463.230984375 14.355984375 448.875 32.0625 448.875z M480.9375 363.372328125H32.0625C14.355984375 363.372328125 0 349.01634375 0 331.309828125C0 313.6033125 14.355984375 299.247328125 32.0625 299.247328125H480.9375C498.644015625 299.247328125 513 313.6033125 513 331.309828125C513 349.024359375 498.644015625 363.372328125 480.9375 363.372328125z M480.9375 213.752671875H32.0625C14.355984375 213.752671875 0 199.3966875000001 0 181.690171875C0 163.98365625 14.355984375 149.627671875 32.0625 149.627671875H480.9375C498.644015625 149.627671875 513 163.98365625 513 181.690171875C513 199.3966875 498.644015625 213.752671875 480.9375 213.752671875z M480.9375 64.125H32.0625C14.355984375 64.125 0 49.769015625 0 32.0625C0 14.355984375 14.355984375 0 32.0625 0H480.9375C498.644015625 0 513 14.355984375 513 32.0625C513 49.769015625 498.644015625 64.125 480.9375 64.125z" />
    <glyph glyph-name="align-left"
      unicode="&#xEA04;"
      horiz-adv-x="513" d=" M32.0625 448.875H352.6875C370.394015625 448.875 384.75 463.230984375 384.75 480.9375C384.75 498.644015625 370.394015625 513 352.6875 513H32.0625C14.355984375 513 0 498.644015625 0 480.9375C0 463.230984375 14.355984375 448.875 32.0625 448.875z M32.0625 299.247328125H480.9375C498.644015625 299.247328125 513 313.6033125 513 331.309828125C513 349.01634375 498.644015625 363.372328125 480.9375 363.372328125H32.0625C14.355984375 363.372328125 0 349.01634375 0 331.309828125C0 313.6033125 14.355984375 299.247328125 32.0625 299.247328125z M32.0625 149.627671875H352.6875C370.394015625 149.627671875 384.75 163.98365625 384.75 181.690171875C384.75 199.3966875000001 370.394015625 213.752671875 352.6875 213.752671875H32.0625C14.355984375 213.752671875 0 199.3966875000001 0 181.690171875C0 163.98365625 14.355984375 149.627671875 32.0625 149.627671875z M480.9375 64.125H32.0625C14.355984375 64.125 0 49.769015625 0 32.0625C0 14.355984375 14.355984375 0 32.0625 0H480.9375C498.644015625 0 513 14.355984375 513 32.0625C513 49.769015625 498.644015625 64.125 480.9375 64.125z" />
    <glyph glyph-name="align-right"
      unicode="&#xEA05;"
      horiz-adv-x="513" d=" M480.9375 64.125H160.3125C142.605984375 64.125 128.25 49.769015625 128.25 32.0625C128.25 14.355984375 142.605984375 0 160.3125 0H480.9375C498.644015625 0 513 14.355984375 513 32.0625C513 49.769015625 498.644015625 64.125 480.9375 64.125z M480.9375 213.752671875H32.0625C14.355984375 213.752671875 0 199.3966875000001 0 181.690171875C0 163.98365625 14.355984375 149.627671875 32.0625 149.627671875H480.9375C498.644015625 149.627671875 513 163.98365625 513 181.690171875C513 199.3966875 498.644015625 213.752671875 480.9375 213.752671875z M480.9375 363.372328125H160.3125C142.605984375 363.372328125 128.25 349.01634375 128.25 331.309828125C128.25 313.6033125 142.605984375 299.247328125 160.3125 299.247328125H480.9375C498.644015625 299.247328125 513 313.6033125 513 331.309828125C513 349.0163437500001 498.644015625 363.372328125 480.9375 363.372328125z M32.0625 448.875H480.9375C498.644015625 448.875 513 463.230984375 513 480.9375C513 498.644015625 498.644015625 513 480.9375 513L32.0625 513C14.355984375 513 0 498.644015625 0 480.9375C0 463.230984375 14.355984375 448.875 32.0625 448.875z" />
    <glyph glyph-name="arrow"
      unicode="&#xEA06;"
      horiz-adv-x="513" d=" M392.404921875 333.4500000000001H118.83965625C86.32828125 333.4500000000001 78.53709375 351.637453125 101.52590625 373.86478125L238.30453125 506.098546875C247.82709375 515.3085 263.4094687500001 515.3085 272.93203125 506.098546875L409.71065625 373.86478125C432.707484375 351.637453125 424.916296875 333.4500000000001 392.404921875 333.4500000000001z M118.83965625 179.55H392.3969062500001C424.90828125 179.55 432.69946875 161.362546875 409.7106562500001 139.13521875L272.940046875 6.901453125C263.417484375 -2.3085 247.835109375 -2.3085 238.312546875 6.901453125L101.52590625 139.13521875C78.53709375 161.362546875 86.32828125 179.55 118.83965625 179.55z" />
    <glyph glyph-name="audio"
      unicode="&#xEA07;"
      horiz-adv-x="513" d=" M400.78125 480.9375H208.40625C173.1375 480.9375 144.28125 452.08125 144.28125 416.8125V408.796875V320.625V190.768869140625C139.10115234375 191.820919921875 133.740703125 192.375 128.25 192.375C83.980705078125 192.375 48.09375 156.488044921875 48.09375 112.21875C48.09375 67.949455078125 83.980705078125 32.0625 128.25 32.0625S208.40625 67.949455078125 208.40625 112.21875C208.40625 114.9240234375 208.26798046875 117.597234375 208.006470703125 120.234375H208.40625V320.625H400.78125V222.831369140625C395.60115234375 223.883419921875 390.2407031250001 224.4375 384.75 224.4375C340.4807050781251 224.4375 304.59375 188.550544921875 304.59375 144.28125C304.59375 100.011955078125 340.4807050781251 64.125 384.75 64.125S464.90625 100.011955078125 464.90625 144.28125C464.90625 146.9865234375 464.76798046875 149.659734375 464.506470703125 152.296875H464.90625V320.625V384.75V416.8125C464.90625 452.08125 436.05 480.9375 400.78125 480.9375z" />
    <glyph glyph-name="bin"
      unicode="&#xEA08;"
      horiz-adv-x="384" d=" M0 71.4C0 32 32 0 71.4 0H312.5C351.9 0 383.9 32 383.9 71.4V384H0V71.4zM64 320H320V87.8C320 74.7 309.3 64 296.2 64H87.8C74.7 64 64 74.7 64 87.8V320z M288 480L288 513L96 513L96 480L0 480L0 416.7L384 416.7L384 480z M224 289H288V97H224V289z M96 289H160V97H96V289z" />
    <glyph glyph-name="bold"
      unicode="&#xEA09;"
      horiz-adv-x="513" d=" M262.7201250000001 513C288.073546875 513 310.5172968750001 509.497171875 330.027328125 502.507546875C349.52934375 495.50990625 365.9934375000001 485.867109375 379.41159375 473.563125C392.8217343750001 461.259140625 403.0657031250001 446.6626875 410.1435000000001 429.789796875C417.21328125 412.900875 420.7561875 394.569140625 420.7561875 374.802609375C420.7561875 348.270890625 413.678390625 325.11375 399.5388281250001 305.34721875C385.3912500000001 285.56465625 367.3480781250001 272.06634375 345.3932812500001 264.828234375C358.074 261.93459375 369.9050625000001 256.8687187500001 380.878453125 249.630609375C391.85184375 242.3925000000001 401.478609375 233.583328125 409.7827968750001 223.219125C418.070953125 212.838890625 424.65178125 200.903625 429.533296875 187.4053125C434.39878125 173.898984375 436.8515625 159.1903125 436.8515625 143.27128125C436.8515625 122.52684375 433.0681875 103.3534687499999 425.509453125 85.75115625C417.942703125 68.1328124999999 407.217796875 53.071453125 393.318703125 40.5269999999999C379.41159375 27.9745312499999 362.586796875 18.0992812499999 342.8282812500001 10.8611718749999C323.07778125 3.615046875 301.00275 0 276.61921875 0H76.1484375V513H262.7201250000001zM247.354171875 301.00275C270.7678125 301.00275 288.93121875 306.79003125 301.860421875 318.3645937500001C314.781609375 329.93915625 321.25021875 345.609703125 321.25021875 365.392265625C321.25021875 385.1668125 315.03009375 400.725140625 302.58984375 412.059234375C290.157609375 423.3853125 271.497234375 429.060375 246.616734375 429.060375H175.646390625V300.994734375H247.354171875zM257.598140625 83.210203125C282.4706250000001 83.210203125 301.7401875 89.109703125 315.3988125 100.940765625C329.049421875 112.755796875 335.88675 129.0355312500001 335.88675 149.7799687500001C335.88675 170.0354531250001 329.418140625 186.5556562500001 316.496953125 199.340578125C303.56775 212.1174843750001 284.418421875 218.5139531250001 259.065 218.5139531250001H175.65440625V83.2102031250001H257.598140625z" />
    <glyph glyph-name="bulleted-list"
      unicode="&#xEA0A;"
      horiz-adv-x="513" d=" M1.987875 481.185984375C1.987875 463.6155887144339 16.2314949644339 449.37196875 33.801890625 449.37196875C51.3722862855661 449.37196875 65.61590625 463.6155887144339 65.61590625 481.185984375C65.61590625 498.7563800355661 51.3722862855661 513 33.801890625 513C16.2314949644339 513 1.987875 498.7563800355661 1.987875 481.185984375z M1.987875 258.4878750000001C1.987875 240.917479339434 16.2314949644339 226.673859375 33.801890625 226.673859375C51.3722862855661 226.673859375 65.61590625 240.917479339434 65.61590625 258.4878750000001C65.61590625 276.0582706605661 51.3722862855661 290.3018906250001 33.801890625 290.3018906250001C16.2314949644339 290.3018906250001 1.987875 276.0582706605661 1.987875 258.4878750000001z M1.987875 31.814015625C1.987875 14.2436199644339 16.2314949644339 0 33.801890625 0C51.3722862855661 0 65.61590625 14.2436199644339 65.61590625 31.814015625C65.61590625 49.3844112855661 51.3722862855661 63.62803125 33.801890625 63.62803125C16.2314949644339 63.62803125 1.987875 49.3844112855661 1.987875 31.814015625z M161.057953125 449.37196875H479.198109375C496.768359375 449.37196875 511.012125 463.615734375 511.012125 481.185984375C511.012125 498.756234375 496.768359375 513 479.198109375 513H161.0579531250001C143.487703125 513 129.2439375 498.756234375 129.2439375 481.185984375C129.2439375 463.615734375 143.487703125 449.37196875 161.057953125 449.37196875z M479.198109375 290.301890625H161.0579531250001C143.487703125 290.301890625 129.2439375 276.058125 129.2439375 258.487875C129.2439375 240.917625 143.487703125 226.673859375 161.0579531250001 226.673859375H479.198109375C496.768359375 226.673859375 511.012125 240.917625 511.012125 258.487875C511.012125 276.058125 496.768359375 290.301890625 479.198109375 290.301890625z M479.198109375 67.60378125H161.0579531250001C143.487703125 67.60378125 129.2439375 53.360015625 129.2439375 35.789765625C129.2439375 18.219515625 143.487703125 3.9757499999999 161.0579531250001 3.9757499999999H479.198109375C496.768359375 3.9757499999999 511.012125 18.219515625 511.012125 35.789765625C511.012125 53.360015625 496.768359375 67.60378125 479.198109375 67.60378125z" />
    <glyph glyph-name="camera"
      unicode="&#xEA0B;"
      horiz-adv-x="513" d=" M181.0569375 433.08421875C181.0569375 448.76278125 168.2319375 461.595796875 152.545359375 461.595796875H76.092328125C60.413765625 461.595796875 47.58075 448.770796875 47.58075 433.08421875V410.4H181.0569375V433.08421875z M455.519953125 389.47921875H448.337953125H441.155953125H422.479546875V434.8636875000001C422.479546875 461.756109375 400.47665625 483.767015625 373.584234375 483.767015625H242.4245625C215.532140625 483.767015625 193.521234375 461.764125 193.521234375 434.8636875000001V389.47921875H168.127734375H57.480046875C25.786265625 389.47921875 0 363.6929531250001 0 331.999171875V86.71303125C0 55.01925 25.786265625 29.232984375 57.480046875 29.232984375H103.4656875H394.44890625H455.519953125C487.213734375 29.232984375 513 55.01925 513 86.71303125V331.999171875C513 363.6929531250001 487.213734375 389.47921875 455.519953125 389.47921875zM90.52846875 270.647578125C73.863984375 270.647578125 60.349640625 284.161921875 60.349640625 300.82640625S73.85596875 331.005234375 90.52846875 331.005234375S120.707296875 317.490890625 120.707296875 300.82640625S107.192953125 270.647578125 90.52846875 270.647578125zM316.849640625 59.4118125C241.8554531250001 59.4118125 181.0569375 120.210328125 181.0569375 195.204515625S241.8554531250001 330.99721875 316.849640625 330.99721875S452.64234375 270.198703125 452.64234375 195.204515625S391.85184375 59.4118125 316.849640625 59.4118125z M241.4065781250001 195.21253125C241.4065781250001 153.5464783507186 275.1835877257186 119.76946875 316.849640625 119.76946875C358.5156935242815 119.76946875 392.292703125 153.5464783507186 392.292703125 195.21253125C392.292703125 236.8785841492814 358.5156935242815 270.65559375 316.849640625 270.65559375C275.1835877257186 270.65559375 241.4065781250001 236.8785841492814 241.4065781250001 195.21253125z" />
    <glyph glyph-name="cell"
      unicode="&#xEA0C;"
      horiz-adv-x="513" d=" M456.000890625 513H56.999109375C25.561828125 513 0 487.43015625 0 456.000890625V56.9991093750001C0 25.56984375 25.561828125 0 56.999109375 0H456.000890625C487.438171875 0 513 25.56984375 513 56.999109375V456.000890625C513 487.43015625 487.438171875 513 456.000890625 513zM299.247328125 156.7535625V57.007125H213.752671875V156.7535625H299.247328125zM56.999109375 313.499109375H156.745546875V213.752671875H56.999109375V313.499109375zM213.752671875 370.49821875V456.000890625H299.25534375V370.49821875H213.752671875zM356.2464375 313.499109375H456.00890625L456.016921875 213.752671875H356.2464375V313.499109375zM456.00890625 370.49821875H356.2464375V456.000890625H455.992875L456.00890625 370.49821875zM156.7535625 456.000890625V370.49821875H56.999109375V456.000890625H156.7535625zM56.999109375 156.7535625H156.745546875V57.007125H56.999109375V156.7535625zM356.2464375 56.999109375V156.7535625H456.0249375L456.032953125 57.007125H356.2464375z" />
    <glyph glyph-name="close"
      unicode="&#xEA0D;"
      horiz-adv-x="513" d=" M296.8025625 256.5L504.64771875 464.353171875C515.781421875 475.478859375 515.781421875 493.530046875 504.64771875 504.655734375C493.514015625 515.7894375 475.478859375 515.7894375 464.34515625 504.655734375L256.5 296.8025625L48.646828125 504.64771875C37.52915625 515.781421875 19.4619375 515.781421875 8.344265625 504.64771875C-2.7894375 493.52203125 -2.7894375 475.47084375 8.344265625 464.34515625L216.1974375 256.5L8.35228125 48.646828125C-2.781421875 37.513125 -2.781421875 19.47796875 8.35228125 8.344265625C13.907109375 2.781421875 21.20934375 0 28.5035625 0S43.092 2.781421875 48.65484375 8.35228125L256.5 216.1974375L464.353171875 8.344265625C469.916015625 2.781421875 477.210234375 0 484.4964375 0C491.79065625 0 499.076859375 2.781421875 504.64771875 8.35228125C515.7814218750001 19.485984375 515.7814218750001 37.521140625 504.64771875 48.65484375L296.8025625 256.5z" />
    <glyph glyph-name="code"
      unicode="&#xEA0E;"
      horiz-adv-x="513" d=" M503.597671875 279.69721875C502.715953125 280.5789375 501.561703125 280.923609375 500.60784375 281.677078125L374.706421875 407.586515625C362.169984375 420.122953125 341.8583906250001 420.122953125 329.321953125 407.586515625C316.785515625 395.05809375 316.785515625 374.73046875 329.321953125 362.202046875L435.015984375 256.5L329.3139375 150.80596875C316.7775000000001 138.277546875 316.7775000000001 117.9579375 329.3139375 105.4215C335.5821562500001 99.15328125 343.7981718750001 96.019171875 352.0061718750001 96.019171875C360.2221875 96.019171875 368.4301875000001 99.15328125 374.6984062500001 105.4215L503.5896562500001 234.31275C516.1341093750001 246.841171875 516.1341093750001 267.168796875 503.597671875 279.69721875z M9.402328125 233.30278125C10.284046875 232.4210625 11.438296875 232.0763906250001 12.39215625 231.322921875L138.30159375 105.4134843750001C150.83803125 92.877046875 171.149625 92.877046875 183.6860625 105.4134843750001C196.2225 117.9419062500001 196.2225 138.26953125 183.6860625 150.797953125L77.984015625 256.5L183.678046875 362.19403125C196.214484375 374.722453125 196.214484375 395.0420625 183.678046875 407.5785C177.409828125 413.84671875 169.1938125 416.980828125 160.9858125 416.980828125C152.769796875 416.980828125 144.561796875 413.84671875 138.293578125 407.5785L9.402328125 278.68725C-3.134109375 266.158828125 -3.134109375 245.831203125 9.402328125 233.30278125z" />
    <glyph glyph-name="column"
      unicode="&#xEA0F;"
      horiz-adv-x="513" d=" M456.000890625 513H56.999109375C25.561828125 513 0 487.43015625 0 456.000890625V56.9991093750001C0 25.56984375 25.561828125 0 56.999109375 0H456.000890625C487.438171875 0 513 25.56984375 513 56.999109375V456.000890625C513 487.43015625 487.438171875 513 456.000890625 513zM56.999109375 313.499109375H156.745546875V213.752671875H56.999109375V313.499109375zM356.2464375 313.499109375H456.00890625L456.016921875 213.752671875H356.2464375V313.499109375zM456.00890625 370.49821875H356.2464375V456.000890625H455.992875L456.00890625 370.49821875zM156.7535625 456.000890625V370.49821875H56.999109375V456.000890625H156.7535625zM56.999109375 156.7535625H156.745546875V57.007125H56.999109375V156.7535625zM356.2464375 56.999109375V156.7535625H456.0249375L456.032953125 57.007125H356.2464375z" />
    <glyph glyph-name="embed"
      unicode="&#xEA10;"
      horiz-adv-x="513" d=" M147.358248046875 409.494234375C133.13953125 420.0478066406251 113.057384765625 417.0750117187501 102.5038125 402.856294921875L7.318265625 274.606294921875C-1.10415234375 263.25917578125 -1.10415234375 247.73691796875 7.318265625 236.3887968750001L102.5038125 108.138796875C108.795076171875 99.6622734375 118.471939453125 95.182541015625 128.275048828125 95.182541015625C134.915994140625 95.182541015625 141.615052734375 97.238548828125 147.358248046875 101.500857421875C161.57696484375 112.0544296875 164.549759765625 132.136576171875 153.9961875 146.356294921875L72.993287109375 255.498046875L153.9961875 364.639798828125C164.549759765625 378.858515625 161.577966796875 398.940662109375 147.358248046875 409.494234375z M505.681734375 272.602388671875L410.4961875 400.852388671875C399.942615234375 415.070103515625 379.8614707031251 418.0439003906251 365.6407500000001 407.490328125C351.422033203125 396.936755859375 348.4502402343751 376.854609375 359.0028105468751 362.635892578125L440.006712890625 253.494140625L359.0028105468751 144.352388671875C348.4502402343751 130.1336718750001 351.422033203125 110.0515253906251 365.6407500000001 99.496951171875C371.3839453125001 95.234642578125 378.082001953125 93.1776328125 384.72394921875 93.178634765625C394.5260566406251 93.17963671875 404.204923828125 97.659369140625 410.4961875 106.134890625L505.681734375 234.3848906250001C514.10415234375 245.73301171875 514.10415234375 261.25526953125 505.681734375 272.602388671875z M296.338658203125 414.8526796875C279.1601718750001 419.145046875 261.75223828125 408.7016894531251 257.4578671875001 391.524205078125L193.3328671875 135.024205078125C189.037494140625 117.8447167968749 199.48285546875 100.43778515625 216.661341796875 96.142412109375C219.272431640625 95.490140625 221.8875292968751 95.17753125 224.462548828125 95.17753125C238.82755078125 95.17753125 251.9010351562501 104.9034902343749 255.5431347656251 119.471888671875L319.6681347656251 375.971888671875C323.9625058593751 393.150375 313.51714453125 410.55830859375 296.338658203125 414.8526796875z" />
    <glyph glyph-name="h1"
      unicode="&#xEA11;"
      horiz-adv-x="513" d=" M99.321609375 74.0964375H32.727796875V438.9035625H99.321609375V301.3554375C107.305171875 311.094421875 117.485015625 318.0680156250001 129.829078125 322.268203125C142.173140625 326.452359375 154.1885625 328.56046875 165.87534375 328.56046875C181.55390625 328.56046875 195.1644375 325.955390625 206.69090625 320.745234375C218.177296875 315.535078125 227.707875 308.5695 235.202484375 299.83246875C242.69709375 291.0954375 248.27596875 280.683140625 251.987203125 268.5875625C255.65034375 256.508015625 257.485921875 243.739125 257.485921875 230.312953125V74.104453125H190.892109375V218.706328125C190.892109375 232.813828125 187.309125 244.580765625 180.14315625 253.991109375C172.9771875 263.37740625 161.362546875 268.098609375 145.35534375 268.098609375C131.34403125 268.098609375 120.34659375 263.465578125 112.322953125 254.23959375C104.339390625 244.9895624999999 99.978890625 233.487140625 99.329625 219.716296875V74.0964375z M396.3245625 74.873953125V303.495609375H300.706171875V362.0818125C329.6826562500001 362.490609375 353.7295312500001 370.04934375 372.7345781250001 384.7339687500001C391.7396250000001 399.442640625 403.2580781250001 417.4858125 407.3540625000001 438.911578125H480.2802187500001V74.8659375H396.3245625z" />
    <glyph glyph-name="h2"
      unicode="&#xEA12;"
      horiz-adv-x="513" d=" M66.5938125 74.0964375H0V438.9035625H66.5938125V301.3554375C74.577375 311.094421875 84.75721875 318.0680156250001 97.10128125 322.268203125C109.44534375 326.452359375 121.460765625 328.56046875 133.147546875 328.56046875C148.826109375 328.56046875 162.436640625 325.955390625 173.963109375 320.745234375C185.4495 315.535078125 194.980078125 308.5695 202.4746875 299.83246875C209.969296875 291.0954375 215.548171875 280.683140625 219.25940625 268.5875625C222.922546875 256.508015625 224.758125 243.739125 224.758125 230.312953125V74.104453125H158.1643125V218.706328125C158.1643125 232.813828125 154.581328125 244.580765625 147.415359375 253.991109375C140.249390625 263.37740625 128.63475 268.098609375 112.6355625 268.098609375C98.62425 268.098609375 87.6268125 263.465578125 79.603171875 254.23959375C71.619609375 244.9895624999999 67.259109375 233.487140625 66.60984375 219.716296875V74.0964375z M277.781484375 276.6673125C277.13221875 279.007875 276.515015625 282.366421875 276.034078125 286.7349375C275.545125 291.103453125 275.30465625 295.303640625 275.30465625 299.31946875C275.30465625 313.7716406250001 277.9498125 327.5505 283.28821875 340.656046875S296.321625 365.3441718750001 306.34115625 375.40378125C316.320609375 385.4874375 328.664671875 393.55115625 343.365328125 399.5949375C358.02590625 405.646734375 374.89078125 408.6606093750001 393.911859375 408.6606093750001C411.914953125 408.6606093750001 428.21071875 405.8070468750001 442.7029687499999 400.1079375C457.2032343749999 394.38478125 469.547296875 386.7378750000001 479.7271406249999 377.16721875C489.9069843749999 367.61259375 497.6901562499999 356.4388125000001 503.0285624999999 343.669921875S511.0121249999999 317.46684375 511.0121249999999 303.35934375C511.0121249999999 282.19809375 505.5134062499999 263.1369375 494.5159687499999 246.175875C483.4784531249999 229.19878125 468.0002812499999 214.498125 447.9612187499999 202.07390625L385.3992656249999 163.7992968750001C379.0428749999999 159.7594218750001 373.464 155.39090625 368.6145468749999 150.701765625C363.8051718749999 145.988578125 360.0217968749999 140.4497812500001 357.3766406249999 134.077359375H513V74.104453125H272.77171875C272.77171875 88.54059375 274.11834375 102.2312812500001 276.803578125 115.1685C279.448734375 128.081671875 283.689 140.4497812500001 289.5484218750001 152.192671875C295.37578125 163.959609375 303.1509375000001 174.94903125 312.8017500000001 185.201015625C322.4926406250001 195.453 334.676390625 204.92746875 349.33696875 213.68053125L402.897375 245.911359375C416.9086875 254.31975 426.8480625000001 262.9686093750001 432.66740625 271.8659531250001C438.494765625 280.7632968750001 441.42046875 290.9351250000001 441.42046875 302.349375C441.42046875 314.10028125 437.34853125 324.512578125 429.164578125 333.59428125C420.980625 342.659953125 408.71671875 347.1887812500001 392.388890625 347.1887812500001C375.0350625 347.1887812500001 362.12990625 341.9786250000001 353.6173125000001 331.5663281250001S340.824375 308.2168125 340.824375 292.7787187500001C340.824375 286.726921875 341.682046875 280.683140625 343.349296875 274.6313437500001L277.781484375 276.6673125z" />
    <glyph glyph-name="image"
      unicode="&#xEA13;"
      horiz-adv-x="513" d=" M0.88171875 426.9121875C0.88171875 380.9476074688442 38.1433730938441 343.6859531250001 84.107953125 343.6859531250001C130.0725331561559 343.6859531250001 167.3341875 380.9476074688442 167.3341875 426.9121875C167.3341875 472.8767675311558 130.0725331561559 510.138421875 84.107953125 510.138421875C38.1433730938441 510.138421875 0.88171875 472.8767675311558 0.88171875 426.9121875z M510.571265625 27.87834375L337.21734375 312.024234375C331.694578125 321.0818906250001 319.16615625 322.6128750000001 311.6154375 315.15834375L199.789453125 204.7190625L158.733421875 245.26209375C151.182703125 252.716625 138.662296875 251.177625 133.131515625 242.127984375L2.428734375 27.87834375C-4.256296875 16.920984375 3.631078125 2.861578125 16.472109375 2.861578125H35.453109375H404.171859375H496.519875C509.368921875 2.861578125 517.2562968750001 16.920984375 510.571265625 27.87834375z" />
    <glyph glyph-name="indent-block"
      unicode="&#xEA14;"
      horiz-adv-x="513" d=" M64.125 416.8125H448.875C466.582517578125 416.8125 480.9375 431.167482421875 480.9375 448.875S466.582517578125 480.9375 448.875 480.9375H64.125C46.417482421875 480.9375 32.0625 466.582517578125 32.0625 448.875S46.417482421875 416.8125 64.125 416.8125z M448.875 96.1875H64.125C46.417482421875 96.1875 32.0625 81.832517578125 32.0625 64.125S46.417482421875 32.0625 64.125 32.0625H448.875C466.582517578125 32.0625 480.9375 46.417482421875 480.9375 64.125S466.582517578125 96.1875 448.875 96.1875z M448.875 224.4375H320.625C302.917482421875 224.4375 288.5625 210.082517578125 288.5625 192.375S302.917482421875 160.3125 320.625 160.3125H448.875C466.582517578125 160.3125 480.9375 174.667482421875 480.9375 192.375S466.582517578125 224.4375 448.875 224.4375z M448.875 352.6875H320.625C302.917482421875 352.6875 288.5625 338.332517578125 288.5625 320.625S302.917482421875 288.5625 320.625 288.5625H448.875C466.582517578125 288.5625 480.9375 302.917482421875 480.9375 320.625S466.582517578125 352.6875 448.875 352.6875z M64.125 224.4375H146.084765625L129.3521484375 207.7048828125C116.62734375 194.980078125 116.62734375 174.4400390625 129.3521484375 161.8154296875C142.076953125 149.090625 162.6169921875 149.090625 175.2416015625 161.8154296875L246.9814453125001 233.5552734375001C253.0933593750001 239.6671875000001 256.5 247.883203125 256.5 256.5000000000001C256.5 265.1167968750001 253.093359375 273.3328125000001 246.9814453125 279.4447265625L175.2416015625 351.1845703125C162.516796875 363.909375 141.9767578125 363.909375 129.3521484375 351.1845703125C123.03984375 344.872265625 119.83359375 336.5560546875 119.83359375 328.2398437500001S123.03984375 311.607421875 129.3521484375 305.2951171875L146.084765625 288.5625H64.125C46.3904296875 288.5625 32.0625 274.2345703125 32.0625 256.5000000000001S46.3904296875 224.4375 64.125 224.4375z" />
    <glyph glyph-name="italic"
      unicode="&#xEA15;"
      horiz-adv-x="513" d=" M165.57075 0L258.2794687500001 0L318.74934375 342.916453125L226.032609375 342.916453125z M331.069359375 496.263375C320.120015625 507.413109375 306.53353125 513 290.2858593750001 513C274.4870625 513 261.012796875 507.413109375 249.8710781250001 496.263375C238.6972968750001 485.12165625 233.14246875 471.390890625 233.14246875 455.14321875C233.14246875 439.8013125 238.6972968750001 426.583546875 249.8710781250001 415.409765625C261.0208125 404.26003125 274.4870625 398.673140625 290.2858593750001 398.673140625C306.53353125 398.673140625 320.1200156250001 404.26003125 331.0693593750001 415.409765625C341.954578125 426.583546875 347.4372656250001 439.8013125 347.4372656250001 455.14321875C347.42925 471.390890625 341.954578125 485.12165625 331.069359375 496.263375z" />
    <glyph glyph-name="link"
      unicode="&#xEA16;"
      horiz-adv-x="513" d=" M483.80709375 483.80709375C464.98640625 502.619765625 439.961625 512.98396875 413.34975 513H413.325703125C386.72184375 513 361.721109375 502.635796875 342.9084375 483.823125L238.3846875 379.3073906250001C228.341109375 369.271828125 228.341109375 352.984078125 238.3846875 342.9405000000001C248.428265625 332.8969218750001 264.6999843750001 332.8969218750001 274.751578125 342.9405000000001L379.275328125 447.456234375C388.3810781250001 456.55396875 400.468640625 461.563734375 413.325703125 461.563734375H413.341734375C426.22284375 461.55571875 438.3264375 456.5379375 447.44821875 447.4321875C466.244859375 428.6355468750001 466.2608906250001 398.0559375000001 447.4722656250001 379.2673125L320.136046875 251.9471250000001C301.323375 233.150484375 270.75178125 233.1905625 251.971171875 251.9631562500001C241.9275937500001 262.0067343750001 225.655875 262.0067343750001 215.60428125 251.9631562500001C205.560703125 241.9275937500001 205.560703125 225.6398437500001 215.60428125 215.5962656250001C235.0261406250001 196.1663906250001 260.5398750000001 186.451453125 286.0696406250001 186.451453125C311.5753593750001 186.451453125 337.0890937500001 196.158375 356.4949218750001 215.580234375L483.831140625 342.9084375C522.66684375 381.744140625 522.658828125 444.94734375 483.80709375 483.80709375z M237.88771875 169.69078125L133.6365 65.447578125C124.594875 56.405953125 112.563421875 51.436265625 99.76246875 51.436265625C99.738421875 51.436265625 99.714375 51.436265625 99.690328125 51.436265625C86.833265625 51.4522968750001 74.713640625 56.486109375 65.599875 65.5998750000001C46.803234375 84.396515625 46.739109375 114.920015625 65.447578125 133.6365L192.90403125 261.092953125C211.684640625 279.8815781250001 242.2642500000001 279.8735625000001 261.06890625 261.0769218750001C271.112484375 251.0333437500001 287.384203125 251.0333437500001 297.435796875 261.0769218750001C307.479375 271.112484375 307.479375 287.4002343750001 297.435796875 297.4438125000001C258.608109375 336.2795156250001 195.388875 336.3115781250001 156.537140625 297.45984375L29.072671875 169.995375C-9.690890625 131.223796875 -9.626765625 68.0767031249999 29.22496875 29.22496875C48.037640625 10.412296875 73.038375 0.040078125 99.6181875 0C99.66628125 0 99.706359375 0 99.754453125 0C126.31021875 0 151.246828125 10.324125 169.995375 29.0806875L274.254609375 133.33190625C284.2981875 143.36746875 284.2981875 159.65521875 274.254609375 169.698796875C264.21103125 179.742375 247.931296875 179.742375 237.88771875 169.69078125z" />
    <glyph glyph-name="numbered-list"
      unicode="&#xEA17;"
      horiz-adv-x="513" d=" M165.97153125 437.5569375H467.7357656249999C484.40025 437.5569375 497.9145937499999 451.07128125 497.9145937499999 467.735765625C497.9145937499999 484.40025 484.408265625 497.91459375 467.7357656249999 497.91459375H165.97153125C149.307046875 497.91459375 135.792703125 484.408265625 135.792703125 467.735765625C135.792703125 451.07128125 149.307046875 437.5569375 165.97153125 437.5569375z M467.735765625 286.678828125H165.97153125C149.307046875 286.678828125 135.792703125 273.1725 135.792703125 256.5C135.792703125 239.835515625 149.29903125 226.321171875 165.97153125 226.321171875H467.7357656249999C484.40025 226.321171875 497.9145937499999 239.835515625 497.9145937499999 256.5C497.91459375 273.1644843750001 484.40025 286.678828125 467.735765625 286.678828125z M467.735765625 75.4430625H165.97153125C149.307046875 75.4430625 135.792703125 61.936734375 135.792703125 45.264234375C135.792703125 28.59975 149.29903125 15.08540625 165.97153125 15.08540625H467.7357656249999C484.40025 15.08540625 497.9145937499999 28.59975 497.9145937499999 45.264234375C497.91459375 61.92871875 484.40025 75.4430625 467.735765625 75.4430625z M66.361359375 437.34853125H54.770765625V506.290921875C54.770765625 508.711640625 54.369984375 510.435 53.56040625 511.461C52.750828125 512.487 51.388171875 513 49.480453125 513C48.86325 513 48.07771875 512.9038125 47.123859375 512.719453125C46.17 512.53509375 44.951625 512.254546875 43.47675 511.885828125L25.7461875 507.1325625C23.26134375 506.523375 21.425765625 505.665703125 20.239453125 504.55153125S18.45196875 502.058671875 18.45196875 500.423484375C18.45196875 498.187125 18.989015625 496.463765625 20.063109375 495.25340625C21.1291875 494.0510625 22.644140625 493.441875 24.599953125 493.441875C24.9766875 493.441875 25.577859375 493.514015625 26.3874375 493.65028125C27.197015625 493.786546875 28.223015625 494.00296875 29.457421875 494.283515625L37.46503125 496.31146875V437.356546875H24.167109375C20.928796875 437.356546875 18.604265625 436.77140625 17.193515625 435.609140625C15.79078125 434.438859375 15.08540625 432.5311406250001 15.08540625 429.8779687500001C15.08540625 427.272890625 15.77475 425.381203125 17.161453125 424.2189375000001C18.54815625 423.056671875 20.880703125 422.47153125 24.167109375 422.47153125H66.361359375C69.647765625 422.47153125 71.988328125 423.056671875 73.367015625 424.2189375000001C74.745703125 425.381203125 75.4430625 427.272890625 75.4430625 429.8779687500001C75.4430625 432.5311406250001 74.729671875 434.438859375 73.294875 435.609140625C71.86809375 436.763390625 69.551578125 437.34853125 66.361359375 437.34853125z M69.319125 236.300625C66.922453125 236.300625 65.1189375 235.763578125 63.892546875 234.6975C62.674171875 233.631421875 62.064984375 232.00425 62.064984375 229.824V229.43925H38.77959375L58.938890625 246.24C64.309359375 250.72875 68.269078125 255.225515625 70.818046875 259.7383125C73.367015625 264.251109375 74.6415 268.964296875 74.6415 273.877875C74.6415 281.228203125 72.18871875 287.087625 67.291171875 291.448125C62.385609375 295.808625 55.748671875 297.988875 47.364328125 297.988875C42.88359375 297.988875 38.723484375 297.451828125 34.892015625 296.3857500000001C31.05253125 295.3196718750001 27.405421875 293.6684531250001 23.942671875 291.448125C21.81853125 290.037375 20.39175 288.626625 19.686375 287.215875C18.981 285.8051250000001 18.620296875 283.664953125 18.620296875 280.803375C18.620296875 278.021953125 19.18940625 275.9298750000001 20.319609375 274.5191250000001C21.4498125 273.108375 23.125078125 272.403 25.34540625 272.403C27.918421875 272.403 30.267 274.07025 32.39915625 277.4047500000001C33.152625 278.6471718750001 33.793875 279.560953125 34.330921875 280.162125C35.292796875 281.36446875 36.6795 282.2942812500001 38.475 282.9515625C40.2705 283.616859375 42.3225 283.9455000000001 44.631 283.9455000000001C48.5746875 283.9455000000001 51.516421875 283.0076718750001 53.4481875 281.124C55.379953125 279.24834375 56.341828125 276.37875 56.341828125 272.53125C56.341828125 269.797921875 55.620421875 267.056578125 54.177609375 264.3232500000001C52.734796875 261.589921875 50.554546875 258.848578125 47.620828125 256.11525L20.53603125 230.914125C18.6283125 229.158703125 17.241609375 227.5074843750001 16.375921875 225.9444375C15.510234375 224.381390625 15.077390625 222.794296875 15.077390625 221.1671250000001C15.077390625 219.2032968750001 15.77475 217.680328125 17.177484375 216.6142500000001C18.572203125 215.548171875 20.560078125 215.0111250000001 23.13309375 215.0111250000001H70.978359375C72.397125 215.0111250000001 73.383046875 215.267625 73.944140625 215.780625C74.49721875 216.293625 74.81784375 217.536046875 74.906015625 219.499875L75.435046875 229.43925V230.272875C75.435046875 232.1966250000001 74.906015625 233.679515625 73.8399375 234.7295625C72.781875 235.77159375 71.2749375 236.300625 69.319125 236.300625z M59.820609375 49.111734375C64.453640625 51.2038125 67.86028125 53.776828125 70.04053125 56.8468125000001C72.22078125 59.90878125 73.31090625 63.668109375 73.31090625 68.11678125C73.31090625 74.8819687500001 70.93828125 80.3085468750001 66.185015625 84.396515625C61.439765625 88.484484375 55.06734375 90.5284687500001 47.08378125 90.5284687500001C39.1483125 90.5284687500001 32.471296875 89.141765625 27.06075 86.3763750000001C21.650203125 83.6029687500001 18.940921875 80.292515625 18.940921875 76.428984375C18.940921875 74.65753125 19.47796875 73.190671875 20.560078125 72.036421875C21.634171875 70.882171875 23.06896875 70.29703125 24.86446875 70.29703125C26.46759375 70.29703125 29.38528125 71.35509375 33.6015 73.4632031250001C37.825734375 75.5713125 41.63315625 76.6293750000001 45.023765625 76.6293750000001C48.230015625 76.6293750000001 50.722875 75.7316250000001 52.4863125 73.9361250000001C54.24975 72.1406250000001 55.13146875 69.6317343750001 55.13146875 66.4094531250001C55.13146875 62.6821875000001 54.402046875 59.9969531250001 52.927171875 58.3377187500001C51.4603125 56.6784843750001 48.246046875 55.5082031250001 43.292390625 54.8268750000001C43.019859375 54.7787812500001 42.603046875 54.7387031250001 42.057984375 54.6906093750001C38.114296875 54.1455468750001 36.142453125 52.05346875 36.142453125 48.4223906250001C36.142453125 45.7852500000001 36.63140625 43.9576875000001 37.62534375 42.9397031250001C38.611265625 41.9217187500001 40.551046875 41.3606250000001 43.4446875 41.2724531250001C48.951421875 41.0480156250001 52.6786875 39.9578906250001 54.626484375 38.0020781250001C56.57428125 36.0462656250001 57.5521875 32.7839062500001 57.5521875 28.1909531250001C57.5521875 23.9186250000001 56.389921875 20.6402343750001 54.081421875 18.3477656250001C51.76490625 16.0552968750001 48.4464375 14.9090625000001 44.13403125 14.9090625000001C40.5590625 14.9090625000001 36.423 15.9350625000001 31.749890625 17.9790468750001C27.068765625 20.0230312500001 24.15909375 21.0410156250001 23.012859375 21.0410156250001C20.624203125 21.0410156250001 18.70846875 20.3516718750001 17.26565625 18.9649687500001C15.82284375 17.5782656250001 15.093421875 15.7747500000001 15.093421875 13.5464062500001C15.093421875 9.7790625000001 17.7305625 6.5728125000001 23.00484375 3.9436875000001C28.279125 1.3145625 34.956140625 0 43.027875 0C53.031375 0 60.93478125 2.48484375 66.73809375 7.462546875C72.54140625 12.432234375 75.4430625 19.165359375 75.4430625 27.661921875C75.4430625 33.288890625 74.1605625 37.8658125 71.587546875 41.384671875C69.022546875 44.90353125 65.094890625 47.476546875 59.820609375 49.111734375z" />
    <glyph glyph-name="ok"
      unicode="&#xEA18;"
      horiz-adv-x="513" d=" M505.48134375 453.7805625C495.4618125 463.80009375 479.230171875 463.80009375 469.210640625 453.7805625L128.258015625 112.8279375L43.789359375 197.29659375C33.785859375 207.316125 17.52215625 207.316125 7.51865625 197.29659375C-2.500875 187.285078125 -2.500875 171.03740625 7.51865625 161.025890625L106.920421875 61.624125C109.565578125 58.97896875 112.667625 57.127359375 115.95403125 55.8769218750001C120.033984375 53.392078125 124.442578125 51.70078125 129.06759375 51.70078125C135.632390625 51.70078125 142.1971875 54.209671875 147.206953125 59.2194375L505.497375 417.509859375C515.508890625 427.5213750000001 515.508890625 443.769046875 505.48134375 453.7805625z" />
    <glyph glyph-name="outdent-block"
      unicode="&#xEA19;"
      horiz-adv-x="513" d=" M64.125 416.8125H448.875C466.582517578125 416.8125 480.9375 431.167482421875 480.9375 448.875S466.582517578125 480.9375 448.875 480.9375H64.125C46.417482421875 480.9375 32.0625 466.582517578125 32.0625 448.875S46.417482421875 416.8125 64.125 416.8125z M448.875 96.1875H64.125C46.417482421875 96.1875 32.0625 81.832517578125 32.0625 64.125S46.417482421875 32.0625 64.125 32.0625H448.875C466.582517578125 32.0625 480.9375 46.417482421875 480.9375 64.125S466.582517578125 96.1875 448.875 96.1875z M448.875 224.4375H320.625C302.917482421875 224.4375 288.5625 210.082517578125 288.5625 192.375S302.917482421875 160.3125 320.625 160.3125H448.875C466.582517578125 160.3125 480.9375 174.667482421875 480.9375 192.375S466.582517578125 224.4375 448.875 224.4375z M448.875 352.6875H320.625C302.917482421875 352.6875 288.5625 338.332517578125 288.5625 320.625S302.917482421875 288.5625 320.625 288.5625H448.875C466.582517578125 288.5625 480.9375 302.917482421875 480.9375 320.625S466.582517578125 352.6875 448.875 352.6875z M113.3208984375 161.8154296875C126.045703125 149.090625 146.5857421875 149.090625 159.2103515625 161.8154296875C165.52265625 168.127734375 168.72890625 176.4439453125 168.72890625 184.76015625S165.52265625 201.392578125 159.2103515625 207.7048828124999L142.477734375 224.4375H224.4375C242.1720703125 224.4375 256.5 238.7654296875 256.5 256.5S242.1720703125 288.5625 224.4375 288.5625H142.477734375L159.2103515625 305.2951171875C171.93515625 318.019921875 171.93515625 338.5599609375 159.2103515625 351.1845703125C146.485546875 363.909375 125.9455078125 363.909375 113.3208984375 351.1845703125L41.5810546875 279.4447265625C35.469140625 273.3328125000001 32.0625 265.116796875 32.0625 256.5C32.0625 247.883203125 35.469140625 239.6671875 41.5810546875 233.5552734375001L113.3208984375 161.8154296875z" />
    <glyph glyph-name="quote"
      unicode="&#xEA1A;"
      horiz-adv-x="513" d=" M233.823796875 161.48278125C233.823796875 134.2456875 223.659984375 110.319046875 203.35640625 89.686828125C183.02878125 69.038578125 156.35278125 58.714453125 123.288328125 58.714453125C85.49465625 58.714453125 55.48415625 71.8520625000001 33.29690625 98.12728125C11.093625 124.394484375 0 156.312703125 0 193.8578906250001C0 240.7733437500001 7.302234375 280.4346562500001 21.9628125 312.809765625C36.59934375 345.1848750000001 54.77878125 371.452078125 76.51715625 391.6434375C98.2395 411.8107500000001 121.861546875 426.8400468750001 147.37528125 436.6912500000001S196.97596875 452.393859375 219.64415625 454.285546875V368.422171875C192.238734375 363.708984375 166.5005625 351.2847656250001 142.413609375 331.117453125C118.32665625 310.9260937500001 105.3253125 284.4264375 103.441640625 251.586421875C110.992359375 256.2675468750001 120.915703125 258.624140625 133.20365625 258.624140625C165.31425 258.624140625 190.1145937500001 249.935203125 207.6046875 232.581375C225.07875 215.195484375 233.823796875 191.5093125 233.823796875 161.48278125zM513 161.48278125C513 134.2456875 502.8361875 110.319046875 482.532609375 89.686828125C462.204984375 69.038578125 435.528984375 58.714453125 402.46453125 58.714453125C364.6708593749999 58.714453125 334.660359375 71.8520625000001 312.4731093749999 98.12728125C290.2698281249999 124.3944843750001 279.176203125 156.3046875000001 279.176203125 193.8498750000001C279.176203125 240.7653281250001 286.4784375 280.4266406250001 301.139015625 312.8017500000001C315.775546875 345.1768593750001 333.954984375 371.4440625000001 355.693359375 391.635421875C377.415703125 411.8027343750001 401.03775 426.8320312500001 426.5514843749999 436.6832343750001C452.0652187499999 446.5344375 476.1521718749999 452.38584375 498.8283749999999 454.27753125V368.41415625C471.4149374999999 363.70096875 445.6847812499999 351.2767500000001 421.5898125 331.1094375000001C397.5028593749999 310.9180781250001 384.5015156249999 284.4184218750001 382.6178437499999 251.5784062500001C390.1685624999999 256.2595312500001 400.0919062499999 258.6161250000001 412.3798593749999 258.6161250000001C444.490453125 258.6161250000001 469.2907968749999 249.9271875000001 486.7808906249999 232.5733593750001C504.2469375 215.195484375 513 191.5093125 513 161.48278125z" />
    <glyph glyph-name="remove"
      unicode="&#xEA1B;"
      horiz-adv-x="513" d=" M256.5 513C115.064296875 513 0 397.9357031250001 0 256.5S115.064296875 0 256.5 0S513 115.064296875 513 256.5S397.9357031250001 513 256.5 513zM256.5 46.63490625C140.778421875 46.63490625 46.63490625 140.778421875 46.63490625 256.5C46.63490625 372.221578125 140.778421875 466.36509375 256.5 466.36509375C372.2135625 466.36509375 466.36509375 372.221578125 466.36509375 256.5C466.36509375 140.778421875 372.2135625 46.63490625 256.5 46.63490625z M287.71284375 258.800484375L359.8935468750001 330.9811875000001C368.9992968750001 340.0869375 368.9992968750001 354.8517187500001 359.8935468750001 363.9574687500001C350.787796875 373.0632187500001 336.03103125 373.0632187500001 326.9172656250001 363.9574687500001L254.7365625 291.7767656250001L180.255375 366.2579531250001C171.157640625 375.3637031250001 156.376828125 375.3637031250001 147.27909375 366.2579531250001C138.17334375 357.1522031250001 138.17334375 342.3874218750001 147.27909375 333.2816718750001L221.76028125 258.8004843750001L142.678125 179.7103125C133.572375 170.6045625 133.572375 155.83978125 142.678125 146.7340312500001C147.231 142.1811562500001 153.194625 139.9047187500001 159.166265625 139.9047187500001C165.129890625 139.9047187500001 171.10153125 142.1811562500001 175.65440625 146.7340312500001L254.744578125 225.824203125L331.52625 149.04253125C336.079125 144.4896562500001 342.04275 142.21321875 348.0143906250001 142.21321875C353.978015625 142.21321875 359.94965625 144.4896562500001 364.50253125 149.04253125C373.6082812500001 158.14828125 373.6082812500001 172.9130625 364.50253125 182.0188125L287.71284375 258.800484375z" />
    <glyph glyph-name="removeformat"
      unicode="&#xEA1C;"
      horiz-adv-x="513" d=" M6.933515625 446.446265625L117.853734375 446.446265625L55.90096875 158.060109375L126.638859375 158.060109375L184.40746875 446.446265625L295.3196718750001 446.446265625L295.3196718750001 513L6.933515625 513z M6.933515625 113.693625H295.3196718750001V69.327140625H6.933515625V113.693625z M448.69865625 88.73296875L499.5658125 139.600125C508.230703125 148.265015625 508.230703125 162.300375 499.5658125 170.97328125S476.8655625 179.638171875 468.19265625 170.97328125L417.3254999999999 120.106125L366.45834375 170.97328125C357.7934531249999 179.638171875 343.7580937499999 179.638171875 335.0851874999999 170.97328125S326.4202968749999 148.27303125 335.0851874999999 139.600125L385.95234375 88.7329687499999L335.0851874999999 37.8658124999999C326.4202968749999 29.2009218749999 326.4202968749999 15.1655624999999 335.0851874999999 6.4926562499999C339.42965625 2.16421875 345.10471875 0 350.77978125 0S362.12990625 2.16421875 366.466359375 6.500671875L417.333515625 57.367828125L468.200671875 6.500671875C472.529109375 2.16421875 478.204171875 0 483.879234375 0C489.554296875 0 495.2293593749999 2.16421875 499.5658125 6.500671875C508.230703125 15.1655625 508.230703125 29.200921875 499.5658125 37.873828125L448.69865625 88.73296875z" />
    <glyph glyph-name="row"
      unicode="&#xEA1D;"
      horiz-adv-x="513" d=" M456.000890625 513H56.999109375C25.56984375 513 0 487.43015625 0 456.000890625V56.9991093750001C0 25.561828125 25.56984375 0 56.999109375 0H456.000890625C487.438171875 0 513 25.561828125 513 56.999109375V456.000890625C513 487.43015625 487.438171875 513 456.000890625 513zM456.00890625 370.49821875H356.2464375V456.000890625H455.992875L456.00890625 370.49821875zM299.247328125 56.999109375H213.752671875V156.7535625H299.25534375V56.999109375zM213.752671875 370.49821875V456.000890625H299.25534375V370.49821875H213.752671875zM156.7535625 456.000890625V370.49821875H56.999109375V456.000890625H156.7535625zM56.999109375 156.7535625H156.745546875V57.007125H56.999109375V156.7535625zM356.2464375 56.999109375V156.7535625H456.0249375L456.032953125 57.007125H356.2464375z" />
    <glyph glyph-name="separator"
      unicode="&#xEA1E;"
      horiz-adv-x="513" d=" M484.4964375 227.9964375H28.5035625C12.760875 227.9964375 0 240.7573125 0 256.5S12.760875 285.0035625000001 28.5035625 285.0035625000001H484.504453125C500.239125 285.0035625000001 513 272.2426875 513 256.5S500.239125 227.9964375 484.4964375 227.9964375z" />
    <glyph glyph-name="strike"
      unicode="&#xEA1F;"
      horiz-adv-x="513" d=" M513 288.5625H337.8505781250001C327.782953125 292.0573125 317.106140625 294.934921875 305.691890625 297.0911250000001L237.078140625 310.25278125C219.091078125 313.980046875 205.672921875 320.817375 196.87978125 330.75675C188.14275 340.704140625 183.742171875 352.390921875 183.742171875 365.78503125C183.742171875 374.145328125 185.601796875 382.000640625 189.2649375 389.3990625C192.9841875 396.797484375 198.170296875 403.410375 204.879375 409.173609375C211.53234375 414.992953125 219.652171875 419.6259843750001 229.126640625 423.072703125C238.601109375 426.57553125 249.085546875 428.266828125 260.644078125 428.266828125C276.314625 428.266828125 289.6205625 425.9503125 300.449671875 421.31728125C311.334890625 416.7403593750001 320.24025 410.921015625 327.11765625 403.97146875C334.051171875 397.0219218750001 339.293390625 389.51128125 342.73209375 381.4315312500001S348.59953125 365.78503125 350.002265625 358.89159375L435.9217499999999 385.271015625C433.156359375 399.1140000000001 427.9141406249999 413.5741875 420.3073125 428.65959375C412.700484375 443.688890625 401.98359375 457.411640625 388.1165625 469.95609375C374.24953125 482.436421875 356.8235624999999 492.72046875 335.798578125 500.80021875C314.765578125 508.936078125 289.50834375 513 259.9627500000001 513C236.8456875000001 513 214.9149375 509.048296875 194.114390625 501.192984375C173.369953125 493.2815625 155.10234375 482.436421875 139.367671875 468.54534375C123.689109375 454.64625 111.345046875 438.37453125 102.32746875 419.61796875C93.309890625 400.86140625 88.79709375 380.637984375 88.79709375 358.89159375C88.79709375 332.0071875 95.04928125 308.657671875 107.04065625 288.5625H0V224.4375H193.280765625C201.087984375 221.936625 209.111625 219.6601875 217.680328125 217.94484375L286.23796875 204.04575C305.691890625 200.37459375 320.456671875 193.312828125 330.604453125 182.9165625C340.752234375 172.4641874999999 345.8261250000001 160.096078125 345.8261250000001 145.74009375C345.8261250000001 128.16984375 339.0048281250001 113.70965625 325.4183437500001 102.3515156249999C311.7757500000001 90.9933749999999 292.0412812500001 85.3503749999999 266.1588281250001 85.3503749999999C248.6206406250001 85.3503749999999 233.3508750000001 87.8913281249999 220.4377031250001 92.9732343749999C207.52453125 98.0551406249999 196.647328125 104.8924687499999 187.90228125 113.4772031249999C179.109140625 122.0058281249999 172.28784375 131.8409999999999 167.438390625 142.9666874999999C162.5889375 154.0923749999999 159.711328125 165.61884375 158.813578125 177.6502968749999L70.13671875 154.10840625C71.940234375 136.482046875 77.070234375 118.575140625 85.358390625 100.267453125C93.646546875 82.015875 105.766171875 65.463609375 121.72528125 50.666765625C137.684390625 35.805796875 157.41084375 23.662125 180.984796875 14.227734375C204.54271875 4.74525 232.6775625 0 265.49353125 0C294.133359375 0 319.3905937500001 4.40859375 341.32134375 13.16165625C363.25209375 21.970828125 381.744140625 33.3850781250001 396.741375 47.5086093750001C411.79471875 61.632140625 423.184921875 77.84775 431.072296875 96.147421875C438.9115781250001 114.3990000000001 442.855265625 133.0353281250001 442.855265625 152.016328125C442.855265625 169.1296875 439.809328125 185.5697343750001 433.8376875 201.2803593750001C430.719609375 209.4162187500001 426.824015625 217.11121875 422.2470937500001 224.4375000000001H513V288.5625z" />
    <glyph glyph-name="subscript"
      unicode="&#xEA20;"
      horiz-adv-x="513" d=" M0 413.2535625L142.50178125 413.2535625L142.50178125 28.5035625L227.9964375 28.5035625L227.9964375 413.2535625L370.4982187500001 413.2535625L370.4982187500001 484.4964375L0 484.4964375z M513 143.832375L399.00178125 143.832375L399.00178125 115.336828125L442.0216406250001 115.336828125L441.749109375 29.83415625L470.252671875 29.83415625L469.980140625 115.336828125L513 115.336828125z" />
    <glyph glyph-name="superscript"
      unicode="&#xEA21;"
      horiz-adv-x="513" d=" M0 413.2535625L142.50178125 413.2535625L142.50178125 28.5035625L227.9964375 28.5035625L227.9964375 413.2535625L370.4982187500001 413.2535625L370.4982187500001 484.4964375L0 484.4964375z M513 484.4964375L399.00178125 484.4964375L399.00178125 456.000890625L442.0216406250001 456.000890625L441.749109375 370.49821875L470.252671875 370.49821875L469.980140625 456.000890625L513 456.000890625z" />
    <glyph glyph-name="table"
      unicode="&#xEA22;"
      horiz-adv-x="513" d=" M456.000890625 513H56.999109375C25.561828125 513 0 487.43015625 0 456.000890625V56.9991093750001C0 25.56984375 25.561828125 0 56.999109375 0H456.000890625C487.438171875 0 513 25.56984375 513 56.999109375V456.000890625C513 487.43015625 487.438171875 513 456.000890625 513zM213.752671875 213.752671875V313.499109375H299.25534375V213.752671875H213.752671875zM299.247328125 156.7535625V57.007125H213.752671875V156.7535625H299.247328125zM56.999109375 313.499109375H156.745546875V213.752671875H56.999109375V313.499109375zM213.752671875 370.49821875V456.000890625H299.25534375V370.49821875H213.752671875zM356.2464375 313.499109375H456.00890625L456.016921875 213.752671875H356.2464375V313.499109375zM456.00890625 370.49821875H356.2464375V456.000890625H455.992875L456.00890625 370.49821875zM156.7535625 456.000890625V370.49821875H56.999109375V456.000890625H156.7535625zM56.999109375 156.7535625H156.745546875V57.007125H56.999109375V156.7535625zM356.2464375 56.999109375V156.7535625H456.0249375L456.032953125 57.007125H356.2464375z" />
    <glyph glyph-name="twitter"
      unicode="&#xEA23;"
      horiz-adv-x="513" d=" M513.015029296875 415.597130859375C494.136228515625 407.2127871093751 473.84968359375 401.5547578125 452.565193359375 399.03384375C474.287537109375 412.050216796875 490.998111328125 432.688447265625 498.855427734375 457.2553359375C478.509767578125 445.20584765625 455.9958808593749 436.44076171875 432.015134765625 431.720560546875C412.813705078125 452.18344921875 385.4623886718751 464.96436328125 355.177353515625 464.96436328125C297.0440332031251 464.96436328125 249.93319921875 417.82447265625 249.93319921875 359.720208984375C249.93319921875 351.482150390625 250.8710273437501 343.450494140625 252.6595136718751 335.739462890625C165.180990234375 340.13703515625 87.639837890625 382.0296972656251 35.720630859375 445.70281640625C26.66197265625 430.16452734375 21.472857421875 412.078271484375 21.472857421875 392.78766796875C21.472857421875 356.259462890625 40.059087890625 324.0416601562501 68.2911210937501 305.191916015625C51.0234609375 305.749001953125 34.811859375 310.4692031250001 20.623201171875 318.3545742187501C20.623201171875 317.9147167968751 20.623201171875 317.475861328125 20.623201171875 317.035001953125C20.623201171875 266.0255683593751 56.915947265625 223.516705078125 105.0537832031251 213.843849609375C96.2295820312501 211.4401640625 86.9364667968751 210.1496484375 77.32072265625 210.1496484375C70.5485214843751 210.1496484375 63.951662109375 210.823962890625 57.5030917968751 212.054361328125C70.9002070312501 170.24987109375 109.773984375 139.7904960937501 155.8297617187501 138.969896484375C119.8005292968751 110.738865234375 74.4190664062501 93.9110625 25.1099472656251 93.9110625C16.6073730468751 93.9110625 8.2240312500001 94.41003515625 0.0150292968751 95.377921875C46.5988359375001 65.504689453125 101.9176699218751 48.090744140625 161.3705625000001 48.090744140625C354.9739570312501 48.090744140625 460.8333105468751 208.478390625 460.8333105468751 347.5534921875001C460.8333105468751 352.127408203125 460.71608203125 356.64120703125 460.53973828125 361.1560078125001C481.060740234375 375.9608671875001 498.9145429687501 394.487982421875 513.0160312500001 415.5961289062501V415.5961289062501z" />
    <glyph glyph-name="underline"
      unicode="&#xEA24;"
      horiz-adv-x="513" d=" M96.892875 64.125H416.8125V0H96.892875V64.125z M255.882796875 104.203125C233.5753125 104.203125 212.694609375 107.39334375 193.35290625 113.7898125C173.95509375 120.17025 157.146328125 129.7569374999999 142.862484375 142.541859375C128.578640625 155.318765625 117.260578125 171.109546875 108.8521875 189.898171875C100.3876875 208.6948125 96.1875 230.3049375 96.1875 254.760609375V513H177.2094375V260.387578125C177.2094375 234.07228125 184.27921875 214.153453125 198.32259375 200.6150625C212.4140625 187.076671875 231.6195 180.33553125 255.8827968750001 180.33553125C280.5308437500001 180.33553125 299.8805625 187.0846875 313.97203125 200.6150625C328.0635000000001 214.153453125 335.1332812500001 234.064265625 335.1332812500001 260.387578125V513H416.1071250000001V254.760609375C416.1071250000001 230.3049375 411.9069375000001 208.686796875 403.4985468750001 189.898171875S383.7240000000001 155.318765625 369.4401562500001 142.541859375C355.1563125000001 129.764953125 338.24334375 120.17025 318.6611718750001 113.7898125C299.119078125 107.39334375 278.198296875 104.203125 255.882796875 104.203125z" />
    <glyph glyph-name="unlink"
      unicode="&#xEA25;"
      horiz-adv-x="513" d=" M483.831140625 483.80709375C465.01846875 502.62778125 439.9936875 512.991984375 413.389828125 513C413.373796875 513 413.36578125 513 413.36578125 513C386.75390625 513 361.7451562500001 502.6438125 342.932484375 483.831140625L226.5215625 367.42021875C216.477984375 357.3846562500001 216.477984375 341.09690625 226.5215625 331.053328125C236.5651406250001 321.0097500000001 252.836859375 321.0097500000001 262.888453125 331.053328125L379.299375 447.46425C388.405125 456.561984375 400.4926875 461.563734375 413.36578125 461.563734375H413.3818125C426.2549062500001 461.563734375 438.3585 456.545953125 447.4722656250001 447.440203125C466.26890625 428.6435625 466.2849375 398.063953125 447.4963125000001 379.2673125L331.077375 262.856390625C321.033796875 252.820828125 321.033796875 236.533078125 331.077375 226.4895C336.1031718750001 221.463703125 342.6840000000001 218.9548125 349.2568125 218.9548125S362.4184687500001 221.4637031250001 367.4362500000001 226.4895L483.8551875 342.9084375C522.6908906250001 381.75215625 522.682875 444.955359375 483.831140625 483.80709375z M249.245859375 181.024875L133.660546875 65.4395625C124.618921875 56.3979375 112.58746875 51.4282500000001 99.770484375 51.4282500000001C99.754453125 51.4282500000001 99.73040625 51.4282500000001 99.706359375 51.4282500000001C86.833265625 51.4442812500001 74.729671875 56.47809375 65.61590625 65.5998750000001C56.502140625 74.7056250000001 51.468328125 86.817234375 51.452296875 99.6823125000001C51.42825 112.52334375 56.41396875 124.5708281250001 65.463609375 133.6365L181.048921875 249.2218125000001C191.0925 259.265390625 191.0925 275.5451250000001 181.048921875 285.5887031250001C171.00534375 295.63228125 154.733625 295.63228125 144.68203125 285.5887031250001L29.09671875 170.003390625C10.300078125 151.2147656250001 -0.024046875 126.21403125 0.01603125 99.6101718750001C0.056109375 73.0303593750001 10.43634375 48.0376406250001 29.249015625 29.2329843750001C48.0616875 10.4203125 73.046390625 0.040078125 99.626203125 1e-13C99.674296875 1e-13 99.73040625 1e-13 99.7785 1e-13C126.32625 1e-13 151.262859375 10.324125 170.019421875 29.0806875000001L285.604734375 144.6660000000001C295.6483125 154.7095781250001 295.6483125 170.9893125000001 285.604734375 181.0328906250001C275.569171875 191.07646875 259.297453125 191.07646875 249.245859375 181.024875z" />
    <glyph glyph-name="video"
      unicode="&#xEA26;"
      horiz-adv-x="513" d=" M127.748021484375 58.368779296875V454.631220703125C127.748021484375 501.715001953125 153.816837890625 513 185.7019921875 479.69708203125L375.316611328125 281.56686328125C388.5073242187501 267.7890058593751 388.5073242187501 245.21600390625 375.316611328125 231.402076171875L185.7019921875 33.27085546875C153.85190625 0.0010019531251 127.748021484375 11.2870019531251 127.748021484375 58.36978125z" />
  </font>
</defs>
</svg>
