<?xml version="1.0" encoding="utf-8"?>
<!-- Generator: Adobe Illustrator 18.1.1, SVG Export Plug-In . SVG Version: 6.00 Build 0)  -->
<svg version="1.2" baseProfile="tiny" id="Capa_1" xmlns="http://www.w3.org/2000/svg" xmlns:xlink="http://www.w3.org/1999/xlink"
	 x="0px" y="0px" viewBox="0 0 64 64" xml:space="preserve">
<path fill="#010002" d="M2.7,38.6l3.1,0h19.6v19.6l0,3.1c0,0.4,0.2,0.8,0.5,1s0.7,0.4,1.2,0.4l9.9,0c0.5,0,0.9-0.1,1.2-0.4
	c0.3-0.3,0.5-0.6,0.5-1l0-3.1V38.6h19.6l3.1,0c0.4,0,0.8-0.2,1-0.5s0.4-0.7,0.4-1.2l0-9.9c0-0.5-0.1-0.9-0.4-1.2
	c-0.3-0.3-0.6-0.5-1-0.5l-3.1,0H38.6V5.8l0-3.1c0-0.4-0.2-0.8-0.5-1c-0.3-0.3-0.7-0.4-1.2-0.4l-9.9,0c-0.5,0-0.9,0.1-1.2,0.4
	c-0.3,0.3-0.5,0.6-0.5,1l0,3.1v19.6H5.8l-3.1,0c-0.4,0-0.8,0.2-1,0.5c-0.3,0.3-0.4,0.7-0.4,1.2l0,9.9c0,0.5,0.1,0.9,0.4,1.2
	C1.9,38.4,2.3,38.6,2.7,38.6z"/>
</svg>
