<?xml version="1.0" encoding="utf-8"?>
<!-- Generator: Adobe Illustrator 18.1.1, SVG Export Plug-In . SVG Version: 6.00 Build 0)  -->
<svg version="1.2" baseProfile="tiny" id="Capa_1" xmlns="http://www.w3.org/2000/svg" xmlns:xlink="http://www.w3.org/1999/xlink"
	 x="0px" y="0px" viewBox="0 0 64 64" xml:space="preserve">
<path fill="#272424" d="M8.5,51.5v-3.9c0-0.5,0.2-1,0.6-1.4c0.4-0.4,0.8-0.6,1.4-0.6h43c0.5,0,1,0.2,1.4,0.6
	c0.4,0.4,0.6,0.8,0.6,1.4v3.9c0,0.5-0.2,1-0.6,1.4c-0.4,0.4-0.8,0.6-1.4,0.6h-43c-0.5,0-1-0.2-1.4-0.6C8.7,52.5,8.5,52.1,8.5,51.5z
	 M12.5,28.1v-3.9c0-0.5,0.2-1,0.6-1.4c0.4-0.4,0.8-0.6,1.4-0.6h39.1c0.5,0,1,0.2,1.4,0.6c0.4,0.4,0.6,0.8,0.6,1.4v3.9
	c0,0.5-0.2,1-0.6,1.4C54.5,29.9,54,30,53.5,30H14.4c-0.5,0-1-0.2-1.4-0.6C12.6,29.1,12.5,28.6,12.5,28.1z M20.3,39.8v-3.9
	c0-0.5,0.2-1,0.6-1.4c0.4-0.4,0.8-0.6,1.4-0.6h31.3c0.5,0,1,0.2,1.4,0.6c0.4,0.4,0.6,0.8,0.6,1.4v3.9c0,0.5-0.2,1-0.6,1.4
	c-0.4,0.4-0.8,0.6-1.4,0.6H22.2c-0.5,0-1-0.2-1.4-0.6C20.5,40.8,20.3,40.3,20.3,39.8z M28.1,16.4v-3.9c0-0.5,0.2-1,0.6-1.4
	c0.4-0.4,0.8-0.6,1.4-0.6h23.5c0.5,0,1,0.2,1.4,0.6c0.4,0.4,0.6,0.8,0.6,1.4v3.9c0,0.5-0.2,1-0.6,1.4c-0.4,0.4-0.8,0.6-1.4,0.6H30
	c-0.5,0-1-0.2-1.4-0.6C28.3,17.3,28.1,16.9,28.1,16.4z"/>
</svg>
