<?xml version="1.0" encoding="utf-8"?>
<!-- Generated by IcoMoon.io -->
<!DOCTYPE svg PUBLIC "-//W3C//DTD SVG 1.1//EN" "http://www.w3.org/Graphics/SVG/1.1/DTD/svg11.dtd">
<svg version="1.1" xmlns="http://www.w3.org/2000/svg" xmlns:xlink="http://www.w3.org/1999/xlink" width="16" height="16" viewBox="0 0 16 16">
<g>
</g>
	<path d="M0 13.143v-1.143q0-0.232 0.17-0.402t0.402-0.17h14.857q0.232 0 0.402 0.17t0.17 0.402v1.143q0 0.232-0.17 0.402t-0.402 0.17h-14.857q-0.232 0-0.402-0.17t-0.17-0.402zM1.143 6.286v-1.143q0-0.232 0.17-0.402t0.402-0.17h13.714q0.232 0 0.402 0.17t0.17 0.402v1.143q0 0.232-0.17 0.402t-0.402 0.17h-13.714q-0.232 0-0.402-0.17t-0.17-0.402zM3.429 9.714v-1.143q0-0.232 0.17-0.402t0.402-0.17h11.429q0.232 0 0.402 0.17t0.17 0.402v1.143q0 0.232-0.17 0.402t-0.402 0.17h-11.429q-0.232 0-0.402-0.17t-0.17-0.402zM4.571 2.857v-1.143q0-0.232 0.17-0.402t0.402-0.17h10.286q0.232 0 0.402 0.17t0.17 0.402v1.143q0 0.232-0.17 0.402t-0.402 0.17h-10.286q-0.232 0-0.402-0.17t-0.17-0.402z" fill="#000000"></path>
</svg>
