<?xml version="1.0" encoding="utf-8"?>
<!-- Generated by IcoMoon.io -->
<!DOCTYPE svg PUBLIC "-//W3C//DTD SVG 1.1//EN" "http://www.w3.org/Graphics/SVG/1.1/DTD/svg11.dtd">
<svg version="1.1" xmlns="http://www.w3.org/2000/svg" xmlns:xlink="http://www.w3.org/1999/xlink" width="13" height="16" viewBox="0 0 13 16">
<g>
</g>
	<path d="M0 14.857l0.018-0.839q0.134-0.036 0.759-0.143t0.946-0.241q0.063-0.107 0.112-0.241t0.076-0.299 0.049-0.29 0.027-0.335 0.004-0.304v-0.585q0-8.768-0.196-9.152-0.036-0.071-0.196-0.129t-0.397-0.098-0.442-0.063-0.433-0.040-0.272-0.027l-0.036-0.741q0.875-0.018 3.036-0.103t3.33-0.085q0.205 0 0.612 0.004t0.603 0.004q0.625 0 1.219 0.116t1.147 0.375 0.964 0.634 0.661 0.933 0.25 1.228q0 0.464-0.147 0.853t-0.348 0.643-0.576 0.513-0.652 0.402-0.75 0.357q1.375 0.313 2.29 1.196t0.915 2.214q0 0.893-0.313 1.603t-0.835 1.165-1.232 0.763-1.46 0.433-1.571 0.125q-0.393 0-1.179-0.027t-1.179-0.027q-0.946 0-2.741 0.098t-2.063 0.107zM4.759 2.179q0 0.446 0.036 1.348t0.036 1.357q0 0.241-0.004 0.714t-0.004 0.705q0 0.411 0.009 0.616 0.375 0.063 0.973 0.063 0.732 0 1.277-0.116t0.982-0.397 0.665-0.799 0.228-1.268q0-0.625-0.259-1.094t-0.705-0.732-0.964-0.388-1.107-0.125q-0.446 0-1.161 0.116zM4.808 12.241q0.004 0.33 0.040 0.746t0.107 0.594q0.661 0.286 1.25 0.286 3.357 0 3.357-2.991 0-1.018-0.366-1.607-0.241-0.393-0.549-0.661t-0.603-0.415-0.719-0.223-0.75-0.094-0.844-0.018q-0.652 0-0.902 0.089 0 0.473-0.004 1.42t-0.004 1.411q0 0.071-0.009 0.603t-0.004 0.862z" fill="#000000"></path>
</svg>
