<?xml version="1.0" encoding="utf-8"?>
<!-- Generated by IcoMoon.io -->
<!DOCTYPE svg PUBLIC "-//W3C//DTD SVG 1.1//EN" "http://www.w3.org/Graphics/SVG/1.1/DTD/svg11.dtd">
<svg version="1.1" xmlns="http://www.w3.org/2000/svg" xmlns:xlink="http://www.w3.org/1999/xlink" width="17" height="16" viewBox="0 0 17 16">
<g>
</g>
	<path d="M0.402 8.571q0-0.116 0.089-0.205l4.161-4.161q0.089-0.089 0.205-0.089t0.205 0.089l0.446 0.446q0.089 0.089 0.089 0.205t-0.089 0.205l-3.509 3.509 3.509 3.509q0.089 0.089 0.089 0.205t-0.089 0.205l-0.446 0.446q-0.089 0.089-0.205 0.089t-0.205-0.089l-4.161-4.161q-0.089-0.089-0.089-0.205zM6.357 14.179l3.33-11.527q0.036-0.116 0.138-0.174t0.21-0.022l0.554 0.152q0.116 0.036 0.174 0.138t0.022 0.219l-3.33 11.527q-0.036 0.116-0.138 0.174t-0.21 0.022l-0.554-0.152q-0.116-0.036-0.174-0.138t-0.022-0.219zM11.545 12.286q0-0.116 0.089-0.205l3.509-3.509-3.509-3.509q-0.089-0.089-0.089-0.205t0.089-0.205l0.446-0.446q0.089-0.089 0.205-0.089t0.205 0.089l4.161 4.161q0.089 0.089 0.089 0.205t-0.089 0.205l-4.161 4.161q-0.089 0.089-0.205 0.089t-0.205-0.089l-0.446-0.446q-0.089-0.089-0.089-0.205z" fill="#000000"></path>
</svg>
