<?xml version="1.0" encoding="utf-8"?>
<!-- Generated by IcoMoon.io -->
<!DOCTYPE svg PUBLIC "-//W3C//DTD SVG 1.1//EN" "http://www.w3.org/Graphics/SVG/1.1/DTD/svg11.dtd">
<svg version="1.1" xmlns="http://www.w3.org/2000/svg" xmlns:xlink="http://www.w3.org/1999/xlink" width="15" height="16" viewBox="0 0 15 16">
<g>
</g>
	<path d="M0 14.857l0.018-0.705q0.205-0.063 0.5-0.112t0.509-0.094 0.442-0.129 0.397-0.259 0.277-0.451l2.116-5.5 2.5-6.464h1.143q0.071 0.125 0.098 0.188l1.83 4.286q0.295 0.696 0.946 2.299t1.018 2.451q0.134 0.304 0.518 1.29t0.643 1.504q0.179 0.402 0.313 0.509 0.17 0.134 0.786 0.263t0.75 0.183q0.054 0.339 0.054 0.509 0 0.036-0.004 0.116t-0.004 0.116q-0.563 0-1.696-0.071t-1.705-0.071q-0.679 0-1.92 0.063t-1.589 0.071q0-0.384 0.036-0.696l1.17-0.25q0.009 0 0.112-0.022t0.138-0.031 0.129-0.040 0.134-0.058 0.098-0.071 0.080-0.098 0.022-0.125q0-0.143-0.277-0.862t-0.643-1.585-0.375-0.893l-4.018-0.018q-0.232 0.518-0.683 1.746t-0.451 1.451q0 0.196 0.125 0.335t0.388 0.219 0.433 0.121 0.509 0.076 0.366 0.036q0.009 0.17 0.009 0.518 0 0.080-0.018 0.241-0.518 0-1.558-0.089t-1.558-0.089q-0.071 0-0.237 0.036t-0.192 0.036q-0.714 0.125-1.679 0.125zM4.955 9.009q0.295 0 1.219 0.018t1.433 0.018q0.17 0 0.509-0.018-0.777-2.259-1.643-4.036z" fill="#000000"></path>
</svg>
