<?xml version="1.0" encoding="utf-8"?>
<!-- Generated by IcoMoon.io -->
<!DOCTYPE svg PUBLIC "-//W3C//DTD SVG 1.1//EN" "http://www.w3.org/Graphics/SVG/1.1/DTD/svg11.dtd">
<svg version="1.1" xmlns="http://www.w3.org/2000/svg" xmlns:xlink="http://www.w3.org/1999/xlink" width="17" height="16" viewBox="0 0 17 16">
<g>
</g>
	<path d="M0 13.429v-10.857q0-0.589 0.42-1.009t1.009-0.42h14.286q0.589 0 1.009 0.42t0.42 1.009v10.857q0 0.589-0.42 1.009t-1.009 0.42h-14.286q-0.589 0-1.009-0.42t-0.42-1.009zM1.143 13.429q0 0.116 0.085 0.201t0.201 0.085h14.286q0.116 0 0.201-0.085t0.085-0.201v-10.857q0-0.116-0.085-0.201t-0.201-0.085h-14.286q-0.116 0-0.201 0.085t-0.085 0.201v10.857zM2.286 12.571v-1.714l2.857-2.857 1.429 1.429 4.571-4.571 3.714 3.714v4h-12.571zM2.286 5.143q0-0.714 0.5-1.214t1.214-0.5 1.214 0.5 0.5 1.214-0.5 1.214-1.214 0.5-1.214-0.5-0.5-1.214z" fill="#000000"></path>
</svg>
