<?xml version="1.0" encoding="utf-8"?>
<!-- Generated by IcoMoon.io -->
<!DOCTYPE svg PUBLIC "-//W3C//DTD SVG 1.1//EN" "http://www.w3.org/Graphics/SVG/1.1/DTD/svg11.dtd">
<svg version="1.1" xmlns="http://www.w3.org/2000/svg" xmlns:xlink="http://www.w3.org/1999/xlink" width="15" height="16" viewBox="0 0 15 16">
<g>
</g>
	<path d="M0.143 4q0-1.071 0.759-1.813l1.313-1.304q0.741-0.741 1.813-0.741 1.080 0 1.821 0.759l1.839 1.848q0.741 0.741 0.741 1.813 0 1.098-0.786 1.866l0.786 0.786q0.768-0.786 1.857-0.786 1.071 0 1.821 0.75l1.857 1.857q0.75 0.75 0.75 1.821t-0.759 1.813l-1.313 1.304q-0.741 0.741-1.813 0.741-1.080 0-1.821-0.759l-1.839-1.848q-0.741-0.741-0.741-1.813 0-1.098 0.786-1.866l-0.786-0.786q-0.768 0.786-1.857 0.786-1.071 0-1.821-0.75l-1.857-1.857q-0.75-0.75-0.75-1.821zM1.857 4q0 0.357 0.25 0.607l1.857 1.857q0.241 0.241 0.607 0.241 0.375 0 0.643-0.277-0.027-0.027-0.17-0.165t-0.192-0.192-0.134-0.17-0.116-0.228-0.031-0.246q0-0.357 0.25-0.607t0.607-0.25q0.134 0 0.246 0.031t0.228 0.116 0.17 0.134 0.192 0.192 0.165 0.17q0.295-0.277 0.295-0.652 0-0.357-0.25-0.607l-1.839-1.848q-0.25-0.25-0.607-0.25-0.348 0-0.607 0.241l-1.313 1.304q-0.25 0.25-0.25 0.598zM8.134 10.295q0 0.357 0.25 0.607l1.839 1.848q0.241 0.241 0.607 0.241 0.357 0 0.607-0.232l1.313-1.304q0.25-0.25 0.25-0.598 0-0.357-0.25-0.607l-1.857-1.857q-0.25-0.25-0.607-0.25-0.375 0-0.643 0.286 0.027 0.027 0.17 0.165t0.192 0.192 0.134 0.17 0.116 0.228 0.031 0.246q0 0.357-0.25 0.607t-0.607 0.25q-0.134 0-0.246-0.031t-0.228-0.116-0.17-0.134-0.192-0.192-0.165-0.17q-0.295 0.277-0.295 0.652z" fill="#000000"></path>
</svg>
