<?xml version="1.0" encoding="utf-8"?>
<!-- Generator: Adobe Illustrator 18.1.1, SVG Export Plug-In . SVG Version: 6.00 Build 0)  -->
<svg version="1.2" baseProfile="tiny" id="Capa_1" xmlns="http://www.w3.org/2000/svg" xmlns:xlink="http://www.w3.org/1999/xlink"
	 x="0px" y="0px" viewBox="0 0 64 64" xml:space="preserve">
<path fill="#010002" d="M48.7,14.8l-1.4,1.4L25.7,37.8l-9-9l-1.4-1.4c-0.2-0.2-0.4-0.3-0.7-0.3c-0.3,0-0.5,0.1-0.7,0.4L9.3,32
	C9.1,32.2,9,32.5,9,32.7c0,0.3,0.1,0.5,0.3,0.7l1.4,1.4l14.4,14.4c0.2,0.2,0.4,0.3,0.7,0.3c0.3,0,0.5-0.1,0.7-0.4l26.9-26.9l1.4-1.4
	c0.2-0.2,0.3-0.4,0.3-0.7c0-0.3-0.1-0.5-0.4-0.7l-4.5-4.5c-0.2-0.2-0.5-0.3-0.7-0.4C49.1,14.5,48.9,14.6,48.7,14.8z"/>
</svg>
