<?xml version="1.0" encoding="utf-8"?>
<!-- Generator: Adobe Illustrator 18.1.1, SVG Export Plug-In . SVG Version: 6.00 Build 0)  -->
<svg version="1.2" baseProfile="tiny" id="Capa_1" xmlns="http://www.w3.org/2000/svg" xmlns:xlink="http://www.w3.org/1999/xlink"
	 x="0px" y="0px" viewBox="0 0 64 64" xml:space="preserve">
<g>
	<path fill="#010002" d="M25.2,36.4c0-0.2-0.1-0.4-0.2-0.5c-0.2-0.1-0.4-0.2-0.6-0.2l-14.9,0c-0.2,0-0.4,0.1-0.6,0.2
		c-0.2,0.1-0.2,0.3-0.2,0.5l0,1.5v1.4v4v1.4l0,4c0,0.2,0.1,0.4,0.2,0.5c0.2,0.1,0.4,0.2,0.6,0.2h14.9c0.2,0,0.4-0.1,0.6-0.2
		s0.2-0.3,0.2-0.5l0-4v-1.4v-4v-1.4L25.2,36.4z"/>
	<path fill="#010002" d="M29.3,14.7c-0.1-0.2-0.3-0.2-0.5-0.2l-1.5,0h-1.4h-2v0c-8.5,0.2-15.1,9.9-15.1,22.2h6.6
		c0-9.2,4.6-15.6,8.7-15.6v0h1.8h1.4l1.5,0c0.2,0,0.4-0.1,0.5-0.2c0.1-0.2,0.2-0.4,0.2-0.6l0-4.9C29.5,15.1,29.4,14.9,29.3,14.7z"/>
	<path fill="#010002" d="M51.1,36.4c0-0.2-0.1-0.4-0.2-0.5c-0.2-0.1-0.4-0.2-0.6-0.2l-14.9,0c-0.2,0-0.4,0.1-0.6,0.2
		c-0.2,0.1-0.2,0.3-0.2,0.5l0,1.5v1.4v4v1.4l0,4c0,0.2,0.1,0.4,0.2,0.5c0.2,0.1,0.4,0.2,0.6,0.2h14.9c0.2,0,0.4-0.1,0.6-0.2
		s0.2-0.3,0.2-0.5l0-4v-1.4v-4v-1.4L51.1,36.4z"/>
	<path fill="#010002" d="M55.1,14.7c-0.1-0.2-0.3-0.2-0.5-0.2l-1.5,0h-1.4h-2v0c-8.5,0.2-15.1,9.9-15.1,22.2h6.6
		c0-9.2,4.6-15.6,8.7-15.6v0h1.8H53l1.5,0c0.2,0,0.4-0.1,0.5-0.2c0.1-0.2,0.2-0.4,0.2-0.6l0-4.9C55.3,15.1,55.2,14.9,55.1,14.7z"/>
</g>
</svg>
