<?xml version="1.0" encoding="utf-8"?>
<!-- Generator: Adobe Illustrator 18.1.1, SVG Export Plug-In . SVG Version: 6.00 Build 0)  -->
<svg version="1.2" baseProfile="tiny" id="Capa_1" xmlns="http://www.w3.org/2000/svg" xmlns:xlink="http://www.w3.org/1999/xlink"
	 x="0px" y="0px" viewBox="0 0 64 64" xml:space="preserve">
<g>
	<path d="M40,36.8L35.2,32l4.8-4.8l0.8-0.8c0.1-0.1,0.1-0.2,0.1-0.4c0-0.1-0.1-0.3-0.2-0.4l-2.4-2.4c-0.1-0.1-0.2-0.2-0.4-0.2
		c-0.1,0-0.3,0-0.4,0.1L36.8,24L32,28.8L27.2,24l-0.8-0.8c-0.1-0.1-0.2-0.1-0.4-0.1c-0.1,0-0.3,0.1-0.4,0.2l-2.4,2.4
		c-0.1,0.1-0.2,0.2-0.2,0.4c0,0.1,0,0.3,0.1,0.4l0.8,0.8l4.8,4.8L24,36.8l-0.8,0.8c-0.1,0.1-0.1,0.2-0.1,0.4c0,0.1,0.1,0.3,0.2,0.4
		l2.4,2.4c0.1,0.1,0.2,0.2,0.4,0.2c0.1,0,0.3,0,0.4-0.1l0.8-0.8l4.8-4.8l4.8,4.8l0.8,0.8c0.1,0.1,0.2,0.1,0.4,0.1
		c0.1,0,0.3-0.1,0.4-0.2l2.4-2.4c0.1-0.1,0.2-0.2,0.2-0.4c0-0.1,0-0.3-0.1-0.4L40,36.8z"/>
	<path d="M32,14.5c-9.6,0-17.5,7.9-17.5,17.5S22.4,49.5,32,49.5c9.6,0,17.5-7.9,17.5-17.5S41.6,14.5,32,14.5z M32,47.2
		c-8.4,0-15.2-6.8-15.2-15.2S23.6,16.8,32,16.8S47.2,23.6,47.2,32S40.4,47.2,32,47.2z"/>
</g>
</svg>
