<?xml version="1.0" encoding="utf-8"?>
<!-- Generated by IcoMoon.io -->
<!DOCTYPE svg PUBLIC "-//W3C//DTD SVG 1.1//EN" "http://www.w3.org/Graphics/SVG/1.1/DTD/svg11.dtd">
<svg version="1.1" xmlns="http://www.w3.org/2000/svg" xmlns:xlink="http://www.w3.org/1999/xlink" width="15" height="16" viewBox="0 0 15 16">
<g>
</g>
	<path d="M0.393 12.42q0.313 0.036 0.696 0.036 2.009 0 3.58-1.232-0.938-0.018-1.679-0.576t-1.018-1.424q0.295 0.045 0.545 0.045 0.384 0 0.759-0.098-1-0.205-1.656-0.996t-0.656-1.835v-0.036q0.607 0.339 1.304 0.366-0.589-0.393-0.938-1.027t-0.348-1.375q0-0.786 0.393-1.455 1.080 1.33 2.629 2.129t3.317 0.888q-0.071-0.339-0.071-0.661 0-1.196 0.844-2.040t2.040-0.844q1.25 0 2.107 0.911 0.973-0.188 1.83-0.696-0.33 1.027-1.268 1.589 0.83-0.089 1.661-0.446-0.598 0.875-1.446 1.491 0.009 0.125 0.009 0.375 0 1.161-0.339 2.317t-1.031 2.219-1.647 1.879-2.304 1.304-2.884 0.487q-2.42 0-4.429-1.295z" fill="#000000"></path>
</svg>
