<?xml version="1.0" encoding="utf-8"?>
<!-- Generator: Adobe Illustrator 18.1.1, SVG Export Plug-In . SVG Version: 6.00 Build 0)  -->
<svg version="1.2" baseProfile="tiny" id="Capa_1" xmlns="http://www.w3.org/2000/svg" xmlns:xlink="http://www.w3.org/1999/xlink"
	 x="0px" y="0px" viewBox="0 0 64 64" xml:space="preserve">
<path fill="#010002" d="M52.5,14.8l-0.2-0.2c-4-4-10.4-4-14.4,0l-9.2,9.2c-4,4,1.1,5.4,3.3,3.3l9.2-9.2c2.1-2.1,5.6-2.1,7.8,0
	l0.2,0.2c2.1,2.1,2.1,5.6,0,7.8L45.1,30c0.7,1.8,1.1,3.7,1,5.6l6.4-6.4C56.5,25.2,56.5,18.7,52.5,14.8z M35.9,39.2l-9.2,9.2
	c-2.1,2.1-5.6,2.1-7.8,0l-0.2-0.2c-2.1-2.1-2.1-5.6,0-7.8l4.1-4.1c-0.7-1.8-1.1-3.7-1-5.6l-6.4,6.4c-4,4-4,10.4,0,14.4l0.2,0.2
	c4,4,10.4,4,14.4,0l9.2-9.2C43.1,38.5,38,37,35.9,39.2z"/>
</svg>
