<?xml version="1.0" encoding="utf-8"?>
<!-- Generated by IcoMoon.io -->
<!DOCTYPE svg PUBLIC "-//W3C//DTD SVG 1.1//EN" "http://www.w3.org/Graphics/SVG/1.1/DTD/svg11.dtd">
<svg version="1.1" xmlns="http://www.w3.org/2000/svg" xmlns:xlink="http://www.w3.org/1999/xlink" width="15" height="16" viewBox="0 0 15 16">
<g>
</g>
	<path d="M0 9.714q0-0.125 0.080-0.205t0.205-0.080h2.857q0.125 0 0.205 0.080t0.080 0.205-0.080 0.205-0.205 0.080h-2.857q-0.125 0-0.205-0.080t-0.080-0.205zM0.143 4q0-1.071 0.759-1.813l1.313-1.304q0.741-0.741 1.813-0.741 1.080 0 1.821 0.759l2.982 2.991q0.188 0.188 0.375 0.5l-2.134 0.161-2.438-2.446q-0.25-0.25-0.607-0.25-0.348 0-0.607 0.241l-1.313 1.304q-0.25 0.25-0.25 0.598 0 0.357 0.25 0.607l2.446 2.446-0.161 2.143q-0.313-0.188-0.5-0.375l-3-3q-0.75-0.768-0.75-1.821zM1.143 13.429q0-0.116 0.080-0.205l2.286-2.286q0.089-0.080 0.205-0.080t0.205 0.080q0.080 0.089 0.080 0.205t-0.080 0.205l-2.286 2.286q-0.089 0.080-0.205 0.080-0.107 0-0.205-0.080-0.080-0.089-0.080-0.205zM4.857 14.571v-2.857q0-0.125 0.080-0.205t0.205-0.080 0.205 0.080 0.080 0.205v2.857q0 0.125-0.080 0.205t-0.205 0.080-0.205-0.080-0.080-0.205zM5.652 10.464l2.134-0.161 2.438 2.446q0.241 0.241 0.607 0.246t0.607-0.237l1.313-1.304q0.25-0.25 0.25-0.598 0-0.357-0.25-0.607l-2.446-2.455 0.161-2.134q0.313 0.188 0.5 0.375l3 3q0.75 0.768 0.75 1.821 0 1.071-0.759 1.813l-1.313 1.304q-0.741 0.741-1.813 0.741-1.080 0-1.821-0.759l-2.982-2.991q-0.188-0.188-0.375-0.5zM9.429 3.143v-2.857q0-0.125 0.080-0.205t0.205-0.080 0.205 0.080 0.080 0.205v2.857q0 0.125-0.080 0.205t-0.205 0.080-0.205-0.080-0.080-0.205zM10.857 3.714q0-0.116 0.080-0.205l2.286-2.286q0.089-0.080 0.205-0.080t0.205 0.080q0.080 0.089 0.080 0.205t-0.080 0.205l-2.286 2.286q-0.098 0.080-0.205 0.080t-0.205-0.080q-0.080-0.089-0.080-0.205zM11.429 5.143q0-0.125 0.080-0.205t0.205-0.080h2.857q0.125 0 0.205 0.080t0.080 0.205-0.080 0.205-0.205 0.080h-2.857q-0.125 0-0.205-0.080t-0.080-0.205z" fill="#000000"></path>
</svg>
