<svg xmlns="http://www.w3.org/2000/svg" viewBox="0 0 297 94"><path d="M66 16H20c-2.2 0-4 1.8-4 4v46c0 2.2 1.8 4 4 4h46c2.2 0 4-1.8 4-4V20c0-2.2-1.8-4-4-4zM32 51c0 .6-.4 1-1 1h-6c-.6 0-1-.4-1-1v-6c0-.6.4-1 1-1h6c.6 0 1 .4 1 1v6zm0-10c0 .6-.4 1-1 1h-6c-.6 0-1-.4-1-1v-6c0-.6.4-1 1-1h6c.6 0 1 .4 1 1v6zm0-10c0 .6-.4 1-1 1h-6c-.6 0-1-.4-1-1v-6c0-.6.4-1 1-1h6c.6 0 1 .4 1 1v6zm10 30c0 .6-.4 1-1 1h-6c-.6 0-1-.4-1-1v-6c0-.6.4-1 1-1h6c.6 0 1 .4 1 1v6zm0-20c0 .6-.4 1-1 1h-6c-.6 0-1-.4-1-1v-6c0-.6.4-1 1-1h6c.6 0 1 .4 1 1v6zm0-10c0 .6-.4 1-1 1h-6c-.6 0-1-.4-1-1v-6c0-.6.4-1 1-1h6c.6 0 1 .4 1 1v6zm10 30c0 .6-.4 1-1 1h-6c-.6 0-1-.4-1-1v-6c0-.6.4-1 1-1h6c.6 0 1 .4 1 1v6zm0-10c0 .6-.4 1-1 1h-6c-.6 0-1-.4-1-1v-6c0-.6.4-1 1-1h6c.6 0 1 .4 1 1v6zm0-20c0 .6-.4 1-1 1h-6c-.6 0-1-.4-1-1v-6c0-.6.4-1 1-1h6c.6 0 1 .4 1 1v6zm10 30c0 .6-.4 1-1 1h-6c-.6 0-1-.4-1-1v-6c0-.6.4-1 1-1h6c.6 0 1 .4 1 1v6zm0-10c0 .6-.4 1-1 1h-6c-.6 0-1-.4-1-1v-6c0-.6.4-1 1-1h6c.6 0 1 .4 1 1v6zm0-10c0 .6-.4 1-1 1h-6c-.6 0-1-.4-1-1v-6c0-.6.4-1 1-1h6c.6 0 1 .4 1 1v6z" fill="#FFFFFF"/><path d="M114.4 65.3H90.7v-49c0-.3-.2-.5-.5-.5h-3.7c-.3 0-.5.2-.5.5v52.6c0 .3.2.5.5.5h27.9c.3 0 .5-.2.5-.5v-3.2c0-.2-.2-.4-.5-.4zm35.1-35.2h-8.4v-7.8c0-5.5 1.8-8.2 5.5-8.2 1.5 0 3 .4 4.4 1 .1.1.3.1.4 0l.3-.3 1-2.9c.1-.2 0-.5-.3-.6-1.9-.8-4-1.3-5.8-1.3-6.4 0-10 4.3-10 12v8.1l-4.8.3c-.3 0-.5.2-.5.5v2.7c0 .3.2.5.5.5h4.8v34.8c0 .3.2.5.5.5h3.5c.3 0 .5-.2.5-.5V34.1h8.4c.3 0 .5-.2.5-.5v-3.1c0-.2-.2-.4-.5-.4zm18.2-1c-8.3 0-17.2 7.3-17.2 20.7 0 12.1 7.5 20.6 18.2 20.6 5.7 0 9.2-1.9 12.4-3.8.2-.1.3-.4.2-.7l-1.5-2.7c-.1-.1-.2-.2-.3-.2s-.3 0-.4.1c-3.2 2.3-6.4 3.3-10 3.3-8.1 0-13.6-6.3-13.9-15.6h27.1c.2 0 .4-.2.5-.4.2-1 .2-2.1.2-3-.2-11.5-5.8-18.3-15.3-18.3zm-12.6 17.7c.9-8.1 6-13.7 12.6-13.7 6.9 0 10.7 4.9 10.8 13.7h-23.4zM208.4 30c-1.2-.6-2.4-.8-4-.8-4 0-7.8 2.5-10.7 7.2l-.3-5.8c0-.3-.2-.5-.5-.5h-3c-.3 0-.5.2-.5.5V69c0 .3.2.5.5.5h3.5c.3 0 .5-.2.5-.5V43c2.4-6 6.1-9.5 10-9.5 1.4 0 2 .2 3.3.6h.4c.1-.1.2-.2.2-.3l.8-3.2c.1-.3 0-.5-.2-.6zm31.6.1h-3.1c-.3 0-.5.2-.5.5l-.2 2.9c-3.3-2.6-6.5-4.3-11.1-4.3-10.2 0-17.5 8.7-17.5 20.7 0 12.9 6.1 20.6 16.4 20.6 4.2 0 8.4-1.9 12.3-5.5l.3 4.1c0 .3.2.5.5.5h3c.3 0 .5-.2.5-.5V30.6c-.1-.3-.3-.5-.6-.5zm-4 7.8v22.3c-4.1 4.2-7.7 6-11.5 6-7.6 0-12.2-6.2-12.2-16.5 0-9.3 5.7-16.6 13-16.6 3.8.1 7 1.5 10.7 4.8zm42.2-7.6c-.1-.1-.2-.2-.4-.2h-3.6c-.2 0-.4.1-.5.3l-8.2 24.1c-.4 1.3-.9 2.7-1.3 4.1-.6 2-1.3 4-1.9 5.8-.8-2-1.6-4.2-2.4-6.3-.5-1.3-1-2.5-1.4-3.7l-9.2-24.1c-.1-.2-.3-.3-.5-.3H245c-.2 0-.3.1-.4.2-.1.1-.1.3 0 .5l15.7 38.9-1 3.2c-1.5 4.5-4.3 9.8-9.4 9.8-1 0-2.2-.3-3-.6h-.4l-.3.3-.8 3.1c-.1.2.1.5.3.6 1.1.5 2.7.8 4.1.8 5.9 0 10.5-4.5 13.4-13l15.1-43.2c.1 0 0-.2-.1-.3zm-153.8-8.9c.6 0 1.1-.5 1.1-1.1v-3.6c0-.6-.5-1.1-1.1-1.1h-3.6c-.6 0-1.1.5-1.1 1.1v3.6c0 .6.5 1.1 1.1 1.1h3.6zm-3.6 8.7h3.5c.3 0 .5.2.5.5V69c0 .3-.2.5-.5.5h-3.5c-.3 0-.5-.2-.5-.5V30.6c0-.3.2-.5.5-.5z" fill="#FFFFFF"/></svg>