<?xml version="1.0" encoding="UTF-8"?>
<svg width="168px" height="168px" viewBox="0 0 168 168" version="1.1" xmlns="http://www.w3.org/2000/svg" xmlns:xlink="http://www.w3.org/1999/xlink">
    <!-- Generator: Sketch 46.2 (44496) - http://www.bohemiancoding.com/sketch -->
    <title>Group 3</title>
    <desc>Created with Sketch.</desc>
    <defs></defs>
    <g id="Page-1" stroke="none" stroke-width="1" fill="none" fill-rule="evenodd">
        <g id="Canvas-Copy-49" transform="translate(-12.000000, -12.000000)">
            <g id="Group-3" transform="translate(16.000000, 16.000000)">
                <g id="Group-2" transform="translate(64.000000, 0.000000)">
                    <g id="Group-Copy">
                        <polygon id="Rectangle-7-Copy-14" stroke="#B3472D" stroke-width="8" fill="#F7ECEA" transform="translate(48.000000, 68.000000) scale(1, -1) translate(-48.000000, -68.000000) " points="0 2.84217094e-14 96 2.84217094e-14 96 96 56 136 24.2060547 136 0 136 0 111.742187"></polygon>
                        <path d="M12,88 L76,88" id="Line-Copy-2" stroke="#B3472D" stroke-width="8" stroke-linecap="square"></path>
                        <path d="M12,64 L76,64" id="Line-Copy-7" stroke="#B3472D" stroke-width="8" stroke-linecap="square"></path>
                        <path d="M12,112 L52.012498,112" id="Line-Copy-4" stroke="#B3472D" stroke-width="8" stroke-linecap="square"></path>
                        <path d="M53,2.75146484 L53,34.7382812 C53,39.1565592 56.581722,42.7382812 61,42.7382812 L93.1484375,42.7382812 L53,2.75146484 Z" id="Rectangle-7-Copy-14" fill="#FFFFFF"></path>
                        <polyline id="Rectangle-7-Copy-14" stroke="#B3472D" stroke-width="8" points="56 0 56 40 96 40"></polyline>
                    </g>
                </g>
                <polygon id="Rectangle-7-Copy-14" stroke="#B3472D" stroke-width="8" fill="#FFFFFF" transform="translate(48.000000, 92.000000) scale(1, -1) translate(-48.000000, -92.000000) " points="0 24 96 24 96 160 0 160"></polygon>
                <path d="M20,112 L76,112" id="Line-Copy-2" stroke="#B3472D" stroke-width="8" stroke-linecap="square"></path>
                <path d="M60,88 L76,88" id="Line-Copy-7" stroke="#B3472D" stroke-width="8" stroke-linecap="square"></path>
                <path d="M60,64 L76,64" id="Line-Copy-8" stroke="#B3472D" stroke-width="8" stroke-linecap="square"></path>
                <g id="Group" transform="translate(19.000000, 62.000000)" stroke="#FFCD72" stroke-width="8">
                    <path d="M1,2 L1,26" id="Line-Copy-9" stroke-linecap="square"></path>
                    <path d="M2,1 L24,27.5" id="Line-Copy-9"></path>
                    <path d="M25,2 L25,26" id="Line-Copy-10" stroke-linecap="square"></path>
                </g>
                <path d="M20,136 L52,136" id="Line-Copy-4" stroke="#B3472D" stroke-width="8" stroke-linecap="square"></path>
            </g>
        </g>
    </g>
</svg>