<?xml version="1.0" encoding="UTF-8"?>
<svg width="1056px" height="1056px" viewBox="0 0 1056 1056" version="1.1" xmlns="http://www.w3.org/2000/svg" xmlns:xlink="http://www.w3.org/1999/xlink">
    <!-- Generator: Sketch 46.2 (44496) - http://www.bohemiancoding.com/sketch -->
    <title>Group 3</title>
    <desc>Created with Sketch.</desc>
    <defs>
        <path d="M216,336 L240,120 C240,53.72583 186.27417,0 120,0 C53.72583,0 0,53.72583 0,120 L24,336 L216,336 Z" id="path-1"></path>
        <path d="M216,336 L240,120 C240,53.72583 186.27417,0 120,0 C53.72583,0 0,53.72583 0,120 L24,336 L216,336 Z" id="path-2"></path>
        <circle id="path-3" cx="156" cy="324" r="60"></circle>
        <circle id="path-4" cx="84" cy="444" r="60"></circle>
        <polygon id="path-5" points="0 180 8.81378304e-13 0 240 0 240 180 192.635742 180 108 240 108 180"></polygon>
        <rect id="path-6" x="264" y="264" width="240" height="240"></rect>
        <circle id="path-7" cx="156" cy="324" r="60"></circle>
        <circle id="path-8" cx="84" cy="444" r="60"></circle>
        <polygon id="path-9" points="0 180 8.81378304e-13 0 240 0 240 180 192.635742 180 108 240 108 180"></polygon>
        <rect id="path-10" x="264" y="264" width="240" height="240"></rect>
    </defs>
    <g id="Page-1" stroke="none" stroke-width="1" fill="none" fill-rule="evenodd">
        <g id="Artboard-Copy-8">
            <g id="Group-3">
                <rect id="Rectangle-5" fill="#B3472D" x="0" y="0" width="1056" height="1056"></rect>
                <g id="Group-2" opacity="0.280000001" style="mix-blend-mode: multiply;" transform="translate(12.000000, 12.000000)">
                    <g id="Group">
                        <rect id="Rectangle-7-Copy-13" stroke="#B3472D" stroke-width="24" transform="translate(384.000000, 252.000000) scale(1, -1) translate(-384.000000, -252.000000) " x="276" y="12" width="216" height="480"></rect>
                        <path d="M285,300 L413,300" id="Line-Copy-2" stroke="#B3472D" stroke-width="24" stroke-linecap="square"></path>
                        <path d="M285,396 L413,396" id="Line-Copy-4" stroke="#B3472D" stroke-width="24" stroke-linecap="square"></path>
                        <path d="M285,204 L413,204" id="Line-Copy-7" stroke="#B3472D" stroke-width="24" stroke-linecap="square"></path>
                        <circle id="Oval-2-Copy-21" stroke="#B3472D" stroke-width="24" transform="translate(408.000000, 96.000000) scale(1, -1) translate(-408.000000, -96.000000) " cx="408" cy="96" r="36"></circle>
                        <path d="M81.7297322,404.408382 L81.7297322,284.5 L159.56757,284.5 L159.56757,405.760328 L180,414.22973 L160.540541,492.067568 L82.7027027,492.067568 L60,414.22973 L81.7297322,404.408382 Z" id="Combined-Shape" stroke="#B3472D" stroke-width="24"></path>
                        <g id="Combined-Shape">
                            <use fill="#FFFFFF" fill-rule="evenodd" xlink:href="#path-1"></use>
                            <path stroke="#B3472D" stroke-width="24" d="M205.259486,324 L227.9981,119.352481 C227.649666,60.003695 179.430765,12 120,12 C60.5692352,12 12.3503342,60.003695 12.0019003,119.352481 L34.7405135,324 L205.259486,324 Z"></path>
                        </g>
                        <path d="M156,156 L156,288" id="Line-Copy" stroke="#B3472D" stroke-width="24" fill="#FFFFFF"></path>
                        <path d="M84,156 L84,288" id="Line-Copy-5" stroke="#B3472D" stroke-width="24" fill="#FFFFFF"></path>
                        <path d="M8,120 L232,120" id="Line-Copy-3" stroke="#B3472D" stroke-width="24" fill="#FFFFFF"></path>
                    </g>
                    <g id="Group-Copy" transform="translate(528.000000, 528.000000)">
                        <rect id="Rectangle-7-Copy-13" stroke="#B3472D" stroke-width="24" transform="translate(384.000000, 252.000000) scale(1, -1) translate(-384.000000, -252.000000) " x="276" y="12" width="216" height="480"></rect>
                        <path d="M285,300 L413,300" id="Line-Copy-2" stroke="#B3472D" stroke-width="24" stroke-linecap="square"></path>
                        <path d="M285,396 L413,396" id="Line-Copy-4" stroke="#B3472D" stroke-width="24" stroke-linecap="square"></path>
                        <path d="M285,204 L413,204" id="Line-Copy-7" stroke="#B3472D" stroke-width="24" stroke-linecap="square"></path>
                        <circle id="Oval-2-Copy-21" stroke="#B3472D" stroke-width="24" transform="translate(408.000000, 96.000000) scale(1, -1) translate(-408.000000, -96.000000) " cx="408" cy="96" r="36"></circle>
                        <path d="M81.7297322,404.408382 L81.7297322,284.5 L159.56757,284.5 L159.56757,405.760328 L180,414.22973 L160.540541,492.067568 L82.7027027,492.067568 L60,414.22973 L81.7297322,404.408382 Z" id="Combined-Shape" stroke="#B3472D" stroke-width="24"></path>
                        <g id="Combined-Shape">
                            <use fill="#FFFFFF" fill-rule="evenodd" xlink:href="#path-2"></use>
                            <path stroke="#B3472D" stroke-width="24" d="M205.259486,324 L227.9981,119.352481 C227.649666,60.003695 179.430765,12 120,12 C60.5692352,12 12.3503342,60.003695 12.0019003,119.352481 L34.7405135,324 L205.259486,324 Z"></path>
                        </g>
                        <path d="M156,156 L156,288" id="Line-Copy" stroke="#B3472D" stroke-width="24" fill="#FFFFFF"></path>
                        <path d="M84,156 L84,288" id="Line-Copy-5" stroke="#B3472D" stroke-width="24" fill="#FFFFFF"></path>
                        <path d="M8,120 L232,120" id="Line-Copy-3" stroke="#B3472D" stroke-width="24" fill="#FFFFFF"></path>
                    </g>
                    <g id="Group" transform="translate(528.000000, 0.000000)">
                        <path d="M0,324 L240,324" id="Line" stroke="#B3472D" stroke-width="24"></path>
                        <g id="Oval-2-Copy-19" transform="translate(156.000000, 324.000000) scale(1, -1) translate(-156.000000, -324.000000) ">
                            <use fill="#FFFFFF" fill-rule="evenodd" xlink:href="#path-3"></use>
                            <circle stroke="#B3472D" stroke-width="24" cx="156" cy="324" r="48"></circle>
                        </g>
                        <path d="M0,445 L240,445" id="Line-Copy" stroke="#B3472D" stroke-width="24"></path>
                        <g id="Oval-2-Copy-20" transform="translate(84.000000, 444.000000) scale(1, -1) translate(-84.000000, -444.000000) ">
                            <use fill="#FFFFFF" fill-rule="evenodd" xlink:href="#path-4"></use>
                            <circle stroke="#B3472D" stroke-width="24" cx="84" cy="444" r="48"></circle>
                        </g>
                        <circle id="Oval-2-Copy-20" stroke="#B3472D" stroke-width="24" transform="translate(384.000000, 120.000000) scale(1, -1) translate(-384.000000, -120.000000) " cx="384" cy="120" r="108"></circle>
                        <circle id="Oval-2-Copy-20" stroke="#B3472D" stroke-width="24" transform="translate(384.000000, 120.000000) scale(1, -1) translate(-384.000000, -120.000000) " cx="384" cy="120" r="42"></circle>
                        <g id="Path" transform="translate(120.000000, 120.000000) scale(-1, 1) translate(-120.000000, -120.000000) ">
                            <use fill="#FFFFFF" fill-rule="evenodd" xlink:href="#path-5"></use>
                            <path stroke="#B3472D" stroke-width="24" d="M12,168 L120,168 L120,216.783442 L188.813713,168 L228,168 L228,12 L12,12 L12,168 Z"></path>
                        </g>
                        <g id="Rectangle-7-Copy-14" transform="translate(384.000000, 384.000000) scale(1, -1) translate(-384.000000, -384.000000) ">
                            <use fill="#FFFFFF" fill-rule="evenodd" xlink:href="#path-6"></use>
                            <rect stroke="#B3472D" stroke-width="24" x="276" y="276" width="216" height="216"></rect>
                        </g>
                        <polyline id="Path-4" stroke="#B3472D" stroke-width="24" transform="translate(339.000000, 384.000000) rotate(-270.000000) translate(-339.000000, -384.000000) " points="291 363 338.691157 405 387 364.001084"></polyline>
                        <polyline id="Path-4-Copy" stroke="#B3472D" stroke-width="24" transform="translate(429.000000, 384.000000) scale(-1, 1) rotate(-270.000000) translate(-429.000000, -384.000000) " points="381 363 428.691157 405 477 364.001084"></polyline>
                    </g>
                    <g id="Group-Copy-2" transform="translate(0.000000, 528.000000)">
                        <path d="M0,324 L240,324" id="Line" stroke="#B3472D" stroke-width="24"></path>
                        <g id="Oval-2-Copy-19" transform="translate(156.000000, 324.000000) scale(1, -1) translate(-156.000000, -324.000000) ">
                            <use fill="#FFFFFF" fill-rule="evenodd" xlink:href="#path-7"></use>
                            <circle stroke="#B3472D" stroke-width="24" cx="156" cy="324" r="48"></circle>
                        </g>
                        <path d="M0,445 L240,445" id="Line-Copy" stroke="#B3472D" stroke-width="24"></path>
                        <g id="Oval-2-Copy-20" transform="translate(84.000000, 444.000000) scale(1, -1) translate(-84.000000, -444.000000) ">
                            <use fill="#FFFFFF" fill-rule="evenodd" xlink:href="#path-8"></use>
                            <circle stroke="#B3472D" stroke-width="24" cx="84" cy="444" r="48"></circle>
                        </g>
                        <circle id="Oval-2-Copy-20" stroke="#B3472D" stroke-width="24" transform="translate(384.000000, 120.000000) scale(1, -1) translate(-384.000000, -120.000000) " cx="384" cy="120" r="108"></circle>
                        <circle id="Oval-2-Copy-20" stroke="#B3472D" stroke-width="24" transform="translate(384.000000, 120.000000) scale(1, -1) translate(-384.000000, -120.000000) " cx="384" cy="120" r="42"></circle>
                        <g id="Path" transform="translate(120.000000, 120.000000) scale(-1, 1) translate(-120.000000, -120.000000) ">
                            <use fill="#FFFFFF" fill-rule="evenodd" xlink:href="#path-9"></use>
                            <path stroke="#B3472D" stroke-width="24" d="M12,168 L120,168 L120,216.783442 L188.813713,168 L228,168 L228,12 L12,12 L12,168 Z"></path>
                        </g>
                        <g id="Rectangle-7-Copy-14" transform="translate(384.000000, 384.000000) scale(1, -1) translate(-384.000000, -384.000000) ">
                            <use fill="#FFFFFF" fill-rule="evenodd" xlink:href="#path-10"></use>
                            <rect stroke="#B3472D" stroke-width="24" x="276" y="276" width="216" height="216"></rect>
                        </g>
                        <polyline id="Path-4" stroke="#B3472D" stroke-width="24" transform="translate(339.000000, 384.000000) rotate(-270.000000) translate(-339.000000, -384.000000) " points="291 363 338.691157 405 387 364.001084"></polyline>
                        <polyline id="Path-4-Copy" stroke="#B3472D" stroke-width="24" transform="translate(429.000000, 384.000000) scale(-1, 1) rotate(-270.000000) translate(-429.000000, -384.000000) " points="381 363 428.691157 405 477 364.001084"></polyline>
                    </g>
                </g>
            </g>
        </g>
    </g>
</svg>