<?xml version="1.0" encoding="UTF-8"?>
<svg width="1123px" height="1123px" viewBox="0 0 1123 1123" version="1.1" xmlns="http://www.w3.org/2000/svg" xmlns:xlink="http://www.w3.org/1999/xlink">
    <!-- Generator: Sketch 46.2 (44496) - http://www.bohemiancoding.com/sketch -->
    <title>Group 6</title>
    <desc>Created with Sketch.</desc>
    <defs></defs>
    <g id="Page-1" stroke="none" stroke-width="1" fill="none" fill-rule="evenodd">
        <g id="Artboard-Copy-4">
            <g id="Group-6">
                <rect id="Rectangle-5" fill="#B3472D" x="0" y="0" width="1123" height="1123"></rect>
                <g id="Group-5" opacity="0.3" style="mix-blend-mode: multiply;" transform="translate(24.000000, 24.000000)" stroke="#B3472D" stroke-width="22">
                    <path d="M77.4400024,425.309604 L77.4400024,307 L154.240002,307 L154.240002,426.643524 L174.4,435 L155.2,511.8 L78.4,511.8 L56,435 L77.4400024,425.309604 Z" id="Combined-Shape"></path>
                    <path d="M204.8,332.8 L230.4,115.2 C230.4,51.5767968 178.823203,0 115.2,0 C51.5767968,0 0,51.5767968 0,115.2 L25.6,332.8 L204.8,332.8 Z" id="Combined-Shape" fill="#FFFFFF"></path>
                    <g id="Group" transform="translate(69.000000, 150.000000)" fill="#FFFFFF" stroke-linecap="square">
                        <path d="M11,0 L11,128" id="Line"></path>
                        <path d="M91,0 L91,128" id="Line-Copy"></path>
                    </g>
                    <path d="M3,110 L227,110" id="Line-Copy-3" fill="#FFFFFF" stroke-linecap="round"></path>
                    <rect id="Rectangle-7-Copy-13" transform="translate(396.200000, 256.000000) scale(1, -1) translate(-396.200000, -256.000000) " x="281" y="0" width="230.4" height="512"></rect>
                    <path d="M281,305 L409,305" id="Line-Copy-2" stroke-linecap="square"></path>
                    <path d="M281,407 L409,407" id="Line-Copy-4" stroke-linecap="square"></path>
                    <path d="M281,203 L409,203" id="Line-Copy-7" stroke-linecap="square"></path>
                    <circle id="Oval-2-Copy-21" transform="translate(422.400000, 89.400000) scale(1, -1) translate(-422.400000, -89.400000) " cx="422.4" cy="89.4" r="38.4"></circle>
                    <path d="M640.440002,988.309604 L640.440002,870 L717.240002,870 L717.240002,989.643524 L737.4,998 L718.2,1074.8 L641.4,1074.8 L619,998 L640.440002,988.309604 Z" id="Combined-Shape"></path>
                    <path d="M767.8,895.8 L793.4,678.2 C793.4,614.576797 741.823203,563 678.2,563 C614.576797,563 563,614.576797 563,678.2 L588.6,895.8 L767.8,895.8 Z" id="Combined-Shape" fill="#FFFFFF"></path>
                    <g id="Group" transform="translate(632.000000, 713.000000)" fill="#FFFFFF" stroke-linecap="square">
                        <path d="M11,0 L11,128" id="Line"></path>
                        <path d="M91,0 L91,128" id="Line-Copy"></path>
                    </g>
                    <path d="M566,673 L790,673" id="Line-Copy-3" fill="#FFFFFF" stroke-linecap="round"></path>
                    <rect id="Rectangle-7-Copy-13" transform="translate(959.200000, 819.000000) scale(1, -1) translate(-959.200000, -819.000000) " x="844" y="563" width="230.4" height="512"></rect>
                    <path d="M844,868 L972,868" id="Line-Copy-2" stroke-linecap="square"></path>
                    <path d="M844,970 L972,970" id="Line-Copy-4" stroke-linecap="square"></path>
                    <path d="M844,766 L972,766" id="Line-Copy-7" stroke-linecap="square"></path>
                    <circle id="Oval-2-Copy-21" transform="translate(985.400000, 652.400000) scale(1, -1) translate(-985.400000, -652.400000) " cx="985.4" cy="652.4" r="38.4"></circle>
                    <g id="Group-2" transform="translate(563.000000, 288.000000)">
                        <path d="M0,51 L230.4,51" id="Line" stroke-linecap="square"></path>
                        <circle id="Oval-2-Copy-19" fill="#FFFFFF" transform="translate(149.200000, 51.200000) scale(1, -1) translate(-149.200000, -51.200000) " cx="149.2" cy="51.2" r="51.2"></circle>
                    </g>
                    <g id="Group" transform="translate(563.000000, 408.000000)">
                        <path d="M0,51 L230.4,51" id="Line-Copy" stroke-linecap="square"></path>
                        <circle id="Oval-2-Copy-20" fill="#FFFFFF" transform="translate(83.200000, 51.200000) scale(1, -1) translate(-83.200000, -51.200000) " cx="83.2" cy="51.2" r="51.2"></circle>
                    </g>
                    <g id="Group-4" transform="translate(844.000000, 0.000000)">
                        <circle id="Oval-2-Copy-20" transform="translate(115.200000, 115.200000) scale(1, -1) translate(-115.200000, -115.200000) " cx="115.2" cy="115.2" r="115.2"></circle>
                        <circle id="Oval-2-Copy-20" transform="translate(114.800000, 114.800000) scale(1, -1) translate(-114.800000, -114.800000) " cx="114.8" cy="114.8" r="44.8"></circle>
                    </g>
                    <path d="M563,189.12 L563,8 L793.4,8 L793.4,189.12 C768.116458,189.12 752.959896,189.12 747.930312,189.12 L690.411875,238.810625 L690.411875,189.12 L563,189.12 Z" id="Path" fill="#FFFFFF" stroke-linecap="round" transform="translate(678.200000, 123.405312) scale(-1, 1) translate(-678.200000, -123.405312) "></path>
                    <g id="Group-3" transform="translate(844.000000, 280.000000)">
                        <rect id="Rectangle-7-Copy-14" fill="#FFFFFF" transform="translate(115.200000, 115.200000) scale(1, -1) translate(-115.200000, -115.200000) " x="0" y="0" width="230.4" height="230.4"></rect>
                        <polyline id="Path-2" stroke-linecap="square" transform="translate(69.066667, 114.822222) scale(-1, 1) translate(-69.066667, -114.822222) " points="52 75 86.1333333 114.822222 52 154.644444"></polyline>
                        <polyline id="Path-2-Copy" stroke-linecap="square" points="145 75 179.133333 114.822222 145 154.644444"></polyline>
                    </g>
                    <g id="Group-2" transform="translate(0.000000, 852.000000)">
                        <path d="M0,51 L230.4,51" id="Line" stroke-linecap="square"></path>
                        <circle id="Oval-2-Copy-19" fill="#FFFFFF" transform="translate(149.200000, 51.200000) scale(1, -1) translate(-149.200000, -51.200000) " cx="149.2" cy="51.2" r="51.2"></circle>
                    </g>
                    <g id="Group" transform="translate(0.000000, 972.000000)">
                        <path d="M0,51 L230.4,51" id="Line-Copy" stroke-linecap="square"></path>
                        <circle id="Oval-2-Copy-20" fill="#FFFFFF" transform="translate(83.200000, 51.200000) scale(1, -1) translate(-83.200000, -51.200000) " cx="83.2" cy="51.2" r="51.2"></circle>
                    </g>
                    <g id="Group-4" transform="translate(281.000000, 564.000000)">
                        <circle id="Oval-2-Copy-20" transform="translate(115.200000, 115.200000) scale(1, -1) translate(-115.200000, -115.200000) " cx="115.2" cy="115.2" r="115.2"></circle>
                        <circle id="Oval-2-Copy-20" transform="translate(114.800000, 114.800000) scale(1, -1) translate(-114.800000, -114.800000) " cx="114.8" cy="114.8" r="44.8"></circle>
                    </g>
                    <path d="M0,753.12 L8.46123172e-13,572 L230.4,572 L230.4,753.12 C205.116458,753.12 189.959896,753.12 184.930312,753.12 L127.411875,802.810625 L127.411875,753.12 L0,753.12 Z" id="Path" fill="#FFFFFF" stroke-linecap="round" transform="translate(115.200000, 687.405312) scale(-1, 1) translate(-115.200000, -687.405312) "></path>
                    <g id="Group-3" transform="translate(281.000000, 844.000000)">
                        <rect id="Rectangle-7-Copy-14" fill="#FFFFFF" transform="translate(115.200000, 115.200000) scale(1, -1) translate(-115.200000, -115.200000) " x="0" y="0" width="230.4" height="230.4"></rect>
                        <polyline id="Path-2" stroke-linecap="square" transform="translate(69.066667, 114.822222) scale(-1, 1) translate(-69.066667, -114.822222) " points="52 75 86.1333333 114.822222 52 154.644444"></polyline>
                        <polyline id="Path-2-Copy" stroke-linecap="square" points="145 75 179.133333 114.822222 145 154.644444"></polyline>
                    </g>
                </g>
            </g>
        </g>
    </g>
</svg>