<?xml version="1.0" encoding="UTF-8"?>
<svg width="168px" height="168px" viewBox="0 0 168 168" version="1.1" xmlns="http://www.w3.org/2000/svg" xmlns:xlink="http://www.w3.org/1999/xlink">
    <!-- Generator: Sketch 46.2 (44496) - http://www.bohemiancoding.com/sketch -->
    <title>Group 3</title>
    <desc>Created with Sketch.</desc>
    <defs></defs>
    <g id="Page-1" stroke="none" stroke-width="1" fill="none" fill-rule="evenodd">
        <g id="Canvas-Copy-46" transform="translate(-12.000000, -12.000000)" stroke="#B3472D" stroke-width="8">
            <g id="Group-3" transform="translate(16.000000, 16.000000)">
                <g id="Group-2" transform="translate(17.000000, 96.000000)" fill="#FFDF9F">
                    <path d="M7,36.9717512 L7,0 L31,0 L31,37.3886012 L37.2999992,40 L31.2999992,64 L7.29999924,64 L0.299999237,40 L7,36.9717512 Z" id="Combined-Shape"></path>
                </g>
                <g id="Group" fill="#FFFFFF">
                    <path d="M64,104 L72,36 C72,16.117749 55.882251,0 36,0 C16.117749,0 0,16.117749 0,36 L8,104 L64,104 Z" id="Combined-Shape"></path>
                    <path d="M25,52 L25,84" id="Line" stroke-linecap="square"></path>
                    <path d="M47,52 L47,84" id="Line-Copy" stroke-linecap="square"></path>
                    <path d="M1,32 L71,32" id="Line-Copy-3" stroke-linecap="round"></path>
                </g>
                <rect id="Rectangle-7-Copy-13" fill="#F7ECEA" transform="translate(124.000000, 80.000000) scale(1, -1) translate(-124.000000, -80.000000) " x="88" y="0" width="72" height="160"></rect>
                <path d="M92,76 L124,76" id="Line-Copy-2" stroke-linecap="square"></path>
                <path d="M92,104 L124,104" id="Line-Copy-4" stroke-linecap="square"></path>
                <path d="M92,132 L124,132" id="Line-Copy-5" stroke-linecap="square"></path>
                <circle id="Oval-2-Copy-21" fill="#FFDF9F" transform="translate(132.000000, 28.000000) scale(1, -1) translate(-132.000000, -28.000000) " cx="132" cy="28" r="12"></circle>
                <path d="M71.1125264,28.0202647 C67.4821811,11.9781768 53.1399171,0 36,0 C18.9083007,0 4.59853605,11.9108778 0.918366266,27.8849731" id="Combined-Shape" fill="#F7ECEA"></path>
            </g>
        </g>
    </g>
</svg>