<?xml version="1.0" encoding="UTF-8"?>
<svg width="168px" height="171px" viewBox="0 0 168 171" version="1.1" xmlns="http://www.w3.org/2000/svg" xmlns:xlink="http://www.w3.org/1999/xlink">
    <!-- Generator: Sketch 46.2 (44496) - http://www.bohemiancoding.com/sketch -->
    <title>Group 2</title>
    <desc>Created with Sketch.</desc>
    <defs></defs>
    <g id="Page-1" stroke="none" stroke-width="1" fill="none" fill-rule="evenodd">
        <g id="Canvas-Copy-48" transform="translate(-12.000000, -12.000000)">
            <g id="Group-2" transform="translate(16.000000, 16.000000)">
                <rect id="Rectangle-7-Copy-13" stroke="#B3472D" stroke-width="8" fill="#F7ECEA" transform="translate(124.000000, 80.000000) scale(1, -1) translate(-124.000000, -80.000000) " x="88" y="0" width="72" height="160"></rect>
                <path d="M88,96 L128,96" id="Line-Copy-2" stroke="#B3472D" stroke-width="8" stroke-linecap="square"></path>
                <path d="M88,128 L128,128" id="Line-Copy-4" stroke="#B3472D" stroke-width="8" stroke-linecap="square"></path>
                <path d="M88,64 L128,64" id="Line-Copy-7" stroke="#B3472D" stroke-width="8" stroke-linecap="square"></path>
                <circle id="Oval-2-Copy-21" stroke="#B3472D" stroke-width="8" fill="#FFDF9F" transform="translate(132.000000, 28.000000) scale(1, -1) translate(-132.000000, -28.000000) " cx="132" cy="28" r="12"></circle>
                <g id="Group">
                    <polygon id="Path-2" fill="#FFFFFF" points="3 112 19 138 37 134 53 138 71 112"></polygon>
                    <path d="M72,112 L72,36 C72,16.117749 55.882251,0 36,0 C16.117749,0 0,16.117749 0,36 L0,112" id="Combined-Shape" stroke="#B3472D" stroke-width="8" fill="#FFFFFF" stroke-linejoin="round"></path>
                    <path d="M24,51.5 L24,108.035387" id="Line" stroke="#B3472D" stroke-width="8" stroke-linecap="round"></path>
                    <path d="M48,52.5 L48,108" id="Line-Copy" stroke="#B3472D" stroke-width="8" stroke-linecap="round"></path>
                    <path d="M0,48 L72,48" id="Line-Copy-3" stroke="#B3472D" stroke-width="8" stroke-linecap="round"></path>
                    <path d="M0,112 L72,112" id="Line-Copy-6" stroke="#B3472D" stroke-width="8" stroke-linecap="round"></path>
                    <polygon id="Path-46" fill="#FFDF9F" points="23 136 36 155 49 136"></polygon>
                    <path d="M53.0442768,138.27835 C47.9725002,135.548771 42.1710245,134 36.0078139,134 C30.0576872,134 24.4447149,135.44353 19.5,137.999486" id="Combined-Shape-Copy-2" stroke="#B3472D" stroke-width="8" stroke-linejoin="round"></path>
                    <polyline id="Path-47" stroke="#B3472D" stroke-width="8" stroke-linecap="round" points="0 112 36 160 72 112"></polyline>
                </g>
            </g>
        </g>
    </g>
</svg>