<?xml version="1.0" encoding="iso-8859-1"?>
<!-- Generator: Adobe Illustrator 19.2.1, SVG Export Plug-In . SVG Version: 6.00 Build 0)  -->
<svg version="1.1" id="Layer_1" xmlns="http://www.w3.org/2000/svg" xmlns:xlink="http://www.w3.org/1999/xlink" x="0px" y="0px"
	 viewBox="0 0 32 32" style="enable-background:new 0 0 32 32;" xml:space="preserve">
<path d="M26.077,4.2H13.142c-1.103,0-2,0.897-2,2c0,0-0.003,10.325-0.002,13.753c-0.665-0.432-1.454-0.688-2.306-0.688
	c-2.345,0-4.246,1.901-4.246,4.246c0,0.329,0.046,0.645,0.116,0.952c0.143,0.795,0.523,1.508,1.164,2.16
	c0.826,0.839,1.899,1.247,3.283,1.247c1.592,0,2.811-0.527,3.727-1.611c0.959-1.136,1.426-2.487,1.426-4.133
	c0-0.851,0.011-2.065,0.02-2.891l0.01-0.908v-5.659h10.553v6.368c-0.662-0.427-1.447-0.682-2.294-0.682
	c-2.345,0-4.246,1.901-4.246,4.246c0,0.321,0.042,0.63,0.109,0.93c0.094,0.476,0.286,0.919,0.559,1.34
	c0.315,0.495,0.721,0.925,1.207,1.253c0.171,0.117,0.358,0.207,0.546,0.296c0.068,0.033,0.131,0.073,0.201,0.102
	c0.135,0.055,0.282,0.091,0.426,0.132c0.143,0.042,0.283,0.088,0.432,0.115c0.236,0.044,0.491,0.063,0.749,0.076
	c0.006,0,0.011,0.002,0.017,0.002c0.001,0,0.001,0,0.002,0c0.103,0.005,0.195,0.024,0.302,0.024c1.592,0,2.812-0.527,3.728-1.612
	c0.959-1.136,1.425-2.487,1.425-4.132c0-0.851,0.011-2.065,0.02-2.891l0.01-0.908V6.2C28.077,5.097,27.18,4.2,26.077,4.2z"/>
</svg>
