<?xml version="1.0" encoding="utf-8"?>
<!-- Generator: Adobe Illustrator 18.1.1, SVG Export Plug-In . SVG Version: 6.00 Build 0)  -->
<svg version="1.2" baseProfile="tiny" id="Capa_1" xmlns="http://www.w3.org/2000/svg" xmlns:xlink="http://www.w3.org/1999/xlink"
	 x="0px" y="0px" viewBox="0 0 64 64" xml:space="preserve">
<g>
	<path fill="#010002" d="M34.2,10.5c2,0,3.9,0.2,5.6,0.5c1.7,0.4,3.1,1,4.3,1.8c1.2,0.8,2.1,1.9,2.8,3.3c0.7,1.4,1,3.1,1,5.1
		c0,2.2-0.5,4-1.5,5.4c-1,1.4-2.4,2.6-4.4,3.6c2.7,0.8,4.6,2.1,5.9,4c1.3,1.9,2,4.2,2,6.9c0,2.2-0.4,4-1.3,5.6
		c-0.8,1.6-2,2.9-3.4,3.9c-1.4,1-3.1,1.7-4.9,2.2c-1.8,0.5-3.7,0.7-5.6,0.7H14v-43H34.2z M33,27.9c1.7,0,3.1-0.4,4.2-1.2
		c1.1-0.8,1.6-2.1,1.6-3.9c0-1-0.2-1.8-0.5-2.5c-0.4-0.6-0.8-1.1-1.4-1.5c-0.6-0.4-1.3-0.6-2.1-0.8c-0.8-0.1-1.6-0.2-2.4-0.2h-8.9
		v10.1H33z M33.6,46.2c0.9,0,1.8-0.1,2.6-0.3c0.8-0.2,1.6-0.5,2.2-0.9c0.6-0.4,1.2-1,1.5-1.7c0.4-0.7,0.6-1.6,0.6-2.8
		c0-2.2-0.6-3.8-1.9-4.7c-1.2-0.9-2.9-1.4-4.9-1.4H23.4v11.8H33.6z"/>
</g>
</svg>
