<?xml version="1.0" encoding="utf-8"?>
<!-- Generator: Adobe Illustrator 18.1.1, SVG Export Plug-In . SVG Version: 6.00 Build 0)  -->
<svg version="1.2" baseProfile="tiny" id="Capa_1" xmlns="http://www.w3.org/2000/svg" xmlns:xlink="http://www.w3.org/1999/xlink"
	 x="0px" y="0px" viewBox="0 0 64 64" xml:space="preserve">
<g>
	<path fill="#010002" d="M25.7,42.9l-1.5-1.5L14.8,32l9.4-9.4l1.5-1.5c0.2-0.2,0.3-0.4,0.3-0.7c0-0.3-0.1-0.5-0.4-0.8l-4.7-4.7
		c-0.2-0.2-0.5-0.4-0.8-0.4c-0.3,0-0.5,0.1-0.7,0.3l-1.5,1.5l-15,15c-0.2,0.2-0.3,0.4-0.3,0.7c0,0.3,0.1,0.5,0.4,0.8l14.9,15
		l1.5,1.5c0.2,0.2,0.4,0.3,0.7,0.3c0.3,0,0.5-0.1,0.8-0.4l4.7-4.7c0.2-0.2,0.4-0.5,0.4-0.8C26,43.3,25.9,43.1,25.7,42.9z"/>
	<path fill="#010002" d="M38.3,21.1l1.5,1.5l9.4,9.4l-9.4,9.4l-1.5,1.5c-0.2,0.2-0.3,0.4-0.3,0.7c0,0.3,0.1,0.5,0.4,0.8l4.7,4.7
		c0.2,0.2,0.5,0.4,0.8,0.4c0.3,0,0.5-0.1,0.7-0.3l1.5-1.5l15-15c0.2-0.2,0.3-0.4,0.3-0.7c0-0.3-0.1-0.5-0.4-0.8l-14.9-15l-1.5-1.5
		c-0.2-0.2-0.4-0.3-0.7-0.3c-0.3,0-0.5,0.1-0.8,0.4l-4.7,4.7c-0.2,0.2-0.4,0.5-0.4,0.8C38,20.7,38.1,20.9,38.3,21.1z"/>
</g>
</svg>
