<?xml version="1.0" encoding="iso-8859-1"?>
<!-- Generator: Adobe Illustrator 19.2.1, SVG Export Plug-In . SVG Version: 6.00 Build 0)  -->
<svg version="1.1" id="Layer_1" xmlns="http://www.w3.org/2000/svg" xmlns:xlink="http://www.w3.org/1999/xlink" x="0px" y="0px"
	 viewBox="0 0 32 32" style="enable-background:new 0 0 32 32;" xml:space="preserve">
<g>
	<g>
		<path style="fill:#0D060E;" d="M28.331,14.842c-0.044-0.044-0.101-0.061-0.149-0.099L23.899,8.46
			c-0.626-0.626-1.639-0.626-2.265,0c-0.626,0.625-0.626,1.64,0,2.265L24.908,16l-3.275,5.275c-0.626,0.625-0.626,1.639,0,2.265
			c0.313,0.313,0.723,0.469,1.132,0.469s0.82-0.156,1.132-0.469l4.432-6.432C28.956,16.482,28.956,15.468,28.331,14.842z"/>
	</g>
	<g>
		<path style="fill:#0D060E;" d="M3.669,17.158c0.044,0.044,0.101,0.061,0.149,0.099l4.283,6.283c0.626,0.626,1.639,0.626,2.265,0
			c0.626-0.625,0.626-1.64,0-2.265L7.092,16l3.275-5.275c0.626-0.625,0.626-1.639,0-2.265c-0.313-0.313-0.723-0.469-1.132-0.469
			S8.414,8.148,8.101,8.46l-4.432,6.432C3.044,15.518,3.044,16.532,3.669,17.158z"/>
	</g>
</g>
<g>
	<g>
		<path style="fill:#0D060E;" d="M19.684,10.688l-4.001,11.784c-0.316,0.93-1.325,1.427-2.255,1.112s-1.427-1.325-1.112-2.255
			l4.001-11.784c0.316-0.93,1.325-1.427,2.255-1.112C19.502,8.749,19.999,9.759,19.684,10.688z"/>
	</g>
</g>
</svg>
