<?xml version="1.0" encoding="utf-8"?>
<!-- Generator: Adobe Illustrator 18.1.1, SVG Export Plug-In . SVG Version: 6.00 Build 0)  -->
<svg version="1.2" baseProfile="tiny" id="Capa_1" xmlns="http://www.w3.org/2000/svg" xmlns:xlink="http://www.w3.org/1999/xlink"
	 x="0px" y="0px" viewBox="0 0 64 64" xml:space="preserve">
<path fill="#010002" d="M50.5,13.6l-0.2-0.2c-4-4-10.4-4-14.4,0l-9.2,9.2c-4,4-4,10.4,0,14.4l0.2,0.2c0.3,0.3,0.7,0.6,1,0.9l3.4-3.4
	c-0.4-0.2-0.8-0.5-1.1-0.8l-0.2-0.2c-2.1-2.1-2.1-5.6,0-7.8l9.2-9.2c2.1-2.1,5.6-2.1,7.8,0l0.2,0.2c2.1,2.1,2.1,5.6,0,7.8l-4.1,4.1
	c0.7,1.8,1.1,3.7,1,5.6l6.4-6.4C54.5,24.1,54.5,17.6,50.5,13.6z M37,26.8c-0.3-0.3-0.7-0.6-1-0.9l-3.4,3.4c0.4,0.2,0.8,0.5,1.1,0.8
	l0.2,0.2c2.1,2.1,2.1,5.6,0,7.8l-9.2,9.2c-2.1,2.1-5.6,2.1-7.8,0l-0.2-0.2c-2.1-2.1-2.1-5.6,0-7.8l4.1-4.1c-0.7-1.8-1.1-3.7-1-5.6
	L13.5,36c-4,4-4,10.4,0,14.4l0.2,0.2c4,4,10.4,4,14.4,0l9.2-9.2c4-4,4-10.4,0-14.4L37,26.8z"/>
</svg>
