<?xml version="1.0" encoding="utf-8"?>
<!-- Generator: Adobe Illustrator 18.1.1, SVG Export Plug-In . SVG Version: 6.00 Build 0)  -->
<svg version="1.2" baseProfile="tiny" id="Capa_1" xmlns="http://www.w3.org/2000/svg" xmlns:xlink="http://www.w3.org/1999/xlink"
	 x="0px" y="0px" viewBox="0 0 64 64" xml:space="preserve">
<g>
	<g id="_x32__68_">
		<path fill="#010002" d="M14,14.5H5c-1.7,0-3,1.3-3,3c0,1.7,1.3,3,3,3h9c1.7,0,3-1.3,3-3C17,15.8,15.7,14.5,14,14.5z"/>
	</g>
	<g id="_x32__66_">
		<path fill="#010002" d="M59,28.5H5c-1.7,0-3,1.3-3,3c0,1.7,1.3,3,3,3h54c1.7,0,3-1.3,3-3C62,29.8,60.7,28.5,59,28.5z"/>
	</g>
	<g id="_x32__70_">
		<path fill="#010002" d="M36.5,14.5h-9c-1.7,0-3,1.3-3,3c0,1.7,1.3,3,3,3h9c1.7,0,3-1.3,3-3C39.5,15.8,38.2,14.5,36.5,14.5z"/>
	</g>
	<g id="_x32__72_">
		<path fill="#010002" d="M59,14.5h-9c-1.7,0-3,1.3-3,3c0,1.7,1.3,3,3,3h9c1.7,0,3-1.3,3-3C62,15.8,60.7,14.5,59,14.5z"/>
	</g>
	<g id="_x32__74_">
		<path fill="#010002" d="M14,43.5H5c-1.7,0-3,1.3-3,3c0,1.7,1.3,3,3,3h9c1.7,0,3-1.3,3-3C17,44.8,15.7,43.5,14,43.5z"/>
	</g>
	<g id="_x32__64_">
		<path fill="#010002" d="M36.5,43.5h-9c-1.7,0-3,1.3-3,3c0,1.7,1.3,3,3,3h9c1.7,0,3-1.3,3-3C39.5,44.8,38.2,43.5,36.5,43.5z"/>
	</g>
	<g id="_x32__62_">
		<path fill="#010002" d="M59,43.5h-9c-1.7,0-3,1.3-3,3c0,1.7,1.3,3,3,3h9c1.7,0,3-1.3,3-3C62,44.8,60.7,43.5,59,43.5z"/>
	</g>
</g>
</svg>
