<?xml version="1.0" encoding="utf-8"?>
<!-- Generator: Adobe Illustrator 18.1.1, SVG Export Plug-In . SVG Version: 6.00 Build 0)  -->
<svg version="1.2" baseProfile="tiny" id="Capa_1" xmlns="http://www.w3.org/2000/svg" xmlns:xlink="http://www.w3.org/1999/xlink"
	 x="0px" y="0px" viewBox="0 0 64 64" xml:space="preserve">
<g>
	<g>
		<rect x="14.4" y="49.1" fill="#010002" width="35.2" height="4.4"/>
	</g>
	<path fill="#010002" d="M42.1,10.5v16.1c0,1.4-0.1,2.9-0.2,4.4c-0.1,1.5-0.5,2.8-1.2,4c-0.7,1.2-1.7,2.2-3,2.9
		C36.3,38.7,34.4,39,32,39s-4.3-0.4-5.7-1.1c-1.3-0.8-2.3-1.7-3-2.9c-0.7-1.2-1.1-2.5-1.2-4c-0.1-1.5-0.2-2.9-0.2-4.4V10.5h-7.5
		v18.6c0,2.8,0.4,5.2,1.3,7.2c0.8,2,2,3.8,3.6,5.1c1.5,1.4,3.4,2.4,5.6,3.1c2.2,0.7,4.6,1,7.2,1c2.6,0,5-0.3,7.2-1
		c2.2-0.7,4-1.7,5.6-3.1c1.5-1.4,2.7-3.1,3.6-5.1c0.8-2,1.3-4.4,1.3-7.2V10.5H42.1z"/>
</g>
</svg>
