<?xml version="1.0" encoding="utf-8"?>
<!-- Generator: Adobe Illustrator 18.1.1, SVG Export Plug-In . SVG Version: 6.00 Build 0)  -->
<svg version="1.2" baseProfile="tiny" id="Capa_1" xmlns="http://www.w3.org/2000/svg" xmlns:xlink="http://www.w3.org/1999/xlink"
	 x="0px" y="0px" viewBox="0 0 64 64" xml:space="preserve">
<path fill="#272424" d="M8.5,16.4v-3.9c0-0.5,0.2-1,0.6-1.4c0.4-0.4,0.8-0.6,1.4-0.6h43c0.5,0,1,0.2,1.4,0.6
	c0.4,0.4,0.6,0.8,0.6,1.4v3.9c0,0.5-0.2,1-0.6,1.4c-0.4,0.4-0.8,0.6-1.4,0.6h-43c-0.5,0-1-0.2-1.4-0.6C8.7,17.3,8.5,16.9,8.5,16.4z
	 M8.5,28.1v-3.9c0-0.5,0.2-1,0.6-1.4c0.4-0.4,0.8-0.6,1.4-0.6h43c0.5,0,1,0.2,1.4,0.6c0.4,0.4,0.6,0.8,0.6,1.4v3.9
	c0,0.5-0.2,1-0.6,1.4C54.5,29.9,54,30,53.5,30h-43c-0.5,0-1-0.2-1.4-0.6C8.7,29.1,8.5,28.6,8.5,28.1z M8.5,39.8v-3.9
	c0-0.5,0.2-1,0.6-1.4C9.5,34.1,10,34,10.5,34h43c0.5,0,1,0.2,1.4,0.6c0.4,0.4,0.6,0.8,0.6,1.4v3.9c0,0.5-0.2,1-0.6,1.4
	c-0.4,0.4-0.8,0.6-1.4,0.6h-43c-0.5,0-1-0.2-1.4-0.6C8.7,40.8,8.5,40.3,8.5,39.8z M8.5,51.5v-3.9c0-0.5,0.2-1,0.6-1.4
	c0.4-0.4,0.8-0.6,1.4-0.6h43c0.5,0,1,0.2,1.4,0.6c0.4,0.4,0.6,0.8,0.6,1.4v3.9c0,0.5-0.2,1-0.6,1.4c-0.4,0.4-0.8,0.6-1.4,0.6h-43
	c-0.5,0-1-0.2-1.4-0.6C8.7,52.5,8.5,52.1,8.5,51.5z"/>
</svg>
