<?xml version="1.0" encoding="iso-8859-1"?>
<!-- Generator: Adobe Illustrator 19.2.1, SVG Export Plug-In . SVG Version: 6.00 Build 0)  -->
<svg version="1.1" id="Layer_1" xmlns="http://www.w3.org/2000/svg" xmlns:xlink="http://www.w3.org/1999/xlink" x="0px" y="0px"
	 viewBox="0 0 32 32" style="enable-background:new 0 0 32 32;" xml:space="preserve">
<g>
	<path style="fill:#020202;" d="M6.269,25.995c0,1.997,1.624,3.621,3.621,3.621h12.22c1.997,0,3.621-1.624,3.621-3.621V10.154H6.269
		V25.995z M9.513,13.398h12.975v11.768c0,0.665-0.542,1.207-1.207,1.207H10.72c-0.666,0-1.207-0.542-1.207-1.207V13.398z"/>
	<polygon style="fill:#020202;" points="20.865,5.288 20.865,3.616 11.135,3.616 11.135,5.288 6.269,5.288 6.269,8.494 
		25.731,8.494 25.731,5.288 	"/>
	<rect x="17.622" y="14.969" style="fill:#020202;" width="3.244" height="9.731"/>
	<rect x="11.135" y="14.969" style="fill:#020202;" width="3.244" height="9.731"/>
</g>
</svg>
