<?xml version="1.0" encoding="utf-8"?>
<!-- Generator: Adobe Illustrator 19.2.1, SVG Export Plug-In . SVG Version: 6.00 Build 0)  -->
<svg version="1.1" id="Layer_1" xmlns="http://www.w3.org/2000/svg" xmlns:xlink="http://www.w3.org/1999/xlink" width="512" height="512" x="0px" y="0px"
	 viewBox="0 0 512 512" style="enable-background:new 0 0 512 512;" xml:space="preserve">
<path class="lexicon-icon-body" fill="none" d="M455.1,128H352c-9.5,0-31.9-45.7-38.6-59.5C298,36.4,280.4,0,245.1,0H55.9C25.1,0,0,26.9,0,59.8v395.3
	C0,486.5,25.5,512,56.9,512h398.2c31.4,0,56.9-25.5,56.9-56.9V184.9C512,153.6,486.5,128,455.1,128L455.1,128z"/>
<path class="lexicon-icon-outline" d="M455.1,128H352c-9.5,0-31.9-45.7-38.6-59.5C298,36.4,280.4,0,245.1,0H55.9C25.1,0,0,26.9,0,59.8v395.3
	C0,486.5,25.5,512,56.9,512h398.2c31.4,0,56.9-25.5,56.9-56.9V184.9C512,153.6,486.5,128,455.1,128L455.1,128z M64,67
	c0,0,0.3-2.4,0.7-3h178.1c5.6,5.9,14.4,31.8,19.8,43.4c3.1,6.7,6.3,13.7,9.9,20.6H64L64,67L64,67z M448,448H64l0-256h384V448z"/>
</svg>