<?xml version="1.0" encoding="utf-8"?>
<!-- Generator: Adobe Illustrator 18.1.1, SVG Export Plug-In . SVG Version: 6.00 Build 0)  -->
<svg version="1.2" baseProfile="tiny" id="Capa_1" xmlns="http://www.w3.org/2000/svg" xmlns:xlink="http://www.w3.org/1999/xlink"
	 x="0px" y="0px" viewBox="0 0 64 64" xml:space="preserve">
<g>
	<path fill="#010002" d="M8.2,10.5h6.9v16h0.1c0.8-1.4,2.1-2.6,3.8-3.5c1.7-0.9,3.5-1.4,5.6-1.4c3.4,0,6.1,0.9,8.1,2.6
		c2,1.8,3,4.4,3,7.9v21.4h-6.9V33.9c-0.1-2.4-0.6-4.2-1.6-5.3c-1-1.1-2.5-1.7-4.5-1.7c-1.2,0-2.2,0.2-3.1,0.6
		c-0.9,0.4-1.7,1-2.3,1.7c-0.6,0.7-1.1,1.6-1.5,2.6c-0.4,1-0.5,2.1-0.5,3.2v18.4H8.2V10.5z"/>
	<path fill="#010002" d="M37.9,18.3c1.4,0,2.9-0.1,4.2-0.4c1.4-0.2,2.6-0.6,3.7-1.2c1.1-0.6,2-1.3,2.8-2.2c0.8-0.9,1.3-2,1.5-3.3
		h5.6v42.2h-7.5V23.7H37.9V18.3z"/>
</g>
</svg>
