<?xml version="1.0" encoding="utf-8"?>
<!-- Generator: Adobe Illustrator 18.1.1, SVG Export Plug-In . SVG Version: 6.00 Build 0)  -->
<svg version="1.2" baseProfile="tiny" id="Capa_1" xmlns="http://www.w3.org/2000/svg" xmlns:xlink="http://www.w3.org/1999/xlink"
	 x="0px" y="0px" viewBox="0 0 64 64" xml:space="preserve">
<g>
	<path fill="#010002" d="M1.7,10.5h6.9v16h0.1c0.8-1.4,2.1-2.6,3.8-3.5c1.7-0.9,3.5-1.4,5.6-1.4c3.4,0,6.1,0.9,8.1,2.7
		c2,1.8,3,4.4,3,7.9v21.4h-6.9V33.9c-0.1-2.4-0.6-4.2-1.6-5.3c-1-1.1-2.5-1.7-4.5-1.7c-1.2,0-2.2,0.2-3.1,0.6
		c-0.9,0.4-1.7,1-2.3,1.7c-0.6,0.7-1.1,1.6-1.5,2.6c-0.4,1-0.5,2.1-0.5,3.2v18.4H1.7V10.5z"/>
	<path fill="#010002" d="M62.3,53.5H33.5c0-3.5,0.9-6.5,2.5-9.2c1.6-2.6,3.9-4.9,6.7-6.8c1.4-1,2.8-2,4.3-2.9c1.5-0.9,2.9-2,4.1-3
		c1.2-1.1,2.3-2.3,3.1-3.5c0.8-1.3,1.2-2.7,1.3-4.4c0-0.8-0.1-1.6-0.3-2.4c-0.2-0.9-0.5-1.7-1.1-2.4c-0.5-0.7-1.2-1.4-2.2-1.9
		c-0.9-0.5-2.1-0.8-3.6-0.8c-1.4,0-2.5,0.3-3.4,0.8c-0.9,0.5-1.6,1.3-2.2,2.2c-0.5,0.9-0.9,2.1-1.2,3.3c-0.3,1.3-0.4,2.7-0.5,4.2
		h-6.9c0-2.3,0.3-4.5,0.9-6.5c0.6-2,1.6-3.7,2.8-5.1c1.2-1.4,2.8-2.6,4.5-3.4c1.8-0.8,3.9-1.2,6.2-1.2c2.6,0,4.7,0.4,6.4,1.3
		c1.7,0.8,3.1,1.9,4.2,3.2c1.1,1.3,1.8,2.7,2.3,4.2c0.4,1.5,0.7,2.9,0.7,4.3c0,1.7-0.3,3.2-0.8,4.6c-0.5,1.4-1.2,2.6-2.1,3.8
		c-0.9,1.1-1.9,2.2-3,3.2c-1.1,1-2.3,1.9-3.5,2.7s-2.4,1.6-3.6,2.4c-1.2,0.8-2.3,1.5-3.3,2.3c-1,0.8-1.9,1.6-2.7,2.4
		c-0.8,0.8-1.3,1.7-1.6,2.6h20.5V53.5z"/>
</g>
</svg>
