<?xml version="1.0" encoding="iso-8859-1"?>
<!-- Generator: Adobe Illustrator 19.2.1, SVG Export Plug-In . SVG Version: 6.00 Build 0)  -->
<svg version="1.1" id="Layer_1" xmlns="http://www.w3.org/2000/svg" xmlns:xlink="http://www.w3.org/1999/xlink" x="0px" y="0px"
	 viewBox="0 0 32 32" style="enable-background:new 0 0 32 32;" xml:space="preserve">
<g>
	<path style="fill:#010101;" d="M27.2,11.4h-7.4c-0.884,0-1.6,0.716-1.6,1.6c0,0.884,0.716,1.6,1.6,1.6h7.4
		c0.884,0,1.6-0.716,1.6-1.6C28.8,12.116,28.084,11.4,27.2,11.4z"/>
	<path style="fill:#010101;" d="M27.158,19.133h-7.316c-0.907,0-1.642,0.716-1.642,1.6c0,0.884,0.735,1.6,1.642,1.6h7.316
		c0.907,0,1.642-0.716,1.642-1.6C28.8,19.85,28.065,19.133,27.158,19.133z"/>
	<path style="fill:#010101;" d="M27.2,26.6H4.8c-0.884,0-1.6,0.716-1.6,1.6c0,0.884,0.716,1.6,1.6,1.6h22.4
		c0.884,0,1.6-0.716,1.6-1.6C28.8,27.316,28.084,26.6,27.2,26.6z"/>
	<path style="fill:#010101;" d="M4.8,6.6h22.4c0.884,0,1.6-0.716,1.6-1.6c0-0.884-0.716-1.6-1.6-1.6H4.8C3.916,3.4,3.2,4.116,3.2,5
		C3.2,5.884,3.916,6.6,4.8,6.6z"/>
	<path style="fill:#010101;" d="M7.254,21.725c0.633,0.633,1.659,0.633,2.291,0c0.633-0.633,0.633-1.658,0-2.291L8.711,18.6h6.538
		c0.884,0,1.6-0.716,1.6-1.6c0-0.884-0.716-1.6-1.6-1.6H8.711l0.834-0.834c0.316-0.316,0.475-0.731,0.475-1.146
		s-0.158-0.829-0.475-1.146c-0.633-0.633-1.658-0.633-2.291,0l-3.58,3.58C3.371,16.158,3.2,16.57,3.2,17s0.171,0.842,0.474,1.146
		L7.254,21.725z"/>
</g>
</svg>
