<?xml version="1.0" encoding="utf-8"?>
<!-- Generator: Adobe Illustrator 19.2.1, SVG Export Plug-In . SVG Version: 6.00 Build 0)  -->
<svg version="1.1" id="redo" xmlns="http://www.w3.org/2000/svg" xmlns:xlink="http://www.w3.org/1999/xlink" width="512" height="512" x="0px" y="0px"
	 viewBox="0 0 512 512" style="enable-background:new 0 0 512 512;" xml:space="preserve">
<path class="lexicon-icon-outline" d="M438.6,137.6l-96-96c-12.5-12.5-32.8-12.5-45.3,0c-12.5,12.5-12.5,32.8,0,45.3l41.2,41.2H224c-88.2,0-160,71.8-160,160
	c0,88.2,71.8,160,160,160c17.7,0,32-14.3,32-32s-14.3-32-32-32c-52.9,0-96-43.1-96-96s43.1-96,96-96h115l-41.4,41.4
	c-12.5,12.5-12.5,32.8,0,45.3c6.2,6.2,14.4,9.4,22.6,9.4s16.4-3.1,22.6-9.4l95.8-95.8C451.1,170.3,451.1,150.1,438.6,137.6z"/>
</svg>