<?xml version="1.0" encoding="utf-8"?>
<!-- Generator: Adobe Illustrator 18.1.1, SVG Export Plug-In . SVG Version: 6.00 Build 0)  -->
<svg version="1.2" baseProfile="tiny" id="Capa_1" xmlns="http://www.w3.org/2000/svg" xmlns:xlink="http://www.w3.org/1999/xlink"
	 x="0px" y="0px" viewBox="0 0 64 64" xml:space="preserve">
<path fill="#030104" d="M55.1,32v2.9H44.5c1.2,1.7,1.9,3.7,1.9,5.8c0,3.2-1.7,6.3-4.5,8.4c-2.7,2-6.2,3.1-9.9,3.1s-7.2-1.1-9.9-3.1
	c-2.9-2.2-4.5-5.2-4.5-8.4h5.8c0,3.1,4,5.8,8.7,5.8s8.7-2.6,8.7-5.8c0-3.1-4-5.8-8.7-5.8H8.9V32h13.5c-0.1-0.1-0.2-0.2-0.3-0.2
	c-2.9-2.2-4.5-5.2-4.5-8.4s1.7-6.3,4.5-8.4c2.7-2,6.2-3.1,9.9-3.1s7.2,1.1,9.9,3.1c2.9,2.2,4.5,5.2,4.5,8.4h-5.8
	c0-3.1-4-5.8-8.7-5.8s-8.7,2.6-8.7,5.8s4,5.8,8.7,5.8c3.6,0,7,1,9.6,2.9H55.1z"/>
</svg>
