<?xml version="1.0" encoding="utf-8"?>
<!-- Generator: Adobe Illustrator 18.1.1, SVG Export Plug-In . SVG Version: 6.00 Build 0)  -->
<svg version="1.2" baseProfile="tiny" id="Capa_1" xmlns="http://www.w3.org/2000/svg" xmlns:xlink="http://www.w3.org/1999/xlink"
	 x="0px" y="0px" viewBox="0 0 64 64" xml:space="preserve">
<g>
	<path fill="#030104" d="M32,39.2L24,47.1c-2.1,2.1-5.6,2.1-7.9,0c-2.1-2.1-2.1-5.6,0-7.7l8.2-7.9c-1.3-1.3-2.6-2.6-3.4-3.4
		l-8.2,8.2c-4.2,4.2-4.2,10.9,0,14.8l0.3,0.3c4.2,4.2,10.9,4.2,14.8,0l8.2-7.9C34.9,42.1,33.6,40.7,32,39.2z"/>
	<path fill="#030104" d="M39.4,32l7.9-8.2c2.1-2.1,2.1-5.6,0-7.9c-2.1-2.1-5.6-2.1-7.7,0l-7.9,8.5c-1.3-1.3-2.6-2.4-3.4-3.4l7.9-8.2
		c4.2-4.2,10.6-4.2,14.8-0.3l0.3,0.3c4.2,4.2,4.2,10.6,0.3,14.8l-7.9,8.2C42.3,34.9,41,33.6,39.4,32L39.4,32z"/>
</g>
</svg>
