<svg id="add-role" xmlns="http://www.w3.org/2000/svg" viewBox="0 0 512 512">
	<path class="add-role-key-hole lexicon-icon-outline" d="M336,166c0-87.7-128-85.6-128,0c0,28.1,17.9,51.9,42.7,60.8v68.7c0,27,42.7,30.3,42.7,0v-68.7C318.1,217.9,336,194.1,336,166z"/>
	<path class="add-role-border lexicon-icon-outline" d="M445.6,29.9C273.8-9,262.8-10.6,98.4,28.9C78.7,35.2,64,50.7,64,71.3c0,0,0.1,194.3,0.2,195c13.3-6.3,27.6-10.8,42.7-12.9c0,0,0.7-164.9,0-182.1c157.3-38.7,172.4-37.7,330.3,1c0,13.8,0,193,0,193c-2.2,116.4-107.8,138.3-149.1,155.2c0.2,7.4-5.4,28.6-11,41.6c4,1.2,9.1,4.2,28-1.1c123.3-43,170.4-78.4,174.9-195.7v-193C480,51.7,463.3,35.8,445.6,29.9z"/>
	<path class="add-role-plus lexicon-icon-outline" d="M139,296c-59.1,0-107,48.4-107,108s47.9,108,107,108s107-48.4,107-108S198.1,296,139,296z M192.5,425.6h-32.1V458c0,28.4-42.8,28.4-42.8,0v-32.4H85.5c-28.8,0-28.1-43.2,0-43.2h32.1V350c0-29,42.8-29,42.8,0v32.4h32.1C220.6,382.4,221.9,425.6,192.5,425.6z"/>
</svg>