<?xml version="1.0" encoding="utf-8"?>
<!-- Generator: Adobe Illustrator 19.2.1, SVG Export Plug-In . SVG Version: 6.00 Build 0)  -->
<svg version="1.1" id="Layer_1" xmlns="http://www.w3.org/2000/svg" xmlns:xlink="http://www.w3.org/1999/xlink" width="512" height="512" x="0px" y="0px"
	 viewBox="0 0 512 512" style="enable-background:new 0 0 512 512;" xml:space="preserve">
<path class="lexicon-icon-body" fill="none" d="M256,0C114.9,0,0,114.8,0,256s114.8,256,256,256c141.1,0,256-114.9,256-256S397.1,0,256,0z"/>
<path class="lexicon-icon-outline" d="M256,0C114.9,0,0,114.8,0,256s114.8,256,256,256c141.1,0,256-114.9,256-256S397.1,0,256,0z M56.9,256
	c0-109.8,89.3-199.1,199.1-199.1l0,0v398.2C146.2,455.1,56.9,365.8,56.9,256z"/>
</svg>