<svg id="analytics" xmlns="http://www.w3.org/2000/svg" viewBox="0 0 512 512">
	<path class="analytics-bar1 lexicon-icon-outline" d="M96,415.8H32c-17.7,0-32,14.3-32,32v32c0,17.7,14.3,32,32,32h64c17.7,0,32-14.3,32-32v-32C128,430.1,113.7,415.8,96,415.8z" />
	<path class="analytics-bar2 lexicon-icon-outline" d="M288,319.8h-64c-17.7,0-32,14.3-32,32v128c0,17.7,14.3,32,32,32h64c17.7,0,32-14.3,32-32v-128C320,334.1,305.7,319.8,288,319.8z"/>
	<path class="analytics-bar3 lexicon-icon-outline" d="M480,223.8h-64c-17.7,0-32,14.3-32,32v224c0,17.7,14.3,32,32,32h64c17.7,0,32-14.3,32-32v-224C512,238.1,497.7,223.8,480,223.8z"/>
	<path class="analytics-uptrend-arrow lexicon-icon-outline" d="M415,110.2v23.6c3.1,44.2,64.6,41.3,64.8,0V32.6c0-17.9-13.2-32.4-32.4-32.4l-101.3,0c-42.8,2.3-43.2,61.9,0,64.8h23.6l-95.3,94.9l-114.2-0.2c0,0,0,0-0.1,0c-10.1,0-19.5,4.7-25.6,12.8L38.6,300.3c-24.2,35.4,25.4,70.9,51.2,38.4l86.5-115.1l111.4,0.2c0,0,0,0,0.1,0c8.5,0,16.6-3.4,22.6-9.3L415,110.2z"/>
</svg>
