<svg id="api-lock" xmlns="http://www.w3.org/2000/svg" viewBox="0 0 512 512">
	<path class="lexicon-icon-outline api-lock-a" d="M112.1,467.3H54.7L43.2,512H0l58.8-191.5h51L168.5,512h-44.9L112.1,467.3z M103.4,434.1c0,0-17.1-68.1-19.6-77.9h-1.2c-2.3,10-19.3,77.9-19.3,77.9H103.4z"/>
	<path class="lexicon-icon-outline api-lock-p" d="M192,320.5h65.5c10.2,0,73.4,0,73.4,64c0,64.2-63.5,63.8-73.4,63.8h-26.2V512H192V320.5z M254.9,410c23,0,34.6-10.7,34.6-25.4c0-25.3-23.2-27.3-34.6-27.3h-22.3V410H254.9z"/>
	<path class="lexicon-icon-outline api-lock-i" d="M369.3,320.5H416V512h-46.7V320.5z"/>
	<path class="lexicon-icon-outline api-lock-lock" d="M460.8,192.3H288V96.1c0-35.3,28.7-64.1,64-64.1s64,28.8,64,64.1v31.5h32V96.1C448,43,405,0,352,0s-96,43-96,96.1v96.1h-19.2c-28.2,0-44.8,23-44.8,51.3v12.8h256v160.2h32c32,0,32-30.7,32-51.3V243.6C512,215.3,489,192.3,460.8,192.3z"/>
</svg>