<svg id="api-web" xmlns="http://www.w3.org/2000/svg" viewBox="0 0 512 512">
	<path class="lexicon-icon-outline api-web-a" d="M112.1,467.3H54.7L43.2,512H0l58.8-191.5h51L168.5,512h-44.9L112.1,467.3z M103.4,434.1c0,0-17.1-68.1-19.6-77.9h-1.2c-2.3,10-19.3,77.9-19.3,77.9H103.4z"/>
	<path class="lexicon-icon-outline api-web-p" d="M192,320.5h65.5c10.2,0,73.4,0,73.4,64c0,64.2-63.5,63.8-73.4,63.8h-26.2V512H192V320.5z M254.9,410c23,0,34.6-10.7,34.6-25.4c0-25.3-23.2-27.3-34.6-27.3h-22.3V410H254.9z"/>
	<path class="lexicon-icon-outline api-web-i" d="M369.3,320.5H416V512h-46.7V320.5z"/>
	<path class="lexicon-icon-outline api-web-web" d="M160,241.7c28.1-8.2,64.1-13.1,96-13.1v27.8h32v-25.9c49.8,2.8,96,26.2,96,26.2v31.4l31.9,0.5l0.3-16.3c0,0,43.7,24.1,64,48.3v31.7c0,0,31.9-38,31.9-111.8C512,106.8,403.3,0,272,0S32,107.5,32,240.4c0,11.2,0,48.1,0,48.1s-8.3-0.5,32,0c28-22.6,63.5-32.3,63.5-32.3l32.4,0.3L160,241.7z M463.3,165.2c-17.9-14.5-38.2-27.1-60.5-37.4c-6.3-22.8-14.9-44.1-25.2-63.9C416.2,87.2,446.6,122.7,463.3,165.2z M256,96.1c-23.4,0-46.1,2.4-67.8,6.5c9.6-23.2,21.6-44.5,36.1-62.5c10.3-2.5,20.9-4.2,31.8-5L256,96.1L256,96.1z M288,35.2c10.9,0.8,21.5,2.6,31.8,5c16.2,20.3,29.5,44.6,39.6,71.4c-22.6-6.8-46.4-11.5-71.4-13.7V35.2z M166.4,63.9c-8.2,15.6-15.2,32.2-20.9,49.8c-17.5,5.7-34.1,12.8-49.7,21C113.2,105.6,137.4,81.3,166.4,63.9z M72.1,192.5c18-14.4,39.2-26.5,62.4-36.1c-3.6,19.1-5.7,38.9-6.1,59.2c-22.4,8.7-43,19.7-61.7,32.4C66.6,245.5,62.8,221,72.1,192.5z M165.4,203.8c1.3-21.1,4.4-41.5,9.4-60.8c25.6-6.6,52.7-10.5,81.2-10.5v59.8C224.3,192.3,193.9,196.5,165.4,203.8z M288,134.2c30.1,2.9,58.5,9.7,84.3,19.8c4.2,19.2,6.3,39.6,6.9,60.4C351,203.9,320.4,196.8,288,194V134.2z M475,271.9c-17.2-15.8-37.2-29.7-59.4-41.3c1.5-21.3-1.1-40.6-3.5-57.1c26.5,15.8,48.8,35.4,65.1,57.8C477.4,234.3,478.9,255.3,475,271.9z"/>
</svg>