<?xml version="1.0" encoding="utf-8"?>
<!-- Generator: Adobe Illustrator 19.2.1, SVG Export Plug-In . SVG Version: 6.00 Build 0)  -->
<svg version="1.1" id="Layer_1" xmlns="http://www.w3.org/2000/svg" xmlns:xlink="http://www.w3.org/1999/xlink" width="512" height="512" x="0px" y="0px"
	 viewBox="0 0 512 512" style="enable-background:new 0 0 512 512;" xml:space="preserve">
<path class="lexicon-icon-body" fill="none" d="M0,128v295.1C0,454.5,25.5,480,56.9,480h398.2c31.4,0,56.9-25.5,56.9-56.9V128H0z"/>
<path class="lexicon-icon-outline" d="M0,128v295.1C0,454.5,25.5,480,56.9,480h398.2c31.4,0,56.9-25.5,56.9-56.9V128H0z M64,416V192h384l0,224H64z"/>
<path class="lexicon-icon-outline" d="M480,96H32C14.4,96,0,81.6,0,64l0,0c0-17.6,14.4-32,32-32h448c17.6,0,32,14.4,32,32l0,0C512,81.6,497.6,96,480,96z"/>
<path class="lexicon-icon-outline" d="M320,320H192c-17.6,0-32-14.4-32-32l0,0c0-17.6,14.4-32,32-32h128c17.6,0,32,14.4,32,32l0,0C352,305.6,337.6,320,320,320z"
	/>
</svg>