<?xml version="1.0" encoding="utf-8"?>
<!-- Generator: Adobe Illustrator 19.2.1, SVG Export Plug-In . SVG Version: 6.00 Build 0)  -->
<svg version="1.1" id="audio" xmlns="http://www.w3.org/2000/svg" xmlns:xlink="http://www.w3.org/1999/xlink" width="512" height="512" x="0px" y="0px"
	 viewBox="0 0 512 512" style="enable-background:new 0 0 512 512;" xml:space="preserve">
<path class="lexicon-icon-outline" d="M384,32H192c-35.2,0-64,28.8-64,64v225.6c-5.2-1-10.5-1.6-16-1.6c-44.2,0-80,35.8-80,80s35.8,80,80,80s80-35.8,80-80
	c0-2.7,0-208,0-208h192v97.6c-5.2-1-10.5-1.6-16-1.6c-44.2,0-80,35.8-80,80s35.8,80,80,80s80-35.8,80-80c0-2.7,0-272,0-272
	C448,60.8,419.2,32,384,32z"/>
</svg>