<svg id="bell-off" xmlns="http://www.w3.org/2000/svg" viewBox="0 0 512 512">
	<path class="lexicon-icon-outline" d="M163.5,440.3c30.5,96.7,154.5,95.7,185,0C288,448,224,448,163.5,440.3z"/>
	<path class="lexicon-icon-outline" d="M461.7,408.3L101.6,48.4c-26-24.4-66,11.1-39.4,39.4l38.5,38.5C79.4,168.8,64,230.5,64,320c-32,32-32,32-32,32c0,60,218.1,79.1,349.9,55.3l40.4,40.4C446.2,472.7,488.7,436.7,461.7,408.3z M128,341.6c0,0,0-89.2,28-160l165.7,165.6C256.7,351.4,201.8,349.6,128,341.6z"/>
	<path class="lexicon-icon-outline" d="M373.1,240.8l74.9,74.8C446.4,32,288,32,288,32c0-41-64-42-64,0c0,0-20.4,0-46.7,13.1l54.2,54.1C317,78,358.7,162.3,373.1,240.8z"/>
</svg>