<?xml version="1.0" encoding="utf-8"?>
<!-- Generated by IcoMoon.io -->
<!DOCTYPE svg PUBLIC "-//W3C//DTD SVG 1.1//EN" "http://www.w3.org/Graphics/SVG/1.1/DTD/svg11.dtd">
<svg version="1.1" xmlns="http://www.w3.org/2000/svg" xmlns:xlink="http://www.w3.org/1999/xlink" width="512" height="512" viewBox="0 0 512 512">
<path class="lexicon-icon-outline" d="M262.217 0c25.307 0 47.689 3.511 67.182 10.459 19.456 6.985 35.913 16.603 49.298 28.891 13.349 12.288 23.589 26.843 30.647 43.703s10.606 35.145 10.606 54.894c0 26.478-7.058 49.591-21.175 69.339s-32.146 33.207-54.053 40.448c12.654 2.889 24.466 7.936 35.401 15.177 10.971 7.205 20.553 16.018 28.855 26.368 8.265 10.35 14.848 22.272 19.712 35.73 4.864 13.495 7.314 28.16 7.314 44.069 0 20.699-3.767 39.826-11.301 57.417-7.57 17.591-18.249 32.622-32.146 45.129-13.861 12.507-30.683 22.382-50.395 29.623-19.712 7.131-41.728 10.752-66.085 10.752h-200.082v-512h186.222zM246.857 211.602c23.369 0 41.509-5.778 54.418-17.335s19.346-27.209 19.346-46.921c0-19.749-6.217-35.255-18.615-46.592-12.398-11.301-31.049-16.969-55.845-16.969h-70.839v127.817h71.534zM257.097 428.946c24.832 0 44.069-5.888 57.673-17.701 13.641-11.776 20.443-28.050 20.443-48.75 0-20.224-6.473-36.718-19.346-49.481-12.91-12.763-32.037-19.127-57.307-19.127h-83.237v135.058h81.774z"></path>
</svg>