<svg id="breadcrumb" xmlns="http://www.w3.org/2000/svg" viewBox="0 0 512 512">
	<path class="lexicon-icon-outline breadcrumb-arrow-outline" d="M111.8,128L111.8,128l102.2,127.8L111.8,383.6H32V128H111.8 M111.8,96H32c-19.2,0-32,12.8-32,32v255.6c0,19.2,12.8,32,32,32h79.9c9.6,0,19.2-3.2,25.6-12.8l102.2-127.8c9.6-12.8,9.6-28.8,0-38.3L137.4,108.8C131,99.2,121.4,96,111.8,96L111.8,96z"/>
	<path class="lexicon-icon-outline breadcrumb-arrow-solid" d="M377,415.5H258.8c-25.6,0-41.5-32-25.6-51.1l86.3-108.6l-86.3-108.6c-16-19.2,0-51.1,25.6-51.1H377c9.6,0,19.2,3.2,25.6,12.8l102.2,127.8c9.6,12.8,9.6,28.8,0,38.3L402.6,402.7C396.2,412.3,386.6,415.5,377,415.5z"/>
</svg>