<?xml version="1.0" encoding="utf-8"?>
<!-- Generator: Adobe Illustrator 19.2.1, SVG Export Plug-In . SVG Version: 6.00 Build 0)  -->
<svg version="1.1" id="Layer_1" xmlns="http://www.w3.org/2000/svg" xmlns:xlink="http://www.w3.org/1999/xlink" width="512" height="512" x="0px" y="0px"
	 viewBox="0 0 512 512" style="enable-background:new 0 0 512 512;" xml:space="preserve">
<path class="lexicon-icon-outline" d="M180.7,79.8c0-15.6-12.8-28.4-28.4-28.4H75.9c-15.6,0-28.4,12.8-28.4,28.4v22.6h133.2L180.7,79.8L180.7,79.8z"/>
<path class="lexicon-icon-outline" d="M454.6,123.3h-33V78c0-26.8-22-48.8-48.8-48.8H242c-26.8,0-48.8,22-48.8,48.8v45.3H57.4C25.7,123.3,0,149,0,180.6v244.8
	c0,31.6,25.7,57.4,57.4,57.4h397.3c31.6,0,57.4-25.7,57.4-57.4V180.6C512,149,486.3,123.3,454.6,123.3L454.6,123.3z M90.4,241.9
	c-16.6,0-30.1-13.5-30.1-30.1s13.5-30.1,30.1-30.1s30.1,13.5,30.1,30.1S107,241.9,90.4,241.9z M316.2,452.7
	c-74.8,0-135.5-60.7-135.5-135.5s60.7-135.5,135.5-135.5s135.5,60.7,135.5,135.5S391.1,452.7,316.2,452.7z"/>
<path class="lexicon-icon-outline" d="M391.5,317.2c0,41.6-33.7,75.3-75.3,75.3s-75.3-33.7-75.3-75.3s33.7-75.3,75.3-75.3S391.5,275.6,391.5,317.2L391.5,317.2z"
	/>
</svg>