<?xml version="1.0" encoding="utf-8"?>
<!-- Generated by IcoMoon.io -->
<!DOCTYPE svg PUBLIC "-//W3C//DTD SVG 1.1//EN" "http://www.w3.org/Graphics/SVG/1.1/DTD/svg11.dtd">
<svg version="1.1" xmlns="http://www.w3.org/2000/svg" xmlns:xlink="http://www.w3.org/1999/xlink" width="512" height="512" viewBox="0 0 512 512">
<path class="lexicon-icon-outline" d="M192 0h-160c-17.664 0-32 14.336-32 32v160c0 17.664 14.336 32 32 32h160c17.664 0 32-14.336 32-32v-160c0-17.664-14.336-32-32-32z"></path>
<path class="lexicon-icon-outline" d="M192 288h-160c-17.664 0-32 14.336-32 32v160c0 17.664 14.336 32 32 32h160c17.664 0 32-14.336 32-32v-160c0-17.664-14.336-32-32-32z"></path>
<path class="lexicon-icon-outline" d="M480 0h-160c-17.664 0-32 14.336-32 32v160c0 17.664 14.336 32 32 32h160c17.664 0 32-14.336 32-32v-160c0-17.664-14.336-32-32-32z"></path>
<path class="lexicon-icon-outline" d="M480 288h-160c-17.664 0-32 14.336-32 32v160c0 17.664 14.336 32 32 32h160c17.664 0 32-14.336 32-32v-160c0-17.664-14.336-32-32-32z"></path>
</svg>