<?xml version="1.0" encoding="utf-8"?>
<!-- Generated by IcoMoon.io -->
<!DOCTYPE svg PUBLIC "-//W3C//DTD SVG 1.1//EN" "http://www.w3.org/Graphics/SVG/1.1/DTD/svg11.dtd">
<svg version="1.1" xmlns="http://www.w3.org/2000/svg" xmlns:xlink="http://www.w3.org/1999/xlink" width="512" height="512" viewBox="0 0 512 512">
<path class="lexicon-icon-outline" d="M479.311 30.213c-18.425-18.424-42.952-28.587-69.006-28.587 0 0-0.029 0-0.029 0-26.053 0-50.552 10.133-68.976 28.558l-114.030 114.030c-9.845 9.845-9.845 25.794 0 35.611 9.845 9.845 25.794 9.845 35.611 0l114.030-114.030c8.925-8.925 20.757-13.818 33.365-13.818v0c12.609 0 24.471 4.923 33.394 13.847 18.425 18.424 18.425 48.365 0.029 66.789l-114.030 114.030c-9.846 9.845-9.846 25.794 0 35.611 4.923 4.923 11.372 7.37 17.82 7.37s12.897-2.447 17.82-7.37l114.030-114.030c38.029-38.058 38-99.953-0.029-138.011z"></path>
<path class="lexicon-icon-outline" d="M249.523 326.791l-113.224 113.224c-8.867 8.867-20.642 13.733-33.193 13.733 0 0-0.029 0-0.058 0-12.609-0.029-24.471-4.952-33.395-13.875s-13.876-20.786-13.876-33.394c-0.029-12.58 4.865-24.384 13.733-33.25l113.224-113.224c9.845-9.845 9.845-25.794 0-35.611-9.845-9.845-25.794-9.845-35.611 0l-113.224 113.224c-18.424 18.396-28.529 42.894-28.5 68.949 0.029 26.025 10.22 50.524 28.645 68.948s42.894 28.587 68.948 28.644c0.058 0 0.087 0 0.144 0 25.996 0 50.437-10.105 68.805-28.5l113.224-113.224c9.846-9.846 9.846-25.795 0-35.611-9.875-9.875-25.794-9.875-35.639-0.029z"></path>
</svg>