<?xml version="1.0" encoding="utf-8"?>
<!-- Generator: Adobe Illustrator 19.0.0, SVG Export Plug-In . SVG Version: 6.00 Build 0)  -->
<svg version="1.1" id="change" xmlns="http://www.w3.org/2000/svg" xmlns:xlink="http://www.w3.org/1999/xlink" x="0px" y="0px"
	 width="512px" height="512px" viewBox="0 0 512 512" enable-background="new 0 0 512 512" xml:space="preserve">
<g>
	<path class="lexicon-icon-outline" d="M32,256L32,256c17.6,0,32-14.4,32-32v-96h342.6l-17.1,17.1c-12.4,12.4-12.4,32.8,0,45.3l0,0c12.4,12.4,32.8,12.4,45.3,0
		l67.9-67.9l0,0c12.4-12.4,12.4-32.8,0-45.3l0,0L434.8,9.3c-12.4-12.4-32.8-12.4-45.3,0l0,0c-12.4,12.4-12.4,32.8,0,45.3l9.4,9.4H32
		h0C14.4,64,0,78.4,0,96v0v128C0,241.6,14.4,256,32,256z"/>
	<path class="lexicon-icon-outline" d="M480,256L480,256c-17.6,0-32,14.4-32,32v96H105.4l17.1-17.1c12.4-12.4,12.4-32.8,0-45.3l0,0c-12.4-12.4-32.8-12.4-45.3,0
		L9.3,389.5l0,0c-12.4,12.4-12.4,32.8,0,45.3l0,0l67.9,67.9c12.4,12.4,32.8,12.4,45.3,0l0,0c12.4-12.4,12.4-32.8,0-45.3l-9.4-9.4
		H480h0c17.6,0,32-14.4,32-32v0V288C512,270.4,497.6,256,480,256z"/>
</g>
</svg>