<?xml version="1.0" encoding="utf-8"?>
<!-- Generator: Adobe Illustrator 19.2.0, SVG Export Plug-In . SVG Version: 6.00 Build 0)  -->
<svg version="1.1" xmlns="http://www.w3.org/2000/svg" xmlns:xlink="http://www.w3.org/1999/xlink" width="512" height="512" x="0px" y="0px"
	 viewBox="0 0 512 512" enable-background="new 0 0 512 512" xml:space="preserve">
<path class="lexicon-icon-outline" d="M254.2,304.9c49.9-58.2,134-156.4,169.5-197.8l0,0c5.9-6.8,14.6-11.2,24.3-11.2c17.7,0,32,14.3,32,32
	c0,8-2.9,15.2-7.7,20.8l0,0c-41.7,48.6-150.3,175.4-192,224l0,0c-5.9,6.8-14.6,11.2-24.3,11.2c-8.8,0-16.8-3.6-22.6-9.4
	c-45.3-45.3-50.7-50.7-96-96c-5.8-5.8-9.4-13.8-9.4-22.6c0-17.7,14.3-32,32-32c8.8,0,16.8,3.6,22.6,9.4
	C218.2,268.9,229.2,279.9,254.2,304.9z M507.3,207.1c-18.3,21.4-39.5,46.1-60.6,70.6C435.9,373.6,354.7,448,256,448
	c-106,0-192-86-192-192S150,64,256,64c35.5,0,68.7,9.6,97.2,26.4c15.1-17.6,29.5-34.4,42.1-49.2C355.3,15.2,307.4,0,256,0
	C114.6,0,0,114.6,0,256s114.6,256,256,256s256-114.6,256-256C512,239.3,510.4,223,507.3,207.1z"/>
</svg>