<svg id="check-circle-full" xmlns="http://www.w3.org/2000/svg" viewBox="0 0 512 512">
	<path class="lexicon-icon-outline" d="M484.1,139.7c-54.4,62.6-167,190-203.8,233c-5.9,6.8-14.6,11.2-24.3,11.2c-8.8,0-16.8-3.6-22.6-9.4c-45.3-45.3-50.7-50.7-96-96c-5.8-5.8-9.4-13.8-9.4-22.6c0-17.7,14.3-32,32-32c8.8,0,16.8,3.6,22.6,9.4c35.6,35.6,46.6,46.6,71.6,71.6c47-54.8,150.9-171.7,192.5-219.7C399.8,32.9,331.8,0,256,0C114.6,0,0,114.6,0,256s114.6,256,256,256s256-114.6,256-256C512,214.1,501.9,174.6,484.1,139.7z"/>
</svg>
