<svg id="chip" xmlns="http://www.w3.org/2000/svg" viewBox="0 0 512 512">
	<path class="lexicon-icon-outline chip-cpu" d="M304,352h-96c-26.5,0-48-21.5-48-48v-96c0-26.5,21.5-48,48-48h96c26.5,0,48,21.5,48,48v96C352,330.5,330.5,352,304,352z"/>
	<path class="lexicon-icon-outline chip-circuit" d="M489.4,192c29.6,0,29.6-64,0-64H448c0-35.3-28.7-64-64-64V22.6c0-29.6-64-29.6-64,0V64h-32V22.6c0-29.6-64-29.6-64,0V64h-32V22.6c0-29.6-64-29.6-64,0V64c-35.3,0-64,28.7-64,64H22.6c-29.6,0-29.6,64,0,64H64v32H22.6c-29.6,0-29.6,64,0,64H64v32H22.6c-29.6,0-29.6,64,0,64H64c0,35.3,28.7,64,64,64v41.4c0,29.6,64,29.6,64,0V448h32v41.4c0,29.6,64,29.6,64,0V448h32v41.4c0,29.6,64,29.6,64,0V448c35.3,0,64-28.7,64-64h41.4c29.6,0,29.6-64,0-64H448v-32h41.4c29.6,0,29.6-64,0-64H448v-32H489.4z M384,384H128V128h256V384z"/>
</svg>