<?xml version="1.0" encoding="utf-8"?>
<!-- Generated by IcoMoon.io -->
<!DOCTYPE svg PUBLIC "-//W3C//DTD SVG 1.1//EN" "http://www.w3.org/Graphics/SVG/1.1/DTD/svg11.dtd">
<svg version="1.1" xmlns="http://www.w3.org/2000/svg" xmlns:xlink="http://www.w3.org/1999/xlink" width="512" height="512" viewBox="0 0 512 512">
<path class="lexicon-icon-outline" d="M113.632 165.327c-7.608-7.63-19.991-7.63-27.599 0l-78.402 78.402c-7.63 7.63-7.63 19.991 0 27.599 0.536 0.536 1.227 0.736 1.807 1.205l76.573 76.572c3.816 3.815 8.813 5.734 13.811 5.734s9.995-1.897 13.811-5.712c7.63-7.63 7.63-19.991 0-27.599l-64.278-64.279 64.278-64.279c7.608-7.653 7.608-20.013 0-27.643z"></path>
<path class="lexicon-icon-outline" d="M504.37 243.104c-0.536-0.536-1.227-0.737-1.807-1.205l-76.572-76.572c-7.63-7.63-19.991-7.63-27.599 0-7.63 7.63-7.63 19.991 0 27.599l64.279 64.279-64.279 64.279c-7.63 7.63-7.63 19.991 0 27.599 3.815 3.815 8.813 5.712 13.811 5.712s9.995-1.897 13.811-5.712l78.402-78.402c7.586-7.586 7.586-19.947-0.045-27.577z"></path>
<path class="lexicon-icon-outline" d="M322.733 162.894l-156.179 156.179c-7.63 7.63-7.63 19.991 0 27.599 3.816 3.815 8.813 5.712 13.811 5.712s9.995-1.897 13.811-5.712l156.179-156.179c7.63-7.63 7.63-19.991 0-27.599-7.653-7.63-19.991-7.63-27.621 0z"></path>
</svg>