<?xml version="1.0" encoding="utf-8"?>
<!-- Generator: Adobe Illustrator 19.2.1, SVG Export Plug-In . SVG Version: 6.00 Build 0)  -->
<svg version="1.1" id="Layer_1" xmlns="http://www.w3.org/2000/svg" xmlns:xlink="http://www.w3.org/1999/xlink" width="512" height="512" x="0px" y="0px"
	 viewBox="0 0 512 512" style="enable-background:new 0 0 512 512;" xml:space="preserve">
<path class="lexicon-icon-body" fill="none" d="M487.4,195.2L487.4,195.2L466,192c-4.1-13.6-9.5-26.7-16.2-39.2l12.9-17.5c8.5-11.5,7.3-27.5-2.8-37.6
	l-45.6-45.6c-10.1-10.1-26.1-11.3-37.6-2.8l-17.5,12.9C346.7,55.6,333.6,50.2,320,46l-3.2-21.5C314.7,10.4,302.5,0,288.2,0h-64.5
	c-14.3,0-26.4,10.4-28.5,24.6L192,46c-13.6,4.1-26.7,9.5-39.2,16.2l-17.5-12.9c-11.5-8.5-27.5-7.3-37.6,2.8L52.2,97.8
	c-10.1,10.1-11.3,26.1-2.8,37.6l12.9,17.5C55.6,165.3,50.2,178.4,46,192l-21.5,3.2C10.5,197.3,0,209.5,0,223.8v64.5
	c0,14.3,10.5,26.4,24.6,28.5L46,320c4.1,13.6,9.5,26.7,16.2,39.2l-12.9,17.5c-8.5,11.5-7.3,27.5,2.8,37.6l45.6,45.6
	c10.1,10.1,26.1,11.3,37.6,2.8l17.5-12.9c12.5,6.7,25.6,12.1,39.2,16.2l3.2,21.5c2.1,14.1,14.3,24.6,28.5,24.6h64.5
	c14.3,0,26.4-10.5,28.5-24.6L320,466c13.6-4.1,26.7-9.5,39.2-16.2l17.5,12.9c11.5,8.5,27.5,7.3,37.6-2.8l45.6-45.6
	c10.1-10.1,11.3-26.1,2.8-37.6l-12.9-17.5c6.7-12.5,12.1-25.6,16.2-39.2l21.5-3.2c14.1-2.1,24.6-14.3,24.6-28.5v-64.5
	C512,209.5,501.6,197.3,487.4,195.2z M256,352c-53,0-96-43-96-96s43-96,96-96c53,0,96,43,96,96C352,309,309,352,256,352z"/>
<path class="lexicon-icon-outline" d="M256,160c-53,0-96,43-96,96s43,96,96,96s96-43,96-96S309,160,256,160z M256,320c-35.3,0-64-28.7-64-64c0-35.3,28.7-64,64-64
	s64,28.7,64,64C320,291.3,291.3,320,256,320z"/>
<path class="lexicon-icon-outline" d="M487.4,195.2L466,192c-4.1-13.6-9.5-26.7-16.2-39.2l12.9-17.5c8.5-11.5,7.3-27.5-2.8-37.6l-45.6-45.6
	c-10.1-10.1-26.1-11.3-37.6-2.8l-17.5,12.9C346.7,55.6,333.6,50.2,320,46l-3.2-21.5C314.7,10.4,302.5,0,288.2,0h-64.5
	c-14.3,0-26.4,10.4-28.5,24.6L192,46c-13.6,4.1-26.7,9.5-39.2,16.2l-17.5-12.9c-11.5-8.5-27.5-7.3-37.6,2.8L52.2,97.8
	c-10.1,10.1-11.3,26.1-2.8,37.6l12.9,17.5C55.6,165.3,50.2,178.4,46,192l-21.5,3.2C10.5,197.3,0,209.5,0,223.8v64.5
	c0,14.3,10.4,26.4,24.6,28.5L46,320c4.1,13.6,9.5,26.7,16.2,39.2l-12.9,17.5c-8.5,11.5-7.3,27.5,2.8,37.6l45.6,45.6
	c10.1,10.1,26.1,11.3,37.6,2.8l17.5-12.9c12.5,6.7,25.6,12.1,39.2,16.2l3.2,21.5c2.1,14.1,14.3,24.6,28.5,24.6h64.5
	c14.3,0,26.4-10.5,28.5-24.6L320,466c13.6-4.1,26.7-9.5,39.2-16.2l17.5,12.9c11.5,8.5,27.5,7.3,37.6-2.8l45.6-45.6
	c10.1-10.1,11.3-26.1,2.8-37.6l-12.9-17.5c6.7-12.5,12.1-25.6,16.2-39.2l21.5-3.2c14.1-2.1,24.6-14.3,24.6-28.5v-64.5
	C512,209.5,501.6,197.3,487.4,195.2L487.4,195.2z M475.4,281.6l-39.3,5.9c-4.7,27-15.3,52-30.5,73.6l23.6,32l-36.2,36.2l-32-23.6
	c-21.6,15.2-46.6,25.8-73.6,30.5l-5.9,39.3h-51.2l-5.9-39.3c-27-4.7-52-15.3-73.6-30.5l-32,23.6l-36.2-36.2l23.6-32
	c-15.2-21.6-25.8-46.6-30.5-73.6l-39.3-5.9v-51.2l39.3-5.9c4.7-27,15.3-52,30.5-73.6l-23.6-32l36.2-36.2l32,23.6
	c21.6-15.2,46.6-25.8,73.6-30.5l5.9-39.3h51.2l5.9,39.3c27,4.7,52,15.3,73.6,30.5l32-23.6l36.2,36.2l-23.6,32
	c15.2,21.6,25.8,46.6,30.5,73.6l39.3,5.9V281.6L475.4,281.6z"/>
</svg>