<svg id="community" xmlns="http://www.w3.org/2000/svg" viewBox="0 0 512 512">
	<path class="lexicon-icon-outline" d="M0,256.6c0,337.1,512,344.1,512,0C512-85.5,0-85.5,0,256.6z M60.6,363.1c7.3-61.8,67.3-106.5,109.3-106.9C296.2,255.1,307,403.8,305,474.8C199.3,505.3,90,429.4,60.6,363.1z M128,176c0-63.7,95.8-63.9,95.8,0C223.8,241.3,128,239.3,128,176z M404,261.4c32.7-50.7-8.3-101.4-52.4-101c-57,0.6-82.8,66.9-47.1,102.2c-10.9,1.9-18.7,7.7-19,7.4c-22.4-25-54.7-35.6-54.5-35.8c52.6-46.2,19.2-137.8-55.1-138.3c-66.4-0.5-110.6,81.1-54,139.4c-63,26.3-81.3,83.5-81.8,81C4.7,149.3,134.3,31.9,256,31.9c123.5,0,258.3,112.6,211.3,299.2C445.9,284.8,417.3,267.4,404,261.4z"/>
</svg>