<?xml version="1.0" encoding="utf-8"?>
<!-- Generator: Adobe Illustrator 19.2.1, SVG Export Plug-In . SVG Version: 6.00 Build 0)  -->
<svg version="1.1" id="comments" xmlns="http://www.w3.org/2000/svg" xmlns:xlink="http://www.w3.org/1999/xlink" width="512" height="512" x="0px" y="0px"
	 viewBox="0 0 512 512" enable-background="new 0 0 512 512" xml:space="preserve">
<path class="lexicon-icon-body" fill="none" d="M448,0H64C28.7,0,0,28.7,0,64v288c0,35.3,28.7,64,64,64h50.7l-41,41c-12.5,12.5-12.5,32.8,0,45.3
	c6.2,6.2,14.4,9.4,22.6,9.4s16.4-3.1,22.6-9.4l86.3-86.3H448c35.3,0,64-28.7,64-64V64C512,28.7,483.3,0,448,0z"/>
<path class="lexicon-icon-outline" d="M448,0H64C28.7,0,0,28.7,0,64v288c0,35.3,28.7,64,64,64h50.7l-41,41c-12.5,12.5-12.5,32.8,0,45.3c6.2,6.2,14.4,9.4,22.6,9.4
	s16.4-3.1,22.6-9.4l86.3-86.3H448c35.3,0,64-28.7,64-64V64C512,28.7,483.3,0,448,0z M448,352H64V64h384V352L448,352z"/>
<path class="lexicon-icon-outline" d="M384,128H128c-17.7,0-32,14.3-32,32s14.3,32,32,32h256c17.7,0,32-14.3,32-32S401.7,128,384,128z"/>
<path class="lexicon-icon-outline" d="M288,224H128c-17.7,0-32,14.3-32,32s14.3,32,32,32h160c17.7,0,32-14.3,32-32S305.7,224,288,224z"/>
</svg>