<?xml version="1.0" encoding="utf-8"?>
<!-- Generator: Adobe Illustrator 19.0.0, SVG Export Plug-In . SVG Version: 6.00 Build 0)  -->
<svg version="1.1" id="control-panel" xmlns="http://www.w3.org/2000/svg" xmlns:xlink="http://www.w3.org/1999/xlink" x="0px" y="0px"
	 width="512px" height="512px" viewBox="0 0 512 512" style="enable-background:new 0 0 512 512;" xml:space="preserve">
<g>
	<path class="lexicon-icon-outline" d="M32,128h296.6c11.1,19.1,31.7,32,55.4,32s44.3-12.9,55.4-32H480c17.7,0,32-14.3,32-32s-14.3-32-32-32h-40.6
		c-11.1-19.1-31.7-32-55.4-32s-44.3,12.9-55.4,32H32C14.3,64,0,78.3,0,96S14.3,128,32,128z"/>
	<path class="lexicon-icon-outline" d="M480,384h-40.6c-11.1-19.1-31.7-32-55.4-32s-44.3,12.9-55.4,32H32c-17.7,0-32,14.3-32,32s14.3,32,32,32h296.6
		c11.1,19.1,31.7,32,55.4,32s44.3-12.9,55.4-32H480c17.7,0,32-14.3,32-32S497.7,384,480,384z"/>
	<path class="lexicon-icon-outline" d="M480,224H183.4c-11.1-19.1-31.7-32-55.4-32s-44.3,12.9-55.4,32H32c-17.7,0-32,14.3-32,32s14.3,32,32,32h40.5
		c11.1,19.1,31.7,32,55.4,32s44.3-12.9,55.4-32H480c17.7,0,32-14.3,32-32S497.7,224,480,224z"/>
</g>
</svg>
