<?xml version="1.0" encoding="utf-8"?>
<!-- Generator: Adobe Illustrator 19.2.0, SVG Export Plug-In . SVG Version: 6.00 Build 0)  -->
<svg version="1.1" xmlns="http://www.w3.org/2000/svg" xmlns:xlink="http://www.w3.org/1999/xlink" width="512" height="512" x="0px" y="0px"
	 viewBox="0 0 512 512" enable-background="new 0 0 512 512" xml:space="preserve">
<path class="lexicon-icon-outline" d="M335.4,208.2c-16.7-16.6-32.8-32.8-48-47.9c35.1-35.1,68.9-69,96.2-96.3H480
	C455.9,88.1,397.6,146.2,335.4,208.2z M287.4,256.1c78,77.9,161.9,161.6,192.1,191.9h-95.6c-39.6-39.6-93.2-93.1-144.3-144.1
	c-10.4,10.4-20.4,20.3-29.8,29.8c9,14.6,14.3,31.9,14.3,50.3c0,53-43,96-96,96s-96-43-96-96s43-96,96-96c9.7,0,19,1.4,27.9,4.1
	c11.2-11.3,23.3-23.3,35.9-35.9c-12.7-12.7-24.9-24.9-36.2-36.2c-8.7,2.6-18,4-27.5,4c-53,0-96-43-96-96s43-96,96-96s96,43,96,96
	c0,18.5-5.3,35.8-14.4,50.5c9.5,9.5,19.5,19.4,29.9,29.8c0.1-0.1,0.1-0.1,0.2-0.2c15.1,15.1,31.3,31.2,47.9,47.8
	C287.5,256,287.4,256.1,287.4,256.1z M128,160c17.7,0,32-14.3,32-32s-14.3-32-32-32c-17.7,0-32,14.3-32,32S110.3,160,128,160z
	 M160,384c0-17.7-14.3-32-32-32c-17.7,0-32,14.3-32,32s14.3,32,32,32C145.7,416,160,401.7,160,384z"/>
</svg>