<svg id="decimal" xmlns="http://www.w3.org/2000/svg" xmlns:xlink="http://www.w3.org/1999/xlink" viewBox="0 0 512 512">
	<path class="lexicon-icon-outline decimal-hundreths" d="M397.1,129.3c-74,0-82.9,84.1-82.9,125.6s10.4,127.9,82.9,127.9c73.5,0,82.9-86.4,82.9-127.9C480,213.6,470.6,129.3,397.1,129.3z M397.1,163.8c19.4-0.4,29.3,15.8,34.7,34.9l-75,75C355.2,231.2,355.6,163,397.1,163.8z M397.1,348.2c-18.9-0.8-28.8-16.7-34.2-35.3l74.6-74.6C437,280.5,438.3,348.2,397.1,348.2z"/>
	<path class="lexicon-icon-outline decimal-tenths" d="M199.2,129.3c-74,0-82.9,84.1-82.9,125.6s10.4,127.9,82.9,127.9c73.5,0,82.9-86.4,82.9-127.9C282.1,213.6,272.7,129.3,199.2,129.3z M199.2,163.8c19.4-0.4,29.3,15.8,34.7,34.9l-75,75C157.4,231.2,157.7,163,199.2,163.8z M199.2,348.2c-18.9-0.8-28.8-16.7-34.2-35.3l74.6-74.6C239.1,280.5,240.5,348.2,199.2,348.2z"/>
	<circle class="lexicon-icon-outline decimal-decimal-point" cx="64" cy="348.8" r="32"/>
</svg>