<svg id="diagram" xmlns="http://www.w3.org/2000/svg" viewBox="0 0 512 512">
	<path class="lexicon-icon-outline diagram-connector" d="M256,368v-32c0-22.4,32-22.4,32,0v32C288,390.4,256,390.4,256,368z"/>
	<path class="lexicon-icon-outline diagram-connector" d="M304,448h-32c-22.4,0-22.4-32,0-32h32C326.4,416,326.4,448,304,448z"/>
	<path class="lexicon-icon-outline diagram-connector" d="M256,272v-64c0-22.4,32-22.4,32,0v64C288,294.4,256,294.4,256,272z"/>
	<path class="lexicon-icon-outline diagram-connector" d="M256,144v-32c0-22.4,32-22.4,32,0v32C288,166.4,256,166.4,256,144z"/>
	<path class="lexicon-icon-outline diagram-connector" d="M272,32h32c22.4,0,22.4,32,0,32h-32C249.6,64,249.6,32,272,32z"/>
	<path class="lexicon-icon-outline diagram-partbox1" d="M208,224h-16v-64c0-19.2-12.8-32-32-32H32c-19.2,0-32,12.8-32,32v192c0,19.2,12.8,32,32,32h128c19.2,0,32-12.8,32-32v-96h16C227.2,256,230.4,224,208,224z M128,320H64V192h64V320z"/>
	<path class="lexicon-icon-outline diagram-partbox2" d="M480,384h-64c-19.2,0-32,12.8-32,32h-16c-22.4,0-22.4,32,0,32h16v32c0,19.2,12.8,32,32,32h64c19.2,0,32-12.8,32-32v-64C512,396.8,499.2,384,480,384z"/>
	<path class="lexicon-icon-outline diagram-partbox3" d="M480,0h-64c-19.2,0-32,12.8-32,32h-16c-22.4,0-22.4,32,0,32h16v32c0,19.2,12.8,32,32,32h64c19.2,0,32-12.8,32-32V32C512,12.8,499.2,0,480,0z"/>
	<path class="lexicon-icon-outline diagram-partbox4" d="M480,192h-64c-19.2,0-32,12.8-32,32h-16c-22.4,0-22.4,32,0,32h16v32c0,19.2,12.8,32,32,32h64c19.2,0,32-12.8,32-32v-64C512,204.8,499.2,192,480,192z"/>
</svg>