<?xml version="1.0" encoding="utf-8"?>
<!-- Generator: Adobe Illustrator 19.2.1, SVG Export Plug-In . SVG Version: 6.00 Build 0)  -->
<svg version="1.1" id="documents-and-media" xmlns="http://www.w3.org/2000/svg" xmlns:xlink="http://www.w3.org/1999/xlink" width="512" height="512"
	 x="0px" y="0px" viewBox="0 0 512 512" style="enable-background:new 0 0 512 512;" xml:space="preserve">
<path class="lexicon-icon-body" fill="none" d="M448,96h-64V64c0-35.3-28.7-64-64-64H64C28.7,0,0,28.7,0,64v256c0,35.3,28.7,64,64,64h32v64
	c0,35.3,28.7,64,64,64h288c35.3,0,64-28.7,64-64V160C512,124.7,483.3,96,448,96z"/>
<path class="lexicon-icon-outline" d="M448,96h-64V64c0-35.3-28.7-64-64-64H64C28.7,0,0,28.7,0,64v256c0,35.3,28.7,64,64,64h32v64c0,35.3,28.7,64,64,64h288
	c35.3,0,64-28.7,64-64V160C512,124.7,483.3,96,448,96z M64,320V64h256l0,32h0v64h0l0,160c0,0,0,0,0,0H160v0H96v0H64z M448,448H160
	v-64h160c35.3,0,64-28.7,64-64V160h64V448C448,448,448,448,448,448z"/>
<path class="lexicon-icon-outline" d="M148,188.8c2.5,2.2,5.5,3.2,8.7,3.2c3.9,0,6.9-1.2,8.9-3.5c1.5-1.8,3.2-4.9,5.1-9.6l3.7-8.9h34.4l3.7,8.7l0,0.1
	c0.6,1.4,1.4,2.9,2.2,4.7c1,2,1.9,3.6,2.9,4.6c1.1,1.2,2.4,2.2,3.9,2.9c1.5,0.7,3.3,1,5.4,1c3.5,0,6.5-1.1,9-3.4
	c2.6-2.3,3.9-5.1,3.9-8.1c0-2.5-1-5.9-3.3-10.7l-25.1-55.5c-1.2-2.8-2.2-5-2.9-6.7c-0.9-1.9-2-3.7-3.2-5.3c-1.4-1.9-3.3-3.4-5.6-4.5
	c-2.3-1.2-5.1-1.8-8.4-1.8c-3.2,0-6,0.6-8.3,1.8c-2.3,1.2-4.2,2.7-5.6,4.6c-1.3,1.7-2.5,3.8-3.5,6.3l-2.5,5.8l-24.5,55.9
	c-1.1,2.3-1.8,4.1-2.3,5.5c-0.6,1.6-0.8,3.2-0.8,4.8C144,182.8,144.7,185.9,148,188.8z M191.5,127.2l9.3,22.8h-18.4L191.5,127.2z"/>
<path class="lexicon-icon-outline" d="M128,288h128c17.7,0,32-14.3,32-32s-14.3-32-32-32H128c-17.7,0-32,14.3-32,32S110.3,288,128,288z"/>
</svg>