<svg id="dynamic-data-mapping" xmlns="http://www.w3.org/2000/svg" viewBox="0 0 512 512">
	<path class="lexicon-icon-outline ddm-border1" d="M64,87.6h128v32h32v-64c0-19.2-12.8-32-32-32H32c-19.2,0-32,12.8-32,32v288c0,19.2,12.8,32,32,32h83.2c3.2-22.4,9.6-44.8,22.4-64H64V87.6z"/>
	<path class="lexicon-icon-outline ddm-border2" d="M480,23.6H320c-19.2,0-32,12.8-32,32v64h32v-32h128v224h-73.6c12.8,19.2,19.2,41.6,22.4,64H480c19.2,0,32-12.8,32-32v-288C512,36.4,499.2,23.6,480,23.6z"/>
	<path class="lexicon-icon-outline ddm-lightning" d="M313.6,391.6L268.8,366l22.4-54.4c6.4-12.8-9.6-19.2-16-12.8l-80,76.8c-6.4,6.4-6.4,12.8,3.2,16l44.8,25.6l-22.4,54.4c-3.2,12.8,9.6,19.2,16,12.8l80-76.8C320,404.4,320,394.8,313.6,391.6z"/>
	<path class="lexicon-icon-outline ddm-barbell" d="M368,151.6c-22.4,0-38.4,12.8-44.8,32H188.8c-6.4-19.2-22.4-32-44.8-32c-64,0-64,96,0,96c22.4,0,38.4-12.8,44.8-32h134.4c6.4,19.2,25.6,32,44.8,32C432,247.6,432,151.6,368,151.6z"/>
</svg>