<?xml version="1.0" encoding="utf-8"?>
<!-- Generator: Adobe Illustrator 19.2.1, SVG Export Plug-In . SVG Version: 6.00 Build 0)  -->
<svg version="1.1" id="embed" xmlns="http://www.w3.org/2000/svg" xmlns:xlink="http://www.w3.org/1999/xlink" width="512" height="512" x="0px" y="0px"
	 viewBox="0 0 512 512" style="enable-background:new 0 0 512 512;" xml:space="preserve">
<path class="lexicon-icon-outline" d="M148.1,102.3c-14.2-10.5-34.2-7.6-44.8,6.6l-95,128c-8.4,11.3-8.4,26.8,0,38.1l95,128c6.3,8.5,15.9,12.9,25.7,12.9
	c6.6,0,13.3-2.1,19-6.3c14.2-10.5,17.2-30.6,6.6-44.8L73.9,256l80.8-108.9C165.2,132.9,162.3,112.8,148.1,102.3z"/>
<path class="lexicon-icon-outline" d="M505.7,238.9l-95-128c-10.5-14.2-30.6-17.2-44.8-6.6c-14.2,10.5-17.2,30.6-6.6,44.8L440.1,258l-80.8,108.9
	c-10.5,14.2-7.6,34.2,6.6,44.8c5.7,4.3,12.4,6.3,19,6.3c9.8,0,19.4-4.5,25.7-12.9l95-128C514.1,265.8,514.1,250.3,505.7,238.9z"/>
<path class="lexicon-icon-outline" d="M296.8,97c-17.1-4.3-34.5,6.1-38.8,23.3l-64,256c-4.3,17.1,6.1,34.5,23.3,38.8c2.6,0.7,5.2,1,7.8,1c14.3,0,27.4-9.7,31-24.2
	l64-256C324.3,118.6,313.9,101.2,296.8,97z"/>
</svg>