<?xml version="1.0" encoding="utf-8"?>
<!-- Generator: Adobe Illustrator 21.0.1, SVG Export Plug-In . SVG Version: 6.00 Build 0)  -->
<svg version="1.1" xmlns="http://www.w3.org/2000/svg" xmlns:xlink="http://www.w3.org/1999/xlink" width="512" height="512" viewBox="0 0 512 512">
<path class="lexicon-icon-outline" d="M448,64H64C28.7,64,0,92.7,0,128v256c0,35.3,28.7,64,64,64h384c35.3,0,64-28.7,64-64V128C512,92.7,483.3,64,448,64z M416,128L275.2,233.6c-11.3,8.5-27.1,8.5-38.4,0L96,128H416z M64,384V184l134.4,100.8c33.1,25.2,77.1,26.2,115.2,0L448,184v200H64z"/>
</svg>
