<?xml version="1.0" encoding="utf-8"?>
<!-- Generator: Adobe Illustrator 21.0.1, SVG Export Plug-In . SVG Version: 6.00 Build 0)  -->
<svg version="1.1" xmlns="http://www.w3.org/2000/svg" xmlns:xlink="http://www.w3.org/1999/xlink" width="512" height="512" viewBox="0 0 512 512">
<path class="lexicon-icon-outline" d="M313.6,19.1C278-8,232.7-4.7,198.4,19.1c0,0-174.5,121.2-183.7,132.2C5.7,159.3,0,176.6,0,192.1v256c0,35.3,28.6,64,64,64h384c35.3,0,64-28.6,64-64V192c0-15.2-5.7-31.7-14.2-40.1C488.6,140.5,313.6,19.1,313.6,19.1z M236.8,70.3c11.3-8.5,27.1-8.5,38.4,0L426.8,184L275.2,297.6c-11.3,8.5-27.1,8.5-38.4,0L85.2,183.9L236.8,70.3z M64,448V248l134.4,100.8c33.6,25.9,80.3,25.9,115.2,0L448,248v200H64z"/>
</svg>
