<svg id="environment-disconnected" xmlns="http://www.w3.org/2000/svg" viewBox="0 0 512 512">
	<path class="environment-disconnected-server-bottom-right lexicon-icon-outline" d="M480,288h-96c-17.7,0-32,14.3-32,32v160c0,17.7,14.3,32,32,32h96c17.7,0,32-14.3,32-32V320C512,302.3,497.7,288,480,288z M464,384h-64c-21.3,0-22-32,0-32h64C485.3,352,484.9,384,464,384z"/>
	<path class="environment-disconnected-server-bottom-left lexicon-icon-outline" d="M128,288H32c-17.7,0-32,14.3-32,32v160c0,17.7,14.3,32,32,32h96c17.7,0,32-14.3,32-32V320C160,302.3,145.7,288,128,288z M112,384H48c-21.3,0-22-32,0-32h64C133.3,352,132.9,384,112,384z"/>
	<path class="environment-disconnected-server-top lexicon-icon-outline" d="M320,0H192c-17.7,0-32,14.3-32,32v160c0,17.7,14.3,32,32,32h128c17.7,0,32-14.3,32-32V32C352,14.3,337.7,0,320,0z M304,96h-96c-21.3,0-22-32,0-32h96C325.3,64,324.9,96,304,96z"/>
</svg>
