<?xml version="1.0" encoding="utf-8"?>
<!-- Generator: Adobe Illustrator 19.2.1, SVG Export Plug-In . SVG Version: 6.00 Build 0)  -->
<svg version="1.1" id="Layer_1" xmlns="http://www.w3.org/2000/svg" xmlns:xlink="http://www.w3.org/1999/xlink" width="512" height="512" x="0px" y="0px"
	 viewBox="0 0 512 512" style="enable-background:new 0 0 512 512;" xml:space="preserve">
<path class="lexicon-icon-body" fill="none" d="M491.9,156.3C479,125.8,460.5,98.5,437,75S386.2,33,355.7,20.1C324.1,6.8,290.5,0,256,0s-68.1,6.8-99.7,20.1
	C125.8,33,98.5,51.5,75,75S33,125.8,20.1,156.3C6.8,187.9,0,221.5,0,256s6.8,68.1,20.1,99.7C33,386.2,51.5,413.5,75,437
	s50.9,41.9,81.4,54.8c31.6,13.4,65.1,20.1,99.7,20.1s68.1-6.8,99.7-20.1c30.5-12.9,57.9-31.3,81.4-54.8s41.9-50.9,54.8-81.4
	c13.4-31.6,20.1-65.1,20.1-99.7S505.2,187.9,491.9,156.3L491.9,156.3z"/>
<path class="lexicon-icon-outline" d="M240,288h32l16-160h-64L240,288z"/>
<path class="lexicon-icon-outline" d="M288,352c0,17.7-14.3,32-32,32s-32-14.3-32-32s14.3-32,32-32S288,334.3,288,352z"/>
<path class="lexicon-icon-outline" d="M491.9,156.3C479,125.8,460.5,98.5,437,75S386.2,33,355.7,20.1C324.1,6.8,290.5,0,256,0s-68.1,6.8-99.7,20.1
	C125.8,33,98.5,51.5,75,75S33,125.8,20.1,156.3C6.8,187.9,0,221.5,0,256s6.8,68.1,20.1,99.7C33,386.2,51.5,413.5,75,437
	s50.9,41.9,81.4,54.8c31.6,13.4,65.1,20.1,99.7,20.1s68.1-6.8,99.7-20.1c30.5-12.9,57.9-31.3,81.4-54.8s41.9-50.9,54.8-81.4
	c13.4-31.6,20.1-65.1,20.1-99.7S505.2,187.9,491.9,156.3L491.9,156.3z M256,448c-106,0-192-86-192-192S150,64,256,64s192,86,192,192
	S362,448,256,448z"/>
</svg>