<?xml version="1.0" encoding="utf-8"?>
<!-- Generated by IcoMoon.io -->
<!DOCTYPE svg PUBLIC "-//W3C//DTD SVG 1.1//EN" "http://www.w3.org/Graphics/SVG/1.1/DTD/svg11.dtd">
<svg version="1.1" xmlns="http://www.w3.org/2000/svg" xmlns:xlink="http://www.w3.org/1999/xlink" width="512" height="512" viewBox="0 0 512 512">
<path class="lexicon-icon-outline" d="M480 352v0c-17.6 0-32 14.4-32 32v25.373l-88.005-88.005c-10.623-10.623-28.005-10.623-38.627 0v0c-10.623 10.623-10.623 28.005 0 38.627l88.005 88.005h-25.373c-17.6 0-32 14.4-32 32v0c0 17.6 14.4 32 32 32h96c0.815 0 1.62-0.041 2.419-0.101 7.747 0.646 15.721-1.971 21.614-7.865v0c5.894-5.894 8.512-13.868 7.865-21.614 0.060-0.8 0.101-1.604 0.101-2.419v-96c0-17.6-14.4-32-32-32z"></path>
<path class="lexicon-icon-outline" d="M352 32v0c0 17.6 14.4 32 32 32h25.373l-88.005 88.005c-10.623 10.623-10.623 28.005 0 38.627v0c10.623 10.623 28.005 10.623 38.627 0l88.005-88.005v25.373c0 17.6 14.4 32 32 32v0c17.6 0 32-14.4 32-32v-96c0-0.814-0.041-1.619-0.101-2.419 0.646-7.747-1.971-15.72-7.865-21.614v0c-5.894-5.894-13.868-8.511-21.614-7.865-0.8-0.060-1.604-0.102-2.419-0.102h-96c-17.6 0-32 14.4-32 32z"></path>
<path class="lexicon-icon-outline" d="M32 160v0c17.6 0 32-14.4 32-32v-25.373l88.005 88.005c10.623 10.623 28.005 10.623 38.627 0v0c10.623-10.623 10.623-28.005 0-38.627l-88.005-88.005h25.373c17.6 0 32-14.4 32-32v0c0-17.6-14.4-32-32-32h-96c-0.814 0-1.619 0.041-2.419 0.102-7.747-0.646-15.72 1.972-21.614 7.865v0c-5.894 5.894-8.511 13.868-7.865 21.614-0.060 0.799-0.102 1.605-0.102 2.419v96c0 17.6 14.4 32 32 32z"></path>
<path class="lexicon-icon-outline" d="M160 480v0c0-17.6-14.4-32-32-32h-25.373l88.005-88.005c10.623-10.623 10.623-28.005 0-38.627v0c-10.623-10.623-28.005-10.623-38.627 0l-88.005 88.005v-25.373c0-17.6-14.4-32-32-32v0c-17.6 0-32 14.4-32 32v96c0 0.815 0.041 1.62 0.102 2.419-0.646 7.747 1.972 15.721 7.865 21.614v0c5.894 5.894 13.867 8.512 21.614 7.865 0.799 0.060 1.605 0.101 2.419 0.101h96c17.6 0 32-14.4 32-32z"></path>
</svg>
