<svg id="file-script" xmlns="http://www.w3.org/2000/svg" viewBox="0 0 512 512">
	<path class="lexicon-icon-outline file-script-border" d="M320,64v64c0,17.7,14.3,32,32,32h64v288H96V64H320z M325.5,0H96C60.7,0,32,28.7,32,64v384c0,35.3,28.7,64,64,64h320c35.3,0,64-28.7,64-64V154.5c0-33.5-18-44.5-63.5-90S360,0,325.5,0L325.5,0z"/>
	<path class="lexicon-icon-outline file-script-forward-slash" d="M212.2,409.2l69.1-187.5c7.7-20.7,37.7-7.7,30.1,10.9l-69.1,187.5C234,440,205,428,212.2,409.2z"/>
	<path class="lexicon-icon-outline file-script-angle-bracket-open" d="M160,320l35.9-35.9l-22.6-22.6l-35.9,35.9c-12.5,12.5-12.5,32.8,0,45.3l35.9,35.9l22.6-22.6L160,320z"/>
	<path class="lexicon-icon-outline file-script-angle-bracket-close" d="M355.9,320L320,284.1l22.6-22.6l35.9,35.9c12.5,12.5,12.5,32.8,0,45.3l-35.9,35.9L320,355.9L355.9,320z"/>
</svg>