<?xml version="1.0" encoding="utf-8"?>
<!-- Generator: Adobe Illustrator 19.2.1, SVG Export Plug-In . SVG Version: 6.00 Build 0)  -->
<svg version="1.1" id="forms" xmlns="http://www.w3.org/2000/svg" xmlns:xlink="http://www.w3.org/1999/xlink" width="512" height="512" x="0px" y="0px"
	 viewBox="0 0 512 512" style="enable-background:new 0 0 512 512;" xml:space="preserve">
<path class="lexicon-icon-body" fill="none" d="M448,0H64C28.7,0,0,28.7,0,64v384c0,35.3,28.7,64,64,64h384c35.3,0,64-28.7,64-64V64C512,28.7,483.3,0,448,0z"
	/>
<path class="lexicon-icon-outline" d="M448,0H64C28.7,0,0,28.7,0,64v384c0,35.3,28.7,64,64,64h384c35.3,0,64-28.7,64-64V64C512,28.7,483.3,0,448,0z M448,448H64
	V64h384V448C448,448,448,448,448,448z"/>
<path class="lexicon-icon-outline" d="M384,128H224c-17.7,0-32,14.3-32,32s14.3,32,32,32h160c17.7,0,32-14.3,32-32S401.7,128,384,128z"/>
<circle class="lexicon-icon-outline" cx="128" cy="160" r="32"/>
<path class="lexicon-icon-outline" d="M384,224H224c-17.7,0-32,14.3-32,32s14.3,32,32,32h160c17.7,0,32-14.3,32-32S401.7,224,384,224z"/>
<circle class="lexicon-icon-outline" cx="128" cy="256" r="32"/>
<path class="lexicon-icon-outline" d="M384,320H224c-17.7,0-32,14.3-32,32s14.3,32,32,32h160c17.7,0,32-14.3,32-32S401.7,320,384,320z"/>
<circle class="lexicon-icon-outline" cx="128" cy="352" r="32"/>
</svg>