<?xml version="1.0" encoding="utf-8"?>
<!-- Generator: Adobe Illustrator 19.0.0, SVG Export Plug-In . SVG Version: 6.00 Build 0)  -->
<svg version="1.1" id="full" xmlns="http://www.w3.org/2000/svg" xmlns:xlink="http://www.w3.org/1999/xlink" width="512" height="512" x="0px" y="0px"
	 viewBox="0 0 512 512" enable-background="new 0 0 512 512" xml:space="preserve">
<g>
	<path class="lexicon-icon-outline" d="M384,382.8041H224V448h160c35.2,0,64-28.8,64-64V224h-64V382.8041z"/>
	<path class="lexicon-icon-outline" d="M128,126.8041h160v-64H128c-35.2,0-64,28.8-64,64V288h64V126.8041z"/>
	<path class="lexicon-icon-outline" d="M502.5245,9.4752C496.4434,3.3941,488.241,0,479.6143,0H378.3566c-17.9605-0.0001-32.4562,14.4956-32.3855,32.3854
		c0,8.9095,3.6063,17.0413,9.4753,22.9103c5.869,5.869,14.0007,9.4752,22.9102,9.4752h23.6174l-80.4688,80.4688l45.2548,45.2548
		l80.4688-80.4688v23.6174c0,17.9605,14.4957,32.4562,32.3855,32.3854c17.9605,0,32.4562-14.4957,32.3855-32.3854V32.3855
		C511.9998,23.7587,508.6057,15.5564,502.5245,9.4752z"/>
	<path class="lexicon-icon-outline" d="M145.24,321.5054l-80.4688,80.4688v-23.6174c0-17.9606-14.4957-32.4562-32.3855-32.3855
		c-17.9605,0-32.4562,14.4957-32.3855,32.3855v101.2576c0,8.6268,3.3941,16.8292,9.4753,22.9103
		c6.0811,6.0811,14.2835,9.4753,22.9102,9.4752L133.6434,512c17.9605,0,32.4562-14.4957,32.3855-32.3855
		c0-8.9095-3.6063-17.0413-9.4753-22.9103c-5.869-5.869-14.0007-9.4752-22.9102-9.4752h-23.6174l80.4688-80.4688L145.24,321.5054z"
		/>
</g>
</svg>