<svg id="globe" xmlns="http://www.w3.org/2000/svg" viewBox="0 0 512 512">
	<path class="lexicon-icon-outline" d="M256,0C115.2,0,0,115.2,0,256s115.2,256,256,256s256-115.2,256-256S396.8,0,256,0z M320,384c12.8,9.6,25.6,76.8,25.6,76.8c-28.8,12.8-73.6,25.2-121.6,16c0,0-32-16-32-60.8s16-67.2-32-96s-86.4-22.4-96-32s-16-38.4,0-64c12.8,0,19.2,0,32,0c0-22.4,0-48,0-64c25.6,0,35.2,0,64,0c19.2-12.8,64-124.8,64-124.8c19.2-6.4,52.8-6.9,64,0C183.3,161.3,348.7,46.7,320,96c-19.2,35.2-96,83.2-96,96s22.4,32,32,32s51.2-64,64-64s41.6,54.4,32,64s-115.2,16-128,32s-16,80,0,96S307.2,374.4,320,384z M425.6,403.2c0,0,25.6-86.4,22.4-115.2s-22.4-60.8-32-64s-25.6,6.4-32,0c0-6.4,0-19.2,0-32c6.4-6.4,67.2-6.4,86.4,0C476.8,195.2,506.5,308.9,425.6,403.2z"/>
</svg>