<?xml version="1.0" encoding="utf-8"?>
<!-- Generated by IcoMoon.io -->
<!DOCTYPE svg PUBLIC "-//W3C//DTD SVG 1.1//EN" "http://www.w3.org/Graphics/SVG/1.1/DTD/svg11.dtd">
<svg version="1.1" xmlns="http://www.w3.org/2000/svg" xmlns:xlink="http://www.w3.org/1999/xlink" width="512" height="512" viewBox="0 0 512 512">
<path class="lexicon-icon-outline" d="M495.965 0.018h-95.993c-8.813 0-15.981 7.168-15.981 16.017v95.993c0 8.85 7.168 16.017 16.017 16.017h95.993c8.849 0 16.017-7.168 16.017-16.017v-95.993c-0.037-8.85-7.204-16.017-16.054-16.017z"></path>
<path class="lexicon-icon-outline" d="M112.028 192.005h-95.993c-8.85 0-16.017 7.167-16.017 16.017v95.993c0 8.849 7.168 16.017 16.017 16.017h95.993c8.85 0 15.981-7.168 15.981-16.017v-95.993c0-8.85-7.168-16.017-15.981-16.017z"></path>
<path class="lexicon-icon-outline" d="M303.978 192.005h-95.993c-8.85 0-16.017 7.167-16.017 16.017v95.993c0 8.849 7.167 16.017 16.017 16.017h95.993c8.849 0 16.017-7.168 16.017-16.017v-95.993c0-8.85-7.168-16.017-16.017-16.017z"></path>
<path class="lexicon-icon-outline" d="M495.965 192.005h-95.993c-8.849 0-16.017 7.167-16.017 16.017v95.993c0 8.849 7.168 16.017 16.017 16.017h95.993c8.849 0 16.017-7.168 16.017-16.017v-95.993c0-8.85-7.168-16.017-16.017-16.017z"></path>
<path class="lexicon-icon-outline" d="M112.028 383.991h-95.993c-8.85 0-16.017 7.168-16.017 16.017v95.993c0 8.813 7.168 15.981 16.017 15.981h95.993c8.85 0 15.981-7.168 15.981-16.017v-95.993c0-8.813-7.168-15.981-15.981-15.981z"></path>
<path class="lexicon-icon-outline" d="M303.978 383.991h-95.993c-8.85 0-16.017 7.168-16.017 16.017v95.993c0 8.849 7.167 16.017 16.017 16.017h95.993c8.849 0 16.017-7.168 16.017-16.017v-95.993c0-8.849-7.168-16.017-16.017-16.017z"></path>
<path class="lexicon-icon-outline" d="M495.965 383.991h-95.993c-8.849 0-16.017 7.168-16.017 16.017v95.993c0 8.849 7.168 16.017 16.017 16.017h95.993c8.849-0.037 16.017-7.204 16.017-16.054v-95.993c0-8.813-7.168-15.981-16.017-15.981z"></path>
<path class="lexicon-icon-outline" d="M112.028 0.018h-95.993c-8.85 0-16.017 7.168-16.017 16.017v95.993c0 8.814 7.168 15.981 16.017 15.981h95.993c8.85 0 15.981-7.168 15.981-16.017v-95.956c0-8.85-7.168-16.017-15.981-16.017z"></path>
<path class="lexicon-icon-outline" d="M303.978 0.018h-95.993c-8.85 0-16.017 7.168-16.017 16.017v95.993c0 8.85 7.167 16.017 16.017 16.017h95.993c8.849 0 16.017-7.168 16.017-16.017v-95.993c0-8.85-7.168-16.017-16.017-16.017z"></path>
</svg>