<?xml version="1.0" encoding="utf-8"?>
<!-- Generated by IcoMoon.io -->
<!DOCTYPE svg PUBLIC "-//W3C//DTD SVG 1.1//EN" "http://www.w3.org/Graphics/SVG/1.1/DTD/svg11.dtd">
<svg version="1.1" xmlns="http://www.w3.org/2000/svg" xmlns:xlink="http://www.w3.org/1999/xlink" width="512" height="512" viewBox="0 0 512 512">
<path class="lexicon-icon-outline" d="M266.812 199.731c-7.13-8.47-16.182-15.246-27.105-20.303-10.947-5.056-23.893-7.585-38.786-7.585-11.1 0-22.528 2.048-34.26 6.119s-21.416 10.846-29 20.303l-0-134.264h-73.662v352h73.662l0-138.521c0.607-13.375 4.753-24.525 12.339-33.501 7.636-8.951 18.078-13.451 31.403-13.451 15.221 0 26.244 4.576 33.071 13.678 6.827 9.127 10.215 20.556 10.215 34.235l-0 137.56h63.31l0-148.812c0-13.021-1.744-25.435-5.233-37.142-3.514-11.732-8.824-21.846-15.954-30.315l0-0z"></path>
<path class="lexicon-icon-outline" d="M396.014 128c-2.925 15.277-11.122 28.141-24.68 38.611-13.536 10.471-30.694 15.857-51.334 16.16v41.229h64v192h64v-288h-51.986z"></path>
</svg>
