<?xml version="1.0" encoding="utf-8"?>
<!-- Generated by IcoMoon.io -->
<!DOCTYPE svg PUBLIC "-//W3C//DTD SVG 1.1//EN" "http://www.w3.org/Graphics/SVG/1.1/DTD/svg11.dtd">
<svg version="1.1" xmlns="http://www.w3.org/2000/svg" xmlns:xlink="http://www.w3.org/1999/xlink" width="512" height="512" viewBox="0 0 512 512">
<path class="lexicon-icon-outline" d="M234.812 231.731c-7.13-8.47-16.182-15.246-27.105-20.303-10.947-5.056-23.893-7.585-38.786-7.585-11.1 0-22.528 2.048-34.26 6.119s-21.416 10.846-29 20.303l-0.001-134.264h-73.662v352h73.662l0.001-138.521c0.607-13.375 4.753-24.525 12.338-33.501 7.636-8.95 18.079-13.451 31.402-13.451 15.221 0 26.244 4.576 33.071 13.678 6.827 9.127 10.215 20.556 10.215 34.235l-0 137.56h63.31l0-148.812c0-13.021-1.744-25.435-5.233-37.142-3.514-11.732-8.824-21.846-15.954-30.315l0-0z"></path>
<path class="lexicon-icon-outline" d="M358.197 382.474c4.146-4.012 8.916-7.757 14.353-11.211l53.513-32.74c17.139-10.632 30.378-23.202 39.829-37.712 9.406-14.51 14.108-30.824 14.108-48.9 0-12.058-2.273-23.559-6.82-34.48-4.569-10.921-11.211-20.483-19.925-28.662s-19.257-14.732-31.671-19.613c-12.392-4.881-26.344-7.31-41.745-7.31-16.27 0-30.69 2.585-43.239 7.756-12.57 5.171-23.135 12.058-31.671 20.683-8.58 8.603-15.156 18.522-19.725 29.732s-6.82 23.001-6.82 35.349c0 0.375 0.012 0.761 0.017 1.14h56.188c0.743-11.25 4.341-20.839 10.793-28.732 7.288-8.916 18.32-13.373 33.164-13.373 13.974 0 24.45 3.877 31.448 11.634 6.998 7.778 10.498 16.671 10.498 26.723 0 9.762-2.519 18.477-7.489 26.077s-13.485 15.022-25.475 22.199l-45.825 27.57c-12.548 7.489-22.957 15.601-31.248 24.361-8.247 8.76-14.911 18.165-19.903 28.238-0.463 0.928-0.909 1.861-1.349 2.798-4.32 9.21-7.507 18.839-9.55 28.874-0.214 1.034-0.409 2.080-0.603 3.126v32h200.95v-64h-123.274c0.478-0.519 0.965-1.029 1.47-1.526z"></path>
</svg>
