<?xml version="1.0" encoding="utf-8"?>
<!-- Generator: Adobe Illustrator 19.0.0, SVG Export Plug-In . SVG Version: 6.00 Build 0)  -->
<svg version="1.1" id="hidden" xmlns="http://www.w3.org/2000/svg" xmlns:xlink="http://www.w3.org/1999/xlink" x="0px" y="0px"
	 width="512px" height="512px" viewBox="0 0 512 512" enable-background="new 0 0 512 512" xml:space="preserve">
<g>
	<path class="lexicon-icon-outline" d="M445.7,44.3c-16.4-16.4-43-16.4-59.4,0l-68.2,68.2c-26.2-7.3-68.3-6.5-72.4-6.5C210,106,81.3,116.5,3.2,254.5
		c-9.1,16.1,3.3,30.7,9.2,39.3C31,320.6,51.1,342,71.6,359l-37.3,37.3c-16.4,16.4-16.4,43,0,59.4C42.5,463.9,53.3,468,64,468
		s21.5-4.1,29.7-12.3l352-352C462.1,87.3,462.1,60.7,445.7,44.3z M56,266.6c26.8-42.1,62-72.7,104.9-91c6.6-2.8,13.1-5.2,19.4-7.3
		c-32.8,23-54.3,61.1-54.3,104.2c0,9.9,1.1,19.6,3.3,28.8L108,322.6C90,308.1,72.3,289.8,56,266.6z"/>
	<path class="lexicon-icon-outline" d="M499.7,238.2c-10.6-15.3-21.7-28.9-33.1-40.9L430.9,234c8.7,9.3,17.3,19.8,25.5,31.5c-33.2,52.1-74.3,79.5-110.4,93.9
		c18.2-19.5,30.3-44.6,33.5-72.5l-135.3,139c3.7,0.1,20.3,0.2,24.3,0.2c35.2,0,162.2-10.5,240.2-148.5
		C517.8,261.4,505.7,246.8,499.7,238.2z"/>
</g>
</svg>
