<?xml version="1.0" encoding="utf-8"?>
<!-- Generator: Adobe Illustrator 19.0.0, SVG Export Plug-In . SVG Version: 6.00 Build 0)  -->
<svg version="1.1" id="info-panel-open" xmlns="http://www.w3.org/2000/svg" xmlns:xlink="http://www.w3.org/1999/xlink" width="512" height="512" x="0px"
	 y="0px" viewBox="0 0 512 512" enable-background="new 0 0 512 512" xml:space="preserve">
<path class="lexicon-icon-outline" d="M437.0195,74.9805C388.667,26.6289,324.3799,0,256,0C187.6196,0,123.3325,26.6289,74.9805,74.9805
	C26.6289,123.3325,0,187.6196,0,256c0,68.3799,26.6289,132.667,74.9805,181.0195C123.3325,485.3711,187.6196,512,256,512
	c68.3799,0,132.667-26.6289,181.0195-74.9805C485.3711,388.667,512,324.3799,512,256
	C512,187.6196,485.3711,123.3325,437.0195,74.9805z M288,384c0,17.6729-14.3267,32-32,32c-17.6729,0-32-14.3271-32-32V224
	c0-17.6733,14.3271-32,32-32c17.6733,0,32,14.3267,32,32V384z M256,160c-17.6731,0-32-14.3269-32-32c0-17.6732,14.3269-32,32-32
	s32,14.3268,32,32C288,145.6731,273.6731,160,256,160z"/>
</svg>