<svg id="integer" xmlns="http://www.w3.org/2000/svg" viewBox="0 0 512 512">
	<path class="lexicon-icon-outline integer-ones" d="M361.4,129.3c-74,0-82.9,84.1-82.9,125.6s10.4,127.9,82.9,127.9c73.5,0,82.9-86.4,82.9-127.9C444.4,213.6,434.9,129.3,361.4,129.3z M361.4,163.8c19.4-0.4,29.3,15.8,34.7,34.9l-75,75C319.6,231.2,319.9,163,361.4,163.8z M361.4,348.2c-18.9-0.8-28.8-16.7-34.2-35.3l74.6-74.6C401.3,280.5,402.7,348.2,361.4,348.2z"/>
	<path class="lexicon-icon-outline integer-tens" d="M99.4,342h54.5V181.5H109v-27.6c12.3-2.3,32.2-3.3,56.5-20h33V342h48v36.1H99.4V342z"/>
</svg>