<?xml version="1.0" encoding="utf-8"?>
<!-- Generated by IcoMoon.io -->
<!DOCTYPE svg PUBLIC "-//W3C//DTD SVG 1.1//EN" "http://www.w3.org/Graphics/SVG/1.1/DTD/svg11.dtd">
<svg version="1.1" xmlns="http://www.w3.org/2000/svg" xmlns:xlink="http://www.w3.org/1999/xlink" width="512" height="512" viewBox="0 0 512 512">
<path class="lexicon-icon-outline" d="M285.057 320.303c-24.563 0-49.097-9.328-67.78-28.039-9.667-9.666-9.667-25.326 0-34.964 9.667-9.666 25.326-9.666 34.965 0 18.062 18.062 47.486 18.090 65.576 0l122.474-122.445c18.062-18.061 18.062-47.486-0.029-65.576-8.762-8.762-20.408-13.596-32.788-13.596v0c-12.38 0-23.997 4.805-32.76 13.567l-100.512 100.511c-9.666 9.666-25.326 9.666-34.964 0-9.666-9.666-9.666-25.326 0-34.964l100.512-100.511c18.090-18.090 42.144-28.067 67.724-28.067h0.029c25.58 0 49.663 9.978 67.752 28.067 37.366 37.367 37.366 98.166 0.029 135.504l-122.474 122.445c-18.683 18.712-43.218 28.067-67.752 28.067z"></path>
<path class="lexicon-icon-outline" d="M105.882 499.619c-0.056 0-0.085 0-0.141 0-25.552-0.029-49.606-10.005-67.696-28.096-37.367-37.366-37.423-98.109-0.142-135.391l122.587-122.587c37.367-37.367 98.166-37.339 135.504 0.029 9.666 9.666 9.666 25.326 0 34.964-9.666 9.666-25.326 9.666-34.964 0-18.090-18.090-47.486-18.090-65.576-0.029l-122.587 122.587c-18.005 18.005-17.92 47.344 0.141 65.435 8.762 8.762 20.408 13.596 32.788 13.623 0.028 0 0.056 0 0.085 0 12.323 0 23.885-4.777 32.59-13.483l100.257-100.257c9.667-9.666 25.326-9.666 34.965 0 9.666 9.666 9.666 25.326 0 34.964l-100.257 100.257c-18.034 18.062-42.002 27.983-67.555 27.983z"></path>
</svg>
