<svg id="list-ol" xmlns="http://www.w3.org/2000/svg" viewBox="0 0 512 512">
	<path class="lexicon-icon-outline list-ol-item-3" d="M479.4,478.1H189.8c-41.8,0-45-63.7,0-63.7h289.6C524.5,414.4,521.2,478.1,479.4,478.1z"/>
	<path class="lexicon-icon-outline list-ol-item-2" d="M479.4,286.9H189.8c-41.8,0-45-63.7,0-63.7h289.6C524.5,223.1,521.2,286.9,479.4,286.9z"/>
	<path class="lexicon-icon-outline list-ol-item-1" d="M479.4,95.6H189.8c-41.8,0-45-63.7,0-63.7h289.6C524.5,31.9,521.2,95.6,479.4,95.6z"/>
	<path class="lexicon-icon-outline list-ol-bullet-3" d="M12.9,471.7c9.7,15.9,57.9,28.7,61.1-6.4c0-25.5-35.4-25.5-41.8-25.5v-19.1c25.7,3.2,48.8-16.7,32.2-38.2c-11.4-11.5-35.4-3.2-45,9.6l-13-16c6.4-9.6,42.6-33.1,77.2-9.6c19.3,12.4,22.5,51-12.9,66.9c0,0,44.2,13.5,25.7,54.2c-19.3,35.1-74,28.7-96.5,3.2L12.9,471.7z"/>
	<path class="lexicon-icon-outline list-ol-bullet-2" d="M0,303c25-24,88-66,61.1-95.8c-19.3-19.1-41.8,3.2-45,9.6l-12.9-16c29-31.9,63.8-23.8,77.2-9.6c42.9,46.1-35.4,102.4-45,108.8c22.5,0,61.1,0,61.1,0v21.9H0V303z"/>
	<path class="lexicon-icon-outline list-ol-bullet-1" d="M38.6,28.7h-29v-16c6.4,0,29-9.6,32.2-12.7h19.3v143.4H35.4L38.6,28.7z"/>
</svg>