<?xml version="1.0" encoding="utf-8"?>
<!-- Generated by IcoMoon.io -->
<!DOCTYPE svg PUBLIC "-//W3C//DTD SVG 1.1//EN" "http://www.w3.org/Graphics/SVG/1.1/DTD/svg11.dtd">
<svg version="1.1" xmlns="http://www.w3.org/2000/svg" xmlns:xlink="http://www.w3.org/1999/xlink" width="512" height="512" viewBox="0 0 512 512">
<path class="lexicon-icon-outline" d="M448 288h-288c-17.6 0-32-14.4-32-32v0c0-17.6 14.4-32 32-32h288c17.6 0 32 14.4 32 32v0c0 17.6-14.4 32-32 32z"></path>
<path class="lexicon-icon-outline" d="M448 512h-288c-17.6 0-32-14.4-32-32v0c0-17.6 14.4-32 32-32h288c17.6 0 32 14.4 32 32v0c0 17.6-14.4 32-32 32z"></path>
<path class="lexicon-icon-outline" d="M448 64h-288c-17.6 0-32-14.4-32-32v0c0-17.6 14.4-32 32-32h288c17.6 0 32 14.4 32 32v0c0 17.6-14.4 32-32 32z"></path>
<path class="lexicon-icon-outline" d="M64 256c0 17.673-14.327 32-32 32s-32-14.327-32-32c0-17.673 14.327-32 32-32s32 14.327 32 32z"></path>
<path class="lexicon-icon-outline" d="M64 32c0 17.673-14.327 32-32 32s-32-14.327-32-32c0-17.673 14.327-32 32-32s32 14.327 32 32z"></path>
<path class="lexicon-icon-outline" d="M64 480c0 17.673-14.327 32-32 32s-32-14.327-32-32c0-17.673 14.327-32 32-32s32 14.327 32 32z"></path>
</svg>
