<?xml version="1.0" encoding="utf-8"?>
<!-- Generated by IcoMoon.io -->
<!DOCTYPE svg PUBLIC "-//W3C//DTD SVG 1.1//EN" "http://www.w3.org/Graphics/SVG/1.1/DTD/svg11.dtd">
<svg version="1.1" xmlns="http://www.w3.org/2000/svg" xmlns:xlink="http://www.w3.org/1999/xlink" width="512" height="512" viewBox="0 0 512 512">
<path class="lexicon-icon-outline" d="M96.037 0h-64c-17.664 0-32 14.336-32 32s14.336 32 32 32h64c17.664 0 32-14.336 32-32s-14.336-32-32-32z"></path>
<path class="lexicon-icon-outline" d="M96.037 224h-64c-17.664 0-32 14.336-32 32s14.336 32 32 32h64c17.664 0 32-14.336 32-32s-14.336-32-32-32z"></path>
<path class="lexicon-icon-outline" d="M96.037 448h-64c-17.664 0-32 14.336-32 32s14.336 32 32 32h64c17.664 0 32-14.336 32-32s-14.336-32-32-32z"></path>
<path class="lexicon-icon-outline" d="M480 288h-256c-17.6 0-32-14.4-32-32v0c0-17.6 14.4-32 32-32h256c17.6 0 32 14.4 32 32v0c0 17.6-14.4 32-32 32z"></path>
<path class="lexicon-icon-outline" d="M480 64h-256c-17.6 0-32-14.4-32-32v0c0-17.6 14.4-32 32-32h256c17.6 0 32 14.4 32 32v0c0 17.6-14.4 32-32 32z"></path>
<path class="lexicon-icon-outline" d="M480 512h-256c-17.6 0-32-14.4-32-32v0c0-17.6 14.4-32 32-32h256c17.6 0 32 14.4 32 32v0c0 17.6-14.4 32-32 32z"></path>
</svg>
