<?xml version="1.0" encoding="utf-8"?>
<!-- Generated by IcoMoon.io -->
<!DOCTYPE svg PUBLIC "-//W3C//DTD SVG 1.1//EN" "http://www.w3.org/Graphics/SVG/1.1/DTD/svg11.dtd">
<svg version="1.1" xmlns="http://www.w3.org/2000/svg" xmlns:xlink="http://www.w3.org/1999/xlink" width="512" height="512" viewBox="0 0 512 512">
<path class="lexicon-icon-outline" d="M256 256v0c17.6 0 32-14.4 32-32v-192c0-17.6-14.4-32-32-32v0c-17.6 0-32 14.4-32 32v192c0 17.6 14.4 32 32 32z"></path>
<path class="lexicon-icon-outline" d="M459.834 164.518c-12.916-28.269-31.25-53.15-54.493-73.954-13.169-11.787-33.399-10.667-45.185 2.502s-10.666 33.399 2.502 45.186c16.628 14.883 29.738 32.668 38.965 52.864 9.54 20.879 14.377 43.215 14.377 66.389 0 42.738-16.643 82.917-46.863 113.137s-70.4 46.863-113.137 46.863c-42.738 0-82.917-16.643-113.137-46.863s-46.863-70.4-46.863-113.137c0-23.175 4.837-45.512 14.377-66.392 9.228-20.197 22.337-37.983 38.965-52.865 13.168-11.787 14.289-32.017 2.502-45.185s-32.017-14.289-45.185-2.502c-23.243 20.803-41.577 45.686-54.493 73.956-13.38 29.286-20.165 60.572-20.165 92.988 0 30.226 5.927 59.564 17.616 87.201 11.284 26.678 27.43 50.63 47.992 71.191s44.513 36.709 71.191 47.992c27.637 11.69 56.975 17.616 87.201 17.616s59.565-5.927 87.2-17.616c26.678-11.284 50.63-27.43 71.192-47.992s36.708-44.513 47.991-71.191c11.69-27.637 17.616-56.975 17.616-87.201 0-32.416-6.784-63.702-20.166-92.987z"></path>
</svg>