<svg id="mark-as-question" xmlns="http://www.w3.org/2000/svg" viewBox="0 0 512 512">
	<path class="lexicon-icon-outline mark-as-question-hook" d="M333,109.4c0-47.6,73-48.6,73,0c0,53.2-73,53.2-73,145.9c0,50.9,73,46.9,73,0c0-49.9,73-56.9,73-145.9c0-144.4-219-147.4-219,0C260,158.6,333,157.6,333,109.4z"/>
	<path class="lexicon-icon-outline mark-as-question-item-1" d="M100.4,390h131.2c48.1,0,49.1-64,0-64H100.4C52.9,326,50.9,390,100.4,390z"/>
	<path class="lexicon-icon-outline mark-as-question-item-2" d="M100.4,512h311.2c48.1,0,49.1-64,0-64H100.4C52.9,448,50.9,512,100.4,512z"/>
	<circle class="lexicon-icon-outline mark-as-question-dot" cx="369.1" cy="358" r="36"/>
</svg>