<svg id="merge" xmlns="http://www.w3.org/2000/svg" viewBox="0 0 512 512">
	<path class="lexicon-icon-outline" d="M322.6,238.2l-115.5-59c89-52.6,45-179.2-47-179.2c-112,0-130.6,154.6-32,186.1v182.2c-44.7,27.6-53.3,140.9,48,143.6c96,1.3,108.6-134,16-158.3V243.4l97.1,49.6c-13.1,88.3,110.2,126.9,150.8,46.9C476.7,248.6,377.4,196.6,322.6,238.2z M160.1,48c66.6,0,62,96,0,96C95.5,143.9,97.5,48,160.1,48z M176.1,479.8c-66,0-62-96,0-96C237.4,383.9,241.4,479.2,176.1,479.8z M368,351.9c-60,0-64.6-96,0-96C430.7,255.9,431.3,351.9,368,351.9z"/>
</svg>