<?xml version="1.0" encoding="utf-8"?>
<!-- Generated by IcoMoon.io -->
<!DOCTYPE svg PUBLIC "-//W3C//DTD SVG 1.1//EN" "http://www.w3.org/Graphics/SVG/1.1/DTD/svg11.dtd">
<svg version="1.1" xmlns="http://www.w3.org/2000/svg" xmlns:xlink="http://www.w3.org/1999/xlink" width="512" height="512" viewBox="0 0 512 512">
<path class="lexicon-icon-outline" d="M488.728 231.264c-12.846 0-23.272 10.426-23.272 23.273 0 115.486-93.969 209.454-209.454 209.454s-209.454-93.969-209.454-209.454c0-12.846-10.426-23.273-23.273-23.273s-23.273 10.426-23.273 23.273c0 141.152 114.847 256 256 256s256-114.848 256-256c0-12.846-10.426-23.273-23.272-23.273z"></path>
<path class="lexicon-icon-outline" d="M115.513 298.183c6.49 0 12.953-2.712 17.581-8.006 30.986-35.588 75.776-56.014 122.933-56.014s91.947 20.427 122.933 56.014c8.431 9.682 23.139 10.719 32.848 2.261 9.682-8.431 10.692-23.139 2.261-32.848-21.916-25.188-49.338-44.205-79.579-56.44 23.139-21.278 37.901-51.519 37.901-85.377 0-64.153-52.211-116.364-116.363-116.364s-116.363 52.211-116.363 116.364c0 33.858 14.762 64.1 37.901 85.377-30.242 12.235-57.663 31.251-79.579 56.44-8.431 9.682-7.421 24.39 2.287 32.848 4.388 3.856 9.814 5.745 15.24 5.745zM186.182 117.826c0-38.513 31.305-69.818 69.818-69.818s69.818 31.305 69.818 69.818-31.305 69.818-69.818 69.818-69.818-31.332-69.818-69.818z"></path>
</svg>
