<svg id="number" xmlns="http://www.w3.org/2000/svg" viewBox="0 0 512 512">
	<path class="lexicon-icon-outline number-hundreds" d="M7,334.5h50V187.4H15.8V162c15.9-3.5,35-7.8,51.7-18.3h30.3v190.8h44v33.1H7V334.5z"/>
	<path class="lexicon-icon-outline number-tens" d="M174.9,344c18.1-21,98.1-82,101.4-133.8c-0.3-59.2-66.3-39.7-80.6-13.7L173.2,174c91.3-89,188.8,8,118.1,95.2c-7.4,10.5-46.2,54.6-57.2,66.4c36.9-2.6,92.2-2.5,92.2-2.5v34.5H174.9V344z"/>
	<path class="lexicon-icon-outline number-ones" d="M369.9,314.1C382,326,416,354,452.8,329.8c29.7-27.3,6.7-68.8-54.4-62.8v-29.6c11,0,58.6,0.6,58.4-35.9c-2.3-43.5-54.8-34-78.1-8.8l-20.7-25c9.6-8.5,43-38.7,96.8-24.3c67.2,23.1,46.2,98.1,3.8,106.6c47.4,9,77.4,88-1.6,117.4c-44,11.6-86-2.4-106.5-27.3L369.9,314.1z"/>
</svg>