<svg id="oauth-2" xmlns="http://www.w3.org/2000/svg" viewBox="0 0 512 512">
	<path class="lexicon-icon-outline oauth-2-border" d="M256.4,64c254.8,13,256.7,370.5,0,384C-0.5,436.4,0.2,76.4,256.4,64 M256.4,0c-342,15.6-341.7,497.6,0,512C596.9,499.9,597.5,14.2,256.4,0L256.4,0z"/>
	<path class="lexicon-icon-outline oauth-2-a" d="M350.6,310.3L303.9,164c-7.2-17.7-16-36-47.8-36c-32.1,0-40.5,18.2-48,36l-46.7,146.4c-10.9,40.4,45.8,59.7,61.2,19.3l9.2-29h48.3l9.2,29C304.7,370,361.6,351,350.6,310.3z"/>
</svg>
