<?xml version="1.0" encoding="utf-8"?>
<!-- Generator: Adobe Illustrator 21.0.1, SVG Export Plug-In . SVG Version: 6.00 Build 0)  -->
<svg version="1.1" xmlns="http://www.w3.org/2000/svg" xmlns:xlink="http://www.w3.org/1999/xlink" width="512" height="512" viewBox="0 0 512 512">
<path class="lexicon-icon-outline order-arrow-arrow-down" d="M307.6,431.5l71.6,71.6c11.9,10.8,32.9,11.2,45.8,0l71.6-71.6c29.8-33.6-15.8-74.9-45.8-45.8l-16.7,16.7V31.6c0-42.5-64-42.5-64,0v370.8l-16.7-16.7C321.6,355.8,277.9,400.6,307.6,431.5z"/>
<path class="lexicon-icon-outline order-arrow-arrow-up" d="M204.4,80.5L132.8,8.9C120.9-1.8,99.9-2.3,87,8.9L15.4,80.5c-29.8,33.6,15.7,74.9,45.8,45.8l16.7-16.7v370.8c0,42.5,64,42.5,64,0V109.6l16.7,16.7C190.4,156.2,234.1,111.4,204.4,80.5z"/>
</svg>