<?xml version="1.0" encoding="utf-8"?>
<!-- Generator: Adobe Illustrator 19.2.1, SVG Export Plug-In . SVG Version: 6.00 Build 0)  -->
<svg version="1.1" id="page" xmlns="http://www.w3.org/2000/svg" xmlns:xlink="http://www.w3.org/1999/xlink" width="512" height="512" x="0px" y="0px"
	 viewBox="0 0 512 511.4" style="enable-background:new 0 0 512 511.4;" xml:space="preserve">
<path class="lexicon-icon-body" fill="none" d="M416,0L416,0H63.4C28.4,0,0,28.4,0,63.4V448c0,35,28.4,63.4,63.4,63.4h380.2c35,0,68.4-28.4,68.4-63.4V128V96
	L416,0z"/>
<path class="lexicon-icon-outline" d="M416,0L416,0H63.4C28.4,0,0,28.4,0,63.4V448c0,35,28.4,63.4,63.4,63.4h380.2c35,0,68.4-28.4,68.4-63.4V128V96L416,0z
	 M448,445.4c-1.2,1-3.1,2-4.4,2l-379.6,0L64,64h224h32v96v32h32h96V445.4z M384,128V64l64,64H384z"/>
</svg>