<?xml version="1.0" encoding="utf-8"?>
<!-- Generator: Adobe Illustrator 21.0.1, SVG Export Plug-In . SVG Version: 6.00 Build 0)  -->
<svg version="1.1" xmlns="http://www.w3.org/2000/svg" xmlns:xlink="http://www.w3.org/1999/xlink" width="512" height="512" viewBox="0 0 512 512">
<path class="lexicon-icon-outline pages-tree-tree" d="M161.5,288h126c0,17.6,14.4,32,32,32h64c17.8,0,32-14.4,32-32v-64c0-17.8-14.4-32-32-32h-64c-17.8,0-32,14.4-32,32v32h-126V128h32c17.8,0,32-14.4,32-32V32c0-17.8-14.4-32-32-32h-64c-17.8,0-32,14.4-32,32v64c0,17.6,14.4,32,32,32v352h158c0,17.6,14.4,32,32,32h64c17.8,0,32-14.4,32-32v-64c0-17.8-14.4-32-32-32h-64c-17.8,0-32,14.4-32,32v32h-126V288z"/>
</svg>