<?xml version="1.0" encoding="utf-8"?>
<!-- Generated by IcoMoon.io -->
<!DOCTYPE svg PUBLIC "-//W3C//DTD SVG 1.1//EN" "http://www.w3.org/Graphics/SVG/1.1/DTD/svg11.dtd">
<svg version="1.1" xmlns="http://www.w3.org/2000/svg" xmlns:xlink="http://www.w3.org/1999/xlink" width="512" height="512" viewBox="0 0 512 512">
<path class="lexicon-icon-outline" d="M473.449 48.992c-17.8-17.799-41.45-27.588-66.604-27.588s-48.805 9.788-66.604 27.588l-203.012 202.984c-12.604 12.604-19.249 28.517-18.784 44.868 0.465 15.339 7.136 30.185 18.756 41.832 11.566 11.565 26.986 17.963 43.364 17.963s31.798-6.398 43.363-17.963l108.902-108.902c9.351-9.351 9.351-24.498 0-33.822s-24.498-9.351-33.822 0l-108.93 108.902c-5.059 5.086-13.917 5.113-19.030 0-2.98-2.98-4.675-6.316-4.785-9.378-0.082-3.144 1.531-6.37 4.785-9.624l203.012-203.012c17.526-17.499 48.039-17.499 65.565 0 18.073 18.073 18.073 47.493 0 65.565l-237.899 237.899c-32.645 32.619-85.771 32.645-118.417 0s-32.645-85.771 0-118.417l169.162-169.162c9.351-9.35 9.351-24.498 0-33.822-9.351-9.35-24.498-9.35-33.822 0l-169.162 169.162c-51.293 51.293-51.293 134.794 0 186.087 25.647 25.647 59.359 38.469 93.044 38.469 33.713 0 67.397-12.823 93.044-38.469l237.899-237.899c36.719-36.775 36.719-96.516-0.027-133.263z"></path>
</svg>