<?xml version="1.0" encoding="utf-8"?>
<!-- Generator: Adobe Illustrator 19.2.0, SVG Export Plug-In . SVG Version: 6.00 Build 0)  -->
<svg version="1.1" xmlns="http://www.w3.org/2000/svg" xmlns:xlink="http://www.w3.org/1999/xlink" width="512" height="512" x="0px" y="0px"
	 viewBox="0 0 512 512" enable-background="new 0 0 512 512" xml:space="preserve">
<path class="lexicon-icon-outline" d="M480,448L480,448c0,17.7-14.3,32-32,32H128c-17.7,0-32-14.3-32-32l0,0c0-17.7,14.3-32,32-32h320
	C465.7,416,480,430.3,480,448z M448,288H224c-17.7,0-32,14.3-32,32l0,0c0,17.7,14.3,32,32,32h224c17.7,0,32-14.3,32-32l0,0
	C480,302.3,465.7,288,448,288z M448,160H320c-17.7,0-32,14.3-32,32l0,0c0,17.7,14.3,32,32,32h128c17.7,0,32-14.3,32-32l0,0
	C480,174.3,465.7,160,448,160z M448,32H320c-17.7,0-32,14.3-32,32l0,0c0,17.7,14.3,32,32,32h128c17.7,0,32-14.3,32-32l0,0
	C480,46.3,465.7,32,448,32z M96,320c0,17.7-14.3,32-32,32c-17.7,0-32-14.3-32-32V64c0-17.7,14.3-32,32-32h32h32c53,0,96,43,96,96
	s-43,96-96,96H96V320z M96,160h32c17.7,0,32-14.3,32-32c0-17.7-14.3-32-32-32H96V160z"/>
</svg>