<?xml version="1.0" encoding="utf-8"?>
<!-- Generator: Adobe Illustrator 19.2.1, SVG Export Plug-In . SVG Version: 6.00 Build 0)  -->
<svg version="1.1" id="password-policies" xmlns="http://www.w3.org/2000/svg" xmlns:xlink="http://www.w3.org/1999/xlink" width="512" height="512" x="0px"
	 y="0px" viewBox="0 0 512 512" enable-background="new 0 0 512 512" xml:space="preserve">
<rect class="lexicon-icon-outline" x="352" y="384" width="64" height="32"/>
<path class="lexicon-icon-outline" d="M484,291.0246v-58.4533c0-55.1401-44.8594-100-100-100c-26.9814,0-51.7158,10.749-69.6484,30.2671
	c-5.2062,5.6668-9.6873,11.9271-13.4107,18.6394c-13.6512-15.3667-29.1641-27.8936-45.9869-37.3268
	c9.3402-14.57,14.7609-31.8821,14.7609-50.4366C269.7148,42.04,227.6743,0,176,0S82.2856,42.04,82.2856,93.7144
	c0,18.5545,5.4207,35.8666,14.7607,50.4366c-17.2184,9.6551-33.0702,22.5426-46.9521,38.4077C17.7905,219.4771,0,268.2881,0,320
	c0,17.6729,14.3271,32,32,32s32-14.3271,32-32c0-73.1001,50.2432-132.5713,112-132.5713c53.2122,0,97.8723,44.1547,109.213,103.1349
	C268.2046,296.6518,256,312.9245,256,332v136c0,24.2617,19.7383,44,44,44h168c24.2617,0,44-19.7383,44-44V332
	C512,313.3822,500.371,297.4398,484,291.0246z M176,123.4287c-16.3848,0-29.7144-13.3296-29.7144-29.7144S159.6152,64,176,64
	s29.7144,13.3296,29.7144,29.7144S192.3848,123.4287,176,123.4287z M352,232.5713c0-17.3389,10.0137-36,32-36
	c19.8506,0,36,16.1494,36,36V288h-68V232.5713z M448,448H320v-96h128V448z"/>
</svg>