<?xml version="1.0" encoding="utf-8"?>
<!-- Generator: Adobe Illustrator 19.2.1, SVG Export Plug-In . SVG Version: 6.00 Build 0)  -->
<svg version="1.1" id="Layer_1" xmlns="http://www.w3.org/2000/svg" xmlns:xlink="http://www.w3.org/1999/xlink" width="512" height="512" x="0px" y="0px"
	 viewBox="0 0 512 512" style="enable-background:new 0 0 512 512;" xml:space="preserve">
<path class="lexicon-icon-body" fill="none" d="M412,128h-60V68c0-37.4-30.6-68-68-68H100C62.6,0,32,30.6,32,68v248c0,37.4,30.6,68,68,68h60v60
	c0,37.4,30.6,68,68,68h184c37.4,0,68-30.6,68-68V196C480,158.6,449.4,128,412,128z"/>
<path class="lexicon-icon-outline" d="M412,128h-60V68c0-37.4-30.6-68-68-68H100C62.6,0,32,30.6,32,68v248c0,37.4,30.6,68,68,68h60v60c0,37.4,30.6,68,68,68h184
	c37.4,0,68-30.6,68-68V196C480,158.6,449.4,128,412,128z M160,196v124H96V64h192v64h-60C190.6,128,160,158.6,160,196z M416,448H224
	V192h192V448z"/>
</svg>