<?xml version="1.0" encoding="utf-8"?>
<!-- Generator: Adobe Illustrator 19.2.1, SVG Export Plug-In . SVG Version: 6.00 Build 0)  -->
<svg version="1.1" id="Layer_1" xmlns="http://www.w3.org/2000/svg" xmlns:xlink="http://www.w3.org/1999/xlink" width="512" height="512" x="0px" y="0px"
	 viewBox="0 0 512 512" style="enable-background:new 0 0 512 512;" xml:space="preserve">
<path class="lexicon-icon-body" fill="none" d="M483,31C466.9,14.9,445.5,6,422.8,6s-44.1,8.9-60.2,24.9L4.1,389.4l4.4,115.3l119.9,1.2L483,151.4
	C516.2,118.2,516.2,64.2,483,31L483,31z"/>
<path class="lexicon-icon-outline" d="M483,31C466.9,14.9,445.5,6,422.8,6s-44.1,8.9-60.2,24.9L4.1,389.4l4.4,115.3l119.9,1.2L483,151.4
	C516.2,118.2,516.2,64.2,483,31L483,31z M105.1,449l-42-0.4l-1.4-36.5l274.4-274.4l40.1,40.1L105.1,449L105.1,449z M442.9,111.2
	l-26.4,26.4l-40.1-40.1l26.4-26.4c10.7-10.7,29.4-10.7,40.1,0C453.9,82.2,453.9,100.2,442.9,111.2z"/>
</svg>