<?xml version="1.0" encoding="utf-8"?>
<!-- Generator: Adobe Illustrator 19.2.1, SVG Export Plug-In . SVG Version: 6.00 Build 0)  -->
<svg version="1.1" id="Layer_1" xmlns="http://www.w3.org/2000/svg" xmlns:xlink="http://www.w3.org/1999/xlink" width="512" height="512" x="0px" y="0px"
	 viewBox="0 0 512 512" style="enable-background:new 0 0 512 512;" xml:space="preserve">
<path class="lexicon-icon-body" fill="none" d="M490.9,363.4l-2.8-5.1C468.3,322.4,359.9,304,358.9,304l-2.4-0.1l-10.8,1.5c-16.9,3.9-31,15.7-50.5,33.8
	c-25.2-14.7-52.4-37.6-68.7-54.3c-16.7-17.1-39.9-47.7-52.4-71.6c22-21.6,37.4-38.7,38.4-61.7c0-1-13.8-110.1-48.9-131.7l0,0
	l-5.1-3.1c-9.6-5.7-27.5-16.4-49.3-16.4c-5.4,0-10.8,0.7-17,2.3c-6.9,2-13.3,4.8-20,9.1C55.9,23,26.2,46.7,11.7,78
	c-13.5,30.8-4.4,187.9,113.4,311c111.6,116.8,241.2,122.7,266.1,122.7c6.4,0,15.1-0.3,22.4-1.6l2.8-0.1l6.7-2.5
	c32.2-13.2,56.9-41.7,68.4-57.2C518.4,415.5,497.8,376.6,490.9,363.4L490.9,363.4z"/>
<path class="lexicon-icon-outline" d="M490.9,363.4l-2.8-5.1C468.3,322.4,359.9,304,358.9,304l-2.4-0.1l-10.8,1.5c-16.9,3.9-31,15.7-50.5,33.8
	c-25.2-14.7-52.4-37.6-68.7-54.3c-16.7-17.1-39.9-47.7-52.4-71.6c22-21.6,37.4-38.7,38.4-61.7c0-1-13.8-110.1-48.9-131.7l0,0
	l-5.1-3.1c-9.6-5.7-27.5-16.4-49.3-16.4c-5.4,0-10.8,0.7-17,2.3c-6.9,2-13.3,4.8-20,9.1C55.9,23,26.2,46.7,11.7,78
	c-13.5,30.8-4.4,187.9,113.4,311c111.6,116.8,241.2,122.7,266.1,122.7c6.4,0,15.1-0.3,22.4-1.6l2.8-0.1l6.7-2.5
	c32.2-13.2,56.9-41.7,68.4-57.2C518.4,415.5,497.8,376.6,490.9,363.4L490.9,363.4z M445.4,415.1c-10.5,14-27.3,31.3-42.6,38
	c-1.5,0.2-5.4,0.6-11.6,0.6c-20.7,0-128.8-5.1-224.1-104.8C67,244.3,62.6,119,65.5,100c6.6-12.7,21.2-27.7,38.7-39.8
	c0.5-0.3,1.9-1.1,3.4-1.6c5.5-1.4,15.6,4.6,21,7.8l2.4,1.5c8.1,13.5,20.6,63.6,23.3,81.2c-3.8,6.4-19.2,21.4-27.7,29.8l-1,1.1
	c-11.9,12.8-15.5,31.2-8.9,47.3c14.2,32.9,45.9,75.3,68.4,98.3c22.1,22.8,59.4,53.4,93.2,70.6c16.3,8.1,36.3,4.8,49.1-7.5
	c10.1-9.4,25-23.4,30.6-26.3c17.6,3.4,67.7,18.2,80.8,26.7l1.1,2C446.9,404.3,448.5,411,445.4,415.1L445.4,415.1z"/>
</svg>