<?xml version="1.0" encoding="utf-8"?>
<!-- Generated by IcoMoon.io -->
<!DOCTYPE svg PUBLIC "-//W3C//DTD SVG 1.1//EN" "http://www.w3.org/Graphics/SVG/1.1/DTD/svg11.dtd">
<svg version="1.1" xmlns="http://www.w3.org/2000/svg" xmlns:xlink="http://www.w3.org/1999/xlink" width="512" height="512" viewBox="0 0 512 512">
<path class="lexicon-icon-outline" d="M479.82 224.002h-192.41v-191.91c0-17.6-14.4-32-32-32v0c-17.6 0-32 14.4-32 32v191.91h-191.41c-17.6 0-32 14.4-32 32v0c0 17.6 14.4 32 32 32h191.41v191.91c0 17.6 14.4 32 32 32v0c17.6 0 32-14.4 32-32v-191.909h192.41c17.6 0 32-14.4 32-32v0c0-17.6-14.4-32-32-32z"></path>
</svg>