<?xml version="1.0" encoding="utf-8"?>
<!-- Generator: Adobe Illustrator 19.2.1, SVG Export Plug-In . SVG Version: 6.00 Build 0)  -->
<svg version="1.1" id="Layer_1" xmlns="http://www.w3.org/2000/svg" xmlns:xlink="http://www.w3.org/1999/xlink" width="512" height="512" x="0px" y="0px"
	 viewBox="0 0 512 512" style="enable-background:new 0 0 512 512;" xml:space="preserve">
<path class="lexicon-icon-body" fill="none" d="M465.5,5.8H46.5C20.9,5.8,0,26.7,0,52.3v407.3c0,25.7,20.9,46.5,46.5,46.5h418.9c25.7,0,46.5-20.9,46.5-46.5
	V52.4C512,26.7,491.1,5.8,465.5,5.8L465.5,5.8L465.5,5.8z"/>
<path class="lexicon-icon-outline" d="M465.5,5.8H46.5C20.9,5.8,0,26.7,0,52.3v407.3c0,25.7,20.9,46.5,46.5,46.5h418.9c25.7,0,46.5-20.9,46.5-46.5V52.4
	C512,26.7,491.1,5.8,465.5,5.8L465.5,5.8L465.5,5.8z M448,448H256V64h192V448z"/>
</svg>