<svg id="propagation" xmlns="http://www.w3.org/2000/svg" viewBox="0 0 512 512">
	<path class="lexicon-icon-outline propagation-arrow-bottom-right" d="M379.4,229.1L480,329.6v-12c0-21.1,31.5-21.2,32,0V368c0,8.8-7.2,16-16,16h-50.4c-21.7-0.8-20.7-31.8,0-32h11.5L356.8,251.7C342,234.6,364.9,214.8,379.4,229.1z"/>
	<path class="lexicon-icon-outline propagation-arrow-bottom-left" d="M132.6,229.1L32,329.6v-12c0-21.1-31.5-21.2-32,0V368c0,8.8,7.2,16,16,16h50.4c21.7-0.8,20.7-31.8,0-32H54.9l100.3-100.3C170,234.6,147.1,214.8,132.6,229.1z"/>
	<path class="lexicon-icon-outline propagation-arrow-bottom" d="M240.2,304.2v153.4l-8.5-8.5c-14.9-14.9-37.3,7.3-22.6,22.6l35.6,35.6c6.2,6.2,16.4,6.2,22.6,0l35.6-35.6c14.8-15.9-7.8-37.1-22.6-22.6l-8.1,8.1l0-153C270.5,281.7,240.3,283.8,240.2,304.2z"/>
	<circle class="lexicon-icon-outline propagation-circle" cx="256" cy="112" r="112"/>
</svg>
