<?xml version="1.0" encoding="utf-8"?>
<!-- Generator: Adobe Illustrator 19.2.1, SVG Export Plug-In . SVG Version: 6.00 Build 0)  -->
<svg version="1.1" id="Layer_1" xmlns="http://www.w3.org/2000/svg" xmlns:xlink="http://www.w3.org/1999/xlink" width="512" height="512" x="0px" y="0px"
	 viewBox="0 0 512 512" style="enable-background:new 0 0 512 512;" xml:space="preserve">
<path class="lexicon-icon-body" fill="none" d="M491.4,155.8C478.5,125.3,460,98,436.5,74.5s-50.9-41.9-81.4-54.8C323.6,6.3,290-0.5,255.5-0.5
	s-68.1,6.8-99.7,20.1C125.3,32.5,98,51,74.5,74.5s-41.9,50.9-54.8,81.4C6.3,187.4-0.5,221-0.5,255.5s6.8,68.1,20.1,99.7
	C32.5,385.7,51,413,74.5,436.5s50.9,41.9,81.4,54.8c31.6,13.4,65.1,20.1,99.7,20.1s68.1-6.8,99.7-20.1
	c30.5-12.9,57.9-31.3,81.4-54.8s41.9-50.9,54.8-81.4c13.4-31.6,20.1-65.1,20.1-99.7S504.7,187.4,491.4,155.8L491.4,155.8z"/>
<path class="lexicon-icon-outline" d="M491.4,155.8C478.5,125.3,460,98,436.5,74.5s-50.9-41.9-81.4-54.8C323.6,6.3,290-0.5,255.5-0.5s-68.1,6.8-99.7,20.1
	C125.3,32.5,98,51,74.5,74.5s-41.9,50.9-54.8,81.4C6.3,187.4-0.5,221-0.5,255.5s6.8,68.1,20.1,99.7C32.5,385.7,51,413,74.5,436.5
	s50.9,41.9,81.4,54.8c31.6,13.4,65.1,20.1,99.7,20.1s68.1-6.8,99.7-20.1c30.5-12.9,57.9-31.3,81.4-54.8s41.9-50.9,54.8-81.4
	c13.4-31.6,20.1-65.1,20.1-99.7S504.7,187.4,491.4,155.8L491.4,155.8z M255.5,447.5c-106,0-192-86-192-192s86-192,192-192
	s192,86,192,192S361.5,447.5,255.5,447.5z"/>
<path class="lexicon-icon-outline" d="M236,287.9c-0.4-1.9-0.7-3.8-0.9-5.7s-0.3-3.9-0.3-6c0-7.6,1.7-14.9,5.2-21.9s9.3-13.5,17.6-19.6l13.8-10.3
	c8.2-6.1,12.4-13.6,12.4-22.6c0-3.2-0.6-6.4-1.7-9.6s-2.9-5.9-5.3-8.3s-5.4-4.3-9.1-5.7s-7.9-2.2-12.7-2.2c-5.2,0-9.6,1-13.2,2.9
	s-6.7,4.3-9.1,7.3c-2.4,3-4.2,6.4-5.3,10.3s-1.7,7.9-1.7,11.9c0,3.8,0.4,6.9,1.1,9.1l-36.3-1.4c-0.6-2.1-1-4.2-1.1-6.4
	c-0.2-2.2-0.3-4.3-0.3-6.4c0-7.6,1.4-15.1,4.3-22.4s7.1-13.8,12.7-19.5c5.6-5.6,12.4-10.2,20.6-13.6s17.6-5.2,28.4-5.2
	c11.1,0,20.9,1.6,29.4,4.9c8.4,3.2,15.5,7.5,21.3,12.7c5.7,5.2,10.1,11.3,13,18.2s4.3,13.9,4.3,21.2c0,11.4-2.6,21.2-7.8,29.3
	s-12.1,15.2-20.7,21.3l-11.8,8.3c-5,3.6-8.8,7.7-11.5,12.2c-2.7,4.5-4,9.7-4,15.6v1.7L236,287.9L236,287.9z"/>
<path class="lexicon-icon-outline" d="M229.4,329.4c0-6.3,2.2-11.7,6.6-16.2c4.4-4.5,9.8-6.7,16.1-6.7s11.8,2.2,16.3,6.7s6.8,9.9,6.8,16.2s-2.3,11.6-6.8,16
	c-4.5,4.4-9.9,6.6-16.3,6.6s-11.7-2.2-16.1-6.6S229.4,335.7,229.4,329.4L229.4,329.4z"/>
</svg>