<?xml version="1.0" encoding="utf-8"?>
<!-- Generated by IcoMoon.io -->
<!DOCTYPE svg PUBLIC "-//W3C//DTD SVG 1.1//EN" "http://www.w3.org/Graphics/SVG/1.1/DTD/svg11.dtd">
<svg version="1.1" xmlns="http://www.w3.org/2000/svg" xmlns:xlink="http://www.w3.org/1999/xlink" width="512" height="512" viewBox="0 0 512 512">
<path class="lexicon-icon-outline" d="M256 0c-141.37 0-256 114.6-256 256 0 141.37 114.629 256 256 256s256-114.63 256-256c0-141.4-114.63-256-256-256zM269.605 360.769c-4.974 4.827-10.913 7.226-17.876 7.226s-12.873-2.428-17.73-7.226c-4.857-4.827-7.285-10.708-7.285-17.613 0-6.933 2.428-12.844 7.285-17.788 4.857-4.915 10.767-7.402 17.73-7.402s12.932 2.457 17.876 7.402c4.945 4.945 7.431 10.854 7.431 17.788 0 6.905-2.457 12.786-7.431 17.613zM321.038 232.506c-5.705 8.923-13.283 16.735-22.791 23.464l-12.99 9.128c-5.5 3.979-9.714 8.455-12.668 13.37-2.955 4.945-4.447 10.649-4.447 17.145v1.901h-34.202c-0.439-2.106-0.731-4.184-0.936-6.291s-0.321-4.301-0.321-6.612c0-8.397 1.901-16.413 5.705-24.079s10.24-14.834 19.309-21.563l15.185-11.322c9.070-6.7 13.605-15.009 13.605-24.869 0-3.57-0.644-7.080-1.901-10.533s-3.219-6.495-5.851-9.128c-2.633-2.633-5.969-4.71-9.977-6.291s-8.66-2.369-13.927-2.369c-5.705 0-10.561 1.054-14.571 3.16s-7.343 4.769-9.977 8.017c-2.633 3.247-4.594 7.022-5.851 11.322s-1.901 8.66-1.901 13.049c0 4.213 0.41 7.548 1.258 10.065l-39.877-1.58c-0.644-2.311-1.054-4.652-1.258-7.080-0.205-2.399-0.321-4.769-0.321-7.080 0-8.397 1.58-16.619 4.74-24.693s7.812-15.214 13.927-21.416c6.114-6.173 13.663-11.176 22.645-14.951s19.368-5.676 31.188-5.676c12.229 0 22.996 1.785 32.3 5.355 9.274 3.57 17.087 8.25 23.435 14.014 6.319 5.764 11.089 12.434 14.248 19.982s4.74 15.331 4.74 23.289c0.058 12.581-2.809 23.347-8.514 32.27z"></path>
</svg>