<?xml version="1.0" encoding="utf-8"?>
<!-- Generated by IcoMoon.io -->
<!DOCTYPE svg PUBLIC "-//W3C//DTD SVG 1.1//EN" "http://www.w3.org/Graphics/SVG/1.1/DTD/svg11.dtd">
<svg version="1.1" xmlns="http://www.w3.org/2000/svg" xmlns:xlink="http://www.w3.org/1999/xlink" width="512" height="512" viewBox="0 0 512 512">
<path class="lexicon-icon-outline" d="M278.615 161.168c0-27.184 10.151-51.067 30.398-71.653 20.303-20.614 46.95-30.906 79.943-30.906 37.73 0 67.676 13.112 89.812 39.337 22.164 26.225 33.246 58.061 33.246 95.536 0 46.81-7.303 86.401-21.91 118.716s-32.738 58.512-54.451 78.673c-21.685 20.134-45.258 35.135-70.721 44.949-25.464 9.841-49.488 15.678-72.132 17.567v-85.695c27.353-4.709 53.041-17.116 77.067-37.222 24.053-20.163 37.024-46.613 38.885-79.379-7.529 4.681-17.455 7.021-29.693 7.021-32.034 0-56.792-8.685-74.247-25.999-17.455-17.342-26.197-40.972-26.197-70.948zM0.015 161.168c0-27.184 10.152-51.067 30.398-71.653 20.303-20.614 46.923-30.906 79.914-30.906 37.73 0 67.676 13.112 89.812 39.337 22.164 26.225 33.246 58.061 33.246 95.536 0 46.81-7.304 86.401-21.91 118.716s-32.738 58.512-54.451 78.673c-21.684 20.134-45.258 35.135-70.722 44.949-25.463 9.841-49.517 15.678-72.16 17.567v-85.695c27.352-4.709 53.041-17.116 77.094-37.222 24.053-20.163 37.024-46.613 38.886-79.379-7.529 4.681-17.455 7.021-29.693 7.021-32.033 0-56.792-8.685-74.247-25.999-17.427-17.342-26.168-40.972-26.168-70.948z"></path>
</svg>
