<?xml version="1.0" encoding="utf-8"?>
<!-- Generator: Adobe Illustrator 19.2.0, SVG Export Plug-In . SVG Version: 6.00 Build 0)  -->
<svg version="1.1" xmlns="http://www.w3.org/2000/svg" xmlns:xlink="http://www.w3.org/1999/xlink" width="512" height="512" x="0px" y="0px"
	 viewBox="0 0 512 512" enable-background="new 0 0 512 512" xml:space="preserve">
<path class="lexicon-icon-outline" d="M384,256c0,70.7-57.3,128-128,128s-128-57.3-128-128s57.3-128,128-128S384,185.3,384,256z M512,256
	c0,141.4-114.6,256-256,256S0,397.4,0,256S114.6,0,256,0S512,114.6,512,256z M448,256c0-106-86-192-192-192S64,150,64,256
	s86,192,192,192S448,362,448,256z"/>
</svg>