<?xml version="1.0" encoding="utf-8"?>
<!-- Generated by IcoMoon.io -->
<!DOCTYPE svg PUBLIC "-//W3C//DTD SVG 1.1//EN" "http://www.w3.org/Graphics/SVG/1.1/DTD/svg11.dtd">
<svg version="1.1" xmlns="http://www.w3.org/2000/svg" xmlns:xlink="http://www.w3.org/1999/xlink" width="512" height="512" viewBox="0 0 512 512">
<path class="lexicon-icon-outline" d="M472.065 460.954l-80.854 2.365c67.538-47.63 108.976-125.482 108.976-208.888 0-97.148-53.904-184.701-140.685-228.505-11.483-5.768-25.463-1.169-31.231 10.286-5.795 11.483-1.197 25.463 10.286 31.257 71.020 35.856 115.142 107.487 115.142 186.987 0 68.947-34.659 133.269-90.981 172.129l-2.074-70.702c-0.372-12.838-11.19-23.23-23.921-22.566-12.838 0.372-22.938 11.084-22.566 23.921l3.854 131.462v0.027c0 0.027 0 0.027 0 0.027l0.027 0.478c0.372 12.599 10.685 22.566 23.23 22.566 0.239 0 0.478 0 0.691 0 0.904-0.027 1.647-0.452 2.525-0.585l128.964-3.774c12.838-0.372 22.938-11.084 22.566-23.921s-11.269-23.23-23.948-22.566z"></path>
<path class="lexicon-icon-outline" d="M194.017 23.27c0-0.027 0-0.027 0-0.053v-0.478c-0.372-12.838-11.111-22.938-23.922-22.566-0.904 0.027-1.648 0.452-2.525 0.585l-128.99 3.774c-12.838 0.372-22.938 11.084-22.566 23.922 0.372 12.599 10.685 22.566 23.23 22.566 0.239 0 0.452 0 0.691 0l80.855-2.365c-67.538 47.63-108.976 125.508-108.976 208.889 0 97.149 53.903 184.701 140.685 228.505 3.349 1.702 6.937 2.498 10.446 2.498 8.506 0 16.692-4.678 20.785-12.785 5.794-11.483 1.196-25.463-10.286-31.231-71.020-35.856-115.142-107.488-115.142-186.987 0-68.947 34.66-133.269 90.981-172.129l2.073 70.701c0.372 12.599 10.685 22.566 23.23 22.566 0.239 0 0.478 0 0.691 0 12.838-0.372 22.938-11.083 22.566-23.922l-3.854-131.462 0.027-0.027z"></path>
</svg>