<?xml version="1.0" encoding="utf-8"?>
<!-- Generated by IcoMoon.io -->
<!DOCTYPE svg PUBLIC "-//W3C//DTD SVG 1.1//EN" "http://www.w3.org/Graphics/SVG/1.1/DTD/svg11.dtd">
<svg version="1.1" xmlns="http://www.w3.org/2000/svg" xmlns:xlink="http://www.w3.org/1999/xlink" width="512" height="512" viewBox="0 0 512 512">
<path class="lexicon-icon-outline" d="M0 64.426h116.531l-61.846 287.847h70.601l57.645-287.847h110.736v-64.426h-293.667l-0.001 64.426z"></path>
<path class="lexicon-icon-outline" d="M0 384h288v32h-288v-32z"></path>
<path class="lexicon-icon-outline" d="M481 512c-8.281 0-16.065-3.224-21.921-9.080l-45.962-45.962-45.962 45.962c-5.856 5.856-13.64 9.080-21.92 9.080s-16.065-3.224-21.921-9.080c-5.856-5.854-9.080-13.639-9.080-21.92s3.224-16.065 9.080-21.921l45.962-45.962-45.962-45.962c-12.087-12.087-12.087-31.753 0-43.841 5.854-5.856 13.639-9.080 21.92-9.080s16.065 3.224 21.921 9.080l45.962 45.962 45.962-45.962c5.854-5.856 13.639-9.080 21.92-9.080s16.065 3.224 21.921 9.080c12.086 12.087 12.086 31.754-0 43.841l-45.962 45.962 45.962 45.962c5.856 5.854 9.080 13.639 9.080 21.92s-3.224 16.065-9.080 21.921c-5.855 5.855-13.639 9.079-21.92 9.079z"></path>
</svg>
