<svg id="rss-full" xmlns="http://www.w3.org/2000/svg" viewBox="0 0 512 512">
	<path d="M448,0H64C28.7,0,0,28.7,0,64v384c0,35.3,28.7,64,64,64h384c35.3,0,64-28.7,64-64V64C512,28.7,483.3,0,448,0z M96,368c0-63.3,95.6-64.6,95.6-0.4C191.5,432.3,96,430.8,96,368z M249.4,389.1c0-84.1-40.1-124.8-125.9-127c-36.9-0.9-36.6-55.8-1.2-55.8c128.7,0,181.7,83.2,181.7,182.8C303.9,424.5,249.4,425.2,249.4,389.1z M360.3,387.8c0.4-121.1-81.9-236.9-237.2-236.9c-37,0-36-54.8-0.6-54.8c176.5,0,292.4,133.1,292.4,292.3C414.9,423.8,360.1,424.6,360.3,387.8z"/>
</svg>