<svg id="rules" xmlns="http://www.w3.org/2000/svg" viewBox="0 0 512 512">
	<path class="lexicon-icon-outline" d="M448,192h-32V64c0-17.7-14.3-32-32-32h-96c0-17.7-14.3-32-32-32H64C46.3,0,32,14.3,32,32v64c0,17.7,14.3,32,32,32h64v64H96c-17.7,0-32,14.3-32,32v64c0,17.7,14.3,32,32,32h32v64H96c-17.7,0-32,14.3-32,32v64c0,17.7,14.3,32,32,32h128c17.7,0,32-14.3,32-32h128c17.7,0,32-14.3,32-32V320h32c17.7,0,32-14.3,32-32v-64C480,206.3,465.7,192,448,192z M64,96V32h192v64H64z M384,448H256v-32c0-17.7-14.3-32-32-32h-64v-64h64c17.7,0,32-14.3,32-32v-64c0-17.7-14.3-32-32-32h-64v-64h96c17.7,0,32-14.3,32-32V64h96v128c-17.7,0-32,14.3-32,32v64c0,17.7,14.3,32,32,32V448z"/>
</svg>