<?xml version="1.0" encoding="utf-8"?>
<!-- Generator: Adobe Illustrator 19.2.1, SVG Export Plug-In . SVG Version: 6.00 Build 0)  -->
<svg version="1.1" id="Layer_1" xmlns="http://www.w3.org/2000/svg" xmlns:xlink="http://www.w3.org/1999/xlink" width="512" height="512" x="0px" y="0px"
	 viewBox="0 0 512 512" style="enable-background:new 0 0 512 512;" xml:space="preserve">
<path class="lexicon-icon-body" fill="none" d="M512,72v368c0,39.6-32.4,72-72,72H72c-39.6,0-72-32.4-72-72V72C0,32.4,32.4,0,72,0h368C479.6,0,512,32.4,512,72
	z"/>
<path class="lexicon-icon-outline" d="M134.4,211.2c-4-5.4-6.4-12-6.4-19.2c0-17.7,14.3-32,32-32c10.5,0,19.9,5.1,25.7,12.9c28.8,38.4,46.8,62.5,70.3,93.8
	c23.5-31.3,41.5-55.3,70.3-93.8c5.8-7.8,15.2-12.9,25.7-12.9c17.7,0,32,14.3,32,32c0,7.2-2.4,13.9-6.4,19.2
	c-38.4,51.2-57.6,76.8-95.9,127.9c-5.8,7.8-15.2,12.9-25.7,12.9s-19.9-5.1-25.7-12.9C192,288,172.8,262.4,134.4,211.2z M512,72v368
	c0,39.6-32.4,72-72,72H72c-39.6,0-72-32.4-72-72V72C0,32.4,32.4,0,72,0h368C479.6,0,512,32.4,512,72z M448,64H64v384h384V64z"/>
</svg>