<?xml version="1.0" encoding="utf-8"?>
<!-- Generated by IcoMoon.io -->
<!DOCTYPE svg PUBLIC "-//W3C//DTD SVG 1.1//EN" "http://www.w3.org/Graphics/SVG/1.1/DTD/svg11.dtd">
<svg version="1.1" xmlns="http://www.w3.org/2000/svg" xmlns:xlink="http://www.w3.org/1999/xlink" width="512" height="512" viewBox="0 0 512 512">
<path class="lexicon-icon-outline" d="M397.255 402.745c-5.868-5.868-12.709-10.478-20.334-13.702-7.911-3.346-16.296-5.043-24.921-5.043s-17.010 1.697-24.921 5.043c-2.625 1.111-5.154 2.389-7.587 3.822l-104.357-104.357c1.434-2.432 2.712-4.962 3.822-7.587 3.346-7.911 5.042-16.296 5.042-24.922s-1.696-17.011-5.042-24.922c-1.111-2.625-2.388-5.155-3.822-7.587l104.357-104.357c2.432 1.433 4.961 2.712 7.587 3.822 7.911 3.346 16.296 5.043 24.921 5.043s17.010-1.697 24.921-5.043c7.625-3.225 14.466-7.835 20.334-13.703s10.478-12.709 13.702-20.334c3.346-7.911 5.043-16.296 5.043-24.922s-1.697-17.011-5.043-24.922c-3.225-7.625-7.835-14.466-13.702-20.334s-12.709-10.477-20.334-13.703c-7.911-3.346-16.296-5.043-24.921-5.043s-17.010 1.696-24.921 5.043c-7.625 3.225-14.466 7.835-20.334 13.703s-10.478 12.709-13.702 20.334c-3.346 7.911-5.043 16.296-5.043 24.922s1.697 17.011 5.043 24.922c1.111 2.625 2.389 5.155 3.822 7.587l-104.357 104.357c-2.431-1.434-4.962-2.712-7.587-3.822-7.911-3.346-16.296-5.042-24.922-5.042s-17.011 1.696-24.922 5.042c-7.625 3.225-14.466 7.835-20.334 13.702s-10.478 12.709-13.703 20.334c-3.346 7.911-5.043 16.296-5.043 24.922s1.697 17.011 5.043 24.922c3.225 7.625 7.835 14.466 13.703 20.334s12.709 10.478 20.334 13.702c7.911 3.346 16.296 5.043 24.922 5.043s17.011-1.697 24.922-5.043c2.625-1.111 5.155-2.389 7.587-3.822l104.357 104.357c-1.433 2.432-2.712 4.961-3.822 7.587-3.346 7.911-5.043 16.296-5.043 24.921s1.697 17.010 5.043 24.921c3.225 7.625 7.835 14.466 13.702 20.334s12.709 10.478 20.334 13.702c7.911 3.346 16.296 5.042 24.921 5.042s17.010-1.697 24.921-5.043c7.625-3.225 14.466-7.835 20.334-13.702s10.478-12.709 13.702-20.334c3.346-7.911 5.043-16.296 5.043-24.921s-1.697-17.010-5.043-24.921c-3.225-7.625-7.835-14.466-13.702-20.333zM352 32c17.673 0 32 14.327 32 32s-14.327 32-32 32-32-14.327-32-32 14.327-32 32-32zM160 288c-17.673 0-32-14.327-32-32s14.327-32 32-32 32 14.327 32 32-14.327 32-32 32zM352 480c-17.673 0-32-14.327-32-32s14.327-32 32-32 32 14.327 32 32-14.327 32-32 32z"></path>
</svg>
