<svg id="share" xmlns="http://www.w3.org/2000/svg" viewBox="0 0 512 512">
	<path class="lexicon-icon-outline" d="M326.2,323.3l-107.6-53.8c2.7-5.9,2.4-19.9,0-27.1l107.6-53.8c77.2,69.3,185.8,13,185.8-78.9C512,49.2,462.8,0,402.3,0S287,51.3,293.4,123.3l-107.6,53.8C113.3,108,0,161.7,0,256c0,100.3,118.3,143.7,185.8,78.9l107.6,53.8C285,460.7,341.8,512,402.3,512S512,462.8,512,402.3C512,314.3,406.3,252,326.2,323.3z M438.9,109.7c0,49-73.1,47.6-73.1,0C365.7,60.3,438.9,62,438.9,109.7z M73.1,256c0-49,73.1-49,73.1,0C146.3,303.3,73.1,305,73.1,256z M365.7,402.3c0-48.6,73.1-49,73.1,0C438.9,451,365.7,449.7,365.7,402.3z"/>
</svg>