<svg id="sheets" xmlns="http://www.w3.org/2000/svg" viewBox="0 0 512 512">
	<path class="lexicon-icon-outline sheets-page3" d="M499.8,364.7l-61.1-25.6l-38.6,16l67.5,28.8l-212.1,92.8L46.7,383.9l67.5-28.8l-38.6-16l-61.1,25.6c-19.3,6.4-19.3,32,0,41.6l241,105.6l244.2-108.7C515.9,396.7,515.9,371.1,499.8,364.7z"/>
	<path class="lexicon-icon-outline sheets-page2" d="M499.9,236.8l-60.7-25.6l-38.3,16l63.9,28.8l-207.6,92.8L49.6,256l67.1-28.8L75.2,208l-60.7,28.8c-19.2,6.4-19.2,32,0,41.6L257.2,384l242.7-108.7C515.9,268.8,515.9,243.2,499.9,236.8z"/>
	<path class="lexicon-icon-outline sheets-page1" d="M256,0.1L14.3,108.9c-19.1,6.4-19.1,32,0,41.6L256,256l241.7-108.7c19.1-6.4,19.1-32,0-41.6L256,0.1z"/>
</svg>