<?xml version="1.0" encoding="utf-8"?>
<!-- Generator: Adobe Illustrator 19.2.1, SVG Export Plug-In . SVG Version: 6.00 Build 0)  -->
<svg version="1.1" id="shortcut" xmlns="http://www.w3.org/2000/svg" xmlns:xlink="http://www.w3.org/1999/xlink" width="512" height="512" x="0px" y="0px"
	 viewBox="0 0 512 512" enable-background="new 0 0 512 512" xml:space="preserve">
<path class="lexicon-icon-outline" d="M480,320c-17.6729,0-32,14.3271-32,32v96H64V64h96c17.6729,0,32-14.3271,32-32S177.6729,0,160,0H64
	C28.7104,0,0,28.7104,0,64v384c0,35.29,28.7104,64,64,64h384c35.29,0,64-28.71,64-64v-96C512,334.3271,497.6729,320,480,320z"/>
<path class="lexicon-icon-outline" d="M480,0H320c-17.6729,0-32,14.3267-32,32s14.3271,32,32,32h82.7456L265.373,201.3726
	c-12.4971,12.4971-12.4971,32.7578,0,45.2549C271.6211,252.876,279.8105,256,288,256s16.3789-3.124,22.627-9.3726L448,109.2544V192
	c0,17.6733,14.3271,32,32,32s32-14.3267,32-32V32C512,14.3267,497.6729,0,480,0z"/>
</svg>