<?xml version="1.0" encoding="utf-8"?>
<!-- Generated by IcoMoon.io -->
<!DOCTYPE svg PUBLIC "-//W3C//DTD SVG 1.1//EN" "http://www.w3.org/Graphics/SVG/1.1/DTD/svg11.dtd">
<svg version="1.1" xmlns="http://www.w3.org/2000/svg" xmlns:xlink="http://www.w3.org/1999/xlink" width="512" height="512" viewBox="0 0 512 512">
<path class="lexicon-icon-outline" d="M480 224h-2.272c-14.033-98.102-91.627-175.696-189.728-189.728v-2.272c0-17.673-14.327-32-32-32v0c-17.673 0-32 14.327-32 32v2.272c-98.102 14.033-175.696 91.627-189.728 189.728h-2.272c-17.673 0-32 14.327-32 32v0c0 17.673 14.327 32 32 32h2.272c14.033 98.101 91.627 175.696 189.728 189.728v2.272c0 17.673 14.327 32 32 32v0c17.673 0 32-14.327 32-32v-2.272c98.101-14.033 175.696-91.627 189.728-189.728h2.272c17.673 0 32-14.327 32-32v0c0-17.673-14.327-32-32-32zM324.493 93.811c20.952 8.862 39.779 21.559 55.958 37.738s28.876 35.006 37.738 55.958c4.986 11.79 8.625 23.99 10.916 36.493h-32.673c-1.865-8.201-4.455-16.238-7.767-24.066-7.255-17.153-17.632-32.548-30.841-45.757s-28.604-23.585-45.757-30.84c-7.827-3.311-15.865-5.901-24.066-7.766v-32.674c12.502 2.29 24.702 5.928 36.493 10.915zM224 224h-58.53c9.642-27.275 31.255-48.888 58.53-58.53v58.53zM224 288v58.53c-27.274-9.642-48.888-31.255-58.53-58.53h58.53zM288 288h58.53c-9.642 27.274-31.255 48.889-58.53 58.53v-58.53zM288 224v-58.53c27.274 9.642 48.889 31.255 58.53 58.53h-58.53zM93.811 187.507c8.862-20.952 21.559-39.779 37.738-55.958s35.006-28.876 55.958-37.738c11.79-4.987 23.99-8.624 36.493-10.915v32.674c-8.201 1.865-16.238 4.456-24.066 7.766-17.153 7.255-32.548 17.632-45.757 30.841s-23.585 28.604-30.84 45.757c-3.311 7.827-5.901 15.865-7.766 24.066h-32.674c2.29-12.502 5.928-24.702 10.915-36.493zM187.507 418.189c-20.952-8.862-39.779-21.559-55.958-37.738s-28.876-35.006-37.738-55.958c-4.987-11.79-8.624-23.99-10.915-36.493h32.674c1.865 8.201 4.456 16.238 7.766 24.066 7.255 17.153 17.632 32.548 30.841 45.757s28.604 23.586 45.757 30.841c7.827 3.311 15.865 5.901 24.066 7.767v32.673c-12.502-2.291-24.702-5.928-36.493-10.916zM418.189 324.493c-8.862 20.952-21.559 39.779-37.738 55.958s-35.006 28.876-55.958 37.738c-11.79 4.986-23.99 8.625-36.493 10.916v-32.673c8.201-1.865 16.238-4.455 24.066-7.767 17.153-7.255 32.548-17.632 45.757-30.841s23.586-28.604 30.841-45.757c3.311-7.827 5.901-15.865 7.767-24.066h32.673c-2.291 12.502-5.928 24.702-10.916 36.493z"></path>
</svg>