<?xml version="1.0" encoding="utf-8"?>
<!-- Generator: Adobe Illustrator 19.2.1, SVG Export Plug-In . SVG Version: 6.00 Build 0)  -->
<svg version="1.1" id="Layer_1" xmlns="http://www.w3.org/2000/svg" xmlns:xlink="http://www.w3.org/1999/xlink" width="512" height="512" x="0px" y="0px"
	 viewBox="0 0 512 512" style="enable-background:new 0 0 512 512;" xml:space="preserve">
<path class="lexicon-icon-body" fill="none" d="M512,192h-41.3C449.2,119.8,392.2,62.8,320,41.3V0H192v41.3C119.8,62.8,62.8,119.8,41.3,192H0v128h41.3
	c21.5,72.2,78.5,129.2,150.7,150.7V512h128v-41.3c72.2-21.5,129.2-78.5,150.7-150.7H512V192z"/>
<path class="lexicon-icon-outline" d="M512,192h-41.3C449.2,119.8,392.2,62.8,320,41.3V0H192v41.3C119.8,62.8,62.8,119.8,41.3,192H0v128h41.3
	c21.5,72.2,78.5,129.2,150.7,150.7V512h128v-41.3c72.2-21.5,129.2-78.5,150.7-150.7H512V192z M418.2,324.5
	c-8.9,21-21.6,39.8-37.7,56s-35,28.9-56,37.7c-1.5,0.6-3,1.2-4.5,1.8v-4H192v4c-1.5-0.6-3-1.2-4.5-1.8c-21-8.9-39.8-21.6-56-37.7
	s-28.9-35-37.7-56c-0.6-1.5-1.2-3-1.8-4.5h4V192h-4c0.6-1.5,1.2-3,1.8-4.5c8.9-21,21.6-39.8,37.7-56s35-28.9,56-37.7
	c1.5-0.6,3-1.2,4.5-1.8v4h128v-4c1.5,0.6,3,1.2,4.5,1.8c21,8.9,39.8,21.6,56,37.7s28.9,35,37.7,56c0.6,1.5,1.2,3,1.8,4.5h-4v128h4
	C419.4,321.5,418.8,323,418.2,324.5L418.2,324.5z"/>
<path d="M320,256c0,35.3-28.7,64-64,64s-64-28.7-64-64s28.7-64,64-64S320,220.7,320,256z"/>
</svg>