<?xml version="1.0" encoding="utf-8"?>
<!-- Generated by IcoMoon.io -->
<!DOCTYPE svg PUBLIC "-//W3C//DTD SVG 1.1//EN" "http://www.w3.org/Graphics/SVG/1.1/DTD/svg11.dtd">
<svg version="1.1" xmlns="http://www.w3.org/2000/svg" xmlns:xlink="http://www.w3.org/1999/xlink" width="512" height="512" viewBox="0 0 512 512">
<path class="lexicon-icon-outline" d="M458.233 412.978c33.697-43.35 53.767-97.819 53.767-156.978s-20.070-113.627-53.767-156.977l21.768-21.768c12.497-12.497 12.497-32.758 0-45.255v0c-12.497-12.496-32.758-12.496-45.255 0l-21.768 21.768c-43.35-33.698-97.819-53.768-156.977-53.768s-113.627 20.070-156.977 53.767l-21.768-21.768c-12.497-12.496-32.758-12.496-45.255 0v0c-12.496 12.496-12.496 32.758 0 45.255l21.768 21.768c-33.697 43.35-53.767 97.819-53.767 156.978s20.070 113.627 53.767 156.977l-21.768 21.768c-12.496 12.497-12.496 32.758 0 45.255v0c12.496 12.497 32.758 12.497 45.255 0l21.768-21.768c43.35 33.698 97.819 53.768 156.977 53.768s113.627-20.070 156.977-53.767l21.768 21.768c12.497 12.497 32.758 12.497 45.255 0v0c12.497-12.497 12.497-32.758 0-45.255l-21.768-21.768zM432.938 181.285c9.995 23.63 15.062 48.768 15.062 74.715s-5.067 51.086-15.062 74.716c-5.483 12.963-12.315 25.178-20.421 36.548l-46.247-46.246c11.26-19.056 17.729-41.279 17.729-65.016s-6.469-45.96-17.729-65.016l46.246-46.246c8.106 11.369 14.938 23.584 20.421 36.547zM181.285 79.062c23.63-9.995 48.768-15.062 74.715-15.062s51.086 5.067 74.716 15.062c12.963 5.483 25.178 12.315 36.548 20.421l-46.246 46.246c-19.056-11.26-41.279-17.729-65.016-17.729s-45.96 6.469-65.016 17.729l-46.246-46.246c11.369-8.106 23.584-14.938 36.547-20.421zM79.062 330.716c-9.995-23.63-15.062-48.767-15.062-74.716s5.067-51.086 15.062-74.716c5.483-12.963 12.315-25.178 20.421-36.547l46.246 46.246c-11.26 19.056-17.729 41.279-17.729 65.016s6.469 45.96 17.729 65.016l-46.246 46.247c-8.106-11.369-14.938-23.584-20.421-36.548zM330.716 432.938c-23.63 9.995-48.767 15.062-74.716 15.062s-51.086-5.067-74.716-15.062c-12.963-5.483-25.178-12.315-36.547-20.421l46.246-46.247c19.056 11.26 41.279 17.729 65.016 17.729s45.96-6.469 65.016-17.729l46.247 46.246c-11.369 8.106-23.584 14.938-36.548 20.421z"></path>
</svg>