<?xml version="1.0" encoding="utf-8"?>
<!-- Generator: Adobe Illustrator 19.2.1, SVG Export Plug-In . SVG Version: 6.00 Build 0)  -->
<svg version="1.1" id="site-template" xmlns="http://www.w3.org/2000/svg" xmlns:xlink="http://www.w3.org/1999/xlink" width="512" height="512" x="0px"
	 y="0px" viewBox="0 0 512 512" enable-background="new 0 0 512 512" xml:space="preserve">
<path class="lexicon-icon-body" d="M448,0H64C28.7104,0,0,28.7104,0,64v384c0,35.29,28.7104,64,64,64h384c35.29,0,64-28.71,64-64V64
	C512,28.7104,483.29,0,448,0z M448,140.4629c-9.3101-15.4089-20.5503-29.7977-33.6074-42.855
	C401.335,84.5506,386.9458,73.3102,371.5367,64H448V140.4629z M256,416c-40.2595,0-77.0888-14.952-105.2404-39.5875L320,320
	l56.4132-169.2397C401.0483,178.9118,416,215.7408,416,256C416,344.2246,344.2246,416,256,416z M256,96
	c40.2593,0,77.0883,14.9518,105.2397,39.5868L192,192l-56.4132,169.2397C110.9518,333.0883,96,296.2593,96,256
	C96,167.7759,167.7759,96,256,96z M286.894,255.999c0,17.673-14.327,32-32,32c-17.673,0-32-14.327-32-32c0-17.673,14.327-32,32-32
	C272.567,223.999,286.894,238.326,286.894,255.999z M140.4636,64c-15.4091,9.3102-29.7982,20.5506-42.8557,33.6079
	C84.5506,110.6654,73.3102,125.0544,64,140.4636V64H140.4636z M64,371.5367c9.3102,15.4091,20.5506,29.7983,33.6079,42.8559
	c13.0573,13.0571,27.4461,24.2974,42.855,33.6074H64V371.5367z M448,448h-76.4626c15.4089-9.3101,29.7978-20.5503,42.8552-33.6074
	c13.0571-13.0574,24.2974-27.4464,33.6074-42.8552v76.4607C448,447.998,448.0273,448,448,448z"/>
</svg>