<svg id="social-linkedin" xmlns="http://www.w3.org/2000/svg" viewBox="0 0 512 512">
	<path class="lexicon-icon-outline" d="M474.1,0H37.8C16.9,0,0,16.5,0,36.9V475c0,20.4,16.9,37,37.8,37h436.4c20.9,0,37.9-16.6,37.9-36.9V36.9C512,16.5,495,0,474.1,0z M151.9,436.3h-76V191.9h76V436.3z M69.8,114.6c0-60.6,88.1-60.6,88.1,0C157.9,175,69.8,173,69.8,114.6z M436.3,436.3h-75.9V317.5c0-28.3-0.5-64.8-39.5-64.8c-39.5,0-45.5,30.9-45.5,62.8v120.8h-75.8V191.9h72.8v33.4h1c10.1-19.2,34.9-39.5,71.8-39.5c76.9,0,91.1,50.6,91.1,116.4L436.3,436.3L436.3,436.3z"/>
</svg>
