<?xml version="1.0" encoding="utf-8"?>
<!-- Generator: Adobe Illustrator 19.0.0, SVG Export Plug-In . SVG Version: 6.00 Build 0)  -->
<svg version="1.1" id="staging" xmlns="http://www.w3.org/2000/svg" xmlns:xlink="http://www.w3.org/1999/xlink" x="0px" y="0px"
	 width="512px" height="512px" viewBox="0 0 512 512" enable-background="new 0 0 512 512" xml:space="preserve">
<g>
	<path class="lexicon-icon-outline" d="M384,254.7c0,0.4,0,0.8,0,1.3c0,16.8-3.2,32.8-9.1,47.5L493,352c12.6-30.9,19-63.6,19-97.3V254L384,254.7z"/>
	<path class="lexicon-icon-outline" d="M323.1,147l68.8-110.2C363.5,18.9,332.5,7,299.6,1.3l-22,128.5C294,132.6,309.4,138.5,323.1,147z"/>
	<path class="lexicon-icon-outline" d="M377.3,215.2l122.2-39.8c-10.3-31.8-26.4-60.9-48-86.6L353,172.5C363.7,184.9,372,199.3,377.3,215.2z"/>
	<path class="lexicon-icon-outline" d="M161.8,169.3L66,82.3c-22.4,24.9-39.5,53.5-50.8,84.9l120.9,43.9C141.9,195.6,150.7,181.4,161.8,169.3z"/>
	<path class="lexicon-icon-outline" d="M238.5,129.2L220.7,0c-33.1,4.6-64.5,15.5-93.4,32.4l65.2,112.5C206.4,136.9,221.9,131.5,238.5,129.2z"/>
	<path class="lexicon-icon-outline" d="M256,384c-9.3,0-18.4-1-27.2-2.9l-26.7,125.2c17.7,3.8,35.5,5.9,54.1,5.7c14.8,0,29.8-1.3,44.4-3.9L278.5,382
		C271.2,383.3,263.7,384,256,384z"/>
	<path class="lexicon-icon-outline" d="M316,369.1l59.5,113.2c29.4-15.6,55.2-36.6,76.6-62.2l-97.7-82.3C343.9,350.5,330.8,361.2,316,369.1z"/>
	<path class="lexicon-icon-outline" d="M128,256c0-2,0.1-4,0.1-6l-128-4.6c-0.1,3.1-0.2,6.2-0.2,9.4c0,30.3,5.2,60.1,15.5,88.4l119.9-44.1
		C130.6,285.6,128,271.1,128,256z"/>
	<path class="lexicon-icon-outline" d="M154.5,334L53.9,412.7c20.5,26.4,45.5,48.3,74.3,65l63.7-110.9C177.4,358.4,164.7,347.2,154.5,334z"/>
</g>
</svg>
