<?xml version="1.0" encoding="utf-8"?>
<!-- Generator: Adobe Illustrator 19.2.1, SVG Export Plug-In . SVG Version: 6.00 Build 0)  -->
<svg version="1.1" id="Layer_1" xmlns="http://www.w3.org/2000/svg" xmlns:xlink="http://www.w3.org/1999/xlink" width="512" height="512" x="0px" y="0px"
	 viewBox="0 0 512 512" enable-background="new 0 0 512 512" xml:space="preserve">
<path class="lexicon-icon-body" fill="none" d="M508.753 190.647c-3.247-9.265-11.983-15.493-21.802-15.493h-150.106l-59.203-158.208c-3.378-9.027-12.010-14.992-21.644-14.992s-18.264 5.965-21.617 14.992l-59.203 158.208h-150.131c-9.819 0-18.555 6.202-21.802 15.493-3.247 9.265-0.264 19.558 7.417 25.682l120.966 96.234-55.534 162.88c-3.114 9.132-0.212 19.268 7.285 25.365 7.47 6.097 17.975 6.889 26.316 1.979l146.173-86.204 150.317 90.163c3.668 2.217 7.786 3.299 11.877 3.299 0.026 0 0.079 0 0.132 0 12.722-0.422 23.2-10.32 23.2-23.095 0-3.853-0.924-7.496-2.613-10.69l-58.252-163.83 120.807-96.103c7.68-6.097 10.663-16.417 7.417-25.682z"></path>
<path class="lexicon-icon-outline" d="M418.1,510.1c-4.1,0-8.2-1.1-11.9-3.3l-150.3-90.2l-146.2,86.2c-8.3,4.9-18.8,4.1-26.3-2s-10.4-16.2-7.3-25.4l55.5-162.9
	l-121-96.2C3,210.2,0,199.9,3.3,190.6s12-15.5,21.8-15.5h150.1l59.2-158.2c3.4-9,12-15,21.6-15s18.2,6,21.6,15l59.2,158.2H487
	c9.8,0,18.6,6.2,21.8,15.5c3.2,9.3,0.3,19.6-7.4,25.7l-120.8,96.1l58.3,163.9c1.7,3.2,2.6,6.8,2.6,10.7c0,12.7-10.3,23.1-23.1,23.1
	C418.2,510.1,418.1,510.1,418.1,510.1L418.1,510.1z M256,366.6c4.1,0,8.2,1.1,11.9,3.3L374.7,434l-43.3-121.7
	c-3.3-9.3-0.3-19.7,7.4-25.8l82-65.2h-100c-9.6,0-18.3-6-21.6-15L256,90.9l-43.2,115.4c-3.4,9-12,15-21.6,15h-100l82,65.2
	c7.6,6.1,10.6,16.3,7.5,25.5L140,431.3l104.3-61.5C247.9,367.7,251.9,366.6,256,366.6L256,366.6z"/>
</svg>