<?xml version="1.0" encoding="utf-8"?>
<!-- Generated by IcoMoon.io -->
<!DOCTYPE svg PUBLIC "-//W3C//DTD SVG 1.1//EN" "http://www.w3.org/Graphics/SVG/1.1/DTD/svg11.dtd">
<svg version="1.1" xmlns="http://www.w3.org/2000/svg" xmlns:xlink="http://www.w3.org/1999/xlink" width="512" height="512" viewBox="0 0 512 512">
<path class="lexicon-icon-outline" d="M511.999 224h-174.81c-10.057-3.474-20.699-6.363-32.11-8.521l-68.462-13.129c-17.957-3.73-31.342-10.533-40.119-20.48-8.741-9.911-13.129-21.577-13.129-34.962 0-8.338 1.865-16.165 5.522-23.552 3.73-7.387 8.887-13.97 15.579-19.749 6.656-5.815 14.738-10.423 24.21-13.861 9.435-3.511 19.931-5.193 31.451-5.193 15.653 0 28.928 2.304 39.717 6.949 10.862 4.571 19.749 10.386 26.624 17.298 6.912 6.949 12.142 14.446 15.579 22.491s5.851 15.616 7.241 22.491l85.76-26.331c-2.743-13.824-7.973-28.233-15.579-43.301-7.607-14.994-18.286-28.709-32.146-41.216-13.824-12.471-31.232-22.711-52.224-30.793-20.955-8.082-46.153-12.142-75.63-12.142-23.077 0-44.946 3.95-65.719 11.776-20.699 7.899-38.949 18.725-54.638 32.585-15.653 13.861-27.977 30.098-36.974 48.823s-13.495 38.912-13.495 60.599c0 26.843 6.254 50.139 18.213 70.18h-106.862v64h192.913c7.79 2.487 15.799 4.754 24.357 6.473l68.424 13.861c19.419 3.657 34.158 10.715 44.288 21.102 10.13 10.423 15.177 22.784 15.177 37.083 0 17.518-6.802 31.963-20.37 43.301-13.605 11.337-33.317 16.969-59.136 16.969-17.518 0-32.731-2.523-45.641-7.607-12.873-5.083-23.735-11.886-32.475-20.48-8.777-8.521-15.579-18.322-20.407-29.44s-7.717-22.601-8.594-34.633l-88.502 23.515c1.792 17.591 6.912 35.474 15.177 53.723 8.265 18.213 20.37 34.743 36.279 49.518 15.909 14.811 35.621 26.953 59.136 36.352 23.515 9.545 51.602 14.299 84.333 14.299 28.599 0 53.797-4.389 75.666-13.129 21.906-8.777 40.338-20.187 55.296-34.267 15.031-14.080 26.405-30.281 34.267-48.53 7.826-18.213 11.776-36.827 11.776-55.771 0-17.079-3.035-33.499-8.997-49.152-3.109-8.119-6.985-15.799-11.557-23.113h90.587v-64.037z"></path>
</svg>
