<?xml version="1.0" encoding="utf-8"?>
<!-- Generator: Adobe Illustrator 19.2.1, SVG Export Plug-In . SVG Version: 6.00 Build 0)  -->
<svg version="1.1" id="tag" xmlns="http://www.w3.org/2000/svg" xmlns:xlink="http://www.w3.org/1999/xlink" width="512" height="512" x="0px" y="0px"
	 viewBox="0 0 512 512" style="enable-background:new 0 0 512 512;" xml:space="preserve">
<path class="lexicon-icon-body" fill="none" d="M512,94.9l0-1c-1.5-49.8-37-89.3-84.5-93.8L426,0H281.9C239,0,210.9,18.6,198,29.7l-0.9,0.8L25.5,202.2
	C8.9,218.8-0.1,241.2,0,265.2c0.1,23.9,9.3,46.1,25.8,62.6l158.4,158.4c16.6,16.6,38.9,25.8,62.7,25.8c23.8,0,46.1-9.1,62.6-25.7
	l167.3-167.4l0.8-0.9c13.2-15.4,35.3-47.9,34.4-92.6L512,94.9z M364,191c-11.6,11.6-31.7,11.6-43.3,0c-11.9-11.9-11.9-31.4,0-43.3
	c5.8-5.8,13.5-9,21.7-9c8.2,0,15.9,3.2,21.7,9c5.8,5.8,9,13.5,9,21.7C373,177.5,369.8,185.2,364,191z"/>
<path class="lexicon-icon-outline" d="M512,94.9l0-1c-1.5-49.8-37-89.3-84.5-93.8L426,0H281.9C239,0,210.9,18.6,198,29.7l-0.9,0.8L25.5,202.2
	C8.9,218.8-0.1,241.2,0,265.2c0.1,23.9,9.3,46.1,25.8,62.6l158.4,158.4c16.6,16.6,38.9,25.8,62.7,25.8c23.8,0,46.1-9.1,62.6-25.7
	l167.3-167.4l0.8-0.9c13.2-15.4,35.3-47.9,34.4-92.6L512,94.9z M448,226.4c0.5,22.9-10.9,40.2-18.2,49L264.2,441.1
	c-4.5,4.5-10.6,6.9-17.4,6.9c-6.8,0-12.9-2.4-17.4-7L71,282.6c-9.3-9.3-9.4-26-0.3-35.1L240.6,77.5c6.5-5.4,19.9-13.5,41.2-13.5
	h140.8c14.4,2,24.7,14.7,25.3,31.4l0,130.2L448,226.4z"/>
<path class="lexicon-icon-outline" d="M294.6,121.6c-26.3,26.3-26.3,69.2,0,95.5c12.8,12.8,29.7,19.8,47.8,19.8c18.1,0,35-7,47.8-19.8
	c12.8-12.8,19.8-29.7,19.8-47.8s-7-35-19.8-47.8C364.6,96.1,320.1,96,294.6,121.6z M364,191c-11.6,11.6-31.7,11.6-43.3,0
	c-11.9-11.9-11.9-31.4,0-43.3c5.8-5.8,13.5-9,21.7-9s15.9,3.2,21.7,9s9,13.5,9,21.7C373,177.5,369.8,185.2,364,191z"/>
</svg>