<?xml version="1.0" encoding="utf-8"?>
<!-- Generator: Adobe Illustrator 19.2.1, SVG Export Plug-In . SVG Version: 6.00 Build 0)  -->
<svg version="1.1" id="Layer_1" xmlns="http://www.w3.org/2000/svg" xmlns:xlink="http://www.w3.org/1999/xlink" x="0px" y="0px"
	 viewBox="0 0 512 512" style="enable-background:new 0 0 512 512;" xml:space="preserve">
<path class="lexicon-icon-outline" d="M226.6,98.6c0,28.8,0,57.6,0,86.5s0,25.9,0,54.8v31.7c0,28.8,0,57.6,0,86.5c0,17.3,0,34.6,0,51.9
	c0,20.2,14.4,34.6,34.6,37.5l34.6,2.9V479H91.1v-28.8l34.6-2.9c20.2-2.9,34.6-17.3,34.6-37.5c0-17.3,0-34.6,0-51.9
	c0-28.8,0-57.6,0-86.5v-31.7c0-28.8,0-25.9,0-54.8s0-57.6,0-86.5h-72c-20.2,0-34.6,14.4-37.5,31.7L42.2,185H1.8L7.6,72.6
	c0-2.9,2.9-8.6,8.6-8.6h354.5c2.9,0,8.6,2.9,8.6,8.6l5.8,112.4h-40.3l-8.6-54.8c-5.8-17.3-23.1-31.7-40.3-31.7H226.6z"/>
<path class="lexicon-icon-outline" d="M416.8,245.5c0,17.3,0,34.6,0,51.9c0,17.3,0,17.3,0,34.6v20.2c0,17.3,0,34.6,0,51.9c0,11.5,0,20.2,0,31.7
	c0,11.5,8.6,20.2,20.2,23.1l17.3,2.9V479H336.1v-17.3l17.3-2.9c11.5,0,20.2-11.5,20.2-23.1c0-11.5,0-20.2,0-31.7
	c0-17.3,0-34.6,0-51.9V332c0-17.3,0-17.3,0-34.6s0-34.6,0-51.9H339c-11.5,0-20.2,8.6-23.1,17.3l-5.8,31.7h-25.9l2.9-66.3
	c0-2.9,2.9-5.8,5.8-5.8h207.5c2.9,0,5.8,2.9,5.8,5.8l2.9,66.3h-25.9l-11.5-28.8c-2.9-11.5-11.5-17.3-23.1-17.3h-31.7
	C416.8,248.4,416.8,245.5,416.8,245.5z"/>
</svg>