<svg id="third-party" xmlns="http://www.w3.org/2000/svg" viewBox="0 0 512 512">
	<path class="lexicon-icon-outline third-party-dots" d="M480.1,194.6v-69.1c47.8-14.6,41.5-93.5-16-93.5c-57.1,0-63.6,78.9-16,93.5v69.2c-15,4.8-24.8,16.1-29.1,29.4H221.4c-5.7-17.6-20.9-32-45.4-32c-62.9,0-64.7,96,0,96c25.1,0,40.1-14.4,45.6-32h197c4.1,13.4,14,24.7,29.4,29.5v101.2c-46.4,14.9-42.6,93.4,16,93.4c58.7,0,62.8-78.6,16-93.4V285.5C522.9,272.4,522.1,207.9,480.1,194.6z M464,224c21.2,0,20.7,32,0,32C442.5,256,443.2,224,464,224z M464,64c21.2,0,20.7,32,0,32C442.5,96,443.2,64,464,64z M176,256c-21.6,0-20.8-32,0-32C197.2,224,196.7,256,176,256z M464,448c-21.6,0-20.8-32,0-32C485.2,416,484.8,448,464,448z"/>
	<path class="lexicon-icon-outline third-party-border" d="M284.9,320v92.9H67.1V99.1h217.8V160H352V99.1C352,62.1,322,32,284.9,32H67.1C30.1,32,0,62.1,0,99.1v313.8C0,449.9,30.1,480,67.1,480h217.8c37.1,0,67.1-30.1,67.1-67.1V320H284.9z"/>
</svg>