<?xml version="1.0" encoding="utf-8"?>
<!-- Generator: Adobe Illustrator 19.2.1, SVG Export Plug-In . SVG Version: 6.00 Build 0)  -->
<svg version="1.1" id="thumbs-up" xmlns="http://www.w3.org/2000/svg" xmlns:xlink="http://www.w3.org/1999/xlink" width="512" height="512" x="0px" y="0px"
	 viewBox="0 0 512 512" style="enable-background:new 0 0 512 512;" xml:space="preserve">
<path class="lexicon-icon-body" fill="none" d="M503.3,185.2c-4.5-8.3-13.4-19.1-30.5-23.1c-8.1-1.9-16.2-1.9-24.8-1.9L339.8,160c4-9.1,7.6-18.6,10.7-29.4
	c14.7-40.9,13.3-77-4.1-102C333.5,10.2,313.1,0,288.9,0c-0.5,0-0.9,0-1.4,0l-0.2,0c-24,0.5-47.3,15.7-69.2,45.1
	c-12.6,16.8-21.2,33.5-22.6,36.4L138.1,192H96v320l215.8,0c21.8,0,54-12.5,80-31.1c36.2-25.9,56.1-60.3,56.1-96.9v-36
	c7.7-2.1,15.6-5.3,23.3-10.1c18.6-11.5,40.7-35,40.7-82C512,218,511.2,199.9,503.3,185.2z"/>
<path class="lexicon-icon-outline" d="M503.3,185.2c-4.5-8.3-13.4-19.1-30.5-23.1c-8.1-1.9-16.2-1.9-24.8-1.9L339.8,160c4-9.1,7.6-18.6,10.7-29.4
	c14.7-40.9,13.3-77-4.1-102C333.5,10.2,313.1,0,288.9,0c-0.5,0-0.9,0-1.4,0l-0.2,0c-24,0.5-47.3,15.7-69.2,45.1
	c-12.6,16.8-21.2,33.5-22.6,36.4L138.1,192H96v320l215.8,0c21.8,0,54-12.5,80-31.1c36.2-25.9,56.1-60.3,56.1-96.9v-36
	c7.7-2.1,15.6-5.3,23.3-10.1c18.6-11.5,40.7-35,40.7-82C512,218,511.2,199.9,503.3,185.2z M418.1,288c-0.6,0-1,0-1.4,0l-32.6-0.7
	V384c0,19.4-15.5,34.8-28.6,44.3c-18.6,13.5-38.5,19.5-43.7,19.7H160V256h17l75.4-145.3l0.3-0.6c0.1-0.1,5.8-11.7,14.6-24
	c11.3-15.8,19.4-21.2,21.9-22.2c3.8,0.1,4.4,1,4.7,1.3c3.3,4.7,4.9,20.4-4,44.5l-0.5,1.3l-0.4,1.3c-4.5,16.5-11.3,29.5-20.6,47.4
	c-2.9,5.6-5.9,11.3-9.1,17.8L236.1,224l211.3,0.1c0.6,10.1,0.6,24.4,0.6,31.9C448,275.2,442.9,288,418.1,288z"/>
<path class="lexicon-icon-outline" d="M32,192c-17.7,0-32,14.3-32,32v256c0,17.7,14.3,32,32,32s32-14.3,32-32V224C64,206.3,49.7,192,32,192z"/>
</svg>