<svg id="thumbs-up-arrow" xmlns="http://www.w3.org/2000/svg" viewBox="0 0 512 512">
	<path class="lexicon-icon-outline thumbs-up-arrow-cuff" d="M64,319.8v-160c0-44.8-64-41.6-64,0v160C0,361.4,64,361.4,64,319.8z"/>
	<path class="lexicon-icon-outline thumbs-up-arrow-hand" d="M384,127.8H272c0,0,16-35.2,16-76.8c3.2-48-64-86.4-112,3.2c-19.2,32-48,73.6-48,73.6H96v224c0,0,128,0,131.2,0c115.2,0,124.8-54.4,124.8-96c0,0,64,0,64-64v-32C416,137.4,403.2,127.8,384,127.8z M352,223.8h-32v32c0,57.6-54.4,64-92.8,64H128v-160h16l57.6-89.6C230.4,12.6,256,35,256,57.4c0,38.4-32,102.4-32,102.4h160v32C384,214.2,358.4,223.8,352,223.8z"/>
	<path class="lexicon-icon-outline thumbs-up-arrow-uptrend" d="M153.6,511.8l67.2-54.4l44.8,44.8c12.8,12.8,32,12.8,44.8,0l140.8-140.8l19.2,19.2c9.6,9.6,25.6,3.2,25.6-9.6l16-96c0-12.8-9.6-19.2-22.4-19.2l-96,16c-12.8,0-19.2,16-9.6,25.6l19.2,19.2L284.8,435l-41.6-41.6c-12.8-12.8-28.8-12.8-41.6-3.2L48,511.8H153.6z"/>
</svg>