<?xml version="1.0" encoding="utf-8"?>
<!-- Generator: Adobe Illustrator 19.2.1, SVG Export Plug-In . SVG Version: 6.00 Build 0)  -->
<svg version="1.1" id="time" xmlns="http://www.w3.org/2000/svg" xmlns:xlink="http://www.w3.org/1999/xlink" width="512" height="512" x="0px" y="0px"
	 viewBox="0 0 512 512" style="enable-background:new 0 0 512 512;" xml:space="preserve">
<path class="lexicon-icon-body" fill="none" d="M437,75C388.7,26.6,324.4,0,256,0S123.3,26.6,75,75C26.6,123.3,0,187.6,0,256s26.6,132.7,75,181
	c48.4,48.4,112.6,75,181,75s132.7-26.6,181-75c48.4-48.4,75-112.6,75-181S485.4,123.3,437,75z"/>
<path class="lexicon-icon-outline" d="M437,75C388.7,26.6,324.4,0,256,0S123.3,26.6,75,75C26.6,123.3,0,187.6,0,256s26.6,132.7,75,181c48.4,48.4,112.6,75,181,75
	s132.7-26.6,181-75c48.4-48.4,75-112.6,75-181S485.4,123.3,437,75z M256,448c-105.9,0-192-86.1-192-192S150.1,64,256,64
	s192,86.1,192,192S361.9,448,256,448z"/>
<path class="lexicon-icon-outline" id="XMLID_2_" d="M180.7,347.3c3.1,3.1,7.2,4.7,11.3,4.7s8.2-1.6,11.3-4.7l48-48c6.3,3,13.3,4.7,20.7,4.7c26.5,0,48-21.5,48-48
	c0-20.9-13.4-38.7-32-45.3V112c0-8.8-7.2-16-16-16s-16,7.2-16,16v98.7c-18.6,6.6-32,24.4-32,45.3c0,7.4,1.7,14.4,4.7,20.7l-48,48
	C174.4,330.9,174.4,341.1,180.7,347.3z"/>
</svg>