<?xml version="1.0" encoding="utf-8"?>
<!-- Generator: Adobe Illustrator 19.2.1, SVG Export Plug-In . SVG Version: 6.00 Build 0)  -->
<svg version="1.1" id="Layer_1" xmlns="http://www.w3.org/2000/svg" xmlns:xlink="http://www.w3.org/1999/xlink" width="512" height="512" x="0px" y="0px"
	 viewBox="0 0 512 512" style="enable-background:new 0 0 512 512;" xml:space="preserve">
<path class="lexicon-icon-body" fill="none" d="M256,0C114.8,0,0,114.8,0,256s114.8,256,256,256s256-114.8,256-256S397.2,0,256,0z"/>
<path class="lexicon-icon-outline" d="M256,0C114.8,0,0,114.8,0,256s114.8,256,256,256s256-114.8,256-256S397.2,0,256,0z M403,403c-19.1,19.1-41.4,34.2-66.2,44.7
	C311.2,458.5,284,464,256,464s-55.2-5.5-80.8-16.3c-24.8-10.5-47-25.5-66.2-44.7s-34.2-41.4-44.7-66.2C53.5,311.2,48,284,48,256
	s5.5-55.2,16.3-80.8c10.5-24.8,25.5-47,44.7-66.2s41.4-34.2,66.2-44.7C200.8,53.5,228,48,256,48s55.2,5.5,80.8,16.3
	c24.8,10.5,47,25.5,66.2,44.7s34.2,41.4,44.7,66.2C458.5,200.8,464,228,464,256s-5.5,55.2-16.3,80.8
	C437.2,361.6,422.1,383.8,403,403L403,403z"/>
<path class="lexicon-icon-outline" d="M301.5,255.5l67.9-67.9c12.5-12.5,12.5-32.8,0-45.3l0,0c-12.5-12.5-32.8-12.5-45.3,0l-67.9,67.9l-67.9-67.9
	c-12.5-12.5-32.8-12.5-45.3,0l0,0c-12.5,12.5-12.5,32.8,0,45.3l67.9,67.9l-67.9,67.9c-12.5,12.5-12.5,32.8,0,45.3l0,0
	c12.5,12.5,32.8,12.5,45.3,0l67.9-67.9l68.9,68.9c12.5,12.5,32.8,12.5,45.3,0l0,0c12.5-12.5,12.5-32.8,0-45.3L301.5,255.5
	L301.5,255.5z"/>
</svg>