<svg id="upload" xmlns="http://www.w3.org/2000/svg" viewBox="0 0 512 512">
	<path class="lexicon-icon-outline upload-arrow-up" d="M278.9,9.5C272.8,3.4,264.6,0,256,0c-8.6,0-16.8,3.4-22.9,9.5l-71.6,71.6c-12.7,12.7-12.7,33.2,0,45.8c6.3,6.3,14.6,9.5,22.9,9.5s16.6-3.2,22.9-9.5l16.7-16.7V352c0,17.7,14.3,32,32,32c17.7,0,32-14.3,32-32V110.2l16.7,16.7c12.7,12.7,33.2,12.7,45.8,0c12.7-12.7,12.7-33.2,0-45.8L278.9,9.5z"/>
	<path class="lexicon-icon-outline upload-bracket" d="M416,352c-17.7,0-32,14.3-32,32v64H128v-64c0-17.7-14.3-32-32-32s-32,14.3-32,32v128h384V384C448,366.3,433.7,352,416,352z"/>
</svg>