<?xml version="1.0" encoding="utf-8"?>
<!-- Generator: Adobe Illustrator 19.2.1, SVG Export Plug-In . SVG Version: 6.00 Build 0)  -->
<svg version="1.1" id="user" xmlns="http://www.w3.org/2000/svg" xmlns:xlink="http://www.w3.org/1999/xlink" width="512" height="512" x="0px" y="0px"
	 viewBox="0 0 512 512" enable-background="new 0 0 512 512" xml:space="preserve">
<path class="lexicon-icon-outline" d="M438.4746,277.9082c-23.4189-26.7637-50.791-47.8257-81.3574-62.6011c-1.773-0.8571-3.5547-1.6818-5.34-2.492
	C371.8131,190.2154,384,160.5065,384,128C384,57.4204,326.5791,0,256,0c-70.5796,0-128,57.4204-128,128
	c0,32.5064,12.1868,62.2153,32.2226,84.8151c-1.7855,0.8102-3.5671,1.6349-5.3403,2.4921
	c-30.5659,14.7754-57.938,35.8374-81.3569,62.6011C26.1118,332.0957,0,403.8662,0,480c0,17.6729,14.3271,32,32,32s32-14.3271,32-32
	c0-123.5137,86.1309-224,192-224s192,100.4863,192,224c0,17.6729,14.3271,32,32,32s32-14.3271,32-32
	C512,403.8662,485.8877,332.0957,438.4746,277.9082z M192,128c0-35.2896,28.7104-64,64-64c35.29,0,64,28.7104,64,64s-28.71,64-64,64
	C220.7104,192,192,163.2896,192,128z"/>
</svg>