<?xml version="1.0" encoding="utf-8"?>
<!-- Generator: Adobe Illustrator 19.2.1, SVG Export Plug-In . SVG Version: 6.00 Build 0)  -->
<svg version="1.1" id="users" xmlns="http://www.w3.org/2000/svg" xmlns:xlink="http://www.w3.org/1999/xlink" width="512" height="512" x="0px" y="0px"
	 viewBox="0 0 512 512" enable-background="new 0 0 512 512" xml:space="preserve">
<path class="lexicon-icon-outline" d="M457.2197,329.6279c-16.056-18.3494-34.5182-33.0546-54.6105-43.7661c11.3163-16.2676,17.962-36.0161,17.962-57.2905
	C420.5713,173.1162,375.4551,128,320,128s-100.5713,45.1162-100.5713,100.5713c0,21.2744,6.6457,41.0229,17.962,57.2905
	c-20.0923,10.7115-38.5546,25.4167-54.6104,43.7662C147.4546,370,128,423.4033,128,480c0,17.6729,14.3271,32,32,32s32-14.3271,32-32
	c0-83.1826,57.4204-150.8574,128-150.8574c70.5791,0,128,67.6748,128,150.8574c0,17.6729,14.3271,32,32,32s32-14.3271,32-32
	C512,423.4033,492.5449,370.001,457.2197,329.6279z M283.4287,228.5713C283.4287,208.4058,299.835,192,320,192
	s36.5713,16.4058,36.5713,36.5713S340.165,265.1426,320,265.1426S283.4287,248.7368,283.4287,228.5713z"/>
<path class="lexicon-icon-outline" d="M246.8569,86.8569C246.8569,38.9639,207.8931,0,160,0S73.1431,38.9639,73.1431,86.8569
	c0,15.8686,4.2809,30.7547,11.7435,43.5703c-14.4204,8.5516-27.7286,19.6322-39.4789,33.061C16.126,196.9531,0,241.1724,0,288
	c0,17.6729,14.3267,32,32,32s32-14.3271,32-32c0-63.0171,43.0654-114.2856,96-114.2856
	C207.8931,173.7144,246.8569,134.75,246.8569,86.8569z M137.1431,86.8569C137.1431,74.2534,147.3965,64,160,64
	s22.8569,10.2534,22.8569,22.8569S172.6035,109.7144,160,109.7144S137.1431,99.4604,137.1431,86.8569z"/>
</svg>