<?xml version="1.0" encoding="utf-8"?>
<!-- Generator: Adobe Illustrator 19.0.0, SVG Export Plug-In . SVG Version: 6.00 Build 0)  -->
<svg version="1.1" id="view" xmlns="http://www.w3.org/2000/svg" xmlns:xlink="http://www.w3.org/1999/xlink" x="0px" y="0px"
	 width="512px" height="512px" viewBox="0 0 512 512" enable-background="new 0 0 512 512" xml:space="preserve">
<path class="lexicon-icon-outline" d="M499.7,228.2C412.4,101.9,291,96,260.4,96c-3.1,0-10.7,0-14.8,0C210,96,81.3,106.5,3.2,244.5c-9.1,16.1,3.3,30.7,9.2,39.3
	C99.8,410.1,222.6,416,253.6,416c3.2,0,10.8,0,14.9,0c35.2,0,162.2-10.5,240.2-148.5C517.8,251.4,505.7,236.8,499.7,228.2z
	 M253.1,313.5c-28.2,0-51-22.8-51-51c0-28.2,22.8-51,51-51c28.2,0,51,22.8,51,51C304.1,290.7,281.3,313.5,253.1,313.5z M56,256.6
	c26.8-42.1,62-72.7,104.9-91c6.6-2.8,13.1-5.2,19.4-7.3c-32.8,23-54.3,61.1-54.3,104.2c0,29.7,10.2,57,27.3,78.7
	C120.7,325.4,86,299.3,56,256.6z M346,349.3c21.2-22.7,34.3-53.2,34.3-86.8c0-44.2-22.6-83.2-56.9-106c40.9,12.1,91.1,39.2,133,98.9
	C423.3,307.6,382.1,335,346,349.3z"/>
</svg>
