<?xml version="1.0" encoding="utf-8"?>
<!-- Generator: Adobe Illustrator 19.2.1, SVG Export Plug-In . SVG Version: 6.00 Build 0)  -->
<svg version="1.1" id="vocabulary" xmlns="http://www.w3.org/2000/svg" xmlns:xlink="http://www.w3.org/1999/xlink" width="512" height="512" x="0px" y="0px"
	 viewBox="0 0 512.0034 512.498" enable-background="new 0 0 512.0034 512.498" xml:space="preserve">
<path class="lexicon-icon-outline" d="M145.689,252.6216c15.8076,7.9038,35.0288,1.4971,42.9326-14.3105L195.7771,224h120.4454l7.1555,14.311
	c5.6074,11.2139,16.9082,17.6968,28.6465,17.6958c4.8086,0,9.6934-1.0884,14.2861-3.3853
	c15.8076-7.9038,22.2148-27.125,14.3115-42.9326l-96-192C279.2012,6.8481,268.1211,0,256,0
	c-12.1206,0-23.2012,6.8481-28.6216,17.689l-96,192C123.4746,225.4966,129.8818,244.7178,145.689,252.6216z M256,103.5542
	L284.2227,160h-56.4456L256,103.5542z"/>
<path class="lexicon-icon-outline" d="M160,352v-64c0-17.6729-14.3271-32-32-32H64H32H0v256h32h32h96c17.6733,0,32-14.3271,32-32v-96
	C192,366.3271,177.6733,352,160,352z M96,320v32H64v-32H96z M128,448H64v-32h64V448z"/>
<path class="lexicon-icon-outline" d="M478.7363,448.0254c-16.3994,0.6455-18.5439,0.4795-20.2666,0.3438C455.8945,448.167,453.3301,448,448,448
	c-35.29,0-64-28.71-64-64s28.71-64,64-64c15.1777,0,28.1934,1.4736,28.2949,1.4854c17.5674,2.04,33.4443-10.5264,35.4902-28.0801
	c2.0459-17.5547-10.5264-33.4434-28.0801-35.4902C483.0342,257.8369,467.0527,256,448,256c-70.5791,0-128,57.4209-128,128
	s57.4209,128,128,128c3.2549,0,4.2285,0.0762,5.4609,0.1729c2.3564,0.1855,4.499,0.3252,8.4287,0.3252
	c3.9609,0,9.7373-0.1426,19.374-0.5234c17.6592-0.6973,31.4092-15.5791,30.7109-33.2383
	C511.2773,461.0762,496.3662,447.3018,478.7363,448.0254z"/>
</svg>