<?xml version="1.0" encoding="utf-8"?>
<!-- Generator: Adobe Illustrator 19.2.1, SVG Export Plug-In . SVG Version: 6.00 Build 0)  -->
<svg version="1.1" id="wiki-page" xmlns="http://www.w3.org/2000/svg" xmlns:xlink="http://www.w3.org/1999/xlink" width="512" height="512" x="0px" y="0px"
	 viewBox="0 0 512 512" style="enable-background:new 0 0 512 512;" xml:space="preserve">
<path class="lexicon-icon-body" fill="none" d="M416,0H63.4C28.4,0,0,28.4,0,63.4V448c0,35,28.4,64,63.4,64h380.2c35,0,68.4-29,68.4-64V128V96L416,0z"/>
<path class="lexicon-icon-outline" d="M416,0H63.4C28.4,0,0,28.4,0,63.4V448c0,35,28.4,64,63.4,64h380.2c35,0,68.4-29,68.4-64V128V96L416,0z M448,448H64l0-384
	h224h32v96v32h32h96V448z M384,128V64l64,64H384z"/>
<path class="lexicon-icon-outline" d="M96,288c0,17.7,14.3,32,32,32h256c17.7,0,32-14.3,32-32s-14.3-32-32-32H128C110.3,256,96,270.3,96,288z"/>
<path class="lexicon-icon-outline" d="M288,352H128c-17.7,0-32,14.3-32,32s14.3,32,32,32h160c17.7,0,32-14.3,32-32S305.7,352,288,352z"/>
<path class="lexicon-icon-outline" d="M127,200.6c0.7,1.9,1.8,4.4,3.1,7.7c1.3,3.2,2.8,6,4.5,8.4c1.7,2.4,3.8,4.2,6.4,5.4s5.7,1.9,9.3,1.9c7.2,0,12.2-2,15-6.1
	c2.9-4.1,5.5-10.2,7.9-18.2l18.5-65.2l19.1,65.2c1.6,5.2,3.1,9.5,4.5,12.7s3.5,6,6.4,8.3c2.9,2.2,6.9,3.4,11.9,3.4
	c4.9,0,8.7-1,11.6-3.2s4.9-4.5,6.2-7.2c1.3-2.7,3.1-7,5.5-13l27.3-78.5c2.5-6.2,3.8-10.8,3.8-13.8c0-3.3-1.5-6.2-4.4-8.7
	c-2.9-2.5-6.4-3.7-10.4-3.7c-4,0-7,0.8-9.2,2.4c-2.1,1.6-3.6,3.5-4.5,5.6c-0.9,2.1-2.1,5.6-3.5,10.4l-22,73.7l-19.8-69
	c-2-6.2-3.6-10.5-4.8-13c-1.1-2.5-3.1-4.8-5.9-7c-2.8-2.1-6.7-3.2-11.7-3.2c-4.9,0-8.7,1.1-11.5,3.2s-4.7,4.4-5.7,6.7
	s-2.6,6.8-4.7,13.2l-19.8,69l-21.8-73.7c-2.2-6.7-4.3-11.5-6.2-14.3c-2-2.8-5.7-4.2-11.2-4.2c-4.2,0-7.7,1.3-10.5,3.8
	s-4.3,5.4-4.3,8.6c0,2.5,1.3,7.1,4,13.8L127,200.6z"/>
</svg>