<?xml version="1.0" encoding="utf-8"?>
<!-- Generator: Adobe Illustrator 19.2.1, SVG Export Plug-In . SVG Version: 6.00 Build 0)  -->
<svg version="1.1" id="workflow" xmlns="http://www.w3.org/2000/svg" xmlns:xlink="http://www.w3.org/1999/xlink" width="512" height="512" x="0px" y="0px"
	 viewBox="0 0 512 512" style="enable-background:new 0 0 512 512;" xml:space="preserve">
<path class="lexicon-icon-body" fill="none" d="M448,0H64C28.7,0,0,28.7,0,64v384c0,35.3,28.7,64,64,64h384c35.3,0,64-28.7,64-64V64C512,28.7,483.3,0,448,0z"
	/>
<path class="lexicon-icon-outline" d="M448,0H64C28.7,0,0,28.7,0,64v384c0,35.3,28.7,64,64,64h384c35.3,0,64-28.7,64-64V64C512,28.7,483.3,0,448,0z M448,448H64
	V64h384V448C448,448,448,448,448,448z"/>
<path class="lexicon-icon-outline" d="M352,257.6V208h32l-48-96l-48,96h32v49.6c-31.3,6.4-56,31.1-62.4,62.4H192v-64h64V96H96v160h64v64v32h32h65.6
	c7.4,36.5,39.7,64,78.4,64c44.2,0,80-35.8,80-80C416,297.3,388.5,265,352,257.6z"/>
</svg>