<?xml version="1.0" encoding="utf-8"?>
<!-- Generator: Adobe Illustrator 18.1.1, SVG Export Plug-In . SVG Version: 6.00 Build 0)  -->
<svg version="1.2" baseProfile="tiny" xmlns="http://www.w3.org/2000/svg" xmlns:xlink="http://www.w3.org/1999/xlink" x="0px"
	 y="0px" width="64px" height="64px" viewBox="0 0 64 64" xml:space="preserve">
<g id="Capa_1">
	<path fill="#030202" d="M21.2,35.3c0,5.9,4.8,10.8,10.8,10.8s10.8-4.8,10.8-10.8S37.9,24.6,32,24.6S21.2,29.4,21.2,35.3z
		 M55.2,17.1H43.6c-0.8-3.3-1.7-6.6-5-6.6H25.4c-3.3,0-4.1,3.3-5,6.6H8.8c-1.8,0-3.3,1.5-3.3,3.3v29.8c0,1.8,1.5,3.3,3.3,3.3h46.3
		c1.8,0,3.3-1.5,3.3-3.3V20.4C58.5,18.6,57,17.1,55.2,17.1z M32,50c-8.1,0-14.7-6.6-14.7-14.7S23.9,20.6,32,20.6s14.7,6.6,14.7,14.7
		S40.1,50,32,50z M55.2,27h-6.6v-3.3h6.6V27z"/>
</g>
<g id="nyt_x5F_exporter_x5F_info" display="none">
</g>
</svg>
