<?xml version="1.0" encoding="utf-8"?>
<!-- Generated by IcoMoon.io -->
<!DOCTYPE svg PUBLIC "-//W3C//DTD SVG 1.1//EN" "http://www.w3.org/Graphics/SVG/1.1/DTD/svg11.dtd">
<svg version="1.1" xmlns="http://www.w3.org/2000/svg" xmlns:xlink="http://www.w3.org/1999/xlink" width="64" height="64" viewBox="0 0 64 64">
<path d="M64 32v4h-14.657c1.719 2.407 2.657 5.168 2.657 8 0 4.43-2.291 8.689-6.286 11.685-3.71 2.782-8.58 4.315-13.714 4.315s-10.004-1.532-13.714-4.315c-3.995-2.996-6.286-7.255-6.286-11.685h8c0 4.336 5.495 8 12 8s12-3.664 12-8c0-4.336-5.495-8-12-8h-32v-4h18.72c-0.146-0.103-0.291-0.208-0.434-0.315-3.995-2.996-6.286-7.255-6.286-11.685s2.291-8.689 6.286-11.685c3.71-2.782 8.58-4.315 13.714-4.315s10.004 1.532 13.714 4.315c3.995 2.996 6.286 7.255 6.286 11.685h-8c0-4.336-5.495-8-12-8s-12 3.664-12 8c0 4.336 5.495 8 12 8 4.936 0 9.628 1.417 13.28 4h18.72z" fill="#000000"></path>
</svg>
