<?xml version="1.0" encoding="utf-8"?>
<!-- Generator: Adobe Illustrator 18.1.1, SVG Export Plug-In . SVG Version: 6.00 Build 0)  -->
<svg version="1.2" baseProfile="tiny" id="Capa_1" xmlns="http://www.w3.org/2000/svg" xmlns:xlink="http://www.w3.org/1999/xlink"
	 x="0px" y="0px" viewBox="0 0 64 64" xml:space="preserve">
<g>
	<path fill="#010002" d="M58.5,15.6c-1.9,0.9-4,1.4-6.2,1.7c2.2-1.3,4-3.5,4.8-6c-2.1,1.2-4.4,2.1-6.9,2.6c-2-2.1-4.8-3.4-7.9-3.4
		c-6,0-10.9,4.9-10.9,10.9c0,0.9,0.1,1.7,0.3,2.5c-9-0.5-17-4.8-22.4-11.3c-0.9,1.6-1.5,3.5-1.5,5.5c0,3.8,1.9,7.1,4.8,9
		c-1.8-0.1-3.5-0.5-4.9-1.4c0,0,0,0.1,0,0.1c0,5.3,3.7,9.6,8.7,10.6c-0.9,0.2-1.9,0.4-2.9,0.4c-0.7,0-1.4-0.1-2-0.2
		c1.4,4.3,5.4,7.5,10.1,7.5c-3.7,2.9-8.4,4.6-13.5,4.6c-0.9,0-1.7-0.1-2.6-0.2c4.8,3.1,10.5,4.9,16.6,4.9c20,0,30.9-16.5,30.9-30.9
		c0-0.5,0-0.9,0-1.4C55.2,19.7,57,17.8,58.5,15.6L58.5,15.6z M58.5,15.6"/>
</g>
</svg>
