<?xml version="1.0" encoding="utf-8"?>
<!-- Generated by IcoMoon.io -->
<!DOCTYPE svg PUBLIC "-//W3C//DTD SVG 1.1//EN" "http://www.w3.org/Graphics/SVG/1.1/DTD/svg11.dtd">
<svg version="1.1" xmlns="http://www.w3.org/2000/svg" xmlns:xlink="http://www.w3.org/1999/xlink" width="16" height="16" viewBox="0 0 16 16">
<g>
</g>
	<path d="M2.343 13.657c-3.124-3.124-3.124-8.19 0-11.314 3.125-3.124 8.19-3.124 11.315 0s3.124 8.19 0 11.314c-3.125 3.125-8.19 3.125-11.315 0zM12.243 3.757c-2.344-2.343-6.143-2.343-8.485 0s-2.344 6.142 0 8.485c2.343 2.343 6.142 2.343 8.485 0s2.343-6.142 0-8.485zM5.879 11.536l-1.414-1.415 2.121-2.121-2.121-2.121 1.414-1.415 2.121 2.122 2.121-2.122 1.414 1.415-2.121 2.121 2.121 2.121-1.414 1.415-2.121-2.122-2.121 2.122z" fill="#000000"></path>
</svg>
