<?xml version="1.0" encoding="utf-8"?>
<!-- Generated by IcoMoon.io -->
<!DOCTYPE svg PUBLIC "-//W3C//DTD SVG 1.1//EN" "http://www.w3.org/Graphics/SVG/1.1/DTD/svg11.dtd">
<svg version="1.1" xmlns="http://www.w3.org/2000/svg" xmlns:xlink="http://www.w3.org/1999/xlink" width="15" height="16" viewBox="0 0 15 16">
<g>
</g>
	<path d="M0 11.143v-7.429q0-1.063 0.754-1.817t1.817-0.754h2.277q0.116 0 0.201 0.085t0.085 0.201q0 0.241-0.232 0.286-0.688 0.232-1.188 0.536-0.089 0.036-0.143 0.036h-1q-0.589 0-1.009 0.42t-0.42 1.009v7.429q0 0.589 0.42 1.009t1.009 0.42h7.429q0.589 0 1.009-0.42t0.42-1.009v-1.911q0-0.17 0.161-0.259 0.25-0.116 0.482-0.33 0.143-0.143 0.313-0.071 0.188 0.080 0.188 0.259v2.313q0 1.063-0.754 1.817t-1.817 0.754h-7.429q-1.063 0-1.817-0.754t-0.754-1.817zM2.286 7.429q0-0.438 0.031-0.813t0.125-0.804 0.25-0.786 0.42-0.728 0.612-0.661 0.844-0.549 1.112-0.433 1.424-0.272 1.754-0.098h1.429v-1.714q0-0.375 0.348-0.527 0.116-0.045 0.223-0.045 0.232 0 0.402 0.17l3.429 3.429q0.17 0.17 0.17 0.402t-0.17 0.402l-3.429 3.429q-0.161 0.17-0.402 0.17-0.107 0-0.223-0.045-0.348-0.152-0.348-0.527v-1.714h-1.429q-2.884 0-3.911 1.17-1.063 1.223-0.661 4.223 0.027 0.205-0.179 0.304-0.071 0.018-0.107 0.018-0.143 0-0.232-0.116-0.089-0.125-0.188-0.277t-0.353-0.612-0.442-0.888-0.344-1.018-0.156-1.089z" fill="#000000"></path>
</svg>
