<?xml version="1.0" encoding="utf-8"?>
<!-- Generated by IcoMoon.io -->
<!DOCTYPE svg PUBLIC "-//W3C//DTD SVG 1.1//EN" "http://www.w3.org/Graphics/SVG/1.1/DTD/svg11.dtd">
<svg version="1.1" xmlns="http://www.w3.org/2000/svg" xmlns:xlink="http://www.w3.org/1999/xlink" width="16" height="16" viewBox="0 0 16 16">
<g>
</g>
	<path d="M0 14v0.571q0 0.125 0.080 0.205t0.205 0.080h13.143q0.125 0 0.205-0.080t0.080-0.205v-0.571q0-0.125-0.080-0.205t-0.205-0.080h-13.143q-0.125 0-0.205 0.080t-0.080 0.205zM0 1.17q0.116-0.009 0.357-0.009 0.536 0 1 0.036 1.179 0.063 1.482 0.063 0.768 0 1.5-0.027 1.036-0.036 1.304-0.045 0.5 0 0.768-0.018l-0.009 0.125 0.018 0.571v0.080q-0.536 0.080-1.107 0.080-0.536 0-0.705 0.223-0.116 0.125-0.116 1.179 0 0.116 0.004 0.29t0.004 0.228l0.009 2.045 0.125 2.5q0.054 1.107 0.455 1.804 0.313 0.527 0.857 0.821 0.786 0.42 1.58 0.42 0.929 0 1.705-0.25 0.5-0.161 0.884-0.455 0.429-0.321 0.58-0.571 0.321-0.5 0.473-1.018 0.188-0.652 0.188-2.045 0-0.705-0.031-1.143t-0.098-1.094-0.121-1.424l-0.036-0.527q-0.045-0.598-0.214-0.786-0.304-0.313-0.688-0.304l-0.893 0.018-0.125-0.027 0.018-0.768h0.75l1.83 0.089q0.679 0.027 1.75-0.089l0.161 0.018q0.054 0.339 0.054 0.455 0 0.063-0.036 0.277-0.402 0.107-0.75 0.116-0.652 0.098-0.705 0.152-0.134 0.134-0.134 0.366 0 0.063 0.013 0.241t0.013 0.277q0.071 0.17 0.196 3.536 0.054 1.741-0.134 2.714-0.134 0.679-0.366 1.089-0.339 0.58-1 1.098-0.67 0.509-1.625 0.795-0.973 0.295-2.277 0.295-1.491 0-2.536-0.411-1.063-0.42-1.598-1.089-0.545-0.679-0.741-1.741-0.143-0.714-0.143-2.116v-2.973q0-1.679-0.152-1.902-0.223-0.321-1.313-0.348-0.33-0.018-0.402-0.036z" fill="#000000"></path>
</svg>
