<?xml version="1.0" standalone="no"?>
<!DOCTYPE svg PUBLIC "-//W3C//DTD SVG 20010904//EN"
 "http://www.w3.org/TR/2001/REC-SVG-20010904/DTD/svg10.dtd">
<svg version="1.0" xmlns="http://www.w3.org/2000/svg"
 width="1024.000000pt" height="1024.000000pt" viewBox="0 0 1024.000000 1024.000000"
 preserveAspectRatio="xMidYMid meet">
<metadata>
Created by potrace 1.11, written by Peter Selinger 2001-2013
</metadata>
<g transform="translate(0.000000,1024.000000) scale(0.100000,-0.100000)"
fill="#000000" stroke="none">
<path d="M572 5663 l3 -4578 528 0 c290 0 527 -4 527 -8 0 -5 6 -5 13 0 18 11
101 10 109 -2 5 -7 8 -7 8 0 0 6 46 9 122 7 68 -1 132 -2 143 -2 18 1 65 1
145 1 14 0 114 0 223 2 108 1 197 -2 197 -6 0 -5 6 -5 13 0 18 11 101 10 109
-2 5 -7 8 -7 8 0 0 6 46 9 122 7 68 -1 132 -2 143 -2 18 1 65 1 145 1 14 0
114 0 223 2 108 1 197 -2 197 -6 0 -5 6 -5 13 0 18 11 101 10 109 -2 5 -7 8
-7 8 0 0 8 222 12 343 6 10 -1 260 -243 557 -540 l539 -539 528 529 c291 291
527 531 525 534 -10 9 53 17 153 19 58 0 105 -3 105 -7 0 -5 6 -5 13 0 18 11
101 10 109 -2 5 -7 8 -7 8 0 0 6 46 9 122 7 68 -1 132 -2 143 -2 18 1 65 1
145 1 14 0 114 0 223 2 108 1 197 -2 197 -6 0 -5 5 -5 12 -1 19 12 108 11 108
-1 0 -7 3 -7 8 0 9 12 1792 14 1792 2 0 -5 6 -5 13 0 18 11 101 10 109 -2 5
-7 8 -7 8 0 0 6 44 10 115 9 l115 -1 0 4578 0 4579 -4550 0 -4550 0 2 -4577z
m4653 2278 c6 -3 19 -7 30 -8 20 -3 24 -5 110 -44 28 -13 52 -23 55 -24 7 -1
104 -58 110 -65 3 -3 28 -21 55 -39 28 -19 52 -37 55 -41 3 -3 23 -18 45 -35
22 -16 50 -39 62 -50 12 -11 41 -36 65 -55 49 -40 145 -128 198 -182 23 -23
41 -34 49 -29 7 5 13 12 12 17 -1 21 13 60 27 77 8 9 12 17 8 17 -3 0 0 14 9
30 9 17 13 30 10 30 -3 0 1 10 10 23 8 13 12 27 8 30 -3 4 -1 7 5 7 7 0 12 6
12 14 0 8 12 43 26 78 41 98 49 119 74 183 26 65 36 77 62 69 9 -3 25 -7 35
-9 29 -6 202 -42 288 -60 44 -10 87 -19 95 -20 8 -2 15 -4 15 -5 0 -1 11 -3
25 -5 29 -4 66 -12 98 -19 34 -9 65 -16 92 -21 14 -3 35 -7 48 -10 29 -7 49
-11 97 -20 22 -5 45 -9 50 -11 6 -1 46 -9 89 -18 95 -20 100 -23 81 -42 -8 -9
-15 -22 -15 -30 0 -8 -4 -22 -9 -32 -41 -83 -80 -182 -73 -182 4 0 2 -4 -3 -8
-6 -4 -21 -34 -34 -67 -13 -33 -30 -76 -39 -95 -9 -19 -17 -37 -17 -40 -1 -3
-11 -27 -23 -53 -12 -27 -22 -55 -22 -62 0 -8 -4 -16 -9 -20 -5 -3 -12 -18
-16 -35 -3 -16 -17 -52 -31 -80 -13 -27 -24 -56 -24 -63 0 -7 -4 -17 -9 -22
-5 -6 -11 -19 -13 -30 -1 -11 -5 -22 -8 -25 -3 -3 -19 -39 -35 -80 -16 -41
-32 -80 -37 -86 -4 -6 -9 -19 -11 -30 -2 -10 -9 -32 -16 -49 -6 -16 -18 -46
-25 -65 -8 -19 -25 -64 -39 -100 -14 -36 -31 -81 -38 -100 -8 -19 -14 -37 -15
-40 0 -3 -6 -18 -13 -35 -35 -88 -85 -221 -84 -225 1 -3 -3 -11 -9 -17 -6 -7
-8 -13 -4 -13 4 0 0 -12 -7 -27 -8 -16 -24 -55 -35 -88 -11 -33 -39 -111 -61
-172 -22 -62 -37 -113 -34 -113 3 0 1 -6 -4 -12 -14 -17 -128 -372 -169 -523
-38 -144 -63 -242 -68 -270 -2 -16 -5 -30 -6 -30 -1 0 -3 -7 -5 -15 -2 -8 -6
-28 -10 -45 -42 -193 -37 -359 12 -405 39 -38 156 -45 238 -16 83 30 203 102
284 171 77 66 214 213 311 336 l45 56 228 1 c125 0 227 -1 227 -2 0 -1 -20
-40 -45 -86 -25 -47 -51 -97 -58 -112 -6 -16 -15 -28 -19 -28 -4 0 -8 -7 -8
-15 0 -8 -4 -15 -10 -15 -5 0 -10 -5 -10 -11 0 -23 -166 -260 -285 -407 -44
-54 -178 -181 -240 -226 -22 -17 -42 -33 -45 -36 -5 -5 -121 -81 -164 -107
-12 -7 -29 -16 -38 -19 -10 -3 -18 -11 -18 -16 0 -5 -4 -7 -9 -3 -5 3 -16 -2
-24 -10 -9 -8 -18 -15 -20 -15 -3 0 -47 -20 -98 -44 -99 -46 -139 -61 -151
-58 -5 1 -8 -3 -8 -8 0 -6 -8 -10 -17 -10 -10 -1 -36 -8 -58 -16 -56 -21 -205
-63 -205 -58 0 3 -8 1 -17 -4 -10 -5 -40 -13 -68 -16 -27 -4 -66 -9 -85 -12
-91 -13 -175 -7 -219 14 -25 12 -51 22 -58 22 -7 0 -13 5 -13 10 0 6 -6 10
-13 10 -8 0 -22 9 -32 20 -10 11 -24 20 -31 20 -33 0 -204 185 -254 275 -58
106 -100 198 -100 219 0 8 -4 18 -10 21 -5 3 -10 19 -10 34 0 15 -3 31 -7 35
-4 3 -8 14 -9 24 -3 17 -14 72 -21 102 -4 20 -14 99 -16 129 l-1 23 -19 -23
c-10 -13 -26 -33 -35 -44 -10 -11 -31 -38 -47 -60 -61 -81 -184 -208 -290
-298 -110 -94 -112 -95 -172 -134 -32 -21 -60 -40 -63 -43 -9 -9 -44 -30 -67
-39 -11 -6 -24 -15 -28 -21 -3 -5 -10 -8 -15 -5 -5 3 -11 1 -15 -5 -5 -7 -110
-65 -110 -60 0 0 -25 -10 -55 -23 -71 -31 -93 -39 -105 -42 -5 -2 -39 -12 -75
-24 -36 -11 -76 -23 -90 -25 -14 -3 -25 -5 -25 -6 0 -2 -38 -10 -70 -14 -16
-3 -30 -5 -30 -6 0 -6 -208 -22 -285 -22 -145 1 -313 21 -400 49 -92 29 -178
96 -241 188 -19 28 -36 52 -39 55 -5 5 -52 99 -55 110 -1 3 -7 19 -14 35 -23
55 -62 180 -64 207 -1 16 -5 28 -9 28 -4 0 -7 8 -7 18 -1 22 -8 77 -11 77 -1
0 -3 14 -4 30 -1 17 -6 48 -10 70 -12 71 -16 117 -22 290 -3 94 -6 175 -6 180
1 34 23 300 27 330 2 11 6 45 10 76 3 31 8 67 10 80 3 13 8 38 10 54 3 17 13
66 22 110 8 44 16 88 16 98 1 9 4 17 7 17 4 0 7 6 8 13 0 6 3 23 7 37 3 14 8
36 11 50 7 32 71 239 83 265 23 50 55 141 53 148 -1 4 2 7 6 7 5 0 9 6 9 13 0
13 94 209 104 217 3 3 22 34 43 70 49 86 58 100 79 124 9 11 17 23 17 28 0 4
7 16 15 25 8 10 42 54 75 98 34 44 85 107 113 139 63 72 307 320 307 312 0 -3
18 11 39 32 44 41 82 73 156 128 28 21 52 42 53 46 2 4 8 8 13 8 6 0 15 4 22
10 47 38 82 62 152 105 44 27 82 52 85 55 23 24 305 159 425 203 39 14 79 29
90 33 11 4 27 9 35 11 8 1 58 14 110 28 52 13 115 27 139 30 24 3 46 7 49 9 6
7 175 4 187 -3z"/>
<path d="M5328 7315 c-2 -2 -31 -6 -66 -10 -92 -9 -244 -65 -347 -127 -280
-170 -560 -444 -765 -748 -24 -36 -47 -66 -52 -68 -4 -2 -8 -7 -8 -12 0 -4
-25 -50 -56 -101 -55 -91 -139 -257 -178 -349 -10 -25 -25 -61 -33 -80 -8 -19
-19 -43 -24 -52 -5 -10 -9 -23 -9 -29 0 -6 -6 -25 -14 -42 -19 -44 -40 -100
-42 -112 -1 -5 -11 -39 -22 -75 -33 -106 -52 -173 -56 -200 -3 -14 -5 -25 -6
-25 -2 0 -7 -23 -14 -70 -6 -41 -11 -67 -22 -120 -10 -52 -11 -365 -1 -409 29
-126 70 -239 94 -264 7 -7 13 -18 13 -24 0 -6 30 -40 68 -77 69 -68 136 -109
212 -128 33 -8 127 -9 170 -1 25 5 52 9 60 10 8 0 21 5 28 11 6 5 12 6 12 2 0
-4 7 -2 15 5 9 7 18 10 22 7 3 -4 18 0 32 8 14 7 59 30 99 50 86 42 115 58
122 66 3 3 16 12 28 18 44 23 192 133 192 142 0 5 5 9 10 9 31 0 410 369 410
399 0 9 4 21 9 27 5 5 21 45 36 89 31 90 53 151 66 180 25 57 57 155 51 155
-4 0 -1 4 6 8 7 5 15 22 18 37 3 16 10 35 16 42 6 7 7 13 4 13 -4 0 -1 10 6
23 7 12 13 24 14 27 0 3 4 13 8 22 4 9 9 22 10 30 2 7 7 22 11 33 43 108 55
140 55 148 0 5 7 23 15 40 8 18 37 95 65 172 28 77 54 147 57 155 4 8 7 17 7
20 2 6 46 122 91 240 28 73 45 121 50 140 1 3 5 14 10 25 34 83 62 165 57 169
-3 3 0 6 6 6 7 0 11 3 10 8 0 4 2 15 6 24 5 10 1 27 -9 42 -10 14 -15 26 -12
26 3 0 -7 26 -22 58 -15 31 -41 84 -57 117 -89 189 -219 296 -378 311 -28 3
-56 7 -63 9 -6 2 -13 2 -15 0z"/>
</g>
</svg>
