<?xml version="1.0" standalone="no"?>
<!DOCTYPE svg PUBLIC "-//W3C//DTD SVG 20010904//EN"
 "http://www.w3.org/TR/2001/REC-SVG-20010904/DTD/svg10.dtd">
<svg version="1.0" xmlns="http://www.w3.org/2000/svg"
 width="656.000000pt" height="656.000000pt" viewBox="0 0 656.000000 656.000000"
 preserveAspectRatio="xMidYMid meet">
<metadata>
Created by potrace 1.11, written by Peter Selinger 2001-2013
</metadata>
<g transform="translate(0.000000,656.000000) scale(0.100000,-0.100000)"
fill="#000000" stroke="none">
<path d="M641 6468 c-218 -38 -398 -176 -499 -382 -13 -28 -26 -57 -28 -65 -2
-9 -10 -43 -19 -76 -13 -53 -15 -379 -14 -2640 0 -2498 1 -2582 19 -2657 49
-196 174 -351 359 -444 144 -72 -71 -67 2791 -67 1974 -1 2588 2 2629 11 207
47 373 177 465 366 25 50 47 107 51 126 3 19 9 51 12 70 4 19 7 1194 7 2610 0
2714 2 2594 -42 2720 -38 108 -114 212 -212 291 -45 36 -138 90 -175 102 -11
3 -45 13 -75 23 -51 16 -236 17 -2640 18 -1422 1 -2605 -2 -2629 -6z m1106
-1158 c0 -451 -2 -500 -16 -501 -20 0 -974 0 -981 0 -4 1 -5 957 -1 994 1 4
225 7 499 7 l499 0 0 -500z m1333 473 c4 -213 0 -966 -4 -970 -4 -4 -768 -7
-958 -4 l-36 1 -1 166 c0 91 -3 169 -6 175 -4 5 -3 9 2 9 7 0 8 83 3 240 0 14
0 32 1 40 0 8 0 62 0 120 -1 58 -1 138 -1 178 l1 72 499 0 500 0 0 -27z m1335
-467 c0 -272 -4 -498 -7 -502 -6 -5 -948 -10 -988 -5 -5 1 -6 970 -1 994 0 4
225 7 499 7 l497 0 0 -494z m-2670 -1341 l0 -500 -497 -1 c-349 0 -498 3 -499
10 -5 69 -2 987 3 989 5 1 230 2 500 2 l493 -1 0 -499z m1330 496 c10 -1 12
-958 2 -984 -4 -11 -102 -13 -498 -13 l-494 1 -2 30 c-1 17 -2 75 -2 130 -2
213 -2 351 -2 365 0 8 0 35 0 60 0 25 0 65 0 90 2 187 1 292 -4 300 -3 5 1 12
9 17 11 6 937 10 991 4z m2667 0 c3 -1 6 -225 5 -498 l-2 -498 -497 -1 -498
-1 -1 41 c-4 293 -2 957 3 958 7 3 975 1 990 -1z m-3995 -1831 c0 -450 -2
-500 -16 -501 -82 -3 -971 0 -978 4 -6 4 -9 862 -4 979 1 16 34 18 499 18
l499 0 0 -500z m2667 18 c-1 -266 -2 -492 -3 -503 -1 -20 -8 -20 -490 -19
-269 1 -493 4 -498 7 -7 4 -11 983 -4 994 0 2 225 3 499 3 l497 0 -1 -482z
m1333 -20 l1 -498 -36 -1 c-198 -3 -954 0 -959 4 -4 5 -7 736 -4 954 l1 42
498 -2 497 -2 2 -497z m-2667 -858 c1 -31 1 -892 0 -941 l0 -35 -497 1 c-274
1 -502 3 -506 4 -5 0 -5 5 -2 11 3 5 5 69 5 142 0 73 -1 142 -1 153 0 11 0 40
0 65 0 25 0 63 0 85 0 22 1 96 1 165 0 135 0 153 1 173 0 6 0 52 -1 101 -1 49
3 92 8 95 6 3 231 6 501 6 l491 0 0 -25z m1331 5 c1 -11 2 -236 3 -501 l1
-480 -500 0 -500 1 -1 495 c0 272 0 497 2 500 1 3 225 5 498 5 489 0 496 0
497 -20z m1334 -480 l0 -500 -497 -1 -498 0 -1 35 c-3 179 0 951 4 957 3 5
227 9 499 9 l493 0 0 -500z"/>
</g>
</svg>
