<?xml version="1.0" encoding="iso-8859-1"?>
<!-- Generator: Adobe Illustrator 18.0.0, SVG Export Plug-In . SVG Version: 6.00 Build 0)  -->
<!DOCTYPE svg PUBLIC "-//W3C//DTD SVG 1.1//EN" "http://www.w3.org/Graphics/SVG/1.1/DTD/svg11.dtd">
<svg version="1.1" xmlns="http://www.w3.org/2000/svg" xmlns:xlink="http://www.w3.org/1999/xlink" x="0px" y="0px" width="64px"
	 height="64px" viewBox="0 0 64 64" style="enable-background:new 0 0 64 64;" xml:space="preserve">
<g id="add">
	<path style="fill:#0D060E;" d="M61.091,28.727H36V2.909C36,1.303,34.697,0,33.091,0c-1.607,0-2.909,1.303-2.909,2.909v25.818H2.909
		C1.303,28.727,0,30.03,0,31.636c0,1.607,1.303,2.909,2.909,2.909h27.273v26.545c0,1.607,1.303,2.909,2.909,2.909
		C34.697,64,36,62.697,36,61.091V34.545h25.091c1.607,0,2.909-1.303,2.909-2.909C64,30.03,62.697,28.727,61.091,28.727z"/>
</g>
<g id="Layer_1">
</g>
</svg>
