<?xml version="1.0" encoding="iso-8859-1"?>
<!-- Generator: Adobe Illustrator 19.2.1, SVG Export Plug-In . SVG Version: 6.00 Build 0)  -->
<svg version="1.1" id="Layer_1" xmlns="http://www.w3.org/2000/svg" xmlns:xlink="http://www.w3.org/1999/xlink" x="0px" y="0px"
	 viewBox="0 0 512 512" style="enable-background:new 0 0 512 512;" xml:space="preserve">
<path style="fill:#010101;" d="M400,32H208c-35.2,0-64,28.8-64,64v8v88v129.603c-5.17-1.05-10.52-1.603-16-1.603
	c-44.183,0-80,35.817-80,80c0,44.183,35.817,80,80,80s80-35.817,80-80c0-2.7-0.138-5.368-0.399-8H208V192h192v97.603
	c-5.17-1.05-10.52-1.603-16-1.603c-44.183,0-80,35.817-80,80c0,44.183,35.817,80,80,80s80-35.817,80-80c0-2.7-0.138-5.368-0.399-8
	H464V192v-64V96C464,60.8,435.2,32,400,32z"/>
</svg>
