<?xml version="1.0" encoding="iso-8859-1"?>
<!-- Generator: Adobe Illustrator 18.0.0, SVG Export Plug-In . SVG Version: 6.00 Build 0)  -->
<!DOCTYPE svg PUBLIC "-//W3C//DTD SVG 1.1//EN" "http://www.w3.org/Graphics/SVG/1.1/DTD/svg11.dtd">
<svg version="1.1" xmlns="http://www.w3.org/2000/svg" xmlns:xlink="http://www.w3.org/1999/xlink" x="0px" y="0px" width="64px"
	 height="64px" viewBox="0 0 64 64" style="enable-background:new 0 0 64 64;" xml:space="preserve">
<g id="camera">
	<g>
		<path style="fill:#0D060E;" d="M22.588,9.97c0-1.956-1.6-3.557-3.557-3.557H9.493c-1.956,0-3.557,1.6-3.557,3.557v2.83h16.652
			V9.97z"/>
		<path style="fill:#0D060E;" d="M56.829,15.41h-0.896h-0.896h-2.33V9.748c0-3.355-2.745-6.101-6.1-6.101H30.244
			c-3.355,0-6.101,2.745-6.101,6.101v5.662h-3.168H7.171C3.217,15.41,0,18.627,0,22.581v30.601c0,3.954,3.217,7.171,7.171,7.171
			h5.737H49.21h7.619c3.954,0,7.171-3.217,7.171-7.171V22.581C64,18.627,60.783,15.41,56.829,15.41z M11.294,30.235
			c-2.079,0-3.765-1.686-3.765-3.765s1.685-3.765,3.765-3.765s3.765,1.686,3.765,3.765S13.373,30.235,11.294,30.235z M39.529,56.588
			c-9.356,0-16.941-7.585-16.941-16.941s7.585-16.941,16.941-16.941s16.941,7.585,16.941,16.941S48.886,56.588,39.529,56.588z"/>
		<circle style="fill:#0D060E;" cx="39.529" cy="39.646" r="9.412"/>
	</g>
</g>
<g id="Layer_1">
</g>
</svg>
