<?xml version="1.0" encoding="iso-8859-1"?>
<!-- Generator: Adobe Illustrator 18.0.0, SVG Export Plug-In . SVG Version: 6.00 Build 0)  -->
<!DOCTYPE svg PUBLIC "-//W3C//DTD SVG 1.1//EN" "http://www.w3.org/Graphics/SVG/1.1/DTD/svg11.dtd">
<svg version="1.1" xmlns="http://www.w3.org/2000/svg" xmlns:xlink="http://www.w3.org/1999/xlink" x="0px" y="0px" width="64px"
	 height="64px" viewBox="0 0 64 64" style="enable-background:new 0 0 64 64;" xml:space="preserve">
<g id="code">
	<g>
		<g>
			<path style="fill:#0D060E;" d="M62.827,29.106c-0.11-0.11-0.254-0.153-0.373-0.247L46.747,13.151
				c-1.564-1.564-4.098-1.564-5.662,0c-1.564,1.563-1.564,4.099,0,5.662L54.271,32L41.084,45.186c-1.564,1.563-1.564,4.098,0,5.662
				c0.782,0.782,1.807,1.173,2.831,1.173c1.025,0,2.049-0.391,2.831-1.173l16.08-16.08C64.391,33.205,64.391,30.669,62.827,29.106z"
				/>
		</g>
		<g>
			<path style="fill:#0D060E;" d="M1.173,34.894c0.11,0.11,0.254,0.153,0.373,0.247l15.708,15.708c1.564,1.564,4.098,1.564,5.662,0
				c1.564-1.563,1.564-4.099,0-5.662L9.729,32l13.186-13.186c1.564-1.563,1.564-4.098,0-5.662c-0.782-0.782-1.807-1.173-2.831-1.173
				c-1.025,0-2.049,0.391-2.831,1.173l-16.08,16.08C-0.391,30.795-0.391,33.331,1.173,34.894z"/>
		</g>
	</g>
</g>
<g id="Layer_1">
</g>
</svg>
