<?xml version="1.0" encoding="iso-8859-1"?>
<!-- Generator: Adobe Illustrator 18.0.0, SVG Export Plug-In . SVG Version: 6.00 Build 0)  -->
<!DOCTYPE svg PUBLIC "-//W3C//DTD SVG 1.1//EN" "http://www.w3.org/Graphics/SVG/1.1/DTD/svg11.dtd">
<svg version="1.1" xmlns="http://www.w3.org/2000/svg" xmlns:xlink="http://www.w3.org/1999/xlink" x="0px" y="0px" width="64px"
	 height="64px" viewBox="0 0 64 64" style="enable-background:new 0 0 64 64;" xml:space="preserve">
<g id="h2">
	<g>
		<g>
			<path style="fill:#0D060E;" d="M8.308,54.756H0V9.244h8.308v17.16c0.996-1.215,2.266-2.085,3.806-2.609
				c1.54-0.522,3.039-0.785,4.497-0.785c1.956,0,3.654,0.325,5.092,0.975c1.433,0.65,2.622,1.519,3.557,2.609
				c0.935,1.09,1.631,2.389,2.094,3.898c0.457,1.507,0.686,3.1,0.686,4.775v19.488h-8.308v-18.04c0-1.76-0.447-3.228-1.341-4.402
				c-0.894-1.171-2.343-1.76-4.339-1.76c-1.748,0-3.12,0.578-4.121,1.729c-0.996,1.154-1.54,2.589-1.621,4.307V54.756z"/>
			<path style="fill:#0D060E;" d="M34.655,29.484c-0.081-0.292-0.158-0.711-0.218-1.256c-0.061-0.545-0.091-1.069-0.091-1.57
				c0-1.803,0.33-3.522,0.996-5.157s1.626-3.08,2.876-4.335c1.245-1.258,2.785-2.264,4.619-3.018
				c1.829-0.755,3.933-1.131,6.306-1.131c2.246,0,4.279,0.356,6.087,1.067c1.809,0.714,3.349,1.668,4.619,2.862
				c1.27,1.192,2.241,2.586,2.907,4.179s0.996,3.269,0.996,5.029c0,2.64-0.686,5.018-2.058,7.134
				c-1.377,2.118-3.308,3.952-5.808,5.502l-7.805,4.775c-0.793,0.504-1.489,1.049-2.094,1.634c-0.6,0.588-1.072,1.279-1.402,2.074
				H64v7.482H34.03c0-1.801,0.168-3.509,0.503-5.123c0.33-1.611,0.859-3.154,1.59-4.619c0.727-1.468,1.697-2.839,2.901-4.118
				c1.209-1.279,2.729-2.461,4.558-3.553l6.682-4.021c1.748-1.049,2.988-2.128,3.714-3.238c0.727-1.11,1.092-2.379,1.092-3.803
				c0-1.466-0.508-2.765-1.529-3.898c-1.021-1.131-2.551-1.696-4.588-1.696c-2.165,0-3.775,0.65-4.837,1.949
				s-1.596,2.913-1.596,4.839c0,0.755,0.107,1.509,0.315,2.264L34.655,29.484z"/>
		</g>
	</g>
</g>
<g id="Layer_1">
</g>
</svg>
