<?xml version="1.0" encoding="iso-8859-1"?>
<!-- Generator: Adobe Illustrator 18.0.0, SVG Export Plug-In . SVG Version: 6.00 Build 0)  -->
<!DOCTYPE svg PUBLIC "-//W3C//DTD SVG 1.1//EN" "http://www.w3.org/Graphics/SVG/1.1/DTD/svg11.dtd">
<svg version="1.1" xmlns="http://www.w3.org/2000/svg" xmlns:xlink="http://www.w3.org/1999/xlink" x="0px" y="0px" width="64px"
	 height="64px" viewBox="0 0 64 64" style="enable-background:new 0 0 64 64;" xml:space="preserve">
<g id="italic">
	<g>
		<polygon style="fill:#0D060E;" points="20.656,64 32.222,64 39.766,21.219 28.199,21.219 		"/>
		<path style="fill:#0D060E;" d="M41.303,2.088C39.937,0.697,38.242,0,36.215,0c-1.971,0-3.652,0.697-5.042,2.088
			c-1.394,1.39-2.087,3.103-2.087,5.13c0,1.914,0.693,3.563,2.087,4.957c1.391,1.391,3.071,2.088,5.042,2.088
			c2.027,0,3.722-0.697,5.088-2.088c1.358-1.394,2.042-3.043,2.042-4.957C43.344,5.191,42.661,3.478,41.303,2.088z"/>
	</g>
</g>
<g id="Layer_1">
</g>
</svg>
