<?xml version="1.0" encoding="iso-8859-1"?>
<!-- Generator: Adobe Illustrator 18.0.0, SVG Export Plug-In . SVG Version: 6.00 Build 0)  -->
<!DOCTYPE svg PUBLIC "-//W3C//DTD SVG 1.1//EN" "http://www.w3.org/Graphics/SVG/1.1/DTD/svg11.dtd">
<svg version="1.1" xmlns="http://www.w3.org/2000/svg" xmlns:xlink="http://www.w3.org/1999/xlink" x="0px" y="0px" width="64px"
	 height="64px" viewBox="0 0 64 64" style="enable-background:new 0 0 64 64;" xml:space="preserve">
<g id="link">
	<g>
		<path style="fill:#0D060E;" d="M60.358,3.642C58.01,1.295,54.888,0.002,51.568,0h-0.003c-3.319,0-6.438,1.293-8.785,3.64
			l-13.04,13.039c-1.253,1.252-1.253,3.284,0,4.537c1.253,1.253,3.283,1.253,4.537,0l13.04-13.039
			c1.136-1.135,2.644-1.76,4.248-1.76h0.002c1.607,0.001,3.117,0.627,4.255,1.763c2.345,2.345,2.347,6.16,0.003,8.504L39.939,32.568
			c-2.347,2.345-6.161,2.34-8.504-0.002c-1.253-1.253-3.283-1.253-4.537,0c-1.253,1.252-1.253,3.284,0,4.537
			c2.423,2.424,5.606,3.636,8.791,3.636c3.182,0,6.365-1.211,8.786-3.634l15.886-15.885C65.206,16.375,65.205,8.49,60.358,3.642z"/>
		<path style="fill:#0D060E;" d="M29.678,42.83L16.672,55.835c-1.128,1.128-2.629,1.748-4.226,1.748c-0.003,0-0.006,0-0.009,0
			c-1.604-0.002-3.116-0.63-4.253-1.767c-2.345-2.345-2.353-6.153-0.019-8.488l15.901-15.901c2.343-2.344,6.158-2.343,8.504,0.002
			c1.253,1.253,3.283,1.253,4.537,0c1.253-1.252,1.253-3.284,0-4.537c-4.844-4.845-12.731-4.849-17.578-0.002L3.627,42.792
			c-4.836,4.837-4.828,12.715,0.019,17.562c2.347,2.347,5.466,3.641,8.782,3.646c0.006,0,0.011,0,0.017,0
			c3.313,0,6.424-1.288,8.763-3.628l13.007-13.006c1.253-1.252,1.253-3.284,0-4.537C32.962,41.576,30.931,41.576,29.678,42.83z"/>
	</g>
</g>
<g id="Layer_1">
</g>
</svg>
