<?xml version="1.0" encoding="iso-8859-1"?>
<!-- Generator: Adobe Illustrator 18.0.0, SVG Export Plug-In . SVG Version: 6.00 Build 0)  -->
<!DOCTYPE svg PUBLIC "-//W3C//DTD SVG 1.1//EN" "http://www.w3.org/Graphics/SVG/1.1/DTD/svg11.dtd">
<svg version="1.1" xmlns="http://www.w3.org/2000/svg" xmlns:xlink="http://www.w3.org/1999/xlink" x="0px" y="0px" width="64px"
	 height="64px" viewBox="0 0 64 64" style="enable-background:new 0 0 64 64;" xml:space="preserve">
<g id="numbered-list">
	<g>
		<path style="fill:#0D060E;" d="M20.706,9.412h37.647c2.079,0,3.765-1.686,3.765-3.765c0-2.079-1.685-3.765-3.765-3.765H20.706
			c-2.079,0-3.765,1.685-3.765,3.765C16.941,7.726,18.627,9.412,20.706,9.412z"/>
		<path style="fill:#0D060E;" d="M58.353,28.235H20.706c-2.079,0-3.765,1.685-3.765,3.765c0,2.079,1.685,3.765,3.765,3.765h37.647
			c2.079,0,3.765-1.686,3.765-3.765C62.118,29.921,60.432,28.235,58.353,28.235z"/>
		<path style="fill:#0D060E;" d="M58.353,54.588H20.706c-2.079,0-3.765,1.685-3.765,3.765c0,2.079,1.685,3.765,3.765,3.765h37.647
			c2.079,0,3.765-1.686,3.765-3.765C62.118,56.274,60.432,54.588,58.353,54.588z"/>
		<path style="fill:#0D060E;" d="M8.279,9.438H6.833V0.837c0-0.302-0.05-0.517-0.151-0.645C6.581,0.064,6.411,0,6.173,0
			C6.096,0,5.998,0.012,5.879,0.035C5.76,0.058,5.608,0.093,5.424,0.139L3.212,0.732C2.902,0.808,2.673,0.915,2.525,1.054
			S2.302,1.365,2.302,1.569c0,0.279,0.067,0.494,0.201,0.645C2.636,2.364,2.825,2.44,3.069,2.44c0.047,0,0.122-0.009,0.223-0.026
			C3.393,2.397,3.521,2.37,3.675,2.335l0.999-0.253v7.355H3.015c-0.404,0-0.694,0.073-0.87,0.218
			C1.97,9.801,1.882,10.039,1.882,10.37c0,0.325,0.086,0.561,0.259,0.706c0.173,0.145,0.464,0.218,0.874,0.218h5.264
			c0.41,0,0.702-0.073,0.874-0.218c0.172-0.145,0.259-0.381,0.259-0.706c0-0.331-0.089-0.569-0.268-0.715
			C8.966,9.511,8.677,9.438,8.279,9.438z"/>
		<path style="fill:#0D060E;" d="M8.648,34.52c-0.299,0-0.524,0.067-0.677,0.2c-0.152,0.133-0.228,0.336-0.228,0.608v0.048H4.838
			l2.515-2.096c0.67-0.56,1.164-1.121,1.482-1.684c0.318-0.563,0.477-1.151,0.477-1.764c0-0.917-0.306-1.648-0.917-2.192
			c-0.612-0.544-1.44-0.816-2.486-0.816c-0.559,0-1.078,0.067-1.556,0.2c-0.479,0.133-0.934,0.339-1.366,0.616
			c-0.265,0.176-0.443,0.352-0.531,0.528c-0.088,0.176-0.133,0.443-0.133,0.8c0,0.347,0.071,0.608,0.212,0.784
			c0.141,0.176,0.35,0.264,0.627,0.264c0.321,0,0.614-0.208,0.88-0.624c0.094-0.155,0.174-0.269,0.241-0.344
			C4.403,28.898,4.576,28.782,4.8,28.7c0.224-0.083,0.48-0.124,0.768-0.124c0.492,0,0.859,0.117,1.1,0.352
			C6.909,29.162,7.029,29.52,7.029,30c0,0.341-0.09,0.683-0.27,1.024c-0.18,0.341-0.452,0.683-0.818,1.024l-3.379,3.144
			c-0.238,0.219-0.411,0.425-0.519,0.62c-0.108,0.195-0.162,0.393-0.162,0.596c0,0.245,0.087,0.435,0.262,0.568
			c0.174,0.133,0.422,0.2,0.743,0.2h5.969c0.177,0,0.3-0.032,0.37-0.096c0.069-0.064,0.109-0.219,0.12-0.464l0.066-1.24v-0.104
			c0-0.24-0.066-0.425-0.199-0.556C9.08,34.586,8.892,34.52,8.648,34.52z"/>
		<path style="fill:#0D060E;" d="M7.463,57.873c0.578-0.261,1.003-0.582,1.275-0.965c0.272-0.382,0.408-0.851,0.408-1.406
			c0-0.844-0.296-1.521-0.889-2.031c-0.592-0.51-1.387-0.765-2.383-0.765c-0.99,0-1.823,0.173-2.498,0.518
			c-0.675,0.346-1.013,0.759-1.013,1.241c0,0.221,0.067,0.404,0.202,0.548c0.134,0.144,0.313,0.217,0.537,0.217
			c0.2,0,0.564-0.132,1.09-0.395c0.527-0.263,1.002-0.395,1.425-0.395c0.4,0,0.711,0.112,0.931,0.336
			c0.22,0.224,0.33,0.537,0.33,0.939c0,0.465-0.091,0.8-0.275,1.007c-0.183,0.207-0.584,0.353-1.202,0.438
			c-0.034,0.006-0.086,0.011-0.154,0.017c-0.492,0.068-0.738,0.329-0.738,0.782c0,0.329,0.061,0.557,0.185,0.684
			c0.123,0.127,0.365,0.197,0.726,0.208c0.687,0.028,1.152,0.164,1.395,0.408c0.243,0.244,0.365,0.651,0.365,1.224
			c0,0.533-0.145,0.942-0.433,1.228c-0.289,0.286-0.703,0.429-1.241,0.429c-0.446,0-0.962-0.128-1.545-0.383
			c-0.584-0.255-0.947-0.382-1.09-0.382c-0.298,0-0.537,0.086-0.717,0.259c-0.18,0.173-0.271,0.398-0.271,0.676
			c0,0.47,0.329,0.87,0.987,1.198C3.528,63.836,4.361,64,5.368,64c1.248,0,2.234-0.31,2.958-0.931c0.724-0.62,1.086-1.46,1.086-2.52
			c0-0.702-0.16-1.273-0.481-1.712C8.611,58.398,8.121,58.077,7.463,57.873z"/>
	</g>
</g>
<g id="Layer_1">
</g>
</svg>
