<?xml version="1.0" encoding="iso-8859-1"?>
<!-- Generator: Adobe Illustrator 18.0.0, SVG Export Plug-In . SVG Version: 6.00 Build 0)  -->
<!DOCTYPE svg PUBLIC "-//W3C//DTD SVG 1.1//EN" "http://www.w3.org/Graphics/SVG/1.1/DTD/svg11.dtd">
<svg version="1.1" xmlns="http://www.w3.org/2000/svg" xmlns:xlink="http://www.w3.org/1999/xlink" x="0px" y="0px" width="64px"
	 height="64px" viewBox="0 0 64 64" style="enable-background:new 0 0 64 64;" xml:space="preserve">
<g id="tablr">
	<path style="fill:#0D060E;" d="M56.889,0H7.111C3.189,0,0,3.19,0,7.111v49.778C0,60.81,3.189,64,7.111,64h49.778
		C60.811,64,64,60.81,64,56.889V7.111C64,3.19,60.811,0,56.889,0z M26.667,37.333V24.889h10.667v12.444H26.667z M37.333,44.444
		v12.444H26.667V44.444H37.333z M7.111,24.889h12.444v12.444H7.111V24.889z M26.667,17.778V7.111h10.667v10.667H26.667z
		 M44.444,24.889h12.446l0.001,12.444H44.444V24.889z M56.89,17.778H44.444V7.111h12.444L56.89,17.778z M19.556,7.111v10.667H7.111
		V7.111H19.556z M7.111,44.444h12.444v12.444H7.111V44.444z M44.444,56.889V44.444h12.448l0.001,12.444H44.444z"/>
</g>
<g id="Layer_1">
</g>
</svg>
