<?xml version="1.0" encoding="utf-8"?>
<!-- Generator: Adobe Illustrator 19.2.1, SVG Export Plug-In . SVG Version: 6.00 Build 0)  -->
<svg version="1.1" id="undo" xmlns="http://www.w3.org/2000/svg" xmlns:xlink="http://www.w3.org/1999/xlink" width="512" height="512" x="0px" y="0px"
	 viewBox="0 0 512 512" style="enable-background:new 0 0 512 512;" xml:space="preserve">
<path class="lexicon-icon-outline" d="M73.4,137.4l96-96c12.5-12.5,32.8-12.5,45.3,0s12.5,32.8,0,45.3l-41.2,41.2H288c88.2,0,160,71.8,160,160s-71.8,160-160,160
	c-17.7,0-32-14.3-32-32s14.3-32,32-32c52.9,0,96-43.1,96-96s-43.1-96-96-96H173l41.4,41.4c12.5,12.5,12.5,32.8,0,45.3
	c-6.2,6.2-14.4,9.4-22.6,9.4c-8.2,0-16.4-3.1-22.6-9.4l-95.8-96C60.9,170.1,60.9,149.9,73.4,137.4z"/>
</svg>