<?xml version="1.0" encoding="iso-8859-1"?>
<!-- Generator: Adobe Illustrator 18.0.0, SVG Export Plug-In . SVG Version: 6.00 Build 0)  -->
<!DOCTYPE svg PUBLIC "-//W3C//DTD SVG 1.1//EN" "http://www.w3.org/Graphics/SVG/1.1/DTD/svg11.dtd">
<svg version="1.1" xmlns="http://www.w3.org/2000/svg" xmlns:xlink="http://www.w3.org/1999/xlink" x="0px" y="0px" width="64px"
	 height="64px" viewBox="0 0 64 64" style="enable-background:new 0 0 64 64;" xml:space="preserve">
<g id="unlink">
	<g>
		<path style="fill:#0D060E;" d="M60.361,3.642C58.014,1.294,54.892,0.001,51.573,0c-0.002,0-0.003,0-0.003,0
			c-3.32,0-6.44,1.292-8.787,3.639L28.26,18.162c-1.253,1.252-1.253,3.284,0,4.537c1.253,1.253,3.283,1.253,4.537,0L47.32,8.176
			c1.136-1.135,2.644-1.759,4.25-1.759h0.002c1.606,0,3.116,0.626,4.253,1.762c2.345,2.345,2.347,6.16,0.003,8.505L41.304,31.207
			c-1.253,1.252-1.253,3.284,0,4.537c0.627,0.627,1.448,0.94,2.268,0.94s1.642-0.313,2.268-0.94L60.364,21.22
			C65.209,16.374,65.208,8.489,60.361,3.642z"/>
		<path style="fill:#0D060E;" d="M31.095,41.416l-14.42,14.42c-1.128,1.128-2.629,1.748-4.228,1.748c-0.002,0-0.005,0-0.008,0
			c-1.606-0.002-3.116-0.63-4.253-1.768c-1.137-1.136-1.765-2.647-1.767-4.252c-0.003-1.602,0.619-3.105,1.748-4.236l14.42-14.42
			c1.253-1.253,1.253-3.284,0-4.537c-1.253-1.253-3.283-1.253-4.537,0l-14.42,14.42c-2.345,2.344-3.633,5.463-3.628,8.782
			c0.005,3.316,1.3,6.434,3.647,8.78c2.347,2.347,5.464,3.642,8.78,3.647c0.006,0,0.013,0,0.019,0c3.312,0,6.423-1.288,8.763-3.628
			l14.42-14.42c1.253-1.253,1.253-3.284,0-4.537C34.379,40.162,32.349,40.162,31.095,41.416z"/>
	</g>
</g>
<g id="Layer_1">
</g>
</svg>
